<svg xmlns="http://www.w3.org/2000/svg" viewBox="406.0 176.9 494.0 258.0" role="img" aria-label="Wereldkaart met een land ingekleurd">
  <rect width="900" height="470" fill="#ffffff"/>
  <g>
      <path d="M900.0,277.0 L900.0,278.2 L898.4,278.9 L896.8,279.4 L896.5,278.4 L897.7,277.9 L898.5,277.8 L900.0,277.0 Z M895.3,280.7 L895.9,280.3 L896.8,281.0 L896.4,282.4 L894.8,282.8 L893.5,282.4 L893.2,281.3 L894.2,280.4 L895.3,280.7 Z M0.5,276.8 L0.2,278.1 L0.0,278.2 L0.0,277.0 L0.5,276.8 Z" fill="#e7ece6" stroke="#9ca89f" stroke-width="0.6" fill-rule="evenodd" vector-effect="non-scaling-stroke"/>
      <path d="M534.8,237.5 L535.2,237.8 L544.2,243.1 L544.4,244.6 L548.0,247.2 L546.9,250.4 L547.0,251.9 L548.6,252.9 L548.7,253.5 L548.0,255.1 L548.1,255.9 L548.0,257.2 L548.8,258.8 L549.9,261.4 L550.8,261.9 L550.8,261.9 L548.8,263.5 L546.1,264.5 L544.6,264.4 L543.7,265.2 L541.9,265.3 L541.3,265.6 L538.3,264.9 L536.4,265.1 L535.7,261.5 L534.9,260.3 L534.3,259.6 L531.9,259.1 L530.5,258.3 L528.9,257.9 L527.9,257.4 L526.9,256.8 L526.9,256.8 L525.5,253.5 L524.1,252.0 L523.5,250.5 L523.8,249.2 L523.3,246.7 L524.4,246.6 L525.3,245.7 L526.3,244.3 L526.9,243.8 L526.9,242.9 L526.3,242.3 L526.2,241.3 L526.2,241.3 L526.9,241.0 L527.0,239.4 L526.0,238.0 L526.9,237.6 L529.7,237.7 L534.8,237.5 Z" fill="#e7ece6" stroke="#9ca89f" stroke-width="0.6" fill-rule="evenodd" vector-effect="non-scaling-stroke"/>
      <path d="M428.3,162.8 L428.3,163.0 L428.3,163.5 L428.3,167.4 L420.1,167.3 L420.2,174.0 L417.8,174.2 L417.2,175.5 L417.7,179.3 L407.9,179.3 L407.3,180.2 L407.4,179.1 L407.5,179.1 L413.1,178.9 L413.4,177.9 L414.4,176.7 L415.3,173.1 L418.7,170.3 L419.9,167.0 L420.7,166.8 L421.5,164.8 L423.6,164.5 L424.5,164.9 L425.7,164.9 L426.5,164.3 L428.0,164.2 L428.0,162.8 L428.3,162.8 Z" fill="#e7ece6" stroke="#9ca89f" stroke-width="0.6" fill-rule="evenodd" vector-effect="non-scaling-stroke"/>
      <path d="M802.5,241.8 L806.8,243.6 L811.5,245.1 L813.2,246.4 L814.6,247.7 L815.0,249.3 L819.1,250.9 L819.7,252.3 L817.4,252.6 L818.0,254.3 L820.2,256.0 L821.8,258.8 L823.3,258.7 L823.2,259.8 L825.1,260.3 L824.3,260.8 L827.0,261.9 L826.7,262.6 L825.1,262.8 L824.5,262.1 L822.3,261.8 L819.8,261.5 L817.8,259.8 L816.4,258.4 L815.1,256.1 L811.9,254.9 L809.7,255.7 L808.2,256.5 L808.5,258.5 L806.6,259.4 L805.2,258.9 L802.6,258.8 L802.5,250.3 L802.5,241.8 Z M831.6,244.6 L832.5,245.4 L832.9,246.7 L832.1,247.4 L831.6,245.9 L831.0,244.9 L829.9,244.0 L828.5,242.9 L826.7,242.2 L827.3,241.5 L828.7,242.3 L829.6,242.8 L830.6,243.5 L831.6,244.6 Z M828.3,250.3 L826.9,250.9 L825.6,251.5 L824.3,251.5 L822.2,250.7 L820.8,250.0 L821.0,249.2 L823.2,249.6 L824.6,249.4 L825.0,248.1 L825.3,248.1 L825.6,249.4 L827.0,249.2 L827.7,248.4 L829.1,247.4 L828.8,245.9 L830.3,245.8 L830.8,246.3 L830.8,247.7 L830.0,249.3 L828.6,249.5 L828.3,250.3 Z M836.9,248.9 L837.7,249.5 L838.9,251.2 L840.0,252.1 L839.7,252.8 L839.0,253.1 L837.9,252.1 L836.8,250.4 L836.3,248.4 L836.6,248.2 L836.9,248.9 Z" fill="#e7ece6" stroke="#9ca89f" stroke-width="0.6" fill-rule="evenodd" vector-effect="non-scaling-stroke"/>
      <path d="M802.5,241.8 L802.5,250.3 L802.6,258.8 L800.4,256.7 L797.8,256.1 L797.2,256.9 L794.0,257.0 L795.1,254.8 L796.7,254.1 L796.0,251.3 L794.8,249.1 L790.0,246.9 L787.9,246.7 L784.2,244.2 L783.4,245.5 L782.5,245.7 L781.9,244.8 L781.9,243.6 L780.0,242.4 L782.7,241.4 L784.5,241.5 L784.2,240.8 L780.6,240.8 L779.6,239.2 L777.4,238.7 L776.3,237.4 L779.7,236.8 L781.0,236.0 L785.0,237.0 L785.4,238.0 L786.1,242.2 L788.6,243.8 L790.7,241.0 L793.6,239.4 L795.8,239.4 L798.0,240.4 L799.8,241.3 L802.5,241.8 Z M762.4,258.2 L762.7,258.7 L762.7,259.5 L761.1,261.5 L758.9,262.1 L758.6,261.7 L758.9,260.9 L760.0,259.3 L762.4,258.2 Z M785.5,253.0 L785.3,251.0 L785.7,250.1 L786.2,249.2 L786.8,250.0 L786.8,251.2 L785.5,253.0 Z M744.7,224.2 L743.3,226.6 L745.1,229.0 L744.7,230.2 L747.5,232.6 L744.5,233.0 L743.7,234.7 L743.8,237.1 L741.4,238.9 L741.3,241.5 L740.4,245.5 L740.0,244.5 L737.2,245.7 L736.2,244.1 L734.4,244.0 L733.1,243.1 L730.2,244.1 L729.3,242.8 L727.6,243.0 L725.6,242.7 L725.2,239.2 L723.9,238.4 L722.7,236.2 L722.4,233.9 L722.7,231.5 L724.2,229.8 L724.6,231.5 L726.3,233.0 L727.9,232.5 L729.5,232.6 L731.0,231.3 L732.1,231.1 L734.5,231.8 L736.6,231.3 L737.8,227.6 L738.8,226.7 L739.7,223.8 L742.5,223.8 L744.7,224.2 Z M773.4,242.3 L776.2,243.1 L777.1,245.1 L775.0,244.0 L772.9,243.8 L771.5,244.0 L769.7,243.9 L770.3,242.4 L773.4,242.3 Z M767.2,244.9 L765.5,244.4 L765.0,243.3 L767.5,243.2 L768.1,244.0 L767.2,244.9 Z M769.8,229.3 L770.0,230.7 L771.5,231.0 L771.7,232.0 L771.6,234.3 L770.3,234.1 L769.9,235.7 L770.9,237.0 L770.3,237.3 L769.2,235.7 L768.5,232.4 L769.0,230.3 L769.8,229.3 Z M757.3,232.7 L760.2,232.6 L762.7,230.7 L763.1,231.3 L761.1,233.9 L759.2,234.4 L756.8,233.9 L752.6,234.0 L750.5,234.4 L750.1,236.4 L752.3,238.7 L753.7,237.5 L758.4,236.6 L758.1,237.8 L757.1,237.4 L756.0,239.0 L753.8,240.0 L756.1,243.3 L755.7,244.2 L757.9,247.2 L757.9,248.9 L756.6,249.7 L755.6,248.8 L756.8,246.7 L754.3,247.7 L753.7,246.9 L754.0,245.9 L752.2,244.4 L752.4,241.9 L750.8,242.7 L751.0,245.7 L751.1,249.4 L749.5,249.8 L748.4,249.0 L749.1,246.6 L748.7,244.1 L747.7,244.1 L746.9,242.3 L748.0,240.6 L748.3,238.5 L749.6,234.6 L750.1,233.5 L752.2,231.6 L754.2,232.4 L757.3,232.7 Z M750.7,261.8 L747.4,260.0 L749.8,259.4 L751.1,260.2 L751.9,261.0 L751.8,261.7 L750.7,261.8 Z M753.4,257.3 L755.0,257.1 L757.3,256.1 L756.9,257.6 L753.1,258.3 L749.8,258.0 L749.8,257.1 L751.8,256.5 L753.4,257.3 Z M745.7,256.8 L747.2,256.6 L747.8,257.7 L744.9,258.3 L743.2,258.6 L741.9,258.6 L742.7,257.1 L744.1,257.1 L744.8,256.1 L745.7,256.8 Z M721.2,251.8 L721.6,252.7 L726.3,253.0 L726.9,251.9 L731.5,253.1 L732.4,254.8 L736.2,255.3 L739.3,256.9 L736.4,257.9 L733.7,256.8 L731.4,256.9 L728.8,256.7 L726.5,256.2 L723.6,255.2 L721.7,255.0 L720.7,255.3 L716.1,254.2 L715.7,253.1 L713.4,252.9 L715.1,250.4 L718.2,250.5 L720.2,251.6 L721.2,251.8 Z M710.9,237.8 L711.3,239.7 L712.2,241.1 L714.1,241.3 L715.3,243.0 L714.6,246.2 L714.5,250.3 L711.8,250.3 L709.7,248.2 L706.5,246.0 L705.4,244.4 L703.5,242.3 L702.3,240.4 L700.4,236.7 L698.2,234.5 L697.4,232.3 L696.5,230.2 L694.2,228.6 L692.9,226.4 L691.1,224.9 L688.5,222.0 L688.2,220.7 L689.8,220.8 L693.7,221.3 L695.9,223.9 L697.9,225.6 L699.2,226.7 L701.6,229.5 L704.1,229.6 L706.2,231.3 L707.7,233.5 L709.6,234.7 L708.6,236.9 L710.0,237.8 L710.9,237.8 Z" fill="#e7ece6" stroke="#9ca89f" stroke-width="0.6" fill-rule="evenodd" vector-effect="non-scaling-stroke"/>
      <path d="M523.3,246.7 L523.8,249.2 L523.5,250.5 L524.1,252.0 L525.5,253.5 L526.9,256.8 L526.9,256.8 L525.9,256.5 L522.5,257.0 L521.8,257.3 L521.1,258.9 L521.7,260.1 L521.2,263.2 L520.9,265.8 L521.6,266.3 L523.4,267.3 L524.0,266.8 L524.2,269.6 L522.3,269.6 L521.3,268.2 L520.4,267.0 L518.5,266.7 L517.9,265.3 L516.4,266.1 L514.4,265.8 L513.5,264.6 L512.0,264.3 L510.8,264.4 L510.6,263.6 L509.8,263.5 L508.6,263.4 L507.1,263.8 L506.0,263.7 L505.4,263.9 L505.5,260.8 L504.7,259.9 L504.5,258.3 L504.9,256.7 L504.4,255.7 L504.3,254.0 L501.3,254.1 L501.5,253.1 L500.2,253.1 L500.1,253.6 L498.5,253.7 L497.9,255.2 L497.5,255.9 L496.2,255.5 L495.3,255.9 L493.7,256.1 L492.7,254.7 L492.2,253.9 L491.4,252.3 L490.8,250.3 L483.4,250.3 L482.6,250.6 L481.8,250.6 L480.8,250.9 L480.5,250.1 L481.1,249.8 L481.2,248.7 L481.6,248.0 L482.5,247.5 L483.1,247.7 L484.0,246.8 L485.4,246.8 L485.5,247.5 L486.5,248.0 L487.9,246.3 L489.4,245.1 L490.0,244.2 L489.9,242.1 L491.0,239.5 L492.2,238.2 L493.8,236.9 L494.1,236.1 L494.2,235.2 L494.6,234.2 L494.4,232.8 L494.7,230.5 L495.2,228.8 L496.0,227.4 L496.1,225.8 L496.4,224.0 L497.3,222.7 L498.7,221.9 L500.7,222.7 L502.3,223.7 L504.1,224.0 L506.0,224.5 L506.8,222.9 L507.1,222.7 L508.2,223.0 L511.0,221.7 L512.0,222.2 L512.8,222.1 L513.2,221.5 L514.1,221.3 L516.0,221.6 L517.6,221.6 L518.4,221.3 L519.9,223.5 L521.1,223.8 L521.7,223.4 L522.9,223.5 L524.3,223.0 L524.9,224.1 L527.1,225.8 L527.1,225.8 L526.9,228.9 L527.9,229.2 L527.1,230.2 L526.2,230.9 L525.2,232.2 L524.7,233.4 L524.5,235.5 L524.0,236.5 L523.9,238.5 L523.2,239.2 L523.1,240.8 L522.8,241.0 L522.6,242.4 L523.2,243.6 L523.3,246.7 Z" fill="#e7ece6" stroke="#9ca89f" stroke-width="0.6" fill-rule="evenodd" vector-effect="non-scaling-stroke"/>
      <path d="M554.0,239.4 L552.5,237.2 L552.5,227.7 L554.6,224.8 L555.3,223.9 L556.9,223.9 L559.2,222.1 L562.4,221.9 L569.5,214.1 L571.2,211.9 L572.3,210.3 L572.3,209.0 L572.3,206.3 L572.4,205.2 L572.4,205.2 L572.4,205.2 L573.2,205.2 L574.3,204.8 L575.6,204.5 L576.8,203.6 L577.8,203.6 L577.8,204.3 L577.6,205.8 L577.6,207.2 L577.1,208.2 L576.4,211.0 L575.2,213.9 L573.6,217.2 L571.5,221.1 L569.4,224.0 L566.4,227.5 L563.9,229.7 L560.2,232.3 L557.8,234.2 L555.1,237.4 L554.5,238.8 L554.0,239.4 Z" fill="#e7ece6" stroke="#9ca89f" stroke-width="0.6" fill-rule="evenodd" vector-effect="non-scaling-stroke"/>
      <path d="M548.0,247.2 L544.4,244.6 L544.2,243.1 L535.2,237.8 L534.8,237.5 L534.7,234.7 L535.5,233.7 L536.7,231.9 L537.6,230.0 L536.5,227.0 L536.2,225.7 L535.0,223.9 L536.6,222.3 L538.2,220.6 L539.5,221.1 L539.5,222.5 L540.4,223.4 L542.1,223.4 L545.3,225.6 L546.1,225.6 L546.7,225.6 L547.2,225.9 L548.9,226.1 L549.6,225.0 L551.9,223.9 L552.9,224.8 L554.6,224.8 L552.5,227.7 L552.5,237.2 L554.0,239.4 L552.2,240.4 L551.6,241.5 L550.7,241.7 L550.3,243.6 L549.5,244.6 L549.0,246.3 L548.0,247.2 Z" fill="#e7ece6" stroke="#9ca89f" stroke-width="0.6" fill-rule="evenodd" vector-effect="non-scaling-stroke"/>
      <path d="M511.4,213.5 L509.5,212.4 L508.6,211.6 L508.5,210.8 L508.9,209.7 L508.9,208.7 L507.4,207.0 L507.2,205.9 L507.2,205.3 L506.3,204.5 L506.2,203.0 L505.7,202.0 L504.8,202.1 L505.1,201.2 L505.7,200.1 L505.5,199.0 L506.3,198.2 L505.8,197.6 L506.4,196.0 L507.6,194.1 L509.7,194.2 L509.6,183.9 L509.6,182.8 L512.5,182.8 L512.5,177.6 L522.6,177.6 L532.2,177.6 L542.2,177.6 L543.0,180.1 L542.4,180.6 L542.8,183.3 L543.7,186.4 L544.7,187.0 L546.0,188.0 L544.8,189.5 L542.9,189.9 L542.1,190.7 L541.9,192.5 L540.8,196.3 L541.1,197.3 L540.7,199.6 L539.7,202.2 L538.2,203.5 L537.1,205.4 L536.8,206.5 L535.6,207.2 L534.9,210.0 L534.9,212.3 L534.9,210.3 L534.6,210.2 L534.6,208.9 L534.3,208.0 L533.0,207.0 L532.7,205.1 L533.0,203.2 L531.9,203.0 L531.7,203.6 L530.2,203.7 L530.8,204.5 L531.0,206.1 L529.6,207.5 L528.4,209.4 L527.1,209.7 L525.0,208.1 L524.0,208.7 L523.8,209.4 L522.5,209.9 L522.4,210.5 L519.9,210.5 L519.6,209.9 L517.8,209.8 L516.9,210.3 L516.2,210.1 L514.9,208.5 L514.5,207.8 L512.7,208.2 L512.0,209.4 L511.3,211.7 L510.5,212.2 L509.7,212.5 L511.4,213.5 Z" fill="#e7ece6" stroke="#9ca89f" stroke-width="0.6" fill-rule="evenodd" vector-effect="non-scaling-stroke"/>
      <path d="M509.6,183.9 L509.7,194.2 L507.6,194.1 L506.4,196.0 L505.8,197.6 L506.3,198.2 L505.5,199.0 L505.7,200.1 L505.1,201.2 L504.8,202.1 L505.7,202.0 L506.2,203.0 L506.3,204.5 L507.2,205.3 L507.2,205.9 L505.6,206.4 L504.3,207.4 L502.5,210.3 L500.1,211.5 L497.7,211.3 L497.0,211.5 L497.3,212.5 L496.0,213.4 L494.9,214.4 L491.8,215.4 L491.1,214.8 L490.7,214.8 L490.3,215.4 L488.2,215.6 L488.6,214.9 L487.8,213.1 L487.4,212.0 L486.4,211.6 L484.9,210.1 L485.4,208.8 L486.6,209.1 L487.3,208.9 L488.7,208.9 L487.3,206.6 L487.4,204.8 L487.2,203.1 L486.2,201.4 L486.5,200.2 L484.9,200.1 L484.9,198.5 L483.9,197.5 L484.9,194.0 L488.1,191.6 L488.3,188.2 L489.2,182.9 L489.8,181.8 L488.7,180.9 L488.7,180.0 L487.7,179.4 L487.1,175.3 L489.7,173.9 L499.6,178.9 L509.6,183.9 Z" fill="#e7ece6" stroke="#9ca89f" stroke-width="0.6" fill-rule="evenodd" vector-effect="non-scaling-stroke"/>
      <path d="M622.3,362.0 L624.0,362.8 L626.3,363.1 L626.4,363.6 L625.7,364.8 L621.9,365.0 L621.8,363.6 L622.2,362.5 L622.3,362.0 Z" fill="#e7ece6" stroke="#9ca89f" stroke-width="0.6" fill-rule="evenodd" vector-effect="non-scaling-stroke"/>
      <path d="M762.4,258.2 L762.7,257.6 L764.9,257.0 L766.6,256.9 L767.4,256.6 L768.3,256.9 L767.4,257.6 L764.8,258.8 L762.7,259.5 L762.7,258.7 L762.4,258.2 Z" fill="#e7ece6" stroke="#9ca89f" stroke-width="0.6" fill-rule="evenodd" vector-effect="non-scaling-stroke"/>
      <path d="M490.9,309.6 L492.1,308.3 L493.0,309.0 L493.5,310.2 L494.6,310.3 L496.2,310.8 L497.5,310.7 L499.7,309.3 L499.7,299.7 L500.4,300.1 L501.9,302.5 L501.7,304.1 L502.2,305.1 L504.0,304.8 L505.3,303.6 L506.4,302.8 L507.1,301.6 L508.3,301.0 L509.3,301.3 L510.5,302.0 L512.6,302.2 L514.2,301.5 L514.4,300.7 L514.9,299.5 L516.2,299.3 L517.0,298.3 L517.8,296.6 L520.0,294.6 L523.6,292.7 L524.6,292.7 L525.8,293.2 L526.6,292.8 L528.0,293.1 L529.2,296.8 L529.8,298.6 L529.4,301.5 L529.6,302.5 L528.3,302.0 L527.6,302.2 L527.4,302.9 L526.7,303.9 L526.7,304.8 L528.2,306.2 L529.7,306.0 L530.2,304.8 L532.1,304.8 L531.5,306.7 L531.2,308.9 L530.5,310.1 L528.8,311.4 L528.3,311.8 L527.3,313.1 L526.6,314.4 L525.1,316.3 L522.3,319.0 L520.5,320.6 L518.7,321.8 L516.0,322.8 L514.8,322.9 L514.5,323.6 L512.9,323.2 L511.7,323.7 L509.0,323.2 L507.5,323.6 L506.4,323.4 L503.9,324.5 L501.7,324.9 L500.2,325.9 L499.0,325.9 L498.0,325.0 L497.1,324.9 L496.1,323.8 L495.9,324.1 L495.6,323.4 L495.6,321.9 L494.8,320.2 L495.6,319.7 L495.6,317.7 L493.9,315.2 L492.7,313.0 L492.7,313.0 L490.9,309.6 Z M522.4,310.6 L521.4,309.8 L520.2,310.3 L518.8,311.4 L517.5,313.0 L519.4,315.0 L520.3,314.8 L520.7,313.9 L522.1,313.5 L522.5,312.7 L523.3,311.4 L522.4,310.6 Z" fill="#e7ece6" stroke="#9ca89f" stroke-width="0.6" fill-rule="evenodd" vector-effect="non-scaling-stroke"/>
      <path d="M522.4,310.6 L523.3,311.4 L522.5,312.7 L522.1,313.5 L520.7,313.9 L520.3,314.8 L519.4,315.0 L517.5,313.0 L518.8,311.4 L520.2,310.3 L521.4,309.8 L522.4,310.6 Z" fill="#e7ece6" stroke="#9ca89f" stroke-width="0.6" fill-rule="evenodd" vector-effect="non-scaling-stroke"/>
      <path d="M320.9,224.1 L319.4,226.5 L318.6,228.5 L317.7,229.5 L316.5,229.6 L316.1,228.9 L315.6,228.8 L314.8,229.5 L313.7,229.0 L314.3,227.9 L314.5,226.7 L315.0,225.5 L314.0,224.0 L313.8,222.2 L315.1,220.0 L316.0,220.3 L317.8,220.9 L320.4,223.1 L320.9,224.1 Z M465.5,105.8 L466.6,106.5 L470.2,107.0 L469.0,108.8 L468.7,110.7 L468.0,111.1 L466.8,110.9 L466.9,111.5 L465.1,113.0 L465.1,114.2 L466.3,113.8 L467.1,114.9 L467.0,115.6 L467.7,116.6 L466.9,117.4 L467.5,119.4 L468.9,119.8 L468.6,120.9 L466.3,122.4 L461.4,121.7 L457.8,122.5 L457.5,124.1 L454.6,124.4 L451.8,123.3 L450.8,123.8 L446.2,122.6 L445.2,121.6 L446.5,120.1 L447.0,114.8 L444.4,112.1 L442.6,110.8 L438.8,109.8 L438.5,107.9 L441.8,107.3 L446.0,108.0 L445.2,105.0 L447.5,106.1 L453.3,104.1 L454.1,102.0 L456.3,101.4 L456.6,102.4 L457.8,102.4 L459.0,103.5 L460.7,104.7 L462.0,104.5 L464.2,105.7 L464.7,105.9 L465.5,105.8 Z M471.9,123.7 L473.5,122.7 L473.9,124.9 L473.1,127.0 L471.9,126.4 L471.4,124.7 L471.9,123.7 Z" fill="#e7ece6" stroke="#9ca89f" stroke-width="0.6" fill-rule="evenodd" vector-effect="non-scaling-stroke"/>
      <path d="M528.0,293.1 L526.6,292.8 L525.8,293.2 L524.6,292.7 L523.6,292.7 L522.0,291.5 L520.1,291.1 L519.3,289.4 L519.3,288.5 L518.2,288.2 L515.4,285.4 L514.6,283.9 L514.1,283.4 L513.2,281.3 L516.0,281.6 L516.8,281.9 L517.6,281.8 L519.0,280.1 L521.2,278.0 L522.1,277.8 L522.4,276.9 L523.8,275.8 L525.7,275.5 L525.8,276.5 L527.9,276.4 L529.1,277.0 L529.6,277.6 L530.8,277.8 L532.1,278.6 L532.1,281.9 L531.6,283.8 L531.5,285.7 L531.9,286.5 L531.6,288.0 L531.3,288.3 L530.6,290.1 L528.0,293.1 Z" fill="#e7ece6" stroke="#9ca89f" stroke-width="0.6" fill-rule="evenodd" vector-effect="non-scaling-stroke"/>
      <path d="M523.6,292.7 L520.0,294.6 L517.8,296.6 L517.0,298.3 L516.2,299.3 L514.9,299.5 L514.4,300.7 L514.2,301.5 L512.6,302.2 L510.5,302.0 L509.3,301.3 L508.3,301.0 L507.1,301.6 L506.4,302.8 L505.3,303.6 L504.0,304.8 L502.2,305.1 L501.7,304.1 L501.9,302.5 L500.4,300.1 L499.7,299.7 L499.7,292.1 L502.2,292.0 L502.3,282.7 L504.1,282.6 L508.0,281.7 L508.9,282.7 L510.5,281.7 L511.3,281.7 L512.7,281.1 L513.2,281.3 L514.1,283.4 L514.6,283.9 L515.4,285.4 L518.2,288.2 L519.3,288.5 L519.3,289.4 L520.1,291.1 L522.0,291.5 L523.6,292.7 Z" fill="#e7ece6" stroke="#9ca89f" stroke-width="0.6" fill-rule="evenodd" vector-effect="non-scaling-stroke"/>
      <path d="M499.7,299.7 L499.7,309.3 L497.5,310.7 L496.2,310.8 L494.6,310.3 L493.5,310.2 L493.0,309.0 L492.1,308.3 L490.9,309.6 L489.0,307.6 L488.0,305.7 L487.5,303.2 L486.9,301.3 L486.0,297.3 L486.0,294.2 L485.6,292.7 L484.7,291.7 L483.4,289.5 L482.1,286.4 L481.5,284.7 L479.5,282.2 L479.3,280.2 L480.5,279.7 L482.0,279.2 L483.7,279.3 L485.1,280.5 L485.5,280.3 L495.7,280.2 L497.4,281.4 L503.4,281.8 L508.0,280.8 L510.1,280.2 L511.7,280.3 L512.7,280.9 L512.7,281.1 L511.3,281.7 L510.5,281.7 L508.9,282.7 L508.0,281.7 L504.1,282.6 L502.3,282.7 L502.2,292.0 L499.7,292.1 L499.7,299.7 Z" fill="#e7ece6" stroke="#9ca89f" stroke-width="0.6" fill-rule="evenodd" vector-effect="non-scaling-stroke"/>
      <path d="M408.2,199.5 L407.2,197.5 L405.9,196.5 L407.0,196.0 L408.2,194.2 L408.8,192.9 L409.7,192.0 L410.9,192.3 L412.2,191.7 L413.6,191.7 L414.8,192.4 L416.4,193.1 L417.9,195.0 L419.6,196.8 L419.7,198.5 L420.2,200.0 L421.1,200.7 L421.3,201.7 L421.2,202.5 L420.9,202.7 L419.5,202.5 L419.3,202.7 L418.8,202.8 L417.0,202.2 L415.7,202.1 L411.1,202.0 L410.5,202.3 L409.6,202.2 L408.3,202.7 L407.9,200.7 L410.2,200.7 L410.8,200.3 L411.2,200.3 L412.1,199.7 L413.2,200.3 L414.3,200.3 L415.4,199.7 L414.9,199.0 L414.1,199.4 L413.3,199.4 L412.3,198.8 L411.5,198.8 L410.9,199.4 L408.2,199.5 Z" fill="#e7ece6" stroke="#9ca89f" stroke-width="0.6" fill-rule="evenodd" vector-effect="non-scaling-stroke"/>
      <path d="M421.2,202.5 L421.3,201.7 L421.1,200.7 L420.2,200.0 L419.7,198.5 L419.6,196.8 L420.4,196.4 L420.8,194.8 L421.6,194.8 L423.4,195.5 L424.8,195.0 L425.7,195.1 L426.1,194.6 L436.2,194.5 L436.7,192.7 L436.3,192.4 L435.1,181.1 L433.9,169.8 L437.7,169.8 L446.1,175.5 L454.6,181.2 L455.2,182.4 L456.7,183.2 L457.9,183.6 L457.9,185.2 L460.7,185.0 L460.7,191.0 L459.3,192.7 L459.1,194.3 L456.9,194.8 L453.5,195.0 L452.5,195.9 L450.9,196.0 L449.3,196.0 L448.7,195.5 L447.3,195.9 L445.0,197.0 L444.5,197.8 L442.6,199.0 L442.2,199.6 L441.2,200.2 L440.0,199.8 L439.3,200.5 L438.9,202.2 L436.9,204.4 L437.0,205.3 L436.3,206.4 L436.5,207.9 L435.5,208.3 L434.9,208.6 L434.5,207.5 L433.8,207.8 L433.3,207.8 L432.9,208.5 L430.9,208.5 L430.3,208.1 L429.9,208.3 L429.2,207.6 L429.3,206.8 L429.0,206.5 L428.4,206.8 L428.5,205.9 L429.1,205.2 L428.0,204.2 L427.7,203.4 L427.2,202.9 L426.7,202.8 L426.1,203.2 L425.3,203.5 L424.6,204.1 L423.5,203.9 L422.8,203.2 L422.4,203.1 L421.8,203.5 L421.4,203.5 L421.2,202.5 Z" fill="#e7ece6" stroke="#9ca89f" stroke-width="0.6" fill-rule="evenodd" vector-effect="non-scaling-stroke"/>
      <path d="M407.3,180.2 L407.9,179.3 L417.7,179.3 L417.2,175.5 L417.8,174.2 L420.2,174.0 L420.1,167.3 L428.3,167.4 L428.3,163.5 L437.7,169.8 L433.9,169.8 L435.1,181.1 L436.3,192.4 L436.7,192.7 L436.2,194.5 L426.1,194.6 L425.7,195.1 L424.8,195.0 L423.4,195.5 L421.6,194.8 L420.8,194.8 L420.4,196.4 L419.6,196.8 L417.9,195.0 L416.4,193.1 L414.8,192.4 L413.6,191.7 L412.2,191.7 L410.9,192.3 L409.7,192.0 L408.8,192.9 L408.6,191.5 L409.3,190.2 L409.6,187.7 L409.4,185.1 L409.1,183.8 L409.3,182.5 L408.7,181.3 L407.3,180.2 Z" fill="#e7ece6" stroke="#9ca89f" stroke-width="0.6" fill-rule="evenodd" vector-effect="non-scaling-stroke"/>
      <path d="M456.7,218.7 L454.7,219.0 L454.0,217.2 L454.2,211.2 L453.7,210.6 L453.6,209.3 L452.7,208.4 L451.9,207.7 L452.2,206.3 L453.1,206.0 L453.6,204.8 L454.8,204.6 L455.4,203.8 L456.2,203.1 L457.1,203.1 L459.0,204.6 L458.9,205.4 L459.5,207.0 L459.0,208.0 L459.3,208.7 L458.1,210.3 L457.3,211.1 L456.8,212.8 L456.9,214.4 L456.7,218.7 Z" fill="#e7ece6" stroke="#9ca89f" stroke-width="0.6" fill-rule="evenodd" vector-effect="non-scaling-stroke"/>
      <path d="M487.1,175.3 L487.7,179.4 L488.7,180.0 L488.7,180.9 L489.8,181.8 L489.2,182.9 L488.3,188.2 L488.1,191.6 L484.9,194.0 L483.9,197.5 L484.9,198.5 L484.9,200.1 L486.5,200.2 L486.2,201.4 L485.5,201.6 L485.5,202.4 L485.0,202.5 L483.3,199.6 L482.7,199.5 L480.8,201.0 L478.8,200.2 L477.5,200.0 L476.8,200.4 L475.3,200.3 L473.8,201.4 L472.5,201.5 L469.5,200.2 L468.3,200.8 L467.1,200.8 L466.1,199.8 L463.6,198.8 L460.9,199.1 L460.3,199.7 L459.9,201.2 L459.2,202.2 L459.0,204.6 L457.1,203.1 L456.2,203.1 L455.4,203.8 L455.4,202.0 L452.6,201.4 L452.5,200.2 L451.1,198.5 L450.7,197.3 L450.9,196.0 L452.5,195.9 L453.5,195.0 L456.9,194.8 L459.1,194.3 L459.3,192.7 L460.7,191.0 L460.7,185.0 L464.2,183.8 L471.4,178.7 L480.0,173.7 L484.0,174.8 L485.4,176.3 L487.1,175.3 Z" fill="#e7ece6" stroke="#9ca89f" stroke-width="0.6" fill-rule="evenodd" vector-effect="non-scaling-stroke"/>
      <path d="M456.7,218.7 L456.9,214.4 L456.8,212.8 L457.3,211.1 L458.1,210.3 L459.3,208.7 L459.0,208.0 L459.5,207.0 L458.9,205.4 L459.0,204.6 L459.2,202.2 L459.9,201.2 L460.3,199.7 L460.9,199.1 L463.6,198.8 L466.1,199.8 L467.1,200.8 L468.3,200.8 L469.5,200.2 L472.5,201.5 L473.8,201.4 L475.3,200.3 L476.8,200.4 L477.5,200.0 L478.8,200.2 L480.8,201.0 L482.7,199.5 L483.3,199.6 L485.0,202.5 L485.5,202.4 L486.4,203.4 L486.2,203.9 L486.0,204.8 L483.9,206.8 L483.3,208.5 L482.9,209.8 L482.4,210.4 L481.9,212.2 L480.5,213.3 L480.2,214.6 L479.6,215.7 L479.4,216.8 L477.6,217.7 L476.2,216.6 L475.3,216.6 L473.8,218.1 L473.1,218.2 L471.9,220.7 L471.3,222.5 L468.7,223.5 L467.7,223.3 L466.7,223.9 L464.7,223.9 L463.4,222.2 L462.6,220.3 L460.8,218.6 L458.9,218.7 L456.7,218.7 Z" fill="#e7ece6" stroke="#9ca89f" stroke-width="0.6" fill-rule="evenodd" vector-effect="non-scaling-stroke"/>
      <path d="M486.2,201.4 L487.2,203.1 L487.4,204.8 L487.3,206.6 L488.7,208.9 L487.3,208.9 L486.6,209.1 L485.4,208.8 L484.9,210.1 L486.4,211.6 L487.4,212.0 L487.8,213.1 L488.6,214.9 L488.2,215.6 L486.9,218.3 L486.3,218.7 L486.1,220.8 L486.4,221.9 L486.2,222.6 L487.4,224.0 L487.6,224.9 L488.5,226.3 L489.7,227.1 L489.8,228.3 L490.0,229.1 L489.9,230.5 L487.9,229.9 L485.8,229.2 L482.7,229.1 L482.4,228.9 L480.9,229.3 L479.4,228.9 L478.2,229.1 L474.1,229.0 L474.5,227.0 L473.5,225.2 L472.4,224.8 L471.9,223.6 L471.2,223.3 L471.3,222.5 L471.9,220.7 L473.1,218.2 L473.8,218.1 L475.3,216.6 L476.2,216.6 L477.6,217.7 L479.4,216.8 L479.6,215.7 L480.2,214.6 L480.5,213.3 L481.9,212.2 L482.4,210.4 L482.9,209.8 L483.3,208.5 L483.9,206.8 L486.0,204.8 L486.2,203.9 L486.4,203.4 L485.5,202.4 L485.5,201.6 L486.2,201.4 Z" fill="#e7ece6" stroke="#9ca89f" stroke-width="0.6" fill-rule="evenodd" vector-effect="non-scaling-stroke"/>
      <path d="M452.2,206.3 L451.9,207.7 L452.7,208.4 L453.6,209.3 L453.7,210.6 L454.2,211.2 L454.0,217.2 L454.7,219.0 L452.7,219.5 L452.1,218.6 L451.4,216.9 L451.2,215.6 L451.8,213.3 L451.2,212.3 L450.9,210.3 L450.9,208.4 L449.9,207.0 L450.1,206.2 L452.2,206.3 Z" fill="#e7ece6" stroke="#9ca89f" stroke-width="0.6" fill-rule="evenodd" vector-effect="non-scaling-stroke"/>
      <path d="M450.1,206.2 L449.9,207.0 L450.9,208.4 L450.9,210.3 L451.2,212.3 L451.8,213.3 L451.2,215.6 L451.4,216.9 L452.1,218.6 L452.7,219.5 L448.7,221.0 L447.3,221.9 L445.1,222.7 L442.9,222.0 L443.0,220.9 L441.9,218.7 L442.5,215.7 L443.6,213.5 L442.9,209.8 L442.6,207.9 L442.6,206.4 L447.0,206.3 L448.1,206.4 L448.9,206.0 L450.1,206.2 Z" fill="#e7ece6" stroke="#9ca89f" stroke-width="0.6" fill-rule="evenodd" vector-effect="non-scaling-stroke"/>
      <path d="M429.9,208.3 L430.3,208.1 L430.9,208.5 L432.9,208.5 L433.3,207.8 L433.8,207.8 L434.5,207.5 L434.9,208.6 L435.5,208.3 L436.5,207.9 L437.6,208.5 L438.1,209.4 L439.2,209.9 L440.0,209.2 L441.2,209.1 L442.9,209.8 L443.6,213.5 L442.5,215.7 L441.9,218.7 L443.0,220.9 L442.9,222.0 L441.7,222.0 L440.0,221.5 L438.4,221.5 L435.4,222.0 L433.7,222.7 L431.2,223.7 L430.7,223.6 L430.9,221.5 L431.2,221.1 L431.1,220.1 L430.0,219.0 L429.2,218.8 L428.5,218.1 L429.0,217.0 L428.8,215.7 L428.9,214.9 L429.3,214.9 L429.4,213.8 L429.3,213.3 L429.5,212.9 L430.4,212.6 L429.8,210.5 L429.2,209.4 L429.4,208.6 L429.9,208.3 Z" fill="#e7ece6" stroke="#9ca89f" stroke-width="0.6" fill-rule="evenodd" vector-effect="non-scaling-stroke"/>
      <path d="M415.7,202.1 L417.0,202.2 L418.8,202.8 L419.3,202.7 L419.5,202.5 L420.9,202.7 L421.2,202.5 L421.4,203.5 L421.8,203.5 L422.4,203.1 L422.8,203.2 L423.5,203.9 L424.6,204.1 L425.3,203.5 L426.1,203.2 L426.7,202.8 L427.2,202.9 L427.7,203.4 L428.0,204.2 L429.1,205.2 L428.5,205.9 L428.4,206.8 L429.0,206.5 L429.3,206.8 L429.2,207.6 L429.9,208.3 L429.4,208.6 L429.2,209.4 L429.8,210.5 L430.4,212.6 L429.5,212.9 L429.3,213.3 L429.4,213.8 L429.3,214.9 L428.9,214.9 L428.2,214.9 L427.7,215.9 L427.0,215.9 L426.5,215.3 L426.7,214.3 L425.6,212.7 L425.0,213.0 L424.4,213.1 L423.7,213.2 L423.8,212.2 L423.4,211.6 L423.4,210.8 L422.9,209.7 L422.2,208.8 L420.2,208.8 L419.6,209.3 L418.9,209.3 L418.5,209.9 L418.2,210.6 L416.9,211.8 L415.8,210.2 L414.8,209.2 L414.2,208.8 L413.6,208.3 L413.3,207.2 L412.9,206.6 L412.2,206.2 L413.3,204.9 L414.0,204.9 L414.7,204.5 L415.2,204.5 L415.6,204.2 L415.4,203.3 L415.7,203.0 L415.7,202.1 Z" fill="#e7ece6" stroke="#9ca89f" stroke-width="0.6" fill-rule="evenodd" vector-effect="non-scaling-stroke"/>
      <path d="M408.3,202.7 L409.6,202.2 L410.5,202.3 L411.1,202.0 L415.7,202.1 L415.7,203.0 L415.4,203.3 L415.6,204.2 L415.2,204.5 L414.7,204.5 L414.0,204.9 L413.3,204.9 L412.2,206.2 L410.8,205.1 L409.8,204.9 L409.2,204.2 L409.2,203.8 L408.5,203.2 L408.3,202.7 Z" fill="#e7ece6" stroke="#9ca89f" stroke-width="0.6" fill-rule="evenodd" vector-effect="non-scaling-stroke"/>
      <path d="M428.9,214.9 L428.8,215.7 L429.0,217.0 L428.5,218.1 L429.2,218.8 L430.0,219.0 L431.1,220.1 L431.2,221.1 L430.9,221.5 L430.7,223.6 L430.1,223.6 L427.5,222.4 L425.2,220.4 L423.1,219.0 L421.4,217.3 L422.0,216.4 L422.1,215.7 L423.3,214.3 L424.4,213.1 L425.0,213.0 L425.6,212.7 L426.7,214.3 L426.5,215.3 L427.0,215.9 L427.7,215.9 L428.2,214.9 L428.9,214.9 Z" fill="#e7ece6" stroke="#9ca89f" stroke-width="0.6" fill-rule="evenodd" vector-effect="non-scaling-stroke"/>
      <path d="M416.9,211.8 L418.2,210.6 L418.5,209.9 L418.9,209.3 L419.6,209.3 L420.2,208.8 L422.2,208.8 L422.9,209.7 L423.4,210.8 L423.4,211.6 L423.8,212.2 L423.7,213.2 L424.4,213.1 L423.3,214.3 L422.1,215.7 L422.0,216.4 L421.4,217.3 L420.7,217.1 L418.9,216.0 L417.6,214.6 L417.2,213.7 L416.9,211.8 Z" fill="#e7ece6" stroke="#9ca89f" stroke-width="0.6" fill-rule="evenodd" vector-effect="non-scaling-stroke"/>
      <path d="M436.5,207.9 L436.3,206.4 L437.0,205.3 L436.9,204.4 L438.9,202.2 L439.3,200.5 L440.0,199.8 L441.2,200.2 L442.2,199.6 L442.6,199.0 L444.5,197.8 L445.0,197.0 L447.3,195.9 L448.7,195.5 L449.3,196.0 L450.9,196.0 L450.7,197.3 L451.1,198.5 L452.5,200.2 L452.6,201.4 L455.4,202.0 L455.4,203.8 L454.8,204.6 L453.6,204.8 L453.1,206.0 L452.2,206.3 L450.1,206.2 L448.9,206.0 L448.1,206.4 L447.0,206.3 L442.6,206.4 L442.6,207.9 L442.9,209.8 L441.2,209.1 L440.0,209.2 L439.2,209.9 L438.1,209.4 L437.6,208.5 L436.5,207.9 Z" fill="#e7ece6" stroke="#9ca89f" stroke-width="0.6" fill-rule="evenodd" vector-effect="non-scaling-stroke"/>
      <path d="M518.4,221.3 L517.6,221.6 L516.0,221.6 L514.1,221.3 L513.2,221.5 L512.8,222.1 L512.0,222.2 L511.0,221.7 L508.2,223.0 L507.1,222.7 L506.8,222.9 L506.0,224.5 L504.1,224.0 L502.3,223.7 L500.7,222.7 L498.7,221.9 L497.3,222.7 L496.4,224.0 L496.1,225.8 L494.5,225.7 L492.8,225.3 L491.3,226.6 L490.0,229.1 L489.8,228.3 L489.7,227.1 L488.5,226.3 L487.6,224.9 L487.4,224.0 L486.2,222.6 L486.4,221.9 L486.1,220.8 L486.3,218.7 L486.9,218.3 L488.2,215.6 L490.3,215.4 L490.7,214.8 L491.1,214.8 L491.8,215.4 L494.9,214.4 L496.0,213.4 L497.3,212.5 L497.0,211.5 L497.7,211.3 L500.1,211.5 L502.5,210.3 L504.3,207.4 L505.6,206.4 L507.2,205.9 L507.4,207.0 L508.9,208.7 L508.9,209.7 L508.5,210.8 L508.6,211.6 L509.5,212.4 L511.4,213.5 L512.8,214.6 L512.8,215.4 L514.5,216.8 L515.5,217.9 L516.2,219.5 L518.0,220.5 L518.4,221.3 Z" fill="#e7ece6" stroke="#9ca89f" stroke-width="0.6" fill-rule="evenodd" vector-effect="non-scaling-stroke"/>
      <path d="M496.1,225.8 L496.0,227.4 L495.2,228.8 L494.7,230.5 L494.4,232.8 L494.6,234.2 L494.2,235.2 L494.1,236.1 L493.8,236.9 L492.2,238.2 L491.0,239.5 L489.9,242.1 L490.0,244.2 L489.4,245.1 L487.9,246.3 L486.5,248.0 L485.5,247.5 L485.4,246.8 L484.0,246.8 L483.1,247.7 L482.5,247.5 L481.6,246.6 L480.8,247.0 L479.8,248.2 L477.7,245.4 L479.6,243.9 L478.7,242.2 L479.6,241.6 L481.2,241.2 L481.4,240.1 L482.8,241.3 L485.0,241.5 L485.7,240.2 L486.1,238.5 L485.8,236.4 L484.6,234.9 L485.7,231.9 L485.1,231.4 L483.2,231.6 L482.5,230.2 L482.7,229.1 L485.8,229.2 L487.9,229.9 L489.9,230.5 L490.0,229.1 L491.3,226.6 L492.8,225.3 L494.5,225.7 L496.1,225.8 Z" fill="#e7ece6" stroke="#9ca89f" stroke-width="0.6" fill-rule="evenodd" vector-effect="non-scaling-stroke"/>
      <path d="M478.2,229.1 L479.4,228.9 L480.9,229.3 L482.4,228.9 L482.7,229.1 L482.5,230.2 L483.2,231.6 L485.1,231.4 L485.7,231.9 L484.6,234.9 L485.8,236.4 L486.1,238.5 L485.7,240.2 L485.0,241.5 L482.8,241.3 L481.4,240.1 L481.2,241.2 L479.6,241.6 L478.7,242.2 L479.6,243.9 L477.7,245.4 L475.2,242.8 L473.5,240.6 L472.0,237.9 L472.1,237.0 L472.6,236.2 L473.2,234.3 L473.7,232.4 L474.6,232.2 L478.2,232.2 L478.2,229.1 Z" fill="#e7ece6" stroke="#9ca89f" stroke-width="0.6" fill-rule="evenodd" vector-effect="non-scaling-stroke"/>
      <path d="M474.1,229.0 L478.2,229.1 L478.2,232.2 L474.6,232.2 L473.7,232.4 L473.3,232.0 L474.1,229.0 Z" fill="#e7ece6" stroke="#9ca89f" stroke-width="0.6" fill-rule="evenodd" vector-effect="non-scaling-stroke"/>
      <path d="M526.9,256.8 L527.9,257.4 L528.9,257.9 L530.5,258.3 L531.9,259.1 L533.1,260.3 L533.7,262.5 L533.3,263.2 L532.8,265.3 L533.3,267.5 L532.5,268.4 L531.7,270.8 L533.0,271.5 L525.4,273.6 L525.7,275.5 L523.8,275.8 L522.4,276.9 L522.1,277.8 L521.2,278.0 L519.0,280.1 L517.6,281.8 L516.8,281.9 L516.0,281.6 L513.2,281.3 L512.7,281.1 L512.7,280.9 L511.7,280.3 L510.1,280.2 L508.0,280.8 L506.4,279.1 L504.7,277.0 L504.8,268.7 L510.0,268.7 L509.8,267.8 L510.2,266.8 L509.8,265.6 L510.0,264.3 L509.8,263.5 L510.6,263.6 L510.8,264.4 L512.0,264.3 L513.5,264.6 L514.4,265.8 L516.4,266.1 L517.9,265.3 L518.5,266.7 L520.4,267.0 L521.3,268.2 L522.3,269.6 L524.2,269.6 L524.0,266.8 L523.4,267.3 L521.6,266.3 L520.9,265.8 L521.2,263.2 L521.7,260.1 L521.1,258.9 L521.8,257.3 L522.5,257.0 L525.9,256.5 L526.9,256.8 Z" fill="#e7ece6" stroke="#9ca89f" stroke-width="0.6" fill-rule="evenodd" vector-effect="non-scaling-stroke"/>
      <path d="M531.9,259.1 L534.3,259.6 L534.9,260.3 L535.7,261.5 L536.4,265.1 L535.7,267.1 L536.4,270.5 L537.3,270.4 L538.2,271.3 L539.2,273.2 L539.4,276.5 L538.3,277.1 L537.6,278.9 L536.0,277.3 L535.8,275.4 L536.3,274.2 L536.1,273.2 L535.2,272.5 L534.5,272.7 L533.0,271.5 L531.7,270.8 L532.5,268.4 L533.3,267.5 L532.8,265.3 L533.3,263.2 L533.7,262.5 L533.1,260.3 L531.9,259.1 Z" fill="#e7ece6" stroke="#9ca89f" stroke-width="0.6" fill-rule="evenodd" vector-effect="non-scaling-stroke"/>
      <path d="M536.4,265.1 L538.3,264.9 L541.3,265.6 L541.9,265.3 L543.7,265.2 L544.6,264.4 L546.1,264.5 L548.8,263.5 L550.8,261.9 L550.8,261.9 L550.8,261.9 L551.2,263.1 L551.1,265.7 L551.4,268.0 L551.5,272.1 L551.9,273.4 L551.2,275.2 L550.2,277.0 L548.6,278.7 L546.3,279.7 L543.5,280.9 L540.7,283.7 L539.7,284.2 L538.0,286.1 L537.0,286.7 L536.8,288.5 L537.9,290.5 L538.4,292.0 L538.5,292.8 L538.9,292.7 L538.8,295.2 L538.4,296.5 L539.0,296.9 L538.6,298.0 L537.6,298.9 L535.5,299.8 L532.5,301.2 L531.4,302.2 L531.7,303.3 L532.3,303.5 L532.1,304.8 L530.2,304.8 L530.0,303.7 L529.6,302.5 L529.4,301.5 L529.8,298.6 L529.2,296.8 L528.0,293.1 L530.6,290.1 L531.3,288.3 L531.6,288.0 L531.9,286.5 L531.5,285.7 L531.6,283.8 L532.1,281.9 L532.1,278.6 L530.8,277.8 L529.6,277.6 L529.1,277.0 L527.9,276.4 L525.8,276.5 L525.7,275.5 L525.4,273.6 L533.0,271.5 L534.5,272.7 L535.2,272.5 L536.1,273.2 L536.3,274.2 L535.8,275.4 L536.0,277.3 L537.6,278.9 L538.3,277.1 L539.4,276.5 L539.2,273.2 L538.2,271.3 L537.3,270.4 L536.4,270.5 L535.7,267.1 L536.4,265.1 Z" fill="#e7ece6" stroke="#9ca89f" stroke-width="0.6" fill-rule="evenodd" vector-effect="non-scaling-stroke"/>
      <path d="M530.2,304.8 L529.7,306.0 L528.2,306.2 L526.7,304.8 L526.7,303.9 L527.4,302.9 L527.6,302.2 L528.3,302.0 L529.6,302.5 L530.0,303.7 L530.2,304.8 Z" fill="#e7ece6" stroke="#9ca89f" stroke-width="0.6" fill-rule="evenodd" vector-effect="non-scaling-stroke"/>
      <path d="M482.5,247.5 L481.6,248.0 L481.2,248.7 L481.1,249.8 L480.5,250.1 L479.8,248.2 L480.8,247.0 L481.6,246.6 L482.5,247.5 Z M480.8,250.9 L481.8,250.6 L482.6,250.6 L483.4,250.3 L490.8,250.3 L491.4,252.3 L492.2,253.9 L492.7,254.7 L493.7,256.1 L495.3,255.9 L496.2,255.5 L497.5,255.9 L497.9,255.2 L498.5,253.7 L500.1,253.6 L500.2,253.1 L501.5,253.1 L501.3,254.1 L504.3,254.0 L504.4,255.7 L504.9,256.7 L504.5,258.3 L504.7,259.9 L505.5,260.8 L505.4,263.9 L506.0,263.7 L507.1,263.8 L508.6,263.4 L509.8,263.5 L510.0,264.3 L509.8,265.6 L510.2,266.8 L509.8,267.8 L510.0,268.7 L504.8,268.7 L504.7,277.0 L506.4,279.1 L508.0,280.8 L503.4,281.8 L497.4,281.4 L495.7,280.2 L485.5,280.3 L485.1,280.5 L483.7,279.3 L482.0,279.2 L480.5,279.7 L479.3,280.2 L479.1,278.5 L479.4,276.2 L480.3,273.8 L480.4,272.7 L481.3,270.4 L481.8,269.3 L483.3,267.6 L484.1,266.4 L484.3,264.5 L484.2,263.0 L483.5,262.1 L482.8,260.5 L482.2,258.9 L482.3,258.4 L483.1,257.4 L482.3,254.8 L481.8,253.1 L480.6,251.4 L480.8,250.9 Z" fill="#e7ece6" stroke="#9ca89f" stroke-width="0.6" fill-rule="evenodd" vector-effect="non-scaling-stroke"/>
      <path d="M526.2,241.3 L526.3,242.3 L526.9,242.9 L526.9,243.8 L526.3,244.3 L525.3,245.7 L524.4,246.6 L523.3,246.7 L523.2,243.6 L522.6,242.4 L524.1,242.6 L524.8,241.1 L526.2,241.3 Z" fill="#e7ece6" stroke="#9ca89f" stroke-width="0.6" fill-rule="evenodd" vector-effect="non-scaling-stroke"/>
      <path d="M573.9,267.6 L574.5,268.7 L575.1,270.4 L575.5,273.5 L576.2,274.8 L575.9,276.0 L575.5,276.8 L574.7,275.2 L574.2,276.0 L574.7,278.0 L574.4,279.1 L573.7,279.7 L573.6,281.9 L572.6,284.9 L571.4,288.5 L569.8,293.5 L568.9,297.1 L567.7,300.1 L565.7,300.7 L563.5,301.8 L562.1,301.2 L560.1,300.2 L559.4,298.9 L559.2,296.6 L558.4,294.5 L558.1,292.6 L558.6,290.7 L559.7,290.3 L559.7,289.4 L560.9,287.4 L561.2,285.7 L560.6,284.5 L560.1,282.9 L559.9,280.5 L560.8,279.0 L561.1,277.3 L562.4,277.2 L563.8,276.7 L564.7,276.2 L565.8,276.2 L567.2,274.7 L569.3,273.1 L570.0,271.8 L569.7,270.7 L570.7,271.0 L572.1,269.2 L572.2,267.6 L573.0,266.4 L573.9,267.6 Z" fill="#e7ece6" stroke="#9ca89f" stroke-width="0.6" fill-rule="evenodd" vector-effect="non-scaling-stroke"/>
      <path d="M408.2,199.5 L410.9,199.4 L411.5,198.8 L412.3,198.8 L413.3,199.4 L414.1,199.4 L414.9,199.0 L415.4,199.7 L414.3,200.3 L413.2,200.3 L412.1,199.7 L411.2,200.3 L410.8,200.3 L410.2,200.7 L407.9,200.7 L408.2,199.5 Z" fill="#e7ece6" stroke="#9ca89f" stroke-width="0.6" fill-rule="evenodd" vector-effect="non-scaling-stroke"/>
      <path d="M428.3,163.5 L428.3,163.0 L428.3,162.8 L428.3,159.7 L432.4,157.8 L434.8,157.4 L436.9,156.7 L437.9,155.4 L440.8,154.3 L440.9,152.4 L442.3,152.2 L443.5,151.2 L446.7,150.8 L447.2,149.7 L446.5,149.2 L445.7,146.4 L445.5,144.8 L444.6,143.2 L447.0,141.7 L449.7,141.3 L451.3,140.2 L453.7,139.4 L457.9,139.0 L462.0,138.7 L463.3,139.1 L465.7,138.1 L468.3,138.1 L469.3,138.7 L471.1,138.5 L470.5,139.9 L470.9,142.4 L470.4,144.5 L468.8,146.0 L469.0,147.9 L471.1,149.5 L471.1,150.1 L472.6,151.2 L473.7,155.9 L474.5,158.2 L474.6,159.4 L474.2,161.5 L474.4,162.7 L474.1,164.1 L474.3,165.8 L473.3,166.9 L474.8,168.8 L474.9,169.9 L475.8,171.3 L476.9,170.9 L478.9,172.1 L480.0,173.7 L471.4,178.7 L464.2,183.8 L460.7,185.0 L457.9,185.2 L457.9,183.6 L456.7,183.2 L455.2,182.4 L454.6,181.2 L446.1,175.5 L437.7,169.8 L428.3,163.5 Z" fill="#e7ece6" stroke="#9ca89f" stroke-width="0.6" fill-rule="evenodd" vector-effect="non-scaling-stroke"/>
      <path d="M588.0,175.7 L588.1,174.7 L588.8,173.6 L588.8,172.5 L590.0,172.0 L589.5,171.6 L589.7,169.9 L591.0,169.9 L592.1,171.7 L593.5,172.7 L595.3,173.0 L596.8,173.5 L598.0,175.0 L598.6,175.8 L599.5,176.2 L599.5,176.7 L598.6,178.3 L598.2,179.0 L597.2,179.9 L596.2,181.7 L595.1,181.5 L594.6,182.1 L594.2,183.5 L594.5,185.2 L594.2,185.5 L593.1,185.5 L591.5,186.5 L591.3,187.8 L590.7,188.3 L589.2,188.3 L588.2,189.0 L588.2,190.0 L587.0,190.7 L585.6,190.5 L583.9,191.4 L582.8,191.5 L582.0,189.7 L580.0,185.4 L587.5,182.8 L589.2,177.6 L588.0,175.7 Z M590.7,167.9 L590.2,167.0 L590.9,166.1 L591.2,166.3 L591.0,167.4 L590.7,167.9 Z" fill="#e7ece6" stroke="#9ca89f" stroke-width="0.6" fill-rule="evenodd" vector-effect="non-scaling-stroke"/>
      <path d="M868.0,276.5 L869.6,278.0 L868.8,278.3 L868.0,277.2 L868.0,276.5 Z M867.0,275.9 L866.6,275.2 L866.6,273.2 L867.8,274.0 L868.2,276.1 L867.5,275.8 L867.0,275.9 Z" fill="#e7ece6" stroke="#9ca89f" stroke-width="0.6" fill-rule="evenodd" vector-effect="non-scaling-stroke"/>
      <path d="M706.5,203.2 L705.9,200.0 L707.5,197.9 L710.7,197.4 L713.0,197.7 L715.1,198.8 L716.2,197.0 L718.5,197.9 L719.0,199.7 L718.7,202.8 L714.5,204.8 L715.6,206.4 L713.0,206.6 L710.8,207.6 L708.7,207.2 L707.7,205.9 L706.5,203.2 Z" fill="#e7ece6" stroke="#9ca89f" stroke-width="0.6" fill-rule="evenodd" vector-effect="non-scaling-stroke"/>
      <path d="M713.0,197.7 L710.7,197.4 L707.5,197.9 L705.9,200.0 L706.5,203.2 L704.2,202.0 L702.1,202.0 L702.4,200.0 L700.2,200.0 L700.0,202.9 L698.7,206.7 L697.9,209.0 L698.1,210.9 L699.7,211.0 L700.7,213.3 L701.1,215.6 L702.5,217.1 L704.1,217.4 L705.4,218.8 L704.5,219.8 L702.9,220.1 L702.7,218.8 L700.6,217.7 L700.2,218.1 L699.2,217.1 L698.8,215.8 L697.5,214.4 L696.3,213.1 L695.8,214.6 L695.4,213.2 L695.6,211.6 L696.4,209.1 L697.6,206.4 L699.0,203.9 L698.0,201.6 L698.0,200.4 L697.7,198.9 L696.1,196.8 L695.5,195.5 L696.3,195.0 L697.3,192.8 L696.2,191.0 L694.6,189.1 L693.4,186.8 L694.5,186.4 L695.6,183.5 L697.4,183.4 L698.9,182.3 L700.3,181.7 L701.4,182.5 L701.5,184.1 L703.2,184.2 L702.6,186.9 L702.6,189.3 L705.3,187.7 L706.0,188.2 L707.5,188.1 L708.0,187.2 L709.9,187.4 L711.8,189.5 L711.9,192.1 L714.0,194.3 L713.9,196.6 L713.0,197.7 Z" fill="#e7ece6" stroke="#9ca89f" stroke-width="0.6" fill-rule="evenodd" vector-effect="non-scaling-stroke"/>
      <path d="M718.5,197.9 L716.2,197.0 L715.1,198.8 L713.0,197.7 L713.9,196.6 L714.0,194.3 L711.9,192.1 L711.8,189.5 L709.9,187.4 L708.0,187.2 L707.5,188.1 L706.0,188.2 L705.3,187.7 L702.6,189.3 L702.6,186.9 L703.2,184.2 L701.5,184.1 L701.4,182.5 L700.3,181.7 L700.8,180.7 L703.0,179.0 L703.2,179.6 L704.5,179.7 L704.1,176.7 L705.4,176.3 L706.9,178.4 L708.0,180.8 L711.1,180.8 L712.1,183.1 L710.5,183.8 L709.7,184.7 L712.7,186.3 L714.8,189.3 L716.4,191.6 L718.3,193.5 L718.9,195.3 L718.5,197.9 Z" fill="#e7ece6" stroke="#9ca89f" stroke-width="0.6" fill-rule="evenodd" vector-effect="non-scaling-stroke"/>
      <path d="M700.3,181.7 L698.9,182.3 L697.4,183.4 L695.6,183.5 L694.5,186.4 L693.4,186.8 L694.6,189.1 L696.2,191.0 L697.3,192.8 L696.3,195.0 L695.5,195.5 L696.1,196.8 L697.7,198.9 L698.0,200.4 L698.0,201.6 L699.0,203.9 L697.6,206.4 L696.4,209.1 L696.1,207.1 L696.9,205.1 L696.1,203.6 L696.3,200.7 L695.3,199.4 L694.4,196.3 L694.0,193.0 L692.9,190.8 L691.3,192.1 L688.4,194.0 L687.0,193.7 L685.5,193.1 L686.3,189.9 L685.8,187.4 L683.9,184.4 L684.2,183.5 L682.7,183.2 L680.9,181.0 L680.8,178.9 L681.6,179.3 L681.7,177.4 L682.9,176.8 L682.7,175.7 L683.2,174.8 L683.3,172.1 L685.3,172.7 L686.4,170.6 L686.5,169.3 L687.9,167.1 L687.8,165.6 L691.0,163.8 L692.8,164.3 L692.6,162.7 L693.5,162.2 L693.3,161.2 L694.8,161.0 L695.6,162.5 L696.7,163.2 L696.8,165.2 L696.7,167.3 L694.3,169.5 L694.0,172.6 L696.7,172.2 L697.2,174.6 L698.8,175.1 L698.1,177.2 L700.0,178.2 L701.0,178.7 L702.9,177.9 L703.0,179.0 L700.8,180.7 L700.3,181.7 Z" fill="#e7ece6" stroke="#9ca89f" stroke-width="0.6" fill-rule="evenodd" vector-effect="non-scaling-stroke"/>
      <path d="M710.8,207.6 L713.0,206.6 L715.6,206.4 L714.5,204.8 L718.7,202.8 L719.0,199.7 L718.5,197.9 L718.9,195.3 L718.3,193.5 L716.4,191.6 L714.8,189.3 L712.7,186.3 L709.7,184.7 L710.5,183.8 L712.1,183.1 L711.1,180.8 L708.0,180.8 L706.9,178.4 L705.4,176.3 L706.8,175.7 L708.8,175.7 L711.2,175.4 L713.3,174.0 L714.5,175.0 L716.8,175.5 L716.4,177.0 L717.6,178.0 L720.1,178.7 L716.8,181.0 L714.7,183.4 L714.2,185.2 L716.1,188.0 L718.4,191.4 L720.7,193.0 L722.2,195.1 L723.3,199.9 L723.0,204.5 L720.9,206.3 L718.1,207.9 L716.0,210.1 L712.9,212.5 L712.0,210.9 L712.7,209.1 L710.8,207.6 Z" fill="#e7ece6" stroke="#9ca89f" stroke-width="0.6" fill-rule="evenodd" vector-effect="non-scaling-stroke"/>
      <path d="M693.3,161.2 L693.5,162.2 L692.6,162.7 L692.8,164.3 L691.0,163.8 L687.8,165.6 L687.9,167.1 L686.5,169.3 L686.4,170.6 L685.3,172.7 L683.3,172.1 L683.2,174.8 L682.7,175.7 L682.9,176.8 L681.7,177.4 L680.4,173.3 L679.7,173.3 L679.3,175.0 L677.9,173.6 L678.7,172.1 L679.8,172.0 L680.9,169.8 L679.5,169.3 L677.2,169.4 L674.8,169.0 L674.6,167.2 L673.4,167.1 L671.4,165.9 L670.5,167.7 L672.3,169.1 L670.8,170.1 L670.2,171.0 L671.7,171.7 L671.3,173.3 L672.2,175.3 L672.6,177.4 L672.2,178.4 L670.5,178.3 L667.4,178.9 L667.6,180.8 L666.2,182.4 L662.7,184.1 L659.9,187.2 L658.0,188.9 L655.5,190.6 L655.5,191.8 L654.2,192.4 L652.0,193.3 L650.8,193.5 L650.1,195.5 L650.6,198.9 L650.7,201.0 L649.7,203.5 L649.6,208.0 L648.4,208.1 L647.2,210.1 L648.0,210.9 L645.7,211.7 L644.9,213.5 L643.8,214.2 L641.5,211.8 L640.3,208.1 L639.4,205.5 L638.5,204.2 L637.2,201.7 L636.5,198.5 L636.1,196.8 L633.8,193.2 L632.8,188.2 L632.1,184.8 L632.1,181.7 L631.6,179.2 L627.9,180.8 L626.2,180.5 L622.9,177.3 L624.1,176.4 L623.4,175.4 L620.4,173.1 L622.1,171.4 L627.6,171.4 L627.1,169.2 L625.7,167.8 L625.4,165.8 L623.8,164.7 L626.5,161.9 L629.4,162.1 L632.1,159.4 L633.6,156.7 L636.1,154.1 L636.0,152.2 L638.1,150.7 L636.1,149.4 L635.3,147.7 L634.4,145.4 L635.6,144.3 L639.4,144.9 L642.2,144.5 L644.6,142.3 L647.3,145.4 L647.0,147.5 L648.0,148.8 L647.9,150.2 L646.1,149.8 L646.8,152.7 L649.3,154.4 L652.8,156.2 L651.2,157.4 L650.2,159.8 L652.6,160.8 L655.0,162.1 L658.3,163.5 L661.7,163.9 L663.1,165.2 L665.1,165.5 L668.1,166.1 L670.2,166.0 L670.4,165.0 L670.1,163.3 L670.3,162.2 L671.8,161.7 L672.0,163.7 L672.1,164.2 L674.4,165.2 L675.9,164.8 L678.0,165.0 L680.1,164.9 L680.3,163.3 L679.2,162.5 L681.3,162.2 L683.5,160.2 L686.4,158.6 L688.5,159.2 L690.3,158.1 L691.5,159.7 L690.6,160.8 L693.3,161.2 Z" fill="#e7ece6" stroke="#9ca89f" stroke-width="0.6" fill-rule="evenodd" vector-effect="non-scaling-stroke"/>
      <path d="M681.7,177.4 L681.6,179.3 L680.8,178.9 L680.9,181.0 L680.2,179.7 L680.1,178.3 L679.6,177.1 L678.5,175.6 L676.2,175.5 L676.5,176.5 L675.7,178.0 L674.6,177.5 L674.3,177.9 L673.5,177.6 L672.6,177.4 L672.2,175.3 L671.3,173.3 L671.7,171.7 L670.2,171.0 L670.8,170.1 L672.3,169.1 L670.5,167.7 L671.4,165.9 L673.4,167.1 L674.6,167.2 L674.8,169.0 L677.2,169.4 L679.5,169.3 L680.9,169.8 L679.8,172.0 L678.7,172.1 L677.9,173.6 L679.3,175.0 L679.7,173.3 L680.4,173.3 L681.7,177.4 Z" fill="#e7ece6" stroke="#9ca89f" stroke-width="0.6" fill-rule="evenodd" vector-effect="non-scaling-stroke"/>
      <path d="M864.4,290.0 L866.5,291.7 L867.8,292.9 L866.9,293.5 L865.5,292.8 L863.7,291.6 L862.1,290.2 L860.4,288.4 L860.1,287.5 L861.1,287.5 L862.6,288.4 L863.7,289.3 L864.4,290.0 Z" fill="#e7ece6" stroke="#9ca89f" stroke-width="0.6" fill-rule="evenodd" vector-effect="non-scaling-stroke"/>
      <path d="M855.3,262.4 L856.0,263.3 L854.3,263.3 L853.3,261.6 L854.8,262.3 L855.3,262.4 Z M854.2,260.1 L853.8,260.5 L852.0,258.3 L851.4,256.7 L852.3,256.7 L853.2,258.8 L854.2,260.1 Z M852.1,260.8 L851.2,260.8 L849.6,260.6 L849.1,260.2 L849.3,259.1 L850.9,259.5 L851.7,260.1 L852.1,260.8 Z M849.1,255.9 L849.7,256.8 L849.8,257.3 L847.8,256.2 L846.5,255.2 L845.5,254.4 L845.9,254.1 L847.1,254.7 L849.1,255.9 Z M842.9,253.3 L843.8,254.2 L843.3,254.3 L842.3,253.7 L841.2,252.7 L841.4,252.2 L842.9,253.3 Z" fill="#e7ece6" stroke="#9ca89f" stroke-width="0.6" fill-rule="evenodd" vector-effect="non-scaling-stroke"/>
      <path d="M892.2,339.6 L891.3,341.0 L890.0,342.8 L888.1,343.9 L887.7,343.2 L886.6,342.8 L888.1,340.6 L887.3,339.2 L884.6,338.2 L884.6,337.2 L886.4,336.3 L886.9,334.3 L886.7,332.6 L885.7,330.9 L885.8,330.4 L884.6,329.3 L882.6,327.0 L881.6,325.2 L882.5,325.0 L883.9,326.4 L885.8,327.1 L886.5,329.4 L888.3,332.2 L888.4,330.4 L889.5,331.1 L889.9,333.1 L891.9,333.9 L893.6,334.1 L895.0,333.1 L896.3,333.4 L895.7,335.7 L894.9,337.3 L893.0,337.2 L892.3,338.0 L892.6,339.1 L892.2,339.6 Z M874.2,348.7 L876.3,347.4 L877.8,346.0 L878.9,344.1 L879.9,343.4 L880.2,341.9 L882.0,340.7 L882.6,341.8 L883.1,342.9 L884.9,341.9 L885.6,343.0 L885.6,344.1 L884.7,345.3 L883.1,347.2 L881.8,348.2 L882.7,349.5 L880.8,349.5 L878.6,350.5 L878.0,352.2 L876.5,354.9 L874.6,356.0 L873.3,356.8 L871.0,356.7 L869.4,355.9 L866.7,355.7 L866.3,354.7 L867.6,352.8 L870.8,350.2 L872.4,349.7 L874.2,348.7 Z" fill="#e7ece6" stroke="#9ca89f" stroke-width="0.6" fill-rule="evenodd" vector-effect="non-scaling-stroke"/>
      <path d="M819.2,341.6 L820.7,341.7 L820.9,344.8 L820.0,345.7 L819.8,347.8 L818.9,347.1 L817.2,348.9 L816.7,348.8 L815.1,348.7 L813.6,346.5 L813.2,344.8 L811.8,342.5 L811.9,341.3 L813.5,341.5 L815.9,342.4 L817.3,342.1 L819.2,341.6 Z M765.4,319.1 L762.7,320.5 L760.6,321.1 L760.1,322.4 L759.1,323.5 L757.0,323.6 L755.5,323.8 L753.2,323.3 L751.5,323.6 L749.7,323.7 L748.2,325.1 L747.5,325.0 L746.3,325.7 L745.1,326.6 L743.2,326.5 L741.6,326.5 L738.9,324.8 L737.6,324.3 L737.6,322.8 L738.9,322.4 L739.3,321.8 L739.2,320.9 L739.5,319.1 L739.2,317.5 L737.9,314.9 L737.5,313.4 L737.6,311.9 L736.6,310.2 L736.5,309.5 L735.4,308.4 L735.1,306.4 L733.7,304.3 L733.3,303.2 L734.4,304.3 L733.6,301.9 L734.8,302.7 L735.6,303.7 L735.5,302.3 L734.3,300.3 L734.1,299.5 L733.5,298.7 L733.8,297.2 L734.3,296.5 L734.6,295.2 L734.3,293.7 L735.4,291.8 L735.6,293.8 L736.6,292.0 L738.7,291.1 L739.9,290.0 L741.8,289.1 L742.9,288.9 L743.6,289.2 L745.6,288.2 L747.1,287.9 L747.5,287.3 L748.1,287.1 L749.5,287.2 L752.1,286.4 L753.5,285.2 L754.1,283.8 L755.6,282.5 L755.7,281.5 L755.8,280.1 L757.5,277.8 L758.6,280.1 L759.6,279.6 L758.8,278.3 L759.5,277.1 L760.6,277.6 L760.9,275.6 L762.3,274.4 L762.9,273.3 L764.2,272.9 L764.2,272.2 L765.3,272.5 L765.4,271.8 L766.5,271.4 L767.7,271.1 L769.5,272.3 L770.9,273.8 L772.5,273.8 L774.1,274.1 L773.5,272.7 L774.7,270.6 L775.8,269.9 L775.5,269.2 L776.5,267.7 L778.1,266.8 L779.3,267.1 L781.4,266.6 L781.4,265.3 L779.6,264.4 L780.9,264.1 L782.5,264.7 L783.9,265.8 L786.0,266.4 L786.7,266.2 L788.2,267.0 L789.7,266.2 L790.6,266.5 L791.2,266.0 L792.4,267.3 L791.7,268.6 L790.8,269.7 L789.9,269.8 L790.2,270.8 L789.5,272.1 L788.6,273.4 L788.8,274.2 L790.7,275.6 L792.7,276.4 L794.0,277.3 L795.8,278.9 L796.5,278.9 L797.8,279.6 L798.2,280.4 L800.5,281.2 L802.2,280.4 L802.7,279.0 L803.2,277.8 L803.5,276.4 L804.3,274.3 L803.9,273.0 L804.1,272.3 L803.8,270.8 L804.1,268.8 L804.6,268.3 L804.2,267.4 L804.8,266.0 L805.3,264.6 L805.4,263.8 L806.3,262.9 L807.0,264.1 L807.2,265.8 L807.8,266.1 L807.9,267.2 L808.8,268.5 L809.0,270.0 L808.9,270.9 L809.8,273.0 L811.4,272.0 L812.2,273.1 L813.4,274.1 L813.2,275.3 L813.7,277.5 L814.1,278.8 L814.7,279.1 L815.4,281.4 L815.2,282.7 L816.0,284.5 L818.7,285.9 L820.4,287.1 L822.1,288.2 L821.8,288.9 L823.2,290.5 L824.2,293.3 L825.2,292.8 L826.2,293.9 L826.8,293.5 L827.2,296.3 L829.0,297.9 L830.2,298.9 L832.1,301.0 L832.8,303.1 L832.9,304.6 L832.7,306.2 L833.9,308.4 L833.8,310.7 L833.3,311.9 L832.7,314.2 L832.7,315.7 L832.2,317.6 L831.1,320.0 L829.3,321.3 L828.4,323.3 L827.5,324.6 L826.8,326.8 L825.8,328.1 L825.2,330.1 L824.9,331.9 L825.0,332.7 L823.6,333.6 L820.8,333.7 L818.5,334.8 L817.3,335.8 L815.8,336.9 L813.7,335.8 L812.2,335.3 L812.6,334.0 L811.2,334.4 L809.0,336.3 L806.9,335.6 L805.4,335.2 L804.0,335.0 L801.6,334.3 L800.0,332.7 L799.5,330.7 L798.9,329.4 L797.7,328.3 L795.3,328.0 L796.1,326.7 L795.5,324.8 L794.3,326.6 L792.1,327.1 L793.4,325.6 L793.8,324.1 L794.7,322.8 L794.5,320.9 L792.5,323.1 L790.9,324.0 L790.0,326.1 L788.0,325.0 L788.1,323.6 L786.5,321.7 L785.2,320.8 L785.7,320.2 L782.5,318.6 L780.7,318.5 L778.3,317.2 L773.8,317.5 L770.6,318.4 L767.8,319.3 L765.4,319.1 Z" fill="#e7ece6" stroke="#9ca89f" stroke-width="0.6" fill-rule="evenodd" vector-effect="non-scaling-stroke"/>
      <path d="M654.5,215.4 L654.1,218.1 L653.0,218.8 L650.9,219.4 L649.7,217.3 L649.2,213.6 L650.4,209.3 L652.1,210.8 L653.3,212.6 L654.5,215.4 Z" fill="#e7ece6" stroke="#9ca89f" stroke-width="0.6" fill-rule="evenodd" vector-effect="non-scaling-stroke"/>
      <path d="M723.7,187.5 L721.6,186.7 L721.6,184.4 L722.8,183.2 L725.5,182.5 L727.0,182.6 L727.5,183.6 L726.4,184.7 L725.8,186.2 L723.7,187.5 Z M650.6,124.4 L650.5,122.9 L652.2,122.3 L649.9,117.7 L654.9,116.7 L656.1,116.1 L658.0,111.4 L662.9,112.3 L664.3,111.1 L664.4,108.5 L666.5,108.2 L668.4,106.5 L669.4,106.3 L670.0,108.1 L672.1,109.5 L675.7,110.5 L677.4,112.6 L676.5,115.6 L677.4,116.8 L680.3,117.2 L683.7,117.6 L686.7,119.2 L688.3,119.5 L689.4,121.9 L690.9,123.4 L693.6,123.4 L698.8,124.0 L702.1,123.6 L704.6,124.0 L708.3,125.6 L711.3,125.6 L712.4,126.4 L715.3,125.0 L719.4,124.1 L723.1,124.0 L726.0,123.1 L727.8,121.7 L729.6,120.8 L729.2,119.9 L728.4,118.9 L729.7,117.2 L731.1,117.5 L733.7,118.0 L736.2,116.6 L740.0,115.6 L741.8,113.9 L743.6,113.1 L747.2,112.8 L749.2,113.1 L749.4,112.2 L747.2,110.3 L745.2,109.5 L743.2,110.5 L740.8,110.0 L739.4,110.4 L738.7,109.3 L740.5,106.7 L741.7,104.7 L744.7,105.7 L748.2,104.1 L748.2,102.9 L750.5,100.2 L751.8,99.3 L751.8,97.9 L750.4,97.3 L752.5,96.0 L755.6,95.5 L758.9,95.4 L762.7,96.2 L764.9,97.2 L766.4,99.8 L767.3,100.9 L768.2,102.5 L769.1,105.1 L773.5,105.9 L776.5,107.8 L777.5,110.2 L781.3,110.2 L783.4,109.2 L787.6,108.4 L786.3,110.8 L785.3,111.7 L784.4,114.6 L782.7,117.1 L779.7,116.7 L777.6,117.6 L778.2,119.8 L777.9,122.9 L776.6,123.0 L776.6,124.3 L775.0,122.8 L774.0,124.2 L770.1,125.3 L770.5,126.7 L768.4,126.6 L767.2,125.8 L765.5,127.7 L762.7,129.1 L760.7,130.7 L757.2,131.5 L755.3,132.7 L752.6,133.4 L754.0,132.2 L753.4,131.2 L755.4,129.5 L754.1,128.1 L751.9,129.0 L749.1,130.8 L747.6,132.5 L745.1,132.6 L743.8,133.9 L745.1,135.6 L747.2,136.0 L747.3,137.2 L749.3,138.0 L752.1,136.1 L754.3,137.1 L755.9,137.2 L756.3,138.6 L752.8,139.3 L751.6,140.7 L749.2,142.0 L747.9,143.8 L750.6,145.3 L751.6,147.8 L753.1,150.2 L754.8,152.2 L754.7,154.2 L753.2,154.9 L753.8,156.3 L755.2,157.1 L754.8,159.2 L754.2,161.3 L752.8,161.5 L751.0,164.4 L749.0,167.8 L746.6,170.9 L743.2,173.3 L739.7,175.5 L736.9,175.8 L735.4,177.0 L734.5,176.1 L733.1,177.4 L729.6,178.7 L727.0,179.1 L726.1,181.9 L724.7,182.0 L724.1,180.1 L724.7,179.1 L721.3,178.3 L720.1,178.7 L717.6,178.0 L716.4,177.0 L716.8,175.5 L714.5,175.0 L713.3,174.0 L711.2,175.4 L708.8,175.7 L706.8,175.7 L705.4,176.3 L704.1,176.7 L704.5,179.7 L703.2,179.6 L703.0,179.0 L702.9,177.9 L701.0,178.7 L700.0,178.2 L698.1,177.2 L698.8,175.1 L697.2,174.6 L696.7,172.2 L694.0,172.6 L694.3,169.5 L696.7,167.3 L696.8,165.2 L696.7,163.2 L695.6,162.5 L694.8,161.0 L693.3,161.2 L690.6,160.8 L691.5,159.7 L690.3,158.1 L688.5,159.2 L686.4,158.6 L683.5,160.2 L681.3,162.2 L679.2,162.5 L678.1,161.8 L676.8,161.7 L675.0,161.1 L673.7,161.8 L672.0,163.7 L671.8,161.7 L670.3,162.2 L667.4,162.0 L664.6,161.4 L662.5,160.2 L660.6,159.7 L659.7,158.4 L658.3,158.1 L655.8,156.4 L653.8,155.6 L652.8,156.2 L649.3,154.4 L646.8,152.7 L646.1,149.8 L647.9,150.2 L648.0,148.8 L647.0,147.5 L647.3,145.4 L644.6,142.3 L640.5,141.3 L639.7,139.3 L637.9,138.0 L637.5,137.3 L637.1,135.8 L637.2,134.8 L635.6,134.2 L634.8,134.5 L634.2,132.0 L634.9,131.4 L634.6,130.8 L636.9,129.6 L638.7,129.1 L641.3,129.4 L642.3,127.8 L645.5,127.5 L646.4,126.4 L650.3,125.0 L650.6,124.4 Z" fill="#e7ece6" stroke="#9ca89f" stroke-width="0.6" fill-rule="evenodd" vector-effect="non-scaling-stroke"/>
      <path d="M754.4,171.3 L752.9,175.5 L751.9,177.6 L750.6,175.4 L750.3,173.5 L751.7,170.9 L753.7,169.0 L754.9,169.7 L754.4,171.3 Z" fill="#e7ece6" stroke="#9ca89f" stroke-width="0.6" fill-rule="evenodd" vector-effect="non-scaling-stroke"/>
      <path d="M752.1,201.8 L750.8,199.8 L753.0,199.9 L753.8,200.9 L753.2,203.1 L752.1,201.8 Z M756.5,208.9 L757.1,208.2 L757.4,206.6 L758.7,206.4 L758.3,208.2 L760.2,205.7 L760.0,208.2 L759.1,209.0 L758.3,210.7 L757.5,211.4 L756.0,209.6 L756.5,208.9 Z M765.9,213.0 L766.2,214.8 L766.3,216.2 L765.5,218.6 L764.6,216.0 L763.4,217.3 L764.2,219.2 L763.5,220.4 L760.5,218.9 L759.8,217.0 L760.6,215.8 L759.0,214.5 L758.2,215.6 L757.1,215.5 L755.2,217.0 L754.8,216.2 L755.8,214.0 L757.4,213.3 L758.7,212.3 L759.6,213.5 L761.5,212.8 L761.9,211.6 L763.7,211.5 L763.5,209.5 L765.6,210.8 L765.8,212.1 L765.9,213.0 Z M746.3,210.7 L742.9,213.2 L744.2,211.3 L746.0,209.7 L747.5,207.9 L748.8,205.3 L749.2,207.4 L747.6,208.9 L746.3,210.7 Z M755.8,187.4 L755.4,188.5 L756.3,190.4 L755.6,192.5 L754.2,193.4 L753.8,195.5 L754.3,197.6 L755.6,197.9 L756.8,197.6 L759.9,199.0 L759.6,200.4 L760.5,201.1 L760.2,202.3 L758.2,201.0 L757.3,199.6 L756.7,200.6 L755.1,199.0 L752.8,199.4 L751.6,198.8 L751.7,197.7 L752.5,197.1 L751.7,196.5 L751.4,197.4 L750.2,195.9 L749.8,194.8 L749.7,192.3 L750.7,193.1 L751.0,189.0 L751.8,186.7 L753.3,186.7 L754.8,187.4 L755.6,186.7 L755.8,187.4 Z M755.1,205.2 L754.7,203.9 L756.2,204.8 L757.8,204.8 L757.8,205.8 L756.6,207.0 L755.0,207.7 L754.9,206.5 L755.1,205.2 Z M763.8,203.2 L764.5,206.2 L762.5,205.5 L762.6,206.3 L763.2,208.0 L762.0,208.5 L761.9,206.7 L761.1,206.6 L760.8,205.0 L762.2,205.2 L762.2,204.2 L760.7,202.2 L763.1,202.3 L763.8,203.2 Z" fill="#e7ece6" stroke="#9ca89f" stroke-width="0.6" fill-rule="evenodd" vector-effect="non-scaling-stroke"/>
      <path d="M700.2,218.1 L700.6,217.7 L702.7,218.8 L702.9,220.1 L704.5,219.8 L705.4,218.8 L705.9,219.0 L707.4,220.6 L708.5,222.3 L708.6,224.1 L708.3,225.3 L708.6,226.2 L708.8,227.7 L709.6,228.4 L710.6,230.7 L710.6,231.6 L708.8,231.8 L706.4,229.9 L703.5,227.8 L703.2,226.5 L701.7,224.7 L701.4,222.6 L700.5,221.1 L700.8,219.2 L700.2,218.1 Z M744.7,224.2 L742.5,223.8 L739.7,223.8 L738.8,226.7 L737.8,227.6 L736.6,231.3 L734.5,231.8 L732.1,231.1 L731.0,231.3 L729.5,232.6 L727.9,232.5 L726.3,233.0 L724.6,231.5 L724.2,229.8 L726.0,230.7 L727.9,230.2 L728.4,228.0 L729.5,227.5 L732.5,226.9 L734.3,224.8 L735.5,223.2 L736.6,224.5 L737.2,223.6 L738.4,223.7 L738.5,222.1 L738.6,220.8 L740.6,219.0 L741.8,216.9 L742.8,216.9 L744.1,218.2 L744.2,219.4 L745.9,220.1 L748.0,220.9 L747.8,221.9 L746.1,222.0 L746.5,223.3 L744.7,224.2 Z" fill="#e7ece6" stroke="#9ca89f" stroke-width="0.6" fill-rule="evenodd" vector-effect="non-scaling-stroke"/>
      <path d="M738.6,220.8 L738.5,222.1 L738.4,223.7 L737.2,223.6 L736.6,224.5 L735.5,223.2 L736.5,222.2 L738.6,220.8 Z" fill="#e7ece6" stroke="#9ca89f" stroke-width="0.6" fill-rule="evenodd" vector-effect="non-scaling-stroke"/>
      <path d="M541.1,197.3 L540.8,196.3 L541.9,192.5 L542.1,190.7 L542.9,189.9 L544.8,189.5 L546.0,188.0 L547.5,191.0 L548.2,193.4 L549.5,194.7 L552.9,197.2 L554.3,198.7 L555.7,200.2 L556.5,201.1 L557.7,201.8 L556.9,202.5 L555.9,202.3 L555.0,201.4 L554.0,199.9 L552.9,199.0 L552.2,198.1 L550.1,197.1 L548.4,197.1 L547.7,196.5 L546.3,197.1 L544.8,195.9 L544.0,197.9 L541.1,197.3 Z" fill="#e7ece6" stroke="#9ca89f" stroke-width="0.6" fill-rule="evenodd" vector-effect="non-scaling-stroke"/>
      <path d="M580.0,185.4 L582.0,189.7 L582.8,191.5 L581.0,192.2 L580.5,193.4 L580.4,194.3 L577.9,195.4 L573.9,196.6 L571.7,198.4 L570.6,198.6 L569.8,198.4 L568.4,199.5 L566.8,200.0 L564.7,200.1 L564.1,200.3 L563.5,201.0 L562.9,201.2 L562.5,201.8 L561.2,201.8 L560.4,202.1 L558.7,202.0 L558.1,200.5 L558.1,199.1 L557.7,198.3 L557.2,196.3 L556.5,195.3 L557.0,195.1 L556.8,194.0 L557.1,193.5 L556.9,192.3 L558.0,191.5 L557.8,190.4 L558.5,189.1 L559.5,189.8 L560.2,189.5 L563.0,189.5 L563.5,189.7 L565.9,190.0 L566.9,189.9 L567.5,190.7 L568.7,190.3 L570.5,187.6 L572.8,186.4 L580.0,185.4 Z" fill="#e7ece6" stroke="#9ca89f" stroke-width="0.6" fill-rule="evenodd" vector-effect="non-scaling-stroke"/>
      <path d="M537.4,158.3 L540.2,158.8 L541.3,158.0 L541.9,157.0 L543.8,156.7 L544.2,155.8 L545.0,155.3 L542.5,152.7 L547.5,151.4 L548.0,151.0 L551.0,151.7 L554.7,153.6 L561.8,158.8 L566.4,159.0 L568.6,159.3 L569.3,160.5 L571.0,160.4 L572.0,162.7 L573.2,163.3 L573.7,164.2 L575.4,165.3 L575.5,166.4 L575.3,167.3 L575.6,168.1 L576.3,168.9 L576.7,169.7 L577.0,170.4 L577.8,170.9 L578.5,170.7 L578.9,171.7 L579.0,172.3 L580.0,174.9 L587.5,176.3 L588.0,175.7 L589.2,177.6 L587.5,182.8 L580.0,185.4 L572.8,186.4 L570.5,187.6 L568.7,190.3 L567.5,190.7 L566.9,189.9 L565.9,190.0 L563.5,189.7 L563.0,189.5 L560.2,189.5 L559.5,189.8 L558.5,189.1 L557.8,190.4 L558.0,191.5 L556.9,192.3 L556.6,191.2 L555.9,190.4 L555.7,189.4 L554.4,188.4 L553.1,186.2 L552.3,184.1 L550.6,182.3 L549.5,181.9 L547.8,179.4 L547.6,177.6 L547.7,176.0 L546.2,173.1 L545.1,172.1 L543.7,171.6 L542.9,170.1 L543.0,169.5 L542.3,168.1 L541.6,167.6 L540.6,165.6 L539.1,163.5 L537.8,161.7 L536.6,161.7 L537.0,160.3 L537.1,159.4 L537.4,158.3 Z" fill="#e7ece6" stroke="#9ca89f" stroke-width="0.6" fill-rule="evenodd" vector-effect="non-scaling-stroke"/>
      <path d="M328.3,438.8 L329.6,438.8 L333.3,438.2 L337.1,438.8 L340.2,439.9 L341.3,441.5 L341.6,442.6 L341.7,444.0 L337.8,444.8 L333.7,445.4 L329.0,446.1 L323.8,446.6 L317.9,446.4 L314.6,445.5 L315.0,444.5 L320.4,443.8 L322.5,442.9 L324.1,441.8 L325.2,440.8 L326.7,439.9 L328.3,438.8 L328.3,438.8 Z M284.3,444.6 L289.9,444.7 L295.3,444.9 L297.2,443.8 L298.5,442.9 L301.1,444.0 L300.3,445.3 L299.6,446.5 L294.4,446.1 L288.8,446.3 L285.6,445.4 L285.6,445.3 L284.3,444.6 Z M265.2,421.1 L265.2,421.1 L266.9,420.8 L269.8,420.9 L270.5,419.6 L270.7,418.6 L270.6,416.5 L272.1,415.3 L274.4,414.9 L275.7,415.8 L276.3,416.8 L277.4,418.0 L278.2,419.1 L278.9,420.3 L279.2,421.5 L278.7,422.5 L278.0,423.4 L275.1,423.8 L272.3,424.3 L269.0,424.3 L270.3,423.2 L267.3,423.6 L264.5,424.0 L262.6,423.2 L262.5,422.1 L265.2,421.1 Z M194.2,422.7 L194.2,422.7 L195.7,422.3 L198.9,422.6 L202.5,422.8 L205.3,423.2 L208.0,422.9 L209.5,424.4 L207.5,424.2 L204.5,424.3 L201.4,424.2 L198.0,424.3 L195.5,423.8 L194.2,422.7 Z M143.4,427.3 L143.4,427.3 L144.0,426.5 L147.0,426.9 L150.2,427.3 L153.2,426.9 L151.8,427.8 L149.4,428.5 L145.9,428.2 L143.4,427.3 Z M131.8,426.8 L131.8,426.8 L133.6,426.3 L136.1,426.9 L139.9,427.9 L138.5,427.8 L135.2,427.5 L131.8,426.8 Z M40.7,440.2 L40.7,440.2 L42.2,439.2 L46.9,439.7 L49.4,440.5 L51.3,441.4 L52.0,442.6 L47.2,442.9 L43.9,442.0 L42.4,441.1 L42.3,440.9 L40.7,440.2 Z M900.0,456.2 L900.0,470.0 L0.0,470.0 L0.0,456.2 L0.1,456.2 L2.4,454.7 L6.9,455.5 L7.1,455.4 L9.8,454.6 L10.1,454.6 L10.4,454.6 L14.0,455.7 L17.2,454.6 L17.8,454.5 L25.1,454.0 L27.5,454.6 L28.7,455.0 L32.4,455.8 L39.5,456.5 L45.2,457.3 L54.8,457.9 L62.0,457.2 L72.6,457.7 L78.7,458.5 L85.3,457.8 L92.2,457.1 L92.8,455.8 L82.9,455.7 L74.8,455.1 L72.7,454.1 L66.0,453.5 L66.5,452.3 L67.4,451.3 L68.3,450.3 L67.8,449.2 L63.7,448.5 L61.8,447.6 L57.9,446.8 L64.0,446.9 L69.8,446.5 L73.4,447.4 L77.8,446.6 L81.9,445.6 L84.0,444.8 L83.1,443.7 L79.8,443.0 L76.2,442.2 L71.0,442.1 L66.5,441.7 L61.7,441.4 L60.1,440.5 L56.8,439.7 L54.9,438.7 L54.1,435.8 L55.3,436.0 L57.6,436.8 L61.7,436.6 L65.6,436.2 L67.7,437.4 L71.7,437.1 L75.0,436.5 L78.1,435.8 L81.0,434.9 L84.7,434.7 L84.6,433.7 L83.8,432.7 L84.5,431.8 L87.7,431.4 L89.2,432.2 L93.0,431.7 L95.9,431.1 L99.5,431.0 L102.9,430.8 L106.2,430.1 L108.9,429.6 L112.0,429.0 L113.9,429.2 L115.6,429.4 L119.4,429.0 L122.7,429.5 L126.1,429.4 L129.4,429.1 L132.8,429.3 L136.5,429.6 L140.0,429.5 L143.6,429.5 L147.3,429.6 L150.7,429.5 L153.3,428.7 L156.3,428.3 L159.5,428.9 L162.4,428.4 L165.1,427.5 L166.8,428.3 L167.6,429.2 L169.3,430.1 L171.8,429.3 L174.8,430.3 L178.2,430.6 L181.1,431.3 L184.6,431.2 L187.8,430.7 L191.6,430.8 L195.0,431.2 L198.4,431.6 L199.7,430.5 L198.1,429.6 L196.9,428.7 L193.6,428.5 L192.2,427.5 L191.7,426.6 L190.8,424.6 L192.7,425.0 L196.0,425.1 L199.2,425.0 L202.2,425.4 L204.7,426.1 L205.8,427.1 L209.2,427.2 L212.4,426.9 L215.8,426.4 L218.9,426.0 L221.4,426.7 L224.8,426.5 L226.9,424.5 L228.9,425.6 L231.8,426.1 L235.0,425.8 L237.0,426.9 L240.3,427.0 L243.3,427.3 L246.3,427.8 L248.3,426.9 L249.3,425.9 L251.8,427.0 L255.2,426.7 L257.7,427.3 L259.4,428.1 L262.8,427.9 L265.4,427.3 L267.9,426.7 L271.0,426.3 L274.5,426.0 L277.7,425.6 L280.1,425.1 L281.6,424.3 L282.2,423.1 L281.9,422.1 L281.1,421.0 L280.2,420.0 L279.4,419.0 L278.8,418.1 L278.6,417.0 L278.9,416.0 L280.1,415.0 L281.0,414.0 L281.4,412.9 L280.9,411.8 L280.6,410.8 L281.9,409.6 L283.2,408.9 L284.9,407.9 L286.6,407.1 L288.6,406.3 L289.6,405.2 L290.9,404.5 L292.5,403.8 L294.9,403.6 L296.5,402.8 L298.2,402.3 L300.3,402.0 L302.1,401.3 L303.5,400.5 L305.5,400.2 L306.9,400.9 L306.0,401.7 L303.5,402.5 L302.4,403.1 L300.5,402.7 L298.5,402.9 L296.8,403.5 L294.9,404.2 L293.7,405.0 L293.4,406.0 L293.5,407.0 L294.7,407.8 L293.0,408.4 L290.6,408.6 L289.3,409.5 L287.8,410.3 L286.2,411.5 L285.8,412.4 L286.7,413.5 L288.0,414.3 L290.1,414.9 L292.0,415.8 L293.0,416.8 L293.6,417.8 L294.3,418.8 L295.5,419.6 L296.2,420.6 L296.6,423.0 L297.3,424.0 L297.5,425.0 L298.3,426.0 L297.9,427.4 L296.6,428.5 L295.1,429.4 L291.8,429.7 L290.6,430.6 L289.1,431.5 L285.3,432.5 L282.0,432.9 L278.9,433.5 L275.5,434.0 L273.5,435.1 L269.5,435.2 L265.1,435.1 L261.1,435.3 L256.9,435.3 L257.7,436.3 L261.5,436.8 L264.3,437.5 L265.9,438.4 L263.1,439.2 L258.8,439.0 L255.2,439.7 L255.0,440.7 L254.9,441.8 L257.9,442.6 L258.4,443.6 L261.6,444.6 L266.9,445.0 L271.4,445.7 L275.0,446.5 L279.5,447.3 L285.7,447.7 L291.9,448.5 L296.1,449.2 L300.8,450.1 L303.2,451.3 L304.4,452.3 L307.5,451.4 L311.6,450.6 L316.0,449.8 L321.1,449.1 L325.6,448.4 L331.8,448.4 L337.9,448.7 L343.0,449.3 L344.6,448.2 L348.1,447.4 L354.4,447.4 L359.3,446.8 L364.0,446.3 L369.2,445.9 L374.8,445.4 L378.6,444.8 L376.9,443.9 L375.8,442.9 L375.8,442.0 L370.9,442.1 L365.8,442.5 L360.9,442.5 L360.2,441.5 L360.6,439.6 L361.7,439.0 L365.3,438.4 L369.5,437.8 L372.5,437.0 L375.5,436.2 L377.8,435.2 L381.2,434.7 L384.6,434.4 L386.3,434.2 L390.2,434.1 L393.9,433.7 L396.9,433.2 L400.0,432.6 L402.7,432.0 L406.2,431.2 L408.4,430.3 L410.7,429.5 L411.5,428.5 L408.8,427.9 L409.7,426.8 L411.4,426.0 L414.0,425.5 L416.7,424.9 L419.3,424.0 L421.2,423.0 L422.4,421.8 L424.3,421.1 L427.2,421.2 L428.5,422.1 L431.5,422.2 L431.6,421.2 L432.8,420.2 L435.5,420.5 L436.2,421.4 L439.1,421.6 L442.4,421.1 L445.5,420.8 L448.4,421.0 L449.4,422.1 L452.2,421.2 L454.7,420.7 L457.6,420.4 L460.3,420.0 L462.9,419.4 L465.7,419.0 L467.8,418.4 L469.4,417.5 L471.2,418.2 L473.8,417.8 L475.6,419.0 L477.0,420.0 L479.9,419.4 L481.0,418.4 L483.6,417.7 L486.8,417.9 L487.8,418.8 L489.9,417.9 L492.6,417.6 L495.5,417.4 L498.1,417.5 L500.9,417.8 L503.6,418.0 L504.8,418.8 L506.4,419.6 L509.2,419.1 L512.1,419.0 L514.9,419.0 L517.7,419.0 L520.2,418.6 L522.9,418.3 L525.1,417.6 L527.4,417.1 L530.0,416.9 L531.9,416.2 L533.3,414.7 L534.7,413.9 L537.3,414.3 L538.3,415.2 L540.4,415.8 L543.0,415.6 L544.8,416.5 L546.6,417.2 L549.2,416.6 L550.1,415.5 L552.3,415.0 L554.9,414.1 L557.3,413.8 L560.3,413.3 L562.2,412.7 L564.3,412.1 L566.3,411.5 L568.6,411.8 L570.9,410.9 L572.5,410.2 L574.8,410.2 L576.9,409.6 L577.4,408.7 L579.5,408.0 L581.5,407.5 L584.0,407.1 L586.3,406.9 L588.5,407.0 L590.9,407.3 L592.9,408.0 L593.1,409.1 L595.3,410.0 L596.9,410.7 L599.8,411.0 L601.5,411.7 L603.6,412.4 L606.0,412.6 L608.0,412.1 L610.1,411.0 L612.5,411.6 L614.9,411.9 L617.3,412.2 L619.7,412.4 L622.2,412.4 L624.3,415.1 L624.2,415.8 L623.9,416.9 L621.5,417.6 L619.5,418.6 L619.9,419.6 L622.7,419.5 L622.3,420.6 L621.0,421.5 L619.9,422.6 L621.8,423.4 L624.7,423.7 L627.6,423.2 L628.9,422.2 L629.8,421.2 L631.1,420.4 L632.7,419.6 L633.3,418.7 L634.7,417.4 L636.2,417.2 L639.1,417.1 L641.6,416.8 L644.1,416.4 L645.3,415.4 L646.1,414.4 L647.8,413.4 L650.2,412.7 L652.3,412.2 L653.7,411.4 L655.1,410.9 L656.9,410.5 L659.4,410.7 L661.7,410.5 L664.1,410.2 L666.9,410.3 L668.7,409.6 L670.0,407.9 L670.9,408.6 L672.1,409.8 L674.2,410.3 L676.6,410.5 L679.0,410.2 L681.5,410.4 L683.9,410.5 L685.4,410.2 L687.5,410.4 L689.5,411.0 L691.7,410.6 L694.4,410.6 L696.7,410.2 L699.3,410.6 L701.0,409.7 L702.2,408.9 L703.9,408.1 L707.1,406.2 L708.7,406.6 L710.6,407.3 L712.3,408.2 L715.5,409.8 L717.9,409.8 L720.2,409.8 L722.9,409.5 L725.6,409.2 L727.6,408.4 L729.4,407.7 L732.2,407.6 L734.0,407.0 L736.0,407.5 L737.2,408.3 L739.0,409.2 L741.7,409.1 L743.5,409.7 L746.4,410.4 L749.6,410.6 L752.2,410.4 L754.1,409.6 L755.8,408.8 L758.1,408.6 L760.3,409.0 L762.9,409.2 L765.3,408.8 L767.5,408.8 L769.7,409.1 L772.0,409.3 L774.3,408.9 L777.0,408.4 L779.5,408.3 L782.3,408.3 L784.6,408.1 L786.9,407.9 L787.6,406.6 L787.7,405.5 L789.2,406.2 L789.7,407.4 L790.5,408.5 L791.5,409.4 L793.7,409.8 L796.5,409.7 L799.8,409.6 L802.0,409.5 L805.3,409.5 L807.7,409.4 L810.9,409.5 L813.7,409.7 L815.5,410.5 L815.0,411.5 L816.6,412.3 L819.3,412.9 L822.1,413.6 L825.3,414.0 L828.7,414.4 L831.3,414.8 L834.1,414.9 L835.7,414.0 L837.9,414.7 L839.8,415.6 L842.0,416.2 L845.1,416.4 L848.0,416.7 L849.2,417.8 L852.0,418.4 L853.9,419.3 L856.7,419.7 L859.6,419.6 L862.3,419.8 L865.3,419.8 L868.3,420.0 L871.1,420.3 L873.7,420.9 L876.3,421.4 L878.0,422.2 L877.7,423.2 L876.4,424.2 L875.3,425.3 L874.4,426.2 L873.2,427.3 L869.9,427.7 L868.5,428.7 L865.2,429.2 L864.1,430.2 L862.4,431.2 L860.6,432.0 L859.6,433.1 L858.9,434.1 L858.7,435.3 L858.7,436.2 L860.1,437.2 L860.7,438.2 L861.9,439.1 L866.5,439.5 L867.5,440.6 L863.0,441.0 L859.2,441.6 L854.4,441.7 L852.3,443.2 L851.9,444.4 L850.8,445.4 L849.5,446.4 L852.8,447.2 L854.1,448.3 L856.2,449.3 L859.3,450.1 L862.7,451.0 L866.5,451.8 L872.2,452.6 L873.5,453.9 L880.7,454.4 L881.2,454.6 L883.1,455.4 L890.0,454.7 L895.7,455.6 L900.0,456.2 Z" fill="#e7ece6" stroke="#9ca89f" stroke-width="0.6" fill-rule="evenodd" vector-effect="non-scaling-stroke"/>
      <path d="M444.6,143.2 L445.5,144.8 L445.7,146.4 L446.5,149.2 L447.2,149.7 L446.7,150.8 L443.5,151.2 L442.3,152.2 L440.9,152.4 L440.8,154.3 L437.9,155.4 L436.9,156.7 L434.8,157.4 L432.4,157.8 L428.3,159.7 L428.3,162.8 L428.0,162.8 L428.0,164.2 L426.5,164.3 L425.7,164.9 L424.5,164.9 L423.6,164.5 L421.5,164.8 L420.7,166.8 L419.9,167.0 L418.7,170.3 L415.3,173.1 L414.4,176.7 L413.4,177.9 L413.1,178.9 L407.5,179.1 L407.4,179.1 L407.6,177.9 L408.5,177.1 L409.3,175.8 L409.2,174.9 L410.0,173.1 L411.4,171.4 L412.3,171.0 L412.9,169.5 L413.0,168.1 L413.9,166.4 L415.6,165.5 L417.2,162.8 L417.2,162.8 L418.5,161.8 L420.8,161.5 L422.7,159.7 L424.0,159.0 L426.1,156.8 L425.5,153.6 L426.4,151.3 L426.7,150.0 L428.4,148.2 L430.9,147.0 L432.7,145.9 L434.4,143.2 L435.2,141.6 L437.0,141.6 L438.5,142.7 L440.9,142.6 L443.5,143.1 L444.6,143.2 Z" fill="#e7ece6" stroke="#9ca89f" stroke-width="0.6" fill-rule="evenodd" vector-effect="non-scaling-stroke"/>
      <path d="M542.2,177.6 L532.2,177.6 L522.6,177.6 L512.5,177.6 L512.5,167.9 L512.5,158.7 L511.8,156.6 L512.4,154.9 L512.0,153.8 L512.9,152.6 L516.2,152.5 L518.6,153.2 L521.1,154.0 L522.3,154.4 L524.2,153.6 L525.2,152.8 L527.4,152.6 L529.2,152.9 L529.9,154.2 L530.5,153.4 L532.5,154.0 L534.4,154.1 L535.7,153.5 L535.7,153.5 L537.1,157.3 L537.3,158.0 L536.6,159.0 L536.1,161.0 L535.4,162.4 L534.8,162.8 L534.0,162.0 L532.8,160.8 L531.1,157.1 L530.8,157.3 L531.8,160.0 L533.4,162.7 L535.3,166.7 L536.2,168.2 L537.0,169.6 L539.2,172.5 L538.7,173.0 L538.8,174.7 L541.7,177.0 L542.2,177.6 Z" fill="#e7ece6" stroke="#9ca89f" stroke-width="0.6" fill-rule="evenodd" vector-effect="non-scaling-stroke"/>
      <path d="M512.5,177.6 L512.5,182.8 L509.6,182.8 L509.6,183.9 L499.6,178.9 L489.7,173.9 L487.1,175.3 L485.4,176.3 L484.0,174.8 L480.0,173.7 L478.9,172.1 L476.9,170.9 L475.8,171.3 L474.9,169.9 L474.8,168.8 L473.3,166.9 L474.3,165.8 L474.1,164.1 L474.4,162.7 L474.2,161.5 L474.6,159.4 L474.5,158.2 L473.7,155.9 L474.9,155.3 L475.1,154.2 L474.9,153.1 L476.6,152.1 L477.4,151.2 L478.6,150.5 L478.7,148.5 L481.7,149.4 L482.7,149.1 L484.8,149.6 L488.1,150.8 L489.3,153.1 L491.5,153.6 L495.1,154.7 L497.7,156.0 L498.9,155.3 L500.1,154.1 L499.6,152.1 L500.3,150.8 L502.1,149.6 L503.9,149.2 L507.2,149.8 L508.1,150.9 L509.0,151.0 L509.8,151.4 L512.3,151.7 L512.9,152.6 L512.0,153.8 L512.4,154.9 L511.8,156.6 L512.5,158.7 L512.5,167.9 L512.5,177.6 Z" fill="#e7ece6" stroke="#9ca89f" stroke-width="0.6" fill-rule="evenodd" vector-effect="non-scaling-stroke"/>
      <path d="M569.5,214.1 L562.4,221.9 L559.2,222.1 L556.9,223.9 L555.3,223.9 L554.6,224.8 L552.9,224.8 L551.9,223.9 L549.6,225.0 L548.9,226.1 L547.2,225.9 L546.7,225.6 L546.1,225.6 L545.3,225.6 L542.1,223.4 L540.4,223.4 L539.5,222.5 L539.5,221.1 L538.2,220.6 L536.8,217.8 L535.6,217.2 L535.2,216.1 L533.9,214.9 L532.4,214.7 L533.2,213.2 L534.6,213.1 L534.9,212.3 L534.9,210.0 L535.6,207.2 L536.8,206.5 L537.1,205.4 L538.2,203.5 L539.7,202.2 L540.7,199.6 L541.1,197.3 L544.0,197.9 L544.8,195.9 L546.3,197.1 L547.7,196.5 L548.4,197.1 L550.1,197.1 L552.2,198.1 L552.9,199.0 L554.0,199.9 L555.0,201.4 L555.9,202.3 L555.0,203.4 L554.2,204.6 L554.3,205.4 L554.4,206.1 L555.8,206.2 L556.4,206.0 L556.9,206.5 L556.4,207.4 L557.3,208.8 L558.2,210.1 L559.2,211.0 L567.4,214.1 L569.5,214.1 Z" fill="#e7ece6" stroke="#9ca89f" stroke-width="0.6" fill-rule="evenodd" vector-effect="non-scaling-stroke"/>
      <path d="M555.9,202.3 L556.9,202.5 L557.7,201.8 L558.3,202.6 L558.2,203.7 L556.8,204.4 L557.9,205.1 L556.9,206.5 L556.4,206.0 L555.8,206.2 L554.4,206.1 L554.3,205.4 L554.2,204.6 L555.0,203.4 L555.9,202.3 Z" fill="#e7ece6" stroke="#9ca89f" stroke-width="0.6" fill-rule="evenodd" vector-effect="non-scaling-stroke"/>
      <path d="M572.4,205.2 L572.4,205.2 L572.4,205.2 L572.3,206.3 L572.3,209.0 L572.3,210.3 L571.2,211.9 L569.5,214.1 L567.4,214.1 L559.2,211.0 L558.2,210.1 L557.3,208.8 L556.4,207.4 L556.9,206.5 L557.9,205.1 L558.7,205.6 L559.2,206.6 L560.3,207.7 L561.5,207.7 L563.9,207.1 L566.6,206.8 L568.8,205.9 L570.1,205.8 L570.9,205.3 L572.4,205.2 L572.4,205.2 Z" fill="#e7ece6" stroke="#9ca89f" stroke-width="0.6" fill-rule="evenodd" vector-effect="non-scaling-stroke"/>
      <path d="M534.8,237.5 L529.7,237.7 L526.9,237.6 L526.0,238.0 L524.6,238.8 L523.9,238.5 L524.0,236.5 L524.5,235.5 L524.7,233.4 L525.2,232.2 L526.2,230.9 L527.1,230.2 L527.9,229.2 L526.9,228.9 L527.1,225.8 L527.1,225.8 L528.1,225.1 L529.7,225.7 L531.7,225.1 L533.5,225.1 L535.0,223.9 L536.2,225.7 L536.5,227.0 L537.6,230.0 L536.7,231.9 L535.5,233.7 L534.7,234.7 L534.8,237.5 Z" fill="#e7ece6" stroke="#9ca89f" stroke-width="0.6" fill-rule="evenodd" vector-effect="non-scaling-stroke"/>
      <path d="M526.0,238.0 L527.0,239.4 L526.9,241.0 L526.2,241.3 L526.2,241.3 L524.8,241.1 L524.1,242.6 L522.6,242.4 L522.8,241.0 L523.1,240.8 L523.2,239.2 L523.9,238.5 L524.6,238.8 L526.0,238.0 Z" fill="#e7ece6" stroke="#9ca89f" stroke-width="0.6" fill-rule="evenodd" vector-effect="non-scaling-stroke"/>
      <path d="M527.1,225.8 L524.9,224.1 L524.3,223.0 L522.9,223.5 L521.7,223.4 L521.1,223.8 L519.9,223.5 L518.4,221.3 L518.0,220.5 L516.2,219.5 L515.5,217.9 L514.5,216.8 L512.8,215.4 L512.8,214.6 L511.4,213.5 L509.7,212.5 L510.5,212.2 L511.3,211.7 L512.0,209.4 L512.7,208.2 L514.5,207.8 L514.9,208.5 L516.2,210.1 L516.9,210.3 L517.8,209.8 L519.6,209.9 L519.9,210.5 L522.4,210.5 L522.5,209.9 L523.8,209.4 L524.0,208.7 L525.0,208.1 L527.1,209.7 L528.4,209.4 L529.6,207.5 L531.0,206.1 L530.8,204.5 L530.2,203.7 L531.7,203.6 L531.9,203.0 L533.0,203.2 L532.7,205.1 L533.0,207.0 L534.3,208.0 L534.6,208.9 L534.6,210.2 L534.9,210.3 L534.9,212.3 L534.6,213.1 L533.2,213.2 L532.4,214.7 L533.9,214.9 L535.2,216.1 L535.6,217.2 L536.8,217.8 L538.2,220.6 L536.6,222.3 L535.0,223.9 L533.5,225.1 L531.7,225.1 L529.7,225.7 L528.1,225.1 L527.1,225.8 Z" fill="#e7ece6" stroke="#9ca89f" stroke-width="0.6" fill-rule="evenodd" vector-effect="non-scaling-stroke"/>
  </g>
  <path d="M819.2,341.6 L820.7,341.7 L820.9,344.8 L820.0,345.7 L819.8,347.8 L818.9,347.1 L817.2,348.9 L816.7,348.8 L815.1,348.7 L813.6,346.5 L813.2,344.8 L811.8,342.5 L811.9,341.3 L813.5,341.5 L815.9,342.4 L817.3,342.1 L819.2,341.6 Z M765.4,319.1 L762.7,320.5 L760.6,321.1 L760.1,322.4 L759.1,323.5 L757.0,323.6 L755.5,323.8 L753.2,323.3 L751.5,323.6 L749.7,323.7 L748.2,325.1 L747.5,325.0 L746.3,325.7 L745.1,326.6 L743.2,326.5 L741.6,326.5 L738.9,324.8 L737.6,324.3 L737.6,322.8 L738.9,322.4 L739.3,321.8 L739.2,320.9 L739.5,319.1 L739.2,317.5 L737.9,314.9 L737.5,313.4 L737.6,311.9 L736.6,310.2 L736.5,309.5 L735.4,308.4 L735.1,306.4 L733.7,304.3 L733.3,303.2 L734.4,304.3 L733.6,301.9 L734.8,302.7 L735.6,303.7 L735.5,302.3 L734.3,300.3 L734.1,299.5 L733.5,298.7 L733.8,297.2 L734.3,296.5 L734.6,295.2 L734.3,293.7 L735.4,291.8 L735.6,293.8 L736.6,292.0 L738.7,291.1 L739.9,290.0 L741.8,289.1 L742.9,288.9 L743.6,289.2 L745.6,288.2 L747.1,287.9 L747.5,287.3 L748.1,287.1 L749.5,287.2 L752.1,286.4 L753.5,285.2 L754.1,283.8 L755.6,282.5 L755.7,281.5 L755.8,280.1 L757.5,277.8 L758.6,280.1 L759.6,279.6 L758.8,278.3 L759.5,277.1 L760.6,277.6 L760.9,275.6 L762.3,274.4 L762.9,273.3 L764.2,272.9 L764.2,272.2 L765.3,272.5 L765.4,271.8 L766.5,271.4 L767.7,271.1 L769.5,272.3 L770.9,273.8 L772.5,273.8 L774.1,274.1 L773.5,272.7 L774.7,270.6 L775.8,269.9 L775.5,269.2 L776.5,267.7 L778.1,266.8 L779.3,267.1 L781.4,266.6 L781.4,265.3 L779.6,264.4 L780.9,264.1 L782.5,264.7 L783.9,265.8 L786.0,266.4 L786.7,266.2 L788.2,267.0 L789.7,266.2 L790.6,266.5 L791.2,266.0 L792.4,267.3 L791.7,268.6 L790.8,269.7 L789.9,269.8 L790.2,270.8 L789.5,272.1 L788.6,273.4 L788.8,274.2 L790.7,275.6 L792.7,276.4 L794.0,277.3 L795.8,278.9 L796.5,278.9 L797.8,279.6 L798.2,280.4 L800.5,281.2 L802.2,280.4 L802.7,279.0 L803.2,277.8 L803.5,276.4 L804.3,274.3 L803.9,273.0 L804.1,272.3 L803.8,270.8 L804.1,268.8 L804.6,268.3 L804.2,267.4 L804.8,266.0 L805.3,264.6 L805.4,263.8 L806.3,262.9 L807.0,264.1 L807.2,265.8 L807.8,266.1 L807.9,267.2 L808.8,268.5 L809.0,270.0 L808.9,270.9 L809.8,273.0 L811.4,272.0 L812.2,273.1 L813.4,274.1 L813.2,275.3 L813.7,277.5 L814.1,278.8 L814.7,279.1 L815.4,281.4 L815.2,282.7 L816.0,284.5 L818.7,285.9 L820.4,287.1 L822.1,288.2 L821.8,288.9 L823.2,290.5 L824.2,293.3 L825.2,292.8 L826.2,293.9 L826.8,293.5 L827.2,296.3 L829.0,297.9 L830.2,298.9 L832.1,301.0 L832.8,303.1 L832.9,304.6 L832.7,306.2 L833.9,308.4 L833.8,310.7 L833.3,311.9 L832.7,314.2 L832.7,315.7 L832.2,317.6 L831.1,320.0 L829.3,321.3 L828.4,323.3 L827.5,324.6 L826.8,326.8 L825.8,328.1 L825.2,330.1 L824.9,331.9 L825.0,332.7 L823.6,333.6 L820.8,333.7 L818.5,334.8 L817.3,335.8 L815.8,336.9 L813.7,335.8 L812.2,335.3 L812.6,334.0 L811.2,334.4 L809.0,336.3 L806.9,335.6 L805.4,335.2 L804.0,335.0 L801.6,334.3 L800.0,332.7 L799.5,330.7 L798.9,329.4 L797.7,328.3 L795.3,328.0 L796.1,326.7 L795.5,324.8 L794.3,326.6 L792.1,327.1 L793.4,325.6 L793.8,324.1 L794.7,322.8 L794.5,320.9 L792.5,323.1 L790.9,324.0 L790.0,326.1 L788.0,325.0 L788.1,323.6 L786.5,321.7 L785.2,320.8 L785.7,320.2 L782.5,318.6 L780.7,318.5 L778.3,317.2 L773.8,317.5 L770.6,318.4 L767.8,319.3 L765.4,319.1 Z" fill="#2f7d4f" stroke="#173f3a" stroke-width="1.8" fill-rule="evenodd" vector-effect="non-scaling-stroke"/>
  <circle cx="785.1" cy="298.0" r="4.8" fill="#c2563d" stroke="#ffffff" stroke-width="1.4"/>
</svg>
