<svg xmlns="http://www.w3.org/2000/svg" viewBox="327.8 197.1 367.7 192.0" role="img" aria-label="Wereldkaart met een land ingekleurd">
  <rect width="900" height="470" fill="#ffffff"/>
  <g>
      <path d="M900.0,277.0 L900.0,278.2 L898.4,278.9 L896.8,279.4 L896.5,278.4 L897.7,277.9 L898.5,277.8 L900.0,277.0 Z M895.3,280.7 L895.9,280.3 L896.8,281.0 L896.4,282.4 L894.8,282.8 L893.5,282.4 L893.2,281.3 L894.2,280.4 L895.3,280.7 Z M0.5,276.8 L0.2,278.1 L0.0,278.2 L0.0,277.0 L0.5,276.8 Z" fill="#e7ece6" stroke="#9ca89f" stroke-width="0.6" fill-rule="evenodd" vector-effect="non-scaling-stroke"/>
      <path d="M534.8,237.5 L535.2,237.8 L544.2,243.1 L544.4,244.6 L548.0,247.2 L546.9,250.4 L547.0,251.9 L548.6,252.9 L548.7,253.5 L548.0,255.1 L548.1,255.9 L548.0,257.2 L548.8,258.8 L549.9,261.4 L550.8,261.9 L550.8,261.9 L548.8,263.5 L546.1,264.5 L544.6,264.4 L543.7,265.2 L541.9,265.3 L541.3,265.6 L538.3,264.9 L536.4,265.1 L535.7,261.5 L534.9,260.3 L534.3,259.6 L531.9,259.1 L530.5,258.3 L528.9,257.9 L527.9,257.4 L526.9,256.8 L526.9,256.8 L525.5,253.5 L524.1,252.0 L523.5,250.5 L523.8,249.2 L523.3,246.7 L524.4,246.6 L525.3,245.7 L526.3,244.3 L526.9,243.8 L526.9,242.9 L526.3,242.3 L526.2,241.3 L526.2,241.3 L526.9,241.0 L527.0,239.4 L526.0,238.0 L526.9,237.6 L529.7,237.7 L534.8,237.5 Z" fill="#e7ece6" stroke="#9ca89f" stroke-width="0.6" fill-rule="evenodd" vector-effect="non-scaling-stroke"/>
      <path d="M802.5,241.8 L802.5,250.3 L802.6,258.8 L800.4,256.7 L797.8,256.1 L797.2,256.9 L794.0,257.0 L795.1,254.8 L796.7,254.1 L796.0,251.3 L794.8,249.1 L790.0,246.9 L787.9,246.7 L784.2,244.2 L783.4,245.5 L782.5,245.7 L781.9,244.8 L781.9,243.6 L780.0,242.4 L782.7,241.4 L784.5,241.5 L784.2,240.8 L780.6,240.8 L779.6,239.2 L777.4,238.7 L776.3,237.4 L779.7,236.8 L781.0,236.0 L785.0,237.0 L785.4,238.0 L786.1,242.2 L788.6,243.8 L790.7,241.0 L793.6,239.4 L795.8,239.4 L798.0,240.4 L799.8,241.3 L802.5,241.8 Z M762.4,258.2 L762.7,258.7 L762.7,259.5 L761.1,261.5 L758.9,262.1 L758.6,261.7 L758.9,260.9 L760.0,259.3 L762.4,258.2 Z M785.5,253.0 L785.3,251.0 L785.7,250.1 L786.2,249.2 L786.8,250.0 L786.8,251.2 L785.5,253.0 Z M744.7,224.2 L743.3,226.6 L745.1,229.0 L744.7,230.2 L747.5,232.6 L744.5,233.0 L743.7,234.7 L743.8,237.1 L741.4,238.9 L741.3,241.5 L740.4,245.5 L740.0,244.5 L737.2,245.7 L736.2,244.1 L734.4,244.0 L733.1,243.1 L730.2,244.1 L729.3,242.8 L727.6,243.0 L725.6,242.7 L725.2,239.2 L723.9,238.4 L722.7,236.2 L722.4,233.9 L722.7,231.5 L724.2,229.8 L724.6,231.5 L726.3,233.0 L727.9,232.5 L729.5,232.6 L731.0,231.3 L732.1,231.1 L734.5,231.8 L736.6,231.3 L737.8,227.6 L738.8,226.7 L739.7,223.8 L742.5,223.8 L744.7,224.2 Z M773.4,242.3 L776.2,243.1 L777.1,245.1 L775.0,244.0 L772.9,243.8 L771.5,244.0 L769.7,243.9 L770.3,242.4 L773.4,242.3 Z M767.2,244.9 L765.5,244.4 L765.0,243.3 L767.5,243.2 L768.1,244.0 L767.2,244.9 Z M769.8,229.3 L770.0,230.7 L771.5,231.0 L771.7,232.0 L771.6,234.3 L770.3,234.1 L769.9,235.7 L770.9,237.0 L770.3,237.3 L769.2,235.7 L768.5,232.4 L769.0,230.3 L769.8,229.3 Z M757.3,232.7 L760.2,232.6 L762.7,230.7 L763.1,231.3 L761.1,233.9 L759.2,234.4 L756.8,233.9 L752.6,234.0 L750.5,234.4 L750.1,236.4 L752.3,238.7 L753.7,237.5 L758.4,236.6 L758.1,237.8 L757.1,237.4 L756.0,239.0 L753.8,240.0 L756.1,243.3 L755.7,244.2 L757.9,247.2 L757.9,248.9 L756.6,249.7 L755.6,248.8 L756.8,246.7 L754.3,247.7 L753.7,246.9 L754.0,245.9 L752.2,244.4 L752.4,241.9 L750.8,242.7 L751.0,245.7 L751.1,249.4 L749.5,249.8 L748.4,249.0 L749.1,246.6 L748.7,244.1 L747.7,244.1 L746.9,242.3 L748.0,240.6 L748.3,238.5 L749.6,234.6 L750.1,233.5 L752.2,231.6 L754.2,232.4 L757.3,232.7 Z M750.7,261.8 L747.4,260.0 L749.8,259.4 L751.1,260.2 L751.9,261.0 L751.8,261.7 L750.7,261.8 Z M753.4,257.3 L755.0,257.1 L757.3,256.1 L756.9,257.6 L753.1,258.3 L749.8,258.0 L749.8,257.1 L751.8,256.5 L753.4,257.3 Z M745.7,256.8 L747.2,256.6 L747.8,257.7 L744.9,258.3 L743.2,258.6 L741.9,258.6 L742.7,257.1 L744.1,257.1 L744.8,256.1 L745.7,256.8 Z M721.2,251.8 L721.6,252.7 L726.3,253.0 L726.9,251.9 L731.5,253.1 L732.4,254.8 L736.2,255.3 L739.3,256.9 L736.4,257.9 L733.7,256.8 L731.4,256.9 L728.8,256.7 L726.5,256.2 L723.6,255.2 L721.7,255.0 L720.7,255.3 L716.1,254.2 L715.7,253.1 L713.4,252.9 L715.1,250.4 L718.2,250.5 L720.2,251.6 L721.2,251.8 Z M710.9,237.8 L711.3,239.7 L712.2,241.1 L714.1,241.3 L715.3,243.0 L714.6,246.2 L714.5,250.3 L711.8,250.3 L709.7,248.2 L706.5,246.0 L705.4,244.4 L703.5,242.3 L702.3,240.4 L700.4,236.7 L698.2,234.5 L697.4,232.3 L696.5,230.2 L694.2,228.6 L692.9,226.4 L691.1,224.9 L688.5,222.0 L688.2,220.7 L689.8,220.8 L693.7,221.3 L695.9,223.9 L697.9,225.6 L699.2,226.7 L701.6,229.5 L704.1,229.6 L706.2,231.3 L707.7,233.5 L709.6,234.7 L708.6,236.9 L710.0,237.8 L710.9,237.8 Z" fill="#e7ece6" stroke="#9ca89f" stroke-width="0.6" fill-rule="evenodd" vector-effect="non-scaling-stroke"/>
      <path d="M523.3,246.7 L523.8,249.2 L523.5,250.5 L524.1,252.0 L525.5,253.5 L526.9,256.8 L526.9,256.8 L525.9,256.5 L522.5,257.0 L521.8,257.3 L521.1,258.9 L521.7,260.1 L521.2,263.2 L520.9,265.8 L521.6,266.3 L523.4,267.3 L524.0,266.8 L524.2,269.6 L522.3,269.6 L521.3,268.2 L520.4,267.0 L518.5,266.7 L517.9,265.3 L516.4,266.1 L514.4,265.8 L513.5,264.6 L512.0,264.3 L510.8,264.4 L510.6,263.6 L509.8,263.5 L508.6,263.4 L507.1,263.8 L506.0,263.7 L505.4,263.9 L505.5,260.8 L504.7,259.9 L504.5,258.3 L504.9,256.7 L504.4,255.7 L504.3,254.0 L501.3,254.1 L501.5,253.1 L500.2,253.1 L500.1,253.6 L498.5,253.7 L497.9,255.2 L497.5,255.9 L496.2,255.5 L495.3,255.9 L493.7,256.1 L492.7,254.7 L492.2,253.9 L491.4,252.3 L490.8,250.3 L483.4,250.3 L482.6,250.6 L481.8,250.6 L480.8,250.9 L480.5,250.1 L481.1,249.8 L481.2,248.7 L481.6,248.0 L482.5,247.5 L483.1,247.7 L484.0,246.8 L485.4,246.8 L485.5,247.5 L486.5,248.0 L487.9,246.3 L489.4,245.1 L490.0,244.2 L489.9,242.1 L491.0,239.5 L492.2,238.2 L493.8,236.9 L494.1,236.1 L494.2,235.2 L494.6,234.2 L494.4,232.8 L494.7,230.5 L495.2,228.8 L496.0,227.4 L496.1,225.8 L496.4,224.0 L497.3,222.7 L498.7,221.9 L500.7,222.7 L502.3,223.7 L504.1,224.0 L506.0,224.5 L506.8,222.9 L507.1,222.7 L508.2,223.0 L511.0,221.7 L512.0,222.2 L512.8,222.1 L513.2,221.5 L514.1,221.3 L516.0,221.6 L517.6,221.6 L518.4,221.3 L519.9,223.5 L521.1,223.8 L521.7,223.4 L522.9,223.5 L524.3,223.0 L524.9,224.1 L527.1,225.8 L527.1,225.8 L526.9,228.9 L527.9,229.2 L527.1,230.2 L526.2,230.9 L525.2,232.2 L524.7,233.4 L524.5,235.5 L524.0,236.5 L523.9,238.5 L523.2,239.2 L523.1,240.8 L522.8,241.0 L522.6,242.4 L523.2,243.6 L523.3,246.7 Z" fill="#e7ece6" stroke="#9ca89f" stroke-width="0.6" fill-rule="evenodd" vector-effect="non-scaling-stroke"/>
      <path d="M554.0,239.4 L552.5,237.2 L552.5,227.7 L554.6,224.8 L555.3,223.9 L556.9,223.9 L559.2,222.1 L562.4,221.9 L569.5,214.1 L571.2,211.9 L572.3,210.3 L572.3,209.0 L572.3,206.3 L572.4,205.2 L572.4,205.2 L572.4,205.2 L573.2,205.2 L574.3,204.8 L575.6,204.5 L576.8,203.6 L577.8,203.6 L577.8,204.3 L577.6,205.8 L577.6,207.2 L577.1,208.2 L576.4,211.0 L575.2,213.9 L573.6,217.2 L571.5,221.1 L569.4,224.0 L566.4,227.5 L563.9,229.7 L560.2,232.3 L557.8,234.2 L555.1,237.4 L554.5,238.8 L554.0,239.4 Z" fill="#e7ece6" stroke="#9ca89f" stroke-width="0.6" fill-rule="evenodd" vector-effect="non-scaling-stroke"/>
      <path d="M548.0,247.2 L544.4,244.6 L544.2,243.1 L535.2,237.8 L534.8,237.5 L534.7,234.7 L535.5,233.7 L536.7,231.9 L537.6,230.0 L536.5,227.0 L536.2,225.7 L535.0,223.9 L536.6,222.3 L538.2,220.6 L539.5,221.1 L539.5,222.5 L540.4,223.4 L542.1,223.4 L545.3,225.6 L546.1,225.6 L546.7,225.6 L547.2,225.9 L548.9,226.1 L549.6,225.0 L551.9,223.9 L552.9,224.8 L554.6,224.8 L552.5,227.7 L552.5,237.2 L554.0,239.4 L552.2,240.4 L551.6,241.5 L550.7,241.7 L550.3,243.6 L549.5,244.6 L549.0,246.3 L548.0,247.2 Z" fill="#e7ece6" stroke="#9ca89f" stroke-width="0.6" fill-rule="evenodd" vector-effect="non-scaling-stroke"/>
      <path d="M511.4,213.5 L509.5,212.4 L508.6,211.6 L508.5,210.8 L508.9,209.7 L508.9,208.7 L507.4,207.0 L507.2,205.9 L507.2,205.3 L506.3,204.5 L506.2,203.0 L505.7,202.0 L504.8,202.1 L505.1,201.2 L505.7,200.1 L505.5,199.0 L506.3,198.2 L505.8,197.6 L506.4,196.0 L507.6,194.1 L509.7,194.2 L509.6,183.9 L509.6,182.8 L512.5,182.8 L512.5,177.6 L522.6,177.6 L532.2,177.6 L542.2,177.6 L543.0,180.1 L542.4,180.6 L542.8,183.3 L543.7,186.4 L544.7,187.0 L546.0,188.0 L544.8,189.5 L542.9,189.9 L542.1,190.7 L541.9,192.5 L540.8,196.3 L541.1,197.3 L540.7,199.6 L539.7,202.2 L538.2,203.5 L537.1,205.4 L536.8,206.5 L535.6,207.2 L534.9,210.0 L534.9,212.3 L534.9,210.3 L534.6,210.2 L534.6,208.9 L534.3,208.0 L533.0,207.0 L532.7,205.1 L533.0,203.2 L531.9,203.0 L531.7,203.6 L530.2,203.7 L530.8,204.5 L531.0,206.1 L529.6,207.5 L528.4,209.4 L527.1,209.7 L525.0,208.1 L524.0,208.7 L523.8,209.4 L522.5,209.9 L522.4,210.5 L519.9,210.5 L519.6,209.9 L517.8,209.8 L516.9,210.3 L516.2,210.1 L514.9,208.5 L514.5,207.8 L512.7,208.2 L512.0,209.4 L511.3,211.7 L510.5,212.2 L509.7,212.5 L511.4,213.5 Z" fill="#e7ece6" stroke="#9ca89f" stroke-width="0.6" fill-rule="evenodd" vector-effect="non-scaling-stroke"/>
      <path d="M509.6,183.9 L509.7,194.2 L507.6,194.1 L506.4,196.0 L505.8,197.6 L506.3,198.2 L505.5,199.0 L505.7,200.1 L505.1,201.2 L504.8,202.1 L505.7,202.0 L506.2,203.0 L506.3,204.5 L507.2,205.3 L507.2,205.9 L505.6,206.4 L504.3,207.4 L502.5,210.3 L500.1,211.5 L497.7,211.3 L497.0,211.5 L497.3,212.5 L496.0,213.4 L494.9,214.4 L491.8,215.4 L491.1,214.8 L490.7,214.8 L490.3,215.4 L488.2,215.6 L488.6,214.9 L487.8,213.1 L487.4,212.0 L486.4,211.6 L484.9,210.1 L485.4,208.8 L486.6,209.1 L487.3,208.9 L488.7,208.9 L487.3,206.6 L487.4,204.8 L487.2,203.1 L486.2,201.4 L486.5,200.2 L484.9,200.1 L484.9,198.5 L483.9,197.5 L484.9,194.0 L488.1,191.6 L488.3,188.2 L489.2,182.9 L489.8,181.8 L488.7,180.9 L488.7,180.0 L487.7,179.4 L487.1,175.3 L489.7,173.9 L499.6,178.9 L509.6,183.9 Z" fill="#e7ece6" stroke="#9ca89f" stroke-width="0.6" fill-rule="evenodd" vector-effect="non-scaling-stroke"/>
      <path d="M622.3,362.0 L624.0,362.8 L626.3,363.1 L626.4,363.6 L625.7,364.8 L621.9,365.0 L621.8,363.6 L622.2,362.5 L622.3,362.0 Z" fill="#e7ece6" stroke="#9ca89f" stroke-width="0.6" fill-rule="evenodd" vector-effect="non-scaling-stroke"/>
      <path d="M490.9,309.6 L492.1,308.3 L493.0,309.0 L493.5,310.2 L494.6,310.3 L496.2,310.8 L497.5,310.7 L499.7,309.3 L499.7,299.7 L500.4,300.1 L501.9,302.5 L501.7,304.1 L502.2,305.1 L504.0,304.8 L505.3,303.6 L506.4,302.8 L507.1,301.6 L508.3,301.0 L509.3,301.3 L510.5,302.0 L512.6,302.2 L514.2,301.5 L514.4,300.7 L514.9,299.5 L516.2,299.3 L517.0,298.3 L517.8,296.6 L520.0,294.6 L523.6,292.7 L524.6,292.7 L525.8,293.2 L526.6,292.8 L528.0,293.1 L529.2,296.8 L529.8,298.6 L529.4,301.5 L529.6,302.5 L528.3,302.0 L527.6,302.2 L527.4,302.9 L526.7,303.9 L526.7,304.8 L528.2,306.2 L529.7,306.0 L530.2,304.8 L532.1,304.8 L531.5,306.7 L531.2,308.9 L530.5,310.1 L528.8,311.4 L528.3,311.8 L527.3,313.1 L526.6,314.4 L525.1,316.3 L522.3,319.0 L520.5,320.6 L518.7,321.8 L516.0,322.8 L514.8,322.9 L514.5,323.6 L512.9,323.2 L511.7,323.7 L509.0,323.2 L507.5,323.6 L506.4,323.4 L503.9,324.5 L501.7,324.9 L500.2,325.9 L499.0,325.9 L498.0,325.0 L497.1,324.9 L496.1,323.8 L495.9,324.1 L495.6,323.4 L495.6,321.9 L494.8,320.2 L495.6,319.7 L495.6,317.7 L493.9,315.2 L492.7,313.0 L492.7,313.0 L490.9,309.6 Z M522.4,310.6 L521.4,309.8 L520.2,310.3 L518.8,311.4 L517.5,313.0 L519.4,315.0 L520.3,314.8 L520.7,313.9 L522.1,313.5 L522.5,312.7 L523.3,311.4 L522.4,310.6 Z" fill="#e7ece6" stroke="#9ca89f" stroke-width="0.6" fill-rule="evenodd" vector-effect="non-scaling-stroke"/>
      <path d="M522.4,310.6 L523.3,311.4 L522.5,312.7 L522.1,313.5 L520.7,313.9 L520.3,314.8 L519.4,315.0 L517.5,313.0 L518.8,311.4 L520.2,310.3 L521.4,309.8 L522.4,310.6 Z" fill="#e7ece6" stroke="#9ca89f" stroke-width="0.6" fill-rule="evenodd" vector-effect="non-scaling-stroke"/>
      <path d="M316.6,323.2 L315.9,321.7 L317.0,320.5 L315.5,318.7 L313.6,317.2 L311.0,315.6 L310.1,315.6 L307.6,313.6 L305.9,313.9 L309.3,310.3 L312.1,307.8 L313.8,306.7 L315.9,305.3 L315.9,303.2 L314.7,301.7 L313.4,302.2 L313.9,300.7 L314.3,299.2 L314.3,297.7 L313.4,297.2 L312.4,297.7 L311.5,297.6 L311.2,296.5 L311.0,294.2 L310.5,293.4 L308.8,292.7 L307.8,293.2 L305.2,292.7 L305.3,289.1 L304.6,287.7 L305.4,287.1 L305.1,285.7 L305.8,284.5 L306.3,282.5 L305.7,280.8 L304.3,280.1 L304.0,279.1 L304.4,277.6 L299.6,277.5 L298.6,274.4 L299.4,274.4 L299.3,273.2 L298.9,272.5 L298.7,271.0 L297.3,270.2 L295.7,270.2 L294.7,269.5 L293.0,268.9 L292.0,268.0 L289.2,267.5 L286.5,265.2 L286.7,263.5 L286.4,262.4 L286.7,260.5 L283.4,260.9 L282.1,261.9 L279.9,263.0 L279.3,263.8 L278.0,263.8 L276.2,263.6 L274.8,264.0 L273.6,263.7 L273.8,259.8 L271.7,261.3 L269.5,261.3 L268.6,259.9 L266.9,259.7 L267.5,258.6 L266.1,257.0 L265.0,254.6 L265.7,254.2 L265.7,253.1 L267.2,252.3 L267.0,250.9 L267.6,250.0 L267.8,248.8 L270.6,247.0 L272.7,246.5 L273.0,246.1 L275.3,246.2 L276.4,239.1 L276.4,237.9 L276.1,236.4 L274.9,235.5 L275.0,233.6 L276.4,233.2 L276.9,233.4 L277.0,232.4 L275.5,232.2 L275.5,230.5 L280.3,230.6 L281.2,229.7 L281.9,230.5 L282.3,232.0 L282.8,231.7 L284.2,233.1 L286.1,232.9 L286.6,232.1 L288.5,231.5 L289.5,231.1 L289.8,230.0 L291.6,229.3 L291.4,228.7 L289.3,228.5 L289.0,226.8 L289.1,225.1 L288.0,224.4 L288.4,224.2 L290.3,224.5 L292.3,225.2 L293.0,224.5 L294.8,224.1 L297.6,223.2 L298.5,222.2 L298.2,221.4 L299.5,221.3 L300.0,221.9 L299.7,223.1 L300.6,223.4 L301.2,224.7 L300.5,225.6 L300.1,227.8 L300.7,229.1 L300.9,230.3 L302.4,231.6 L303.6,231.7 L303.9,231.2 L304.7,231.1 L305.8,230.6 L306.7,229.9 L308.0,230.1 L308.7,230.0 L310.0,230.3 L310.2,229.7 L309.8,229.2 L310.1,228.4 L311.1,228.7 L312.3,228.4 L313.7,229.0 L314.8,229.5 L315.6,228.8 L316.1,228.9 L316.5,229.6 L317.7,229.5 L318.6,228.5 L319.4,226.5 L320.9,224.1 L321.7,224.0 L322.3,225.5 L323.7,230.0 L325.1,230.5 L325.1,232.3 L323.3,234.4 L324.0,235.2 L328.4,235.6 L328.5,238.2 L330.4,236.5 L333.6,237.5 L337.7,239.1 L339.0,240.6 L338.5,242.0 L341.5,241.2 L346.3,242.6 L350.1,242.5 L353.7,244.7 L356.9,247.6 L358.9,248.3 L361.0,248.4 L361.9,249.3 L362.8,252.6 L363.2,254.2 L362.2,258.5 L360.9,260.2 L357.4,263.8 L355.8,266.8 L353.9,269.0 L353.3,269.1 L352.6,271.0 L352.8,275.9 L352.1,279.9 L351.8,281.7 L351.0,282.7 L350.6,286.2 L348.1,289.6 L347.6,292.3 L345.6,293.4 L345.0,295.0 L342.3,295.0 L338.4,296.0 L336.6,297.1 L333.8,297.9 L330.9,300.0 L328.8,302.6 L328.4,304.5 L328.8,306.0 L328.3,308.6 L327.8,309.9 L326.0,311.3 L323.3,315.9 L321.1,318.0 L319.4,319.2 L318.2,321.7 L316.6,323.2 Z" fill="#e7ece6" stroke="#9ca89f" stroke-width="0.6" fill-rule="evenodd" vector-effect="non-scaling-stroke"/>
      <path d="M320.9,224.1 L319.4,226.5 L318.6,228.5 L317.7,229.5 L316.5,229.6 L316.1,228.9 L315.6,228.8 L314.8,229.5 L313.7,229.0 L314.3,227.9 L314.5,226.7 L315.0,225.5 L314.0,224.0 L313.8,222.2 L315.1,220.0 L316.0,220.3 L317.8,220.9 L320.4,223.1 L320.9,224.1 Z M465.5,105.8 L466.6,106.5 L470.2,107.0 L469.0,108.8 L468.7,110.7 L468.0,111.1 L466.8,110.9 L466.9,111.5 L465.1,113.0 L465.1,114.2 L466.3,113.8 L467.1,114.9 L467.0,115.6 L467.7,116.6 L466.9,117.4 L467.5,119.4 L468.9,119.8 L468.6,120.9 L466.3,122.4 L461.4,121.7 L457.8,122.5 L457.5,124.1 L454.6,124.4 L451.8,123.3 L450.8,123.8 L446.2,122.6 L445.2,121.6 L446.5,120.1 L447.0,114.8 L444.4,112.1 L442.6,110.8 L438.8,109.8 L438.5,107.9 L441.8,107.3 L446.0,108.0 L445.2,105.0 L447.5,106.1 L453.3,104.1 L454.1,102.0 L456.3,101.4 L456.6,102.4 L457.8,102.4 L459.0,103.5 L460.7,104.7 L462.0,104.5 L464.2,105.7 L464.7,105.9 L465.5,105.8 Z M471.9,123.7 L473.5,122.7 L473.9,124.9 L473.1,127.0 L471.9,126.4 L471.4,124.7 L471.9,123.7 Z" fill="#e7ece6" stroke="#9ca89f" stroke-width="0.6" fill-rule="evenodd" vector-effect="non-scaling-stroke"/>
      <path d="M528.0,293.1 L526.6,292.8 L525.8,293.2 L524.6,292.7 L523.6,292.7 L522.0,291.5 L520.1,291.1 L519.3,289.4 L519.3,288.5 L518.2,288.2 L515.4,285.4 L514.6,283.9 L514.1,283.4 L513.2,281.3 L516.0,281.6 L516.8,281.9 L517.6,281.8 L519.0,280.1 L521.2,278.0 L522.1,277.8 L522.4,276.9 L523.8,275.8 L525.7,275.5 L525.8,276.5 L527.9,276.4 L529.1,277.0 L529.6,277.6 L530.8,277.8 L532.1,278.6 L532.1,281.9 L531.6,283.8 L531.5,285.7 L531.9,286.5 L531.6,288.0 L531.3,288.3 L530.6,290.1 L528.0,293.1 Z" fill="#e7ece6" stroke="#9ca89f" stroke-width="0.6" fill-rule="evenodd" vector-effect="non-scaling-stroke"/>
      <path d="M523.6,292.7 L520.0,294.6 L517.8,296.6 L517.0,298.3 L516.2,299.3 L514.9,299.5 L514.4,300.7 L514.2,301.5 L512.6,302.2 L510.5,302.0 L509.3,301.3 L508.3,301.0 L507.1,301.6 L506.4,302.8 L505.3,303.6 L504.0,304.8 L502.2,305.1 L501.7,304.1 L501.9,302.5 L500.4,300.1 L499.7,299.7 L499.7,292.1 L502.2,292.0 L502.3,282.7 L504.1,282.6 L508.0,281.7 L508.9,282.7 L510.5,281.7 L511.3,281.7 L512.7,281.1 L513.2,281.3 L514.1,283.4 L514.6,283.9 L515.4,285.4 L518.2,288.2 L519.3,288.5 L519.3,289.4 L520.1,291.1 L522.0,291.5 L523.6,292.7 Z" fill="#e7ece6" stroke="#9ca89f" stroke-width="0.6" fill-rule="evenodd" vector-effect="non-scaling-stroke"/>
      <path d="M499.7,299.7 L499.7,309.3 L497.5,310.7 L496.2,310.8 L494.6,310.3 L493.5,310.2 L493.0,309.0 L492.1,308.3 L490.9,309.6 L489.0,307.6 L488.0,305.7 L487.5,303.2 L486.9,301.3 L486.0,297.3 L486.0,294.2 L485.6,292.7 L484.7,291.7 L483.4,289.5 L482.1,286.4 L481.5,284.7 L479.5,282.2 L479.3,280.2 L480.5,279.7 L482.0,279.2 L483.7,279.3 L485.1,280.5 L485.5,280.3 L495.7,280.2 L497.4,281.4 L503.4,281.8 L508.0,280.8 L510.1,280.2 L511.7,280.3 L512.7,280.9 L512.7,281.1 L511.3,281.7 L510.5,281.7 L508.9,282.7 L508.0,281.7 L504.1,282.6 L502.3,282.7 L502.2,292.0 L499.7,292.1 L499.7,299.7 Z" fill="#e7ece6" stroke="#9ca89f" stroke-width="0.6" fill-rule="evenodd" vector-effect="non-scaling-stroke"/>
      <path d="M408.2,199.5 L407.2,197.5 L405.9,196.5 L407.0,196.0 L408.2,194.2 L408.8,192.9 L409.7,192.0 L410.9,192.3 L412.2,191.7 L413.6,191.7 L414.8,192.4 L416.4,193.1 L417.9,195.0 L419.6,196.8 L419.7,198.5 L420.2,200.0 L421.1,200.7 L421.3,201.7 L421.2,202.5 L420.9,202.7 L419.5,202.5 L419.3,202.7 L418.8,202.8 L417.0,202.2 L415.7,202.1 L411.1,202.0 L410.5,202.3 L409.6,202.2 L408.3,202.7 L407.9,200.7 L410.2,200.7 L410.8,200.3 L411.2,200.3 L412.1,199.7 L413.2,200.3 L414.3,200.3 L415.4,199.7 L414.9,199.0 L414.1,199.4 L413.3,199.4 L412.3,198.8 L411.5,198.8 L410.9,199.4 L408.2,199.5 Z" fill="#e7ece6" stroke="#9ca89f" stroke-width="0.6" fill-rule="evenodd" vector-effect="non-scaling-stroke"/>
      <path d="M421.2,202.5 L421.3,201.7 L421.1,200.7 L420.2,200.0 L419.7,198.5 L419.6,196.8 L420.4,196.4 L420.8,194.8 L421.6,194.8 L423.4,195.5 L424.8,195.0 L425.7,195.1 L426.1,194.6 L436.2,194.5 L436.7,192.7 L436.3,192.4 L435.1,181.1 L433.9,169.8 L437.7,169.8 L446.1,175.5 L454.6,181.2 L455.2,182.4 L456.7,183.2 L457.9,183.6 L457.9,185.2 L460.7,185.0 L460.7,191.0 L459.3,192.7 L459.1,194.3 L456.9,194.8 L453.5,195.0 L452.5,195.9 L450.9,196.0 L449.3,196.0 L448.7,195.5 L447.3,195.9 L445.0,197.0 L444.5,197.8 L442.6,199.0 L442.2,199.6 L441.2,200.2 L440.0,199.8 L439.3,200.5 L438.9,202.2 L436.9,204.4 L437.0,205.3 L436.3,206.4 L436.5,207.9 L435.5,208.3 L434.9,208.6 L434.5,207.5 L433.8,207.8 L433.3,207.8 L432.9,208.5 L430.9,208.5 L430.3,208.1 L429.9,208.3 L429.2,207.6 L429.3,206.8 L429.0,206.5 L428.4,206.8 L428.5,205.9 L429.1,205.2 L428.0,204.2 L427.7,203.4 L427.2,202.9 L426.7,202.8 L426.1,203.2 L425.3,203.5 L424.6,204.1 L423.5,203.9 L422.8,203.2 L422.4,203.1 L421.8,203.5 L421.4,203.5 L421.2,202.5 Z" fill="#e7ece6" stroke="#9ca89f" stroke-width="0.6" fill-rule="evenodd" vector-effect="non-scaling-stroke"/>
      <path d="M456.7,218.7 L454.7,219.0 L454.0,217.2 L454.2,211.2 L453.7,210.6 L453.6,209.3 L452.7,208.4 L451.9,207.7 L452.2,206.3 L453.1,206.0 L453.6,204.8 L454.8,204.6 L455.4,203.8 L456.2,203.1 L457.1,203.1 L459.0,204.6 L458.9,205.4 L459.5,207.0 L459.0,208.0 L459.3,208.7 L458.1,210.3 L457.3,211.1 L456.8,212.8 L456.9,214.4 L456.7,218.7 Z" fill="#e7ece6" stroke="#9ca89f" stroke-width="0.6" fill-rule="evenodd" vector-effect="non-scaling-stroke"/>
      <path d="M487.1,175.3 L487.7,179.4 L488.7,180.0 L488.7,180.9 L489.8,181.8 L489.2,182.9 L488.3,188.2 L488.1,191.6 L484.9,194.0 L483.9,197.5 L484.9,198.5 L484.9,200.1 L486.5,200.2 L486.2,201.4 L485.5,201.6 L485.5,202.4 L485.0,202.5 L483.3,199.6 L482.7,199.5 L480.8,201.0 L478.8,200.2 L477.5,200.0 L476.8,200.4 L475.3,200.3 L473.8,201.4 L472.5,201.5 L469.5,200.2 L468.3,200.8 L467.1,200.8 L466.1,199.8 L463.6,198.8 L460.9,199.1 L460.3,199.7 L459.9,201.2 L459.2,202.2 L459.0,204.6 L457.1,203.1 L456.2,203.1 L455.4,203.8 L455.4,202.0 L452.6,201.4 L452.5,200.2 L451.1,198.5 L450.7,197.3 L450.9,196.0 L452.5,195.9 L453.5,195.0 L456.9,194.8 L459.1,194.3 L459.3,192.7 L460.7,191.0 L460.7,185.0 L464.2,183.8 L471.4,178.7 L480.0,173.7 L484.0,174.8 L485.4,176.3 L487.1,175.3 Z" fill="#e7ece6" stroke="#9ca89f" stroke-width="0.6" fill-rule="evenodd" vector-effect="non-scaling-stroke"/>
      <path d="M456.7,218.7 L456.9,214.4 L456.8,212.8 L457.3,211.1 L458.1,210.3 L459.3,208.7 L459.0,208.0 L459.5,207.0 L458.9,205.4 L459.0,204.6 L459.2,202.2 L459.9,201.2 L460.3,199.7 L460.9,199.1 L463.6,198.8 L466.1,199.8 L467.1,200.8 L468.3,200.8 L469.5,200.2 L472.5,201.5 L473.8,201.4 L475.3,200.3 L476.8,200.4 L477.5,200.0 L478.8,200.2 L480.8,201.0 L482.7,199.5 L483.3,199.6 L485.0,202.5 L485.5,202.4 L486.4,203.4 L486.2,203.9 L486.0,204.8 L483.9,206.8 L483.3,208.5 L482.9,209.8 L482.4,210.4 L481.9,212.2 L480.5,213.3 L480.2,214.6 L479.6,215.7 L479.4,216.8 L477.6,217.7 L476.2,216.6 L475.3,216.6 L473.8,218.1 L473.1,218.2 L471.9,220.7 L471.3,222.5 L468.7,223.5 L467.7,223.3 L466.7,223.9 L464.7,223.9 L463.4,222.2 L462.6,220.3 L460.8,218.6 L458.9,218.7 L456.7,218.7 Z" fill="#e7ece6" stroke="#9ca89f" stroke-width="0.6" fill-rule="evenodd" vector-effect="non-scaling-stroke"/>
      <path d="M486.2,201.4 L487.2,203.1 L487.4,204.8 L487.3,206.6 L488.7,208.9 L487.3,208.9 L486.6,209.1 L485.4,208.8 L484.9,210.1 L486.4,211.6 L487.4,212.0 L487.8,213.1 L488.6,214.9 L488.2,215.6 L486.9,218.3 L486.3,218.7 L486.1,220.8 L486.4,221.9 L486.2,222.6 L487.4,224.0 L487.6,224.9 L488.5,226.3 L489.7,227.1 L489.8,228.3 L490.0,229.1 L489.9,230.5 L487.9,229.9 L485.8,229.2 L482.7,229.1 L482.4,228.9 L480.9,229.3 L479.4,228.9 L478.2,229.1 L474.1,229.0 L474.5,227.0 L473.5,225.2 L472.4,224.8 L471.9,223.6 L471.2,223.3 L471.3,222.5 L471.9,220.7 L473.1,218.2 L473.8,218.1 L475.3,216.6 L476.2,216.6 L477.6,217.7 L479.4,216.8 L479.6,215.7 L480.2,214.6 L480.5,213.3 L481.9,212.2 L482.4,210.4 L482.9,209.8 L483.3,208.5 L483.9,206.8 L486.0,204.8 L486.2,203.9 L486.4,203.4 L485.5,202.4 L485.5,201.6 L486.2,201.4 Z" fill="#e7ece6" stroke="#9ca89f" stroke-width="0.6" fill-rule="evenodd" vector-effect="non-scaling-stroke"/>
      <path d="M452.2,206.3 L451.9,207.7 L452.7,208.4 L453.6,209.3 L453.7,210.6 L454.2,211.2 L454.0,217.2 L454.7,219.0 L452.7,219.5 L452.1,218.6 L451.4,216.9 L451.2,215.6 L451.8,213.3 L451.2,212.3 L450.9,210.3 L450.9,208.4 L449.9,207.0 L450.1,206.2 L452.2,206.3 Z" fill="#e7ece6" stroke="#9ca89f" stroke-width="0.6" fill-rule="evenodd" vector-effect="non-scaling-stroke"/>
      <path d="M450.1,206.2 L449.9,207.0 L450.9,208.4 L450.9,210.3 L451.2,212.3 L451.8,213.3 L451.2,215.6 L451.4,216.9 L452.1,218.6 L452.7,219.5 L448.7,221.0 L447.3,221.9 L445.1,222.7 L442.9,222.0 L443.0,220.9 L441.9,218.7 L442.5,215.7 L443.6,213.5 L442.9,209.8 L442.6,207.9 L442.6,206.4 L447.0,206.3 L448.1,206.4 L448.9,206.0 L450.1,206.2 Z" fill="#e7ece6" stroke="#9ca89f" stroke-width="0.6" fill-rule="evenodd" vector-effect="non-scaling-stroke"/>
      <path d="M429.9,208.3 L430.3,208.1 L430.9,208.5 L432.9,208.5 L433.3,207.8 L433.8,207.8 L434.5,207.5 L434.9,208.6 L435.5,208.3 L436.5,207.9 L437.6,208.5 L438.1,209.4 L439.2,209.9 L440.0,209.2 L441.2,209.1 L442.9,209.8 L443.6,213.5 L442.5,215.7 L441.9,218.7 L443.0,220.9 L442.9,222.0 L441.7,222.0 L440.0,221.5 L438.4,221.5 L435.4,222.0 L433.7,222.7 L431.2,223.7 L430.7,223.6 L430.9,221.5 L431.2,221.1 L431.1,220.1 L430.0,219.0 L429.2,218.8 L428.5,218.1 L429.0,217.0 L428.8,215.7 L428.9,214.9 L429.3,214.9 L429.4,213.8 L429.3,213.3 L429.5,212.9 L430.4,212.6 L429.8,210.5 L429.2,209.4 L429.4,208.6 L429.9,208.3 Z" fill="#e7ece6" stroke="#9ca89f" stroke-width="0.6" fill-rule="evenodd" vector-effect="non-scaling-stroke"/>
      <path d="M415.7,202.1 L417.0,202.2 L418.8,202.8 L419.3,202.7 L419.5,202.5 L420.9,202.7 L421.2,202.5 L421.4,203.5 L421.8,203.5 L422.4,203.1 L422.8,203.2 L423.5,203.9 L424.6,204.1 L425.3,203.5 L426.1,203.2 L426.7,202.8 L427.2,202.9 L427.7,203.4 L428.0,204.2 L429.1,205.2 L428.5,205.9 L428.4,206.8 L429.0,206.5 L429.3,206.8 L429.2,207.6 L429.9,208.3 L429.4,208.6 L429.2,209.4 L429.8,210.5 L430.4,212.6 L429.5,212.9 L429.3,213.3 L429.4,213.8 L429.3,214.9 L428.9,214.9 L428.2,214.9 L427.7,215.9 L427.0,215.9 L426.5,215.3 L426.7,214.3 L425.6,212.7 L425.0,213.0 L424.4,213.1 L423.7,213.2 L423.8,212.2 L423.4,211.6 L423.4,210.8 L422.9,209.7 L422.2,208.8 L420.2,208.8 L419.6,209.3 L418.9,209.3 L418.5,209.9 L418.2,210.6 L416.9,211.8 L415.8,210.2 L414.8,209.2 L414.2,208.8 L413.6,208.3 L413.3,207.2 L412.9,206.6 L412.2,206.2 L413.3,204.9 L414.0,204.9 L414.7,204.5 L415.2,204.5 L415.6,204.2 L415.4,203.3 L415.7,203.0 L415.7,202.1 Z" fill="#e7ece6" stroke="#9ca89f" stroke-width="0.6" fill-rule="evenodd" vector-effect="non-scaling-stroke"/>
      <path d="M408.3,202.7 L409.6,202.2 L410.5,202.3 L411.1,202.0 L415.7,202.1 L415.7,203.0 L415.4,203.3 L415.6,204.2 L415.2,204.5 L414.7,204.5 L414.0,204.9 L413.3,204.9 L412.2,206.2 L410.8,205.1 L409.8,204.9 L409.2,204.2 L409.2,203.8 L408.5,203.2 L408.3,202.7 Z" fill="#e7ece6" stroke="#9ca89f" stroke-width="0.6" fill-rule="evenodd" vector-effect="non-scaling-stroke"/>
      <path d="M428.9,214.9 L428.8,215.7 L429.0,217.0 L428.5,218.1 L429.2,218.8 L430.0,219.0 L431.1,220.1 L431.2,221.1 L430.9,221.5 L430.7,223.6 L430.1,223.6 L427.5,222.4 L425.2,220.4 L423.1,219.0 L421.4,217.3 L422.0,216.4 L422.1,215.7 L423.3,214.3 L424.4,213.1 L425.0,213.0 L425.6,212.7 L426.7,214.3 L426.5,215.3 L427.0,215.9 L427.7,215.9 L428.2,214.9 L428.9,214.9 Z" fill="#e7ece6" stroke="#9ca89f" stroke-width="0.6" fill-rule="evenodd" vector-effect="non-scaling-stroke"/>
      <path d="M416.9,211.8 L418.2,210.6 L418.5,209.9 L418.9,209.3 L419.6,209.3 L420.2,208.8 L422.2,208.8 L422.9,209.7 L423.4,210.8 L423.4,211.6 L423.8,212.2 L423.7,213.2 L424.4,213.1 L423.3,214.3 L422.1,215.7 L422.0,216.4 L421.4,217.3 L420.7,217.1 L418.9,216.0 L417.6,214.6 L417.2,213.7 L416.9,211.8 Z" fill="#e7ece6" stroke="#9ca89f" stroke-width="0.6" fill-rule="evenodd" vector-effect="non-scaling-stroke"/>
      <path d="M436.5,207.9 L436.3,206.4 L437.0,205.3 L436.9,204.4 L438.9,202.2 L439.3,200.5 L440.0,199.8 L441.2,200.2 L442.2,199.6 L442.6,199.0 L444.5,197.8 L445.0,197.0 L447.3,195.9 L448.7,195.5 L449.3,196.0 L450.9,196.0 L450.7,197.3 L451.1,198.5 L452.5,200.2 L452.6,201.4 L455.4,202.0 L455.4,203.8 L454.8,204.6 L453.6,204.8 L453.1,206.0 L452.2,206.3 L450.1,206.2 L448.9,206.0 L448.1,206.4 L447.0,206.3 L442.6,206.4 L442.6,207.9 L442.9,209.8 L441.2,209.1 L440.0,209.2 L439.2,209.9 L438.1,209.4 L437.6,208.5 L436.5,207.9 Z" fill="#e7ece6" stroke="#9ca89f" stroke-width="0.6" fill-rule="evenodd" vector-effect="non-scaling-stroke"/>
      <path d="M518.4,221.3 L517.6,221.6 L516.0,221.6 L514.1,221.3 L513.2,221.5 L512.8,222.1 L512.0,222.2 L511.0,221.7 L508.2,223.0 L507.1,222.7 L506.8,222.9 L506.0,224.5 L504.1,224.0 L502.3,223.7 L500.7,222.7 L498.7,221.9 L497.3,222.7 L496.4,224.0 L496.1,225.8 L494.5,225.7 L492.8,225.3 L491.3,226.6 L490.0,229.1 L489.8,228.3 L489.7,227.1 L488.5,226.3 L487.6,224.9 L487.4,224.0 L486.2,222.6 L486.4,221.9 L486.1,220.8 L486.3,218.7 L486.9,218.3 L488.2,215.6 L490.3,215.4 L490.7,214.8 L491.1,214.8 L491.8,215.4 L494.9,214.4 L496.0,213.4 L497.3,212.5 L497.0,211.5 L497.7,211.3 L500.1,211.5 L502.5,210.3 L504.3,207.4 L505.6,206.4 L507.2,205.9 L507.4,207.0 L508.9,208.7 L508.9,209.7 L508.5,210.8 L508.6,211.6 L509.5,212.4 L511.4,213.5 L512.8,214.6 L512.8,215.4 L514.5,216.8 L515.5,217.9 L516.2,219.5 L518.0,220.5 L518.4,221.3 Z" fill="#e7ece6" stroke="#9ca89f" stroke-width="0.6" fill-rule="evenodd" vector-effect="non-scaling-stroke"/>
      <path d="M496.1,225.8 L496.0,227.4 L495.2,228.8 L494.7,230.5 L494.4,232.8 L494.6,234.2 L494.2,235.2 L494.1,236.1 L493.8,236.9 L492.2,238.2 L491.0,239.5 L489.9,242.1 L490.0,244.2 L489.4,245.1 L487.9,246.3 L486.5,248.0 L485.5,247.5 L485.4,246.8 L484.0,246.8 L483.1,247.7 L482.5,247.5 L481.6,246.6 L480.8,247.0 L479.8,248.2 L477.7,245.4 L479.6,243.9 L478.7,242.2 L479.6,241.6 L481.2,241.2 L481.4,240.1 L482.8,241.3 L485.0,241.5 L485.7,240.2 L486.1,238.5 L485.8,236.4 L484.6,234.9 L485.7,231.9 L485.1,231.4 L483.2,231.6 L482.5,230.2 L482.7,229.1 L485.8,229.2 L487.9,229.9 L489.9,230.5 L490.0,229.1 L491.3,226.6 L492.8,225.3 L494.5,225.7 L496.1,225.8 Z" fill="#e7ece6" stroke="#9ca89f" stroke-width="0.6" fill-rule="evenodd" vector-effect="non-scaling-stroke"/>
      <path d="M478.2,229.1 L479.4,228.9 L480.9,229.3 L482.4,228.9 L482.7,229.1 L482.5,230.2 L483.2,231.6 L485.1,231.4 L485.7,231.9 L484.6,234.9 L485.8,236.4 L486.1,238.5 L485.7,240.2 L485.0,241.5 L482.8,241.3 L481.4,240.1 L481.2,241.2 L479.6,241.6 L478.7,242.2 L479.6,243.9 L477.7,245.4 L475.2,242.8 L473.5,240.6 L472.0,237.9 L472.1,237.0 L472.6,236.2 L473.2,234.3 L473.7,232.4 L474.6,232.2 L478.2,232.2 L478.2,229.1 Z" fill="#e7ece6" stroke="#9ca89f" stroke-width="0.6" fill-rule="evenodd" vector-effect="non-scaling-stroke"/>
      <path d="M474.1,229.0 L478.2,229.1 L478.2,232.2 L474.6,232.2 L473.7,232.4 L473.3,232.0 L474.1,229.0 Z" fill="#e7ece6" stroke="#9ca89f" stroke-width="0.6" fill-rule="evenodd" vector-effect="non-scaling-stroke"/>
      <path d="M526.9,256.8 L527.9,257.4 L528.9,257.9 L530.5,258.3 L531.9,259.1 L533.1,260.3 L533.7,262.5 L533.3,263.2 L532.8,265.3 L533.3,267.5 L532.5,268.4 L531.7,270.8 L533.0,271.5 L525.4,273.6 L525.7,275.5 L523.8,275.8 L522.4,276.9 L522.1,277.8 L521.2,278.0 L519.0,280.1 L517.6,281.8 L516.8,281.9 L516.0,281.6 L513.2,281.3 L512.7,281.1 L512.7,280.9 L511.7,280.3 L510.1,280.2 L508.0,280.8 L506.4,279.1 L504.7,277.0 L504.8,268.7 L510.0,268.7 L509.8,267.8 L510.2,266.8 L509.8,265.6 L510.0,264.3 L509.8,263.5 L510.6,263.6 L510.8,264.4 L512.0,264.3 L513.5,264.6 L514.4,265.8 L516.4,266.1 L517.9,265.3 L518.5,266.7 L520.4,267.0 L521.3,268.2 L522.3,269.6 L524.2,269.6 L524.0,266.8 L523.4,267.3 L521.6,266.3 L520.9,265.8 L521.2,263.2 L521.7,260.1 L521.1,258.9 L521.8,257.3 L522.5,257.0 L525.9,256.5 L526.9,256.8 Z" fill="#e7ece6" stroke="#9ca89f" stroke-width="0.6" fill-rule="evenodd" vector-effect="non-scaling-stroke"/>
      <path d="M531.9,259.1 L534.3,259.6 L534.9,260.3 L535.7,261.5 L536.4,265.1 L535.7,267.1 L536.4,270.5 L537.3,270.4 L538.2,271.3 L539.2,273.2 L539.4,276.5 L538.3,277.1 L537.6,278.9 L536.0,277.3 L535.8,275.4 L536.3,274.2 L536.1,273.2 L535.2,272.5 L534.5,272.7 L533.0,271.5 L531.7,270.8 L532.5,268.4 L533.3,267.5 L532.8,265.3 L533.3,263.2 L533.7,262.5 L533.1,260.3 L531.9,259.1 Z" fill="#e7ece6" stroke="#9ca89f" stroke-width="0.6" fill-rule="evenodd" vector-effect="non-scaling-stroke"/>
      <path d="M536.4,265.1 L538.3,264.9 L541.3,265.6 L541.9,265.3 L543.7,265.2 L544.6,264.4 L546.1,264.5 L548.8,263.5 L550.8,261.9 L550.8,261.9 L550.8,261.9 L551.2,263.1 L551.1,265.7 L551.4,268.0 L551.5,272.1 L551.9,273.4 L551.2,275.2 L550.2,277.0 L548.6,278.7 L546.3,279.7 L543.5,280.9 L540.7,283.7 L539.7,284.2 L538.0,286.1 L537.0,286.7 L536.8,288.5 L537.9,290.5 L538.4,292.0 L538.5,292.8 L538.9,292.7 L538.8,295.2 L538.4,296.5 L539.0,296.9 L538.6,298.0 L537.6,298.9 L535.5,299.8 L532.5,301.2 L531.4,302.2 L531.7,303.3 L532.3,303.5 L532.1,304.8 L530.2,304.8 L530.0,303.7 L529.6,302.5 L529.4,301.5 L529.8,298.6 L529.2,296.8 L528.0,293.1 L530.6,290.1 L531.3,288.3 L531.6,288.0 L531.9,286.5 L531.5,285.7 L531.6,283.8 L532.1,281.9 L532.1,278.6 L530.8,277.8 L529.6,277.6 L529.1,277.0 L527.9,276.4 L525.8,276.5 L525.7,275.5 L525.4,273.6 L533.0,271.5 L534.5,272.7 L535.2,272.5 L536.1,273.2 L536.3,274.2 L535.8,275.4 L536.0,277.3 L537.6,278.9 L538.3,277.1 L539.4,276.5 L539.2,273.2 L538.2,271.3 L537.3,270.4 L536.4,270.5 L535.7,267.1 L536.4,265.1 Z" fill="#e7ece6" stroke="#9ca89f" stroke-width="0.6" fill-rule="evenodd" vector-effect="non-scaling-stroke"/>
      <path d="M530.2,304.8 L529.7,306.0 L528.2,306.2 L526.7,304.8 L526.7,303.9 L527.4,302.9 L527.6,302.2 L528.3,302.0 L529.6,302.5 L530.0,303.7 L530.2,304.8 Z" fill="#e7ece6" stroke="#9ca89f" stroke-width="0.6" fill-rule="evenodd" vector-effect="non-scaling-stroke"/>
      <path d="M482.5,247.5 L481.6,248.0 L481.2,248.7 L481.1,249.8 L480.5,250.1 L479.8,248.2 L480.8,247.0 L481.6,246.6 L482.5,247.5 Z M480.8,250.9 L481.8,250.6 L482.6,250.6 L483.4,250.3 L490.8,250.3 L491.4,252.3 L492.2,253.9 L492.7,254.7 L493.7,256.1 L495.3,255.9 L496.2,255.5 L497.5,255.9 L497.9,255.2 L498.5,253.7 L500.1,253.6 L500.2,253.1 L501.5,253.1 L501.3,254.1 L504.3,254.0 L504.4,255.7 L504.9,256.7 L504.5,258.3 L504.7,259.9 L505.5,260.8 L505.4,263.9 L506.0,263.7 L507.1,263.8 L508.6,263.4 L509.8,263.5 L510.0,264.3 L509.8,265.6 L510.2,266.8 L509.8,267.8 L510.0,268.7 L504.8,268.7 L504.7,277.0 L506.4,279.1 L508.0,280.8 L503.4,281.8 L497.4,281.4 L495.7,280.2 L485.5,280.3 L485.1,280.5 L483.7,279.3 L482.0,279.2 L480.5,279.7 L479.3,280.2 L479.1,278.5 L479.4,276.2 L480.3,273.8 L480.4,272.7 L481.3,270.4 L481.8,269.3 L483.3,267.6 L484.1,266.4 L484.3,264.5 L484.2,263.0 L483.5,262.1 L482.8,260.5 L482.2,258.9 L482.3,258.4 L483.1,257.4 L482.3,254.8 L481.8,253.1 L480.6,251.4 L480.8,250.9 Z" fill="#e7ece6" stroke="#9ca89f" stroke-width="0.6" fill-rule="evenodd" vector-effect="non-scaling-stroke"/>
      <path d="M526.2,241.3 L526.3,242.3 L526.9,242.9 L526.9,243.8 L526.3,244.3 L525.3,245.7 L524.4,246.6 L523.3,246.7 L523.2,243.6 L522.6,242.4 L524.1,242.6 L524.8,241.1 L526.2,241.3 Z" fill="#e7ece6" stroke="#9ca89f" stroke-width="0.6" fill-rule="evenodd" vector-effect="non-scaling-stroke"/>
      <path d="M573.9,267.6 L574.5,268.7 L575.1,270.4 L575.5,273.5 L576.2,274.8 L575.9,276.0 L575.5,276.8 L574.7,275.2 L574.2,276.0 L574.7,278.0 L574.4,279.1 L573.7,279.7 L573.6,281.9 L572.6,284.9 L571.4,288.5 L569.8,293.5 L568.9,297.1 L567.7,300.1 L565.7,300.7 L563.5,301.8 L562.1,301.2 L560.1,300.2 L559.4,298.9 L559.2,296.6 L558.4,294.5 L558.1,292.6 L558.6,290.7 L559.7,290.3 L559.7,289.4 L560.9,287.4 L561.2,285.7 L560.6,284.5 L560.1,282.9 L559.9,280.5 L560.8,279.0 L561.1,277.3 L562.4,277.2 L563.8,276.7 L564.7,276.2 L565.8,276.2 L567.2,274.7 L569.3,273.1 L570.0,271.8 L569.7,270.7 L570.7,271.0 L572.1,269.2 L572.2,267.6 L573.0,266.4 L573.9,267.6 Z" fill="#e7ece6" stroke="#9ca89f" stroke-width="0.6" fill-rule="evenodd" vector-effect="non-scaling-stroke"/>
      <path d="M408.2,199.5 L410.9,199.4 L411.5,198.8 L412.3,198.8 L413.3,199.4 L414.1,199.4 L414.9,199.0 L415.4,199.7 L414.3,200.3 L413.2,200.3 L412.1,199.7 L411.2,200.3 L410.8,200.3 L410.2,200.7 L407.9,200.7 L408.2,199.5 Z" fill="#e7ece6" stroke="#9ca89f" stroke-width="0.6" fill-rule="evenodd" vector-effect="non-scaling-stroke"/>
      <path d="M713.0,197.7 L710.7,197.4 L707.5,197.9 L705.9,200.0 L706.5,203.2 L704.2,202.0 L702.1,202.0 L702.4,200.0 L700.2,200.0 L700.0,202.9 L698.7,206.7 L697.9,209.0 L698.1,210.9 L699.7,211.0 L700.7,213.3 L701.1,215.6 L702.5,217.1 L704.1,217.4 L705.4,218.8 L704.5,219.8 L702.9,220.1 L702.7,218.8 L700.6,217.7 L700.2,218.1 L699.2,217.1 L698.8,215.8 L697.5,214.4 L696.3,213.1 L695.8,214.6 L695.4,213.2 L695.6,211.6 L696.4,209.1 L697.6,206.4 L699.0,203.9 L698.0,201.6 L698.0,200.4 L697.7,198.9 L696.1,196.8 L695.5,195.5 L696.3,195.0 L697.3,192.8 L696.2,191.0 L694.6,189.1 L693.4,186.8 L694.5,186.4 L695.6,183.5 L697.4,183.4 L698.9,182.3 L700.3,181.7 L701.4,182.5 L701.5,184.1 L703.2,184.2 L702.6,186.9 L702.6,189.3 L705.3,187.7 L706.0,188.2 L707.5,188.1 L708.0,187.2 L709.9,187.4 L711.8,189.5 L711.9,192.1 L714.0,194.3 L713.9,196.6 L713.0,197.7 Z" fill="#e7ece6" stroke="#9ca89f" stroke-width="0.6" fill-rule="evenodd" vector-effect="non-scaling-stroke"/>
      <path d="M700.3,181.7 L698.9,182.3 L697.4,183.4 L695.6,183.5 L694.5,186.4 L693.4,186.8 L694.6,189.1 L696.2,191.0 L697.3,192.8 L696.3,195.0 L695.5,195.5 L696.1,196.8 L697.7,198.9 L698.0,200.4 L698.0,201.6 L699.0,203.9 L697.6,206.4 L696.4,209.1 L696.1,207.1 L696.9,205.1 L696.1,203.6 L696.3,200.7 L695.3,199.4 L694.4,196.3 L694.0,193.0 L692.9,190.8 L691.3,192.1 L688.4,194.0 L687.0,193.7 L685.5,193.1 L686.3,189.9 L685.8,187.4 L683.9,184.4 L684.2,183.5 L682.7,183.2 L680.9,181.0 L680.8,178.9 L681.6,179.3 L681.7,177.4 L682.9,176.8 L682.7,175.7 L683.2,174.8 L683.3,172.1 L685.3,172.7 L686.4,170.6 L686.5,169.3 L687.9,167.1 L687.8,165.6 L691.0,163.8 L692.8,164.3 L692.6,162.7 L693.5,162.2 L693.3,161.2 L694.8,161.0 L695.6,162.5 L696.7,163.2 L696.8,165.2 L696.7,167.3 L694.3,169.5 L694.0,172.6 L696.7,172.2 L697.2,174.6 L698.8,175.1 L698.1,177.2 L700.0,178.2 L701.0,178.7 L702.9,177.9 L703.0,179.0 L700.8,180.7 L700.3,181.7 Z" fill="#e7ece6" stroke="#9ca89f" stroke-width="0.6" fill-rule="evenodd" vector-effect="non-scaling-stroke"/>
      <path d="M693.3,161.2 L693.5,162.2 L692.6,162.7 L692.8,164.3 L691.0,163.8 L687.8,165.6 L687.9,167.1 L686.5,169.3 L686.4,170.6 L685.3,172.7 L683.3,172.1 L683.2,174.8 L682.7,175.7 L682.9,176.8 L681.7,177.4 L680.4,173.3 L679.7,173.3 L679.3,175.0 L677.9,173.6 L678.7,172.1 L679.8,172.0 L680.9,169.8 L679.5,169.3 L677.2,169.4 L674.8,169.0 L674.6,167.2 L673.4,167.1 L671.4,165.9 L670.5,167.7 L672.3,169.1 L670.8,170.1 L670.2,171.0 L671.7,171.7 L671.3,173.3 L672.2,175.3 L672.6,177.4 L672.2,178.4 L670.5,178.3 L667.4,178.9 L667.6,180.8 L666.2,182.4 L662.7,184.1 L659.9,187.2 L658.0,188.9 L655.5,190.6 L655.5,191.8 L654.2,192.4 L652.0,193.3 L650.8,193.5 L650.1,195.5 L650.6,198.9 L650.7,201.0 L649.7,203.5 L649.6,208.0 L648.4,208.1 L647.2,210.1 L648.0,210.9 L645.7,211.7 L644.9,213.5 L643.8,214.2 L641.5,211.8 L640.3,208.1 L639.4,205.5 L638.5,204.2 L637.2,201.7 L636.5,198.5 L636.1,196.8 L633.8,193.2 L632.8,188.2 L632.1,184.8 L632.1,181.7 L631.6,179.2 L627.9,180.8 L626.2,180.5 L622.9,177.3 L624.1,176.4 L623.4,175.4 L620.4,173.1 L622.1,171.4 L627.6,171.4 L627.1,169.2 L625.7,167.8 L625.4,165.8 L623.8,164.7 L626.5,161.9 L629.4,162.1 L632.1,159.4 L633.6,156.7 L636.1,154.1 L636.0,152.2 L638.1,150.7 L636.1,149.4 L635.3,147.7 L634.4,145.4 L635.6,144.3 L639.4,144.9 L642.2,144.5 L644.6,142.3 L647.3,145.4 L647.0,147.5 L648.0,148.8 L647.9,150.2 L646.1,149.8 L646.8,152.7 L649.3,154.4 L652.8,156.2 L651.2,157.4 L650.2,159.8 L652.6,160.8 L655.0,162.1 L658.3,163.5 L661.7,163.9 L663.1,165.2 L665.1,165.5 L668.1,166.1 L670.2,166.0 L670.4,165.0 L670.1,163.3 L670.3,162.2 L671.8,161.7 L672.0,163.7 L672.1,164.2 L674.4,165.2 L675.9,164.8 L678.0,165.0 L680.1,164.9 L680.3,163.3 L679.2,162.5 L681.3,162.2 L683.5,160.2 L686.4,158.6 L688.5,159.2 L690.3,158.1 L691.5,159.7 L690.6,160.8 L693.3,161.2 Z" fill="#e7ece6" stroke="#9ca89f" stroke-width="0.6" fill-rule="evenodd" vector-effect="non-scaling-stroke"/>
      <path d="M654.5,215.4 L654.1,218.1 L653.0,218.8 L650.9,219.4 L649.7,217.3 L649.2,213.6 L650.4,209.3 L652.1,210.8 L653.3,212.6 L654.5,215.4 Z" fill="#e7ece6" stroke="#9ca89f" stroke-width="0.6" fill-rule="evenodd" vector-effect="non-scaling-stroke"/>
      <path d="M541.1,197.3 L540.8,196.3 L541.9,192.5 L542.1,190.7 L542.9,189.9 L544.8,189.5 L546.0,188.0 L547.5,191.0 L548.2,193.4 L549.5,194.7 L552.9,197.2 L554.3,198.7 L555.7,200.2 L556.5,201.1 L557.7,201.8 L556.9,202.5 L555.9,202.3 L555.0,201.4 L554.0,199.9 L552.9,199.0 L552.2,198.1 L550.1,197.1 L548.4,197.1 L547.7,196.5 L546.3,197.1 L544.8,195.9 L544.0,197.9 L541.1,197.3 Z" fill="#e7ece6" stroke="#9ca89f" stroke-width="0.6" fill-rule="evenodd" vector-effect="non-scaling-stroke"/>
      <path d="M580.0,185.4 L582.0,189.7 L582.8,191.5 L581.0,192.2 L580.5,193.4 L580.4,194.3 L577.9,195.4 L573.9,196.6 L571.7,198.4 L570.6,198.6 L569.8,198.4 L568.4,199.5 L566.8,200.0 L564.7,200.1 L564.1,200.3 L563.5,201.0 L562.9,201.2 L562.5,201.8 L561.2,201.8 L560.4,202.1 L558.7,202.0 L558.1,200.5 L558.1,199.1 L557.7,198.3 L557.2,196.3 L556.5,195.3 L557.0,195.1 L556.8,194.0 L557.1,193.5 L556.9,192.3 L558.0,191.5 L557.8,190.4 L558.5,189.1 L559.5,189.8 L560.2,189.5 L563.0,189.5 L563.5,189.7 L565.9,190.0 L566.9,189.9 L567.5,190.7 L568.7,190.3 L570.5,187.6 L572.8,186.4 L580.0,185.4 Z" fill="#e7ece6" stroke="#9ca89f" stroke-width="0.6" fill-rule="evenodd" vector-effect="non-scaling-stroke"/>
      <path d="M569.5,214.1 L562.4,221.9 L559.2,222.1 L556.9,223.9 L555.3,223.9 L554.6,224.8 L552.9,224.8 L551.9,223.9 L549.6,225.0 L548.9,226.1 L547.2,225.9 L546.7,225.6 L546.1,225.6 L545.3,225.6 L542.1,223.4 L540.4,223.4 L539.5,222.5 L539.5,221.1 L538.2,220.6 L536.8,217.8 L535.6,217.2 L535.2,216.1 L533.9,214.9 L532.4,214.7 L533.2,213.2 L534.6,213.1 L534.9,212.3 L534.9,210.0 L535.6,207.2 L536.8,206.5 L537.1,205.4 L538.2,203.5 L539.7,202.2 L540.7,199.6 L541.1,197.3 L544.0,197.9 L544.8,195.9 L546.3,197.1 L547.7,196.5 L548.4,197.1 L550.1,197.1 L552.2,198.1 L552.9,199.0 L554.0,199.9 L555.0,201.4 L555.9,202.3 L555.0,203.4 L554.2,204.6 L554.3,205.4 L554.4,206.1 L555.8,206.2 L556.4,206.0 L556.9,206.5 L556.4,207.4 L557.3,208.8 L558.2,210.1 L559.2,211.0 L567.4,214.1 L569.5,214.1 Z" fill="#e7ece6" stroke="#9ca89f" stroke-width="0.6" fill-rule="evenodd" vector-effect="non-scaling-stroke"/>
      <path d="M555.9,202.3 L556.9,202.5 L557.7,201.8 L558.3,202.6 L558.2,203.7 L556.8,204.4 L557.9,205.1 L556.9,206.5 L556.4,206.0 L555.8,206.2 L554.4,206.1 L554.3,205.4 L554.2,204.6 L555.0,203.4 L555.9,202.3 Z" fill="#e7ece6" stroke="#9ca89f" stroke-width="0.6" fill-rule="evenodd" vector-effect="non-scaling-stroke"/>
      <path d="M572.4,205.2 L572.4,205.2 L572.4,205.2 L572.3,206.3 L572.3,209.0 L572.3,210.3 L571.2,211.9 L569.5,214.1 L567.4,214.1 L559.2,211.0 L558.2,210.1 L557.3,208.8 L556.4,207.4 L556.9,206.5 L557.9,205.1 L558.7,205.6 L559.2,206.6 L560.3,207.7 L561.5,207.7 L563.9,207.1 L566.6,206.8 L568.8,205.9 L570.1,205.8 L570.9,205.3 L572.4,205.2 L572.4,205.2 Z" fill="#e7ece6" stroke="#9ca89f" stroke-width="0.6" fill-rule="evenodd" vector-effect="non-scaling-stroke"/>
      <path d="M534.8,237.5 L529.7,237.7 L526.9,237.6 L526.0,238.0 L524.6,238.8 L523.9,238.5 L524.0,236.5 L524.5,235.5 L524.7,233.4 L525.2,232.2 L526.2,230.9 L527.1,230.2 L527.9,229.2 L526.9,228.9 L527.1,225.8 L527.1,225.8 L528.1,225.1 L529.7,225.7 L531.7,225.1 L533.5,225.1 L535.0,223.9 L536.2,225.7 L536.5,227.0 L537.6,230.0 L536.7,231.9 L535.5,233.7 L534.7,234.7 L534.8,237.5 Z" fill="#e7ece6" stroke="#9ca89f" stroke-width="0.6" fill-rule="evenodd" vector-effect="non-scaling-stroke"/>
      <path d="M526.0,238.0 L527.0,239.4 L526.9,241.0 L526.2,241.3 L526.2,241.3 L524.8,241.1 L524.1,242.6 L522.6,242.4 L522.8,241.0 L523.1,240.8 L523.2,239.2 L523.9,238.5 L524.6,238.8 L526.0,238.0 Z" fill="#e7ece6" stroke="#9ca89f" stroke-width="0.6" fill-rule="evenodd" vector-effect="non-scaling-stroke"/>
      <path d="M527.1,225.8 L524.9,224.1 L524.3,223.0 L522.9,223.5 L521.7,223.4 L521.1,223.8 L519.9,223.5 L518.4,221.3 L518.0,220.5 L516.2,219.5 L515.5,217.9 L514.5,216.8 L512.8,215.4 L512.8,214.6 L511.4,213.5 L509.7,212.5 L510.5,212.2 L511.3,211.7 L512.0,209.4 L512.7,208.2 L514.5,207.8 L514.9,208.5 L516.2,210.1 L516.9,210.3 L517.8,209.8 L519.6,209.9 L519.9,210.5 L522.4,210.5 L522.5,209.9 L523.8,209.4 L524.0,208.7 L525.0,208.1 L527.1,209.7 L528.4,209.4 L529.6,207.5 L531.0,206.1 L530.8,204.5 L530.2,203.7 L531.7,203.6 L531.9,203.0 L533.0,203.2 L532.7,205.1 L533.0,207.0 L534.3,208.0 L534.6,208.9 L534.6,210.2 L534.9,210.3 L534.9,212.3 L534.6,213.1 L533.2,213.2 L532.4,214.7 L533.9,214.9 L535.2,216.1 L535.6,217.2 L536.8,217.8 L538.2,220.6 L536.6,222.3 L535.0,223.9 L533.5,225.1 L531.7,225.1 L529.7,225.7 L528.1,225.1 L527.1,225.8 Z" fill="#e7ece6" stroke="#9ca89f" stroke-width="0.6" fill-rule="evenodd" vector-effect="non-scaling-stroke"/>
  </g>
  <path d="M523.6,292.7 L520.0,294.6 L517.8,296.6 L517.0,298.3 L516.2,299.3 L514.9,299.5 L514.4,300.7 L514.2,301.5 L512.6,302.2 L510.5,302.0 L509.3,301.3 L508.3,301.0 L507.1,301.6 L506.4,302.8 L505.3,303.6 L504.0,304.8 L502.2,305.1 L501.7,304.1 L501.9,302.5 L500.4,300.1 L499.7,299.7 L499.7,292.1 L502.2,292.0 L502.3,282.7 L504.1,282.6 L508.0,281.7 L508.9,282.7 L510.5,281.7 L511.3,281.7 L512.7,281.1 L513.2,281.3 L514.1,283.4 L514.6,283.9 L515.4,285.4 L518.2,288.2 L519.3,288.5 L519.3,289.4 L520.1,291.1 L522.0,291.5 L523.6,292.7 Z" fill="#146c65" stroke="#ffffff" stroke-width="5.2" stroke-linejoin="round" fill-rule="evenodd" vector-effect="non-scaling-stroke"/>
  <path d="M523.6,292.7 L520.0,294.6 L517.8,296.6 L517.0,298.3 L516.2,299.3 L514.9,299.5 L514.4,300.7 L514.2,301.5 L512.6,302.2 L510.5,302.0 L509.3,301.3 L508.3,301.0 L507.1,301.6 L506.4,302.8 L505.3,303.6 L504.0,304.8 L502.2,305.1 L501.7,304.1 L501.9,302.5 L500.4,300.1 L499.7,299.7 L499.7,292.1 L502.2,292.0 L502.3,282.7 L504.1,282.6 L508.0,281.7 L508.9,282.7 L510.5,281.7 L511.3,281.7 L512.7,281.1 L513.2,281.3 L514.1,283.4 L514.6,283.9 L515.4,285.4 L518.2,288.2 L519.3,288.5 L519.3,289.4 L520.1,291.1 L522.0,291.5 L523.6,292.7 Z" fill="#146c65" stroke="#062f2b" stroke-width="2.4" stroke-linejoin="round" fill-rule="evenodd" vector-effect="non-scaling-stroke"/>
</svg>
