<svg xmlns="http://www.w3.org/2000/svg" viewBox="0 172.1 570.4 297.9" role="img" aria-label="Wereldkaart met een land ingekleurd">
  <rect width="900" height="470" fill="#ffffff"/>
  <g>
      <path d="M900.0,277.0 L900.0,278.2 L898.4,278.9 L896.8,279.4 L896.5,278.4 L897.7,277.9 L898.5,277.8 L900.0,277.0 Z M895.3,280.7 L895.9,280.3 L896.8,281.0 L896.4,282.4 L894.8,282.8 L893.5,282.4 L893.2,281.3 L894.2,280.4 L895.3,280.7 Z M0.5,276.8 L0.2,278.1 L0.0,278.2 L0.0,277.0 L0.5,276.8 Z" fill="#e7ece6" stroke="#9ca89f" stroke-width="0.6" fill-rule="evenodd" vector-effect="non-scaling-stroke"/>
      <path d="M534.8,237.5 L535.2,237.8 L544.2,243.1 L544.4,244.6 L548.0,247.2 L546.9,250.4 L547.0,251.9 L548.6,252.9 L548.7,253.5 L548.0,255.1 L548.1,255.9 L548.0,257.2 L548.8,258.8 L549.9,261.4 L550.8,261.9 L550.8,261.9 L548.8,263.5 L546.1,264.5 L544.6,264.4 L543.7,265.2 L541.9,265.3 L541.3,265.6 L538.3,264.9 L536.4,265.1 L535.7,261.5 L534.9,260.3 L534.3,259.6 L531.9,259.1 L530.5,258.3 L528.9,257.9 L527.9,257.4 L526.9,256.8 L526.9,256.8 L525.5,253.5 L524.1,252.0 L523.5,250.5 L523.8,249.2 L523.3,246.7 L524.4,246.6 L525.3,245.7 L526.3,244.3 L526.9,243.8 L526.9,242.9 L526.3,242.3 L526.2,241.3 L526.2,241.3 L526.9,241.0 L527.0,239.4 L526.0,238.0 L526.9,237.6 L529.7,237.7 L534.8,237.5 Z" fill="#e7ece6" stroke="#9ca89f" stroke-width="0.6" fill-rule="evenodd" vector-effect="non-scaling-stroke"/>
      <path d="M428.3,162.8 L428.3,163.0 L428.3,163.5 L428.3,167.4 L420.1,167.3 L420.2,174.0 L417.8,174.2 L417.2,175.5 L417.7,179.3 L407.9,179.3 L407.3,180.2 L407.4,179.1 L407.5,179.1 L413.1,178.9 L413.4,177.9 L414.4,176.7 L415.3,173.1 L418.7,170.3 L419.9,167.0 L420.7,166.8 L421.5,164.8 L423.6,164.5 L424.5,164.9 L425.7,164.9 L426.5,164.3 L428.0,164.2 L428.0,162.8 L428.3,162.8 Z" fill="#e7ece6" stroke="#9ca89f" stroke-width="0.6" fill-rule="evenodd" vector-effect="non-scaling-stroke"/>
      <path d="M142.9,107.1 L150.0,107.1 L157.4,107.1 L159.9,107.1 L167.5,107.1 L174.9,107.1 L182.4,107.1 L189.9,107.1 L198.4,107.1 L206.9,107.1 L212.1,107.1 L212.1,106.1 L213.0,106.0 L213.4,107.5 L214.2,107.9 L215.9,108.1 L218.5,108.5 L220.9,109.3 L222.9,109.0 L226.0,109.6 L226.8,109.6 L229.1,108.9 L231.4,109.8 L233.8,110.8 L235.9,111.7 L237.8,112.5 L238.1,113.2 L238.6,113.5 L238.5,113.7 L239.2,113.8 L239.6,113.6 L239.8,114.2 L240.3,114.6 L241.0,114.6 L241.3,114.9 L241.0,115.4 L243.6,116.6 L244.2,119.0 L244.7,121.2 L243.9,122.8 L242.7,124.2 L242.2,125.1 L242.1,125.4 L242.4,125.8 L243.3,126.2 L243.9,126.2 L246.8,124.8 L249.4,124.4 L252.7,123.1 L252.7,122.8 L252.5,122.0 L252.1,121.5 L253.2,121.1 L255.7,121.1 L257.9,121.1 L258.8,120.1 L259.1,119.9 L261.7,118.0 L262.8,117.5 L266.6,117.5 L271.2,117.5 L271.5,116.8 L272.3,116.7 L273.4,116.3 L274.2,115.1 L275.0,113.1 L276.9,111.1 L277.7,111.8 L279.4,111.4 L280.5,112.1 L280.5,115.7 L282.2,117.1 L282.6,118.0 L279.9,119.3 L277.3,120.2 L274.7,120.9 L273.4,122.5 L273.0,123.1 L272.9,124.5 L273.8,125.8 L274.8,125.9 L274.5,125.0 L275.3,125.5 L275.1,126.3 L273.4,126.7 L272.2,126.7 L270.3,127.1 L269.3,127.2 L267.8,127.4 L265.7,128.1 L269.4,127.6 L270.1,128.1 L266.6,128.9 L265.0,128.9 L265.1,128.6 L264.4,129.3 L265.1,129.4 L264.6,131.3 L262.7,133.3 L262.5,132.7 L262.0,132.5 L261.2,131.9 L261.7,133.3 L262.3,133.7 L262.4,134.7 L261.6,135.7 L260.1,137.8 L259.9,137.7 L260.7,135.9 L259.4,134.9 L259.1,132.8 L258.6,133.9 L259.2,135.6 L257.5,135.2 L259.2,136.0 L259.4,138.5 L260.1,138.7 L260.3,139.6 L260.7,142.2 L259.1,144.1 L256.5,144.9 L254.9,146.4 L253.6,146.6 L252.3,147.5 L252.0,148.4 L249.2,150.1 L247.8,151.4 L246.7,152.9 L246.3,154.8 L246.7,156.6 L247.6,158.8 L248.7,160.7 L248.7,161.8 L249.9,164.8 L249.8,166.6 L249.7,167.6 L249.0,169.2 L248.3,169.5 L247.1,169.2 L246.7,168.1 L245.7,167.5 L244.4,165.2 L243.2,163.2 L242.9,162.2 L243.4,160.5 L242.7,159.0 L240.7,156.8 L239.8,156.4 L237.2,157.6 L236.8,157.5 L235.6,156.3 L234.0,155.6 L231.2,156.0 L229.0,155.7 L227.0,155.8 L226.0,156.2 L226.5,156.9 L226.4,158.0 L227.0,158.5 L226.5,158.9 L225.6,158.5 L224.6,159.0 L222.8,158.9 L220.9,157.5 L218.8,157.8 L216.9,157.2 L215.4,157.4 L213.3,158.0 L211.0,160.0 L208.5,161.1 L207.2,162.3 L206.6,163.5 L206.6,165.3 L206.7,166.6 L207.2,167.5 L206.2,167.5 L204.4,167.0 L202.4,166.1 L201.8,164.9 L201.2,163.1 L199.7,161.6 L198.9,160.1 L197.6,158.3 L195.8,157.2 L193.8,157.3 L192.2,159.4 L190.2,158.6 L188.9,157.8 L188.2,156.3 L187.4,155.0 L185.9,153.8 L184.6,153.0 L183.7,152.1 L179.4,152.1 L179.4,153.2 L177.4,153.2 L172.4,153.2 L166.7,151.3 L163.0,150.1 L163.2,149.6 L160.0,149.8 L157.2,150.0 L156.8,148.7 L155.1,147.2 L154.0,146.9 L153.7,146.1 L152.3,146.0 L151.4,145.3 L149.1,145.1 L148.4,144.6 L148.1,143.2 L145.7,140.6 L143.6,136.9 L143.7,136.3 L142.6,135.5 L140.7,133.3 L140.3,131.2 L139.0,129.7 L139.6,127.6 L139.5,125.3 L138.7,123.3 L139.6,120.9 L139.9,118.5 L140.3,116.1 L139.8,112.6 L139.0,110.4 L138.3,109.2 L138.6,108.7 L142.2,109.6 L143.5,112.0 L144.1,111.3 L143.8,109.2 L142.9,107.1 Z M61.5,182.6 L61.9,182.8 L62.3,183.1 L63.0,184.1 L62.9,184.2 L61.9,184.8 L61.1,185.2 L60.8,185.6 L60.2,185.2 L60.2,184.5 L59.8,183.6 L59.9,183.3 L60.4,182.8 L60.2,182.3 L60.3,182.1 L60.5,182.1 L61.5,182.6 Z M60.0,180.8 L59.8,181.1 L59.0,181.3 L58.5,180.7 L58.2,180.5 L58.2,180.4 L58.5,180.1 L59.4,180.4 L60.0,180.8 Z M58.1,179.7 L58.0,180.0 L56.7,179.9 L56.9,179.6 L58.1,179.7 Z M54.9,178.3 L55.1,178.5 L55.9,179.3 L55.7,179.5 L55.6,179.4 L54.7,179.4 L54.4,178.8 L54.3,178.7 L54.9,178.3 Z M51.6,177.0 L51.6,177.6 L51.3,177.9 L50.5,177.4 L50.6,177.2 L51.0,176.9 L51.6,177.0 Z M33.8,77.3 L35.8,77.6 L36.1,78.6 L34.5,79.0 L32.9,78.5 L31.4,77.8 L33.8,77.3 Z M66.9,83.6 L68.6,83.8 L69.6,84.6 L67.5,85.9 L65.0,86.9 L63.7,86.2 L63.3,85.0 L65.6,84.0 L66.9,83.6 Z M97.5,53.0 L97.5,53.0 L97.5,62.7 L97.5,77.5 L100.0,77.6 L102.4,78.3 L104.1,79.5 L106.4,81.2 L108.8,79.7 L111.3,78.9 L112.6,80.2 L114.3,81.3 L116.6,82.5 L118.2,84.4 L120.7,87.3 L125.0,89.0 L125.1,90.6 L123.7,91.9 L123.7,91.9 L123.7,91.9 L122.3,90.9 L120.1,90.1 L119.4,87.8 L116.2,85.7 L114.8,83.2 L112.4,83.1 L108.4,83.0 L105.5,82.3 L100.3,79.5 L97.9,79.0 L93.6,78.1 L90.1,78.3 L85.2,77.1 L82.2,76.0 L79.4,76.6 L80.0,78.4 L78.6,78.6 L75.7,79.1 L73.5,80.0 L70.7,80.5 L70.4,79.0 L71.5,76.4 L74.1,75.6 L73.4,75.0 L70.3,76.4 L68.6,78.2 L65.0,80.0 L66.8,81.3 L64.4,83.2 L61.7,84.3 L59.2,85.1 L58.6,86.2 L54.7,87.6 L53.9,88.8 L51.0,89.9 L49.3,89.7 L46.9,90.4 L44.4,91.3 L42.3,92.2 L38.0,92.9 L37.6,92.5 L40.4,91.3 L42.8,90.5 L45.5,89.1 L48.6,88.8 L49.8,87.7 L53.3,86.1 L53.8,85.6 L55.7,84.7 L56.1,82.7 L57.4,81.2 L54.5,81.9 L53.7,81.5 L52.4,82.4 L50.7,81.1 L50.0,82.1 L49.1,80.8 L46.6,81.8 L45.1,81.8 L44.9,80.2 L45.3,79.3 L43.7,78.4 L40.5,78.9 L38.3,77.6 L36.6,77.0 L36.6,75.5 L34.7,74.4 L35.7,72.9 L37.7,71.5 L38.6,70.1 L40.6,69.9 L42.3,70.3 L44.3,69.1 L46.2,69.3 L48.1,68.5 L47.6,67.3 L46.2,66.8 L48.1,65.8 L46.5,65.9 L43.9,66.4 L43.1,67.0 L41.1,66.4 L37.6,66.7 L33.9,66.1 L32.9,65.0 L29.7,63.5 L33.2,62.4 L38.8,61.2 L40.9,61.2 L40.5,62.5 L45.8,62.4 L43.8,60.7 L40.7,59.8 L38.9,58.4 L36.5,57.3 L33.1,56.5 L34.5,55.1 L38.9,55.1 L42.1,53.9 L42.7,52.6 L45.2,51.4 L47.7,51.1 L52.4,49.9 L54.7,50.1 L58.5,48.7 L62.3,49.2 L64.1,50.4 L65.2,49.9 L69.5,50.1 L69.3,50.7 L73.2,51.1 L75.7,50.8 L81.0,51.7 L85.8,51.9 L87.7,52.2 L91.0,51.8 L94.8,52.6 L97.5,53.0 L97.5,53.0 Z M20.7,68.5 L22.2,69.0 L23.8,68.7 L25.8,69.4 L28.3,69.7 L28.1,70.0 L26.2,70.6 L24.3,70.0 L23.3,69.5 L21.1,69.7 L20.5,69.4 L20.7,68.5 Z" fill="#e7ece6" stroke="#9ca89f" stroke-width="0.6" fill-rule="evenodd" vector-effect="non-scaling-stroke"/>
      <path d="M278.4,372.4 L279.4,373.6 L280.6,375.6 L283.9,377.2 L287.4,377.8 L286.2,379.1 L283.9,379.3 L282.6,378.3 L281.1,378.3 L278.4,378.3 L278.4,372.4 Z M305.9,313.9 L305.3,316.0 L304.6,318.7 L304.7,321.3 L304.1,321.9 L303.9,323.5 L303.8,324.9 L306.9,327.1 L306.6,328.9 L308.2,330.1 L308.0,331.4 L305.6,334.7 L301.9,336.1 L296.9,336.6 L294.2,336.4 L294.7,337.9 L294.2,339.9 L294.6,341.2 L293.1,342.1 L290.6,342.5 L288.2,341.5 L287.2,342.2 L287.6,344.8 L289.2,345.6 L290.6,344.8 L291.4,346.1 L289.1,346.9 L287.0,348.6 L286.7,351.2 L286.1,352.6 L283.7,352.6 L281.8,353.9 L281.0,355.9 L283.5,357.8 L285.9,358.3 L285.0,360.7 L282.1,362.2 L280.5,365.2 L278.2,366.2 L277.2,367.5 L278.0,370.2 L279.6,371.7 L278.6,371.6 L276.3,371.2 L270.2,370.8 L269.2,369.3 L269.2,367.3 L267.6,367.5 L266.7,366.5 L266.5,363.8 L268.4,362.6 L269.2,361.0 L268.9,359.7 L270.2,357.4 L271.1,354.0 L270.9,352.4 L271.9,351.9 L271.7,351.0 L270.5,350.4 L271.3,349.3 L270.2,348.3 L269.6,345.3 L270.6,344.8 L270.2,341.6 L270.8,338.9 L271.5,336.6 L273.0,335.7 L272.2,333.1 L272.2,330.7 L274.1,329.0 L274.0,326.8 L275.5,324.3 L275.5,321.9 L274.8,321.4 L273.7,316.9 L275.2,314.2 L275.0,311.7 L275.9,309.3 L277.5,306.9 L279.3,305.2 L278.5,304.2 L279.0,303.4 L279.0,299.0 L281.7,297.7 L282.5,295.0 L282.2,294.4 L284.3,292.0 L287.6,292.6 L289.1,294.5 L290.0,292.4 L292.9,292.5 L293.3,293.1 L297.9,297.4 L299.9,297.8 L303.0,299.7 L305.6,300.7 L305.9,301.9 L303.5,305.8 L306.0,306.5 L308.8,306.9 L310.8,306.5 L313.0,304.5 L313.4,302.2 L314.7,301.7 L315.9,303.2 L315.9,305.3 L313.8,306.7 L312.1,307.8 L309.3,310.3 L305.9,313.9 Z" fill="#e7ece6" stroke="#9ca89f" stroke-width="0.6" fill-rule="evenodd" vector-effect="non-scaling-stroke"/>
      <path d="M278.4,372.4 L278.4,378.3 L281.1,378.3 L282.6,378.3 L281.8,379.4 L279.6,380.2 L278.4,380.1 L276.9,379.9 L275.1,379.1 L272.5,378.8 L269.3,377.3 L266.8,375.9 L263.3,373.0 L265.4,373.5 L268.9,375.3 L272.2,376.2 L273.5,375.0 L274.3,373.2 L276.6,372.1 L278.4,372.4 Z M276.0,280.9 L277.2,282.7 L277.6,284.6 L278.9,285.7 L278.1,288.2 L279.5,291.1 L280.4,294.7 L282.2,294.4 L282.5,295.0 L281.7,297.7 L279.0,299.0 L279.0,303.4 L278.5,304.2 L279.3,305.2 L277.5,306.9 L275.9,309.3 L275.0,311.7 L275.2,314.2 L273.7,316.9 L274.8,321.4 L275.5,321.9 L275.5,324.3 L274.0,326.8 L274.1,329.0 L272.2,330.7 L272.2,333.1 L273.0,335.7 L271.5,336.6 L270.8,338.9 L270.2,341.6 L270.6,344.8 L269.6,345.3 L270.2,348.3 L271.3,349.3 L270.5,350.4 L271.7,351.0 L271.9,351.9 L270.9,352.4 L271.1,354.0 L270.2,357.4 L268.9,359.7 L269.2,361.0 L268.4,362.6 L266.5,363.8 L266.7,366.5 L267.6,367.5 L269.2,367.3 L269.2,369.3 L270.2,370.8 L276.3,371.2 L278.6,371.6 L276.3,371.5 L275.1,372.2 L272.9,373.1 L272.5,375.6 L271.4,375.6 L268.6,374.8 L265.7,373.0 L265.7,373.0 L262.6,371.5 L261.8,369.8 L262.6,368.3 L261.3,366.5 L261.0,362.1 L262.0,359.6 L264.7,357.6 L260.9,356.8 L263.3,354.5 L264.1,350.2 L266.9,351.1 L268.2,345.7 L266.5,345.0 L265.7,348.2 L264.2,347.9 L265.0,344.1 L265.8,339.3 L267.0,337.5 L266.2,335.0 L266.0,332.0 L267.1,331.9 L268.6,327.7 L270.3,323.5 L271.4,319.6 L270.8,315.7 L271.6,313.6 L271.3,310.4 L272.7,307.2 L273.2,302.1 L274.0,296.7 L274.8,290.9 L274.6,286.6 L274.1,282.9 L275.4,282.2 L276.0,280.9 Z" fill="#e7ece6" stroke="#9ca89f" stroke-width="0.6" fill-rule="evenodd" vector-effect="non-scaling-stroke"/>
      <path d="M523.3,246.7 L523.8,249.2 L523.5,250.5 L524.1,252.0 L525.5,253.5 L526.9,256.8 L526.9,256.8 L525.9,256.5 L522.5,257.0 L521.8,257.3 L521.1,258.9 L521.7,260.1 L521.2,263.2 L520.9,265.8 L521.6,266.3 L523.4,267.3 L524.0,266.8 L524.2,269.6 L522.3,269.6 L521.3,268.2 L520.4,267.0 L518.5,266.7 L517.9,265.3 L516.4,266.1 L514.4,265.8 L513.5,264.6 L512.0,264.3 L510.8,264.4 L510.6,263.6 L509.8,263.5 L508.6,263.4 L507.1,263.8 L506.0,263.7 L505.4,263.9 L505.5,260.8 L504.7,259.9 L504.5,258.3 L504.9,256.7 L504.4,255.7 L504.3,254.0 L501.3,254.1 L501.5,253.1 L500.2,253.1 L500.1,253.6 L498.5,253.7 L497.9,255.2 L497.5,255.9 L496.2,255.5 L495.3,255.9 L493.7,256.1 L492.7,254.7 L492.2,253.9 L491.4,252.3 L490.8,250.3 L483.4,250.3 L482.6,250.6 L481.8,250.6 L480.8,250.9 L480.5,250.1 L481.1,249.8 L481.2,248.7 L481.6,248.0 L482.5,247.5 L483.1,247.7 L484.0,246.8 L485.4,246.8 L485.5,247.5 L486.5,248.0 L487.9,246.3 L489.4,245.1 L490.0,244.2 L489.9,242.1 L491.0,239.5 L492.2,238.2 L493.8,236.9 L494.1,236.1 L494.2,235.2 L494.6,234.2 L494.4,232.8 L494.7,230.5 L495.2,228.8 L496.0,227.4 L496.1,225.8 L496.4,224.0 L497.3,222.7 L498.7,221.9 L500.7,222.7 L502.3,223.7 L504.1,224.0 L506.0,224.5 L506.8,222.9 L507.1,222.7 L508.2,223.0 L511.0,221.7 L512.0,222.2 L512.8,222.1 L513.2,221.5 L514.1,221.3 L516.0,221.6 L517.6,221.6 L518.4,221.3 L519.9,223.5 L521.1,223.8 L521.7,223.4 L522.9,223.5 L524.3,223.0 L524.9,224.1 L527.1,225.8 L527.1,225.8 L526.9,228.9 L527.9,229.2 L527.1,230.2 L526.2,230.9 L525.2,232.2 L524.7,233.4 L524.5,235.5 L524.0,236.5 L523.9,238.5 L523.2,239.2 L523.1,240.8 L522.8,241.0 L522.6,242.4 L523.2,243.6 L523.3,246.7 Z" fill="#e7ece6" stroke="#9ca89f" stroke-width="0.6" fill-rule="evenodd" vector-effect="non-scaling-stroke"/>
      <path d="M554.0,239.4 L552.5,237.2 L552.5,227.7 L554.6,224.8 L555.3,223.9 L556.9,223.9 L559.2,222.1 L562.4,221.9 L569.5,214.1 L571.2,211.9 L572.3,210.3 L572.3,209.0 L572.3,206.3 L572.4,205.2 L572.4,205.2 L572.4,205.2 L573.2,205.2 L574.3,204.8 L575.6,204.5 L576.8,203.6 L577.8,203.6 L577.8,204.3 L577.6,205.8 L577.6,207.2 L577.1,208.2 L576.4,211.0 L575.2,213.9 L573.6,217.2 L571.5,221.1 L569.4,224.0 L566.4,227.5 L563.9,229.7 L560.2,232.3 L557.8,234.2 L555.1,237.4 L554.5,238.8 L554.0,239.4 Z" fill="#e7ece6" stroke="#9ca89f" stroke-width="0.6" fill-rule="evenodd" vector-effect="non-scaling-stroke"/>
      <path d="M548.0,247.2 L544.4,244.6 L544.2,243.1 L535.2,237.8 L534.8,237.5 L534.7,234.7 L535.5,233.7 L536.7,231.9 L537.6,230.0 L536.5,227.0 L536.2,225.7 L535.0,223.9 L536.6,222.3 L538.2,220.6 L539.5,221.1 L539.5,222.5 L540.4,223.4 L542.1,223.4 L545.3,225.6 L546.1,225.6 L546.7,225.6 L547.2,225.9 L548.9,226.1 L549.6,225.0 L551.9,223.9 L552.9,224.8 L554.6,224.8 L552.5,227.7 L552.5,237.2 L554.0,239.4 L552.2,240.4 L551.6,241.5 L550.7,241.7 L550.3,243.6 L549.5,244.6 L549.0,246.3 L548.0,247.2 Z" fill="#e7ece6" stroke="#9ca89f" stroke-width="0.6" fill-rule="evenodd" vector-effect="non-scaling-stroke"/>
      <path d="M511.4,213.5 L509.5,212.4 L508.6,211.6 L508.5,210.8 L508.9,209.7 L508.9,208.7 L507.4,207.0 L507.2,205.9 L507.2,205.3 L506.3,204.5 L506.2,203.0 L505.7,202.0 L504.8,202.1 L505.1,201.2 L505.7,200.1 L505.5,199.0 L506.3,198.2 L505.8,197.6 L506.4,196.0 L507.6,194.1 L509.7,194.2 L509.6,183.9 L509.6,182.8 L512.5,182.8 L512.5,177.6 L522.6,177.6 L532.2,177.6 L542.2,177.6 L543.0,180.1 L542.4,180.6 L542.8,183.3 L543.7,186.4 L544.7,187.0 L546.0,188.0 L544.8,189.5 L542.9,189.9 L542.1,190.7 L541.9,192.5 L540.8,196.3 L541.1,197.3 L540.7,199.6 L539.7,202.2 L538.2,203.5 L537.1,205.4 L536.8,206.5 L535.6,207.2 L534.9,210.0 L534.9,212.3 L534.9,210.3 L534.6,210.2 L534.6,208.9 L534.3,208.0 L533.0,207.0 L532.7,205.1 L533.0,203.2 L531.9,203.0 L531.7,203.6 L530.2,203.7 L530.8,204.5 L531.0,206.1 L529.6,207.5 L528.4,209.4 L527.1,209.7 L525.0,208.1 L524.0,208.7 L523.8,209.4 L522.5,209.9 L522.4,210.5 L519.9,210.5 L519.6,209.9 L517.8,209.8 L516.9,210.3 L516.2,210.1 L514.9,208.5 L514.5,207.8 L512.7,208.2 L512.0,209.4 L511.3,211.7 L510.5,212.2 L509.7,212.5 L511.4,213.5 Z" fill="#e7ece6" stroke="#9ca89f" stroke-width="0.6" fill-rule="evenodd" vector-effect="non-scaling-stroke"/>
      <path d="M509.6,183.9 L509.7,194.2 L507.6,194.1 L506.4,196.0 L505.8,197.6 L506.3,198.2 L505.5,199.0 L505.7,200.1 L505.1,201.2 L504.8,202.1 L505.7,202.0 L506.2,203.0 L506.3,204.5 L507.2,205.3 L507.2,205.9 L505.6,206.4 L504.3,207.4 L502.5,210.3 L500.1,211.5 L497.7,211.3 L497.0,211.5 L497.3,212.5 L496.0,213.4 L494.9,214.4 L491.8,215.4 L491.1,214.8 L490.7,214.8 L490.3,215.4 L488.2,215.6 L488.6,214.9 L487.8,213.1 L487.4,212.0 L486.4,211.6 L484.9,210.1 L485.4,208.8 L486.6,209.1 L487.3,208.9 L488.7,208.9 L487.3,206.6 L487.4,204.8 L487.2,203.1 L486.2,201.4 L486.5,200.2 L484.9,200.1 L484.9,198.5 L483.9,197.5 L484.9,194.0 L488.1,191.6 L488.3,188.2 L489.2,182.9 L489.8,181.8 L488.7,180.9 L488.7,180.0 L487.7,179.4 L487.1,175.3 L489.7,173.9 L499.6,178.9 L509.6,183.9 Z" fill="#e7ece6" stroke="#9ca89f" stroke-width="0.6" fill-rule="evenodd" vector-effect="non-scaling-stroke"/>
      <path d="M270.7,183.5 L270.9,184.9 L270.7,185.9 L270.1,186.4 L270.8,187.2 L270.7,187.9 L269.1,187.4 L267.9,187.6 L266.4,187.4 L265.2,187.9 L263.9,187.1 L264.1,186.3 L266.4,186.6 L268.3,186.8 L269.2,186.3 L268.0,185.1 L268.0,184.1 L266.5,183.7 L267.0,183.0 L268.6,183.1 L270.7,183.5 Z" fill="#e7ece6" stroke="#9ca89f" stroke-width="0.6" fill-rule="evenodd" vector-effect="non-scaling-stroke"/>
      <path d="M270.7,187.9 L270.8,187.2 L270.1,186.4 L270.7,185.9 L270.9,184.9 L270.7,183.5 L271.0,183.1 L273.0,183.1 L274.5,183.8 L275.1,183.7 L275.6,184.6 L276.9,184.6 L276.9,185.3 L278.0,185.4 L279.2,186.4 L278.3,187.5 L277.1,186.9 L275.9,187.0 L275.1,186.9 L274.7,187.4 L273.7,187.5 L273.3,186.9 L272.5,187.3 L271.5,189.0 L270.9,188.6 L270.7,187.9 Z" fill="#e7ece6" stroke="#9ca89f" stroke-width="0.6" fill-rule="evenodd" vector-effect="non-scaling-stroke"/>
      <path d="M252.5,165.0 L253.7,164.8 L255.4,164.9 L255.4,165.6 L252.7,166.0 L252.5,165.0 Z M255.5,164.4 L257.5,165.6 L257.1,167.4 L256.6,167.1 L256.7,165.7 L255.5,164.7 L255.5,164.4 Z M254.5,169.2 L255.3,169.3 L256.1,171.4 L256.2,173.0 L255.6,173.1 L254.9,171.6 L254.0,170.8 L254.5,169.2 Z" fill="#e7ece6" stroke="#9ca89f" stroke-width="0.6" fill-rule="evenodd" vector-effect="non-scaling-stroke"/>
      <path d="M297.0,370.4 L300.0,368.8 L302.1,369.5 L303.6,368.4 L305.6,369.6 L304.9,370.5 L301.5,371.3 L300.4,370.4 L298.2,371.6 L297.0,370.4 Z" fill="#e7ece6" stroke="#9ca89f" stroke-width="0.6" fill-rule="evenodd" vector-effect="non-scaling-stroke"/>
      <path d="M490.9,309.6 L492.1,308.3 L493.0,309.0 L493.5,310.2 L494.6,310.3 L496.2,310.8 L497.5,310.7 L499.7,309.3 L499.7,299.7 L500.4,300.1 L501.9,302.5 L501.7,304.1 L502.2,305.1 L504.0,304.8 L505.3,303.6 L506.4,302.8 L507.1,301.6 L508.3,301.0 L509.3,301.3 L510.5,302.0 L512.6,302.2 L514.2,301.5 L514.4,300.7 L514.9,299.5 L516.2,299.3 L517.0,298.3 L517.8,296.6 L520.0,294.6 L523.6,292.7 L524.6,292.7 L525.8,293.2 L526.6,292.8 L528.0,293.1 L529.2,296.8 L529.8,298.6 L529.4,301.5 L529.6,302.5 L528.3,302.0 L527.6,302.2 L527.4,302.9 L526.7,303.9 L526.7,304.8 L528.2,306.2 L529.7,306.0 L530.2,304.8 L532.1,304.8 L531.5,306.7 L531.2,308.9 L530.5,310.1 L528.8,311.4 L528.3,311.8 L527.3,313.1 L526.6,314.4 L525.1,316.3 L522.3,319.0 L520.5,320.6 L518.7,321.8 L516.0,322.8 L514.8,322.9 L514.5,323.6 L512.9,323.2 L511.7,323.7 L509.0,323.2 L507.5,323.6 L506.4,323.4 L503.9,324.5 L501.7,324.9 L500.2,325.9 L499.0,325.9 L498.0,325.0 L497.1,324.9 L496.1,323.8 L495.9,324.1 L495.6,323.4 L495.6,321.9 L494.8,320.2 L495.6,319.7 L495.6,317.7 L493.9,315.2 L492.7,313.0 L492.7,313.0 L490.9,309.6 Z M522.4,310.6 L521.4,309.8 L520.2,310.3 L518.8,311.4 L517.5,313.0 L519.4,315.0 L520.3,314.8 L520.7,313.9 L522.1,313.5 L522.5,312.7 L523.3,311.4 L522.4,310.6 Z" fill="#e7ece6" stroke="#9ca89f" stroke-width="0.6" fill-rule="evenodd" vector-effect="non-scaling-stroke"/>
      <path d="M522.4,310.6 L523.3,311.4 L522.5,312.7 L522.1,313.5 L520.7,313.9 L520.3,314.8 L519.4,315.0 L517.5,313.0 L518.8,311.4 L520.2,310.3 L521.4,309.8 L522.4,310.6 Z" fill="#e7ece6" stroke="#9ca89f" stroke-width="0.6" fill-rule="evenodd" vector-effect="non-scaling-stroke"/>
      <path d="M157.2,150.0 L160.0,149.8 L163.2,149.6 L163.0,150.1 L166.7,151.3 L172.4,153.2 L177.4,153.2 L179.4,153.2 L179.4,152.1 L183.7,152.1 L184.6,153.0 L185.9,153.8 L187.4,155.0 L188.2,156.3 L188.9,157.8 L190.2,158.6 L192.2,159.4 L193.8,157.3 L195.8,157.2 L197.6,158.3 L198.9,160.1 L199.7,161.6 L201.2,163.1 L201.8,164.9 L202.4,166.1 L204.4,167.0 L206.2,167.5 L207.1,167.5 L206.2,169.7 L205.7,171.6 L205.6,175.1 L205.3,176.4 L205.8,177.8 L206.5,179.1 L207.0,181.1 L208.7,183.1 L209.3,184.6 L210.2,185.8 L212.9,186.5 L213.9,187.6 L216.1,186.9 L218.0,186.6 L219.9,186.2 L221.5,185.7 L223.1,184.6 L223.7,183.1 L223.9,180.9 L224.3,180.2 L226.0,179.5 L228.6,178.9 L230.9,179.0 L232.4,178.7 L233.0,179.3 L232.9,180.6 L231.5,182.1 L230.9,183.7 L231.4,184.2 L231.0,185.3 L230.4,187.3 L229.8,186.7 L229.2,186.7 L228.8,186.7 L227.9,188.3 L227.4,188.0 L227.1,188.1 L227.1,188.5 L224.8,188.5 L222.5,188.5 L222.5,189.9 L221.4,190.0 L222.3,190.8 L223.2,191.4 L223.5,192.0 L223.9,192.2 L223.8,193.0 L220.6,193.0 L219.4,195.2 L219.8,195.7 L219.5,196.3 L219.4,197.0 L216.6,194.2 L215.3,193.4 L213.3,192.7 L211.9,192.9 L209.9,193.9 L208.6,194.1 L206.8,193.4 L205.0,192.9 L202.6,191.7 L200.8,191.4 L197.9,190.2 L195.8,188.9 L195.2,188.2 L193.8,188.1 L191.2,187.2 L190.2,186.0 L187.5,184.6 L186.3,182.9 L185.7,181.6 L186.5,181.4 L186.2,180.6 L186.8,180.0 L186.8,179.1 L186.0,177.9 L185.8,176.9 L184.9,175.5 L182.7,172.9 L180.2,170.9 L179.0,169.3 L176.8,168.2 L176.4,167.6 L176.8,166.0 L175.5,165.3 L174.0,164.1 L173.4,162.3 L172.1,162.0 L170.6,160.7 L169.4,159.4 L169.3,158.6 L168.0,156.6 L167.1,154.6 L167.1,153.6 L165.3,152.6 L164.5,152.7 L163.1,152.0 L162.7,153.0 L163.1,154.3 L163.3,156.2 L164.2,157.3 L166.0,159.1 L166.4,159.7 L166.8,159.9 L167.1,160.8 L167.6,160.8 L168.1,162.5 L168.9,163.1 L169.4,164.1 L171.0,165.4 L171.8,167.8 L172.5,169.0 L173.2,170.2 L173.4,171.6 L174.6,171.6 L175.6,172.8 L176.5,174.0 L176.4,174.5 L175.4,175.4 L174.9,175.4 L174.3,173.8 L172.6,172.3 L170.8,171.1 L169.5,170.4 L169.6,168.5 L169.2,167.1 L168.1,166.3 L166.3,165.1 L166.0,165.4 L165.4,164.8 L163.8,164.1 L162.4,162.6 L162.5,162.4 L163.6,162.6 L164.5,161.6 L164.6,160.4 L162.7,158.5 L161.2,157.8 L160.3,156.2 L159.4,154.5 L158.2,152.4 L157.2,150.0 Z" fill="#e7ece6" stroke="#9ca89f" stroke-width="0.6" fill-rule="evenodd" vector-effect="non-scaling-stroke"/>
      <path d="M305.9,313.9 L307.6,313.6 L310.1,315.6 L311.0,315.6 L313.6,317.2 L315.5,318.7 L317.0,320.5 L315.9,321.7 L316.6,323.2 L315.5,324.8 L312.7,326.3 L310.8,325.7 L309.5,326.0 L307.2,324.9 L305.5,325.0 L303.9,323.5 L304.1,321.9 L304.7,321.3 L304.6,318.7 L305.3,316.0 L305.9,313.9 Z" fill="#e7ece6" stroke="#9ca89f" stroke-width="0.6" fill-rule="evenodd" vector-effect="non-scaling-stroke"/>
      <path d="M316.6,323.2 L315.9,321.7 L317.0,320.5 L315.5,318.7 L313.6,317.2 L311.0,315.6 L310.1,315.6 L307.6,313.6 L305.9,313.9 L309.3,310.3 L312.1,307.8 L313.8,306.7 L315.9,305.3 L315.9,303.2 L314.7,301.7 L313.4,302.2 L313.9,300.7 L314.3,299.2 L314.3,297.7 L313.4,297.2 L312.4,297.7 L311.5,297.6 L311.2,296.5 L311.0,294.2 L310.5,293.4 L308.8,292.7 L307.8,293.2 L305.2,292.7 L305.3,289.1 L304.6,287.7 L305.4,287.1 L305.1,285.7 L305.8,284.5 L306.3,282.5 L305.7,280.8 L304.3,280.1 L304.0,279.1 L304.4,277.6 L299.6,277.5 L298.6,274.4 L299.4,274.4 L299.3,273.2 L298.9,272.5 L298.7,271.0 L297.3,270.2 L295.7,270.2 L294.7,269.5 L293.0,268.9 L292.0,268.0 L289.2,267.5 L286.5,265.2 L286.7,263.5 L286.4,262.4 L286.7,260.5 L283.4,260.9 L282.1,261.9 L279.9,263.0 L279.3,263.8 L278.0,263.8 L276.2,263.6 L274.8,264.0 L273.6,263.7 L273.8,259.8 L271.7,261.3 L269.5,261.3 L268.6,259.9 L266.9,259.7 L267.5,258.6 L266.1,257.0 L265.0,254.6 L265.7,254.2 L265.7,253.1 L267.2,252.3 L267.0,250.9 L267.6,250.0 L267.8,248.8 L270.6,247.0 L272.7,246.5 L273.0,246.1 L275.3,246.2 L276.4,239.1 L276.4,237.9 L276.1,236.4 L274.9,235.5 L275.0,233.6 L276.4,233.2 L276.9,233.4 L277.0,232.4 L275.5,232.2 L275.5,230.5 L280.3,230.6 L281.2,229.7 L281.9,230.5 L282.3,232.0 L282.8,231.7 L284.2,233.1 L286.1,232.9 L286.6,232.1 L288.5,231.5 L289.5,231.1 L289.8,230.0 L291.6,229.3 L291.4,228.7 L289.3,228.5 L289.0,226.8 L289.1,225.1 L288.0,224.4 L288.4,224.2 L290.3,224.5 L292.3,225.2 L293.0,224.5 L294.8,224.1 L297.6,223.2 L298.5,222.2 L298.2,221.4 L299.5,221.3 L300.0,221.9 L299.7,223.1 L300.6,223.4 L301.2,224.7 L300.5,225.6 L300.1,227.8 L300.7,229.1 L300.9,230.3 L302.4,231.6 L303.6,231.7 L303.9,231.2 L304.7,231.1 L305.8,230.6 L306.7,229.9 L308.0,230.1 L308.7,230.0 L310.0,230.3 L310.2,229.7 L309.8,229.2 L310.1,228.4 L311.1,228.7 L312.3,228.4 L313.7,229.0 L314.8,229.5 L315.6,228.8 L316.1,228.9 L316.5,229.6 L317.7,229.5 L318.6,228.5 L319.4,226.5 L320.9,224.1 L321.7,224.0 L322.3,225.5 L323.7,230.0 L325.1,230.5 L325.1,232.3 L323.3,234.4 L324.0,235.2 L328.4,235.6 L328.5,238.2 L330.4,236.5 L333.6,237.5 L337.7,239.1 L339.0,240.6 L338.5,242.0 L341.5,241.2 L346.3,242.6 L350.1,242.5 L353.7,244.7 L356.9,247.6 L358.9,248.3 L361.0,248.4 L361.9,249.3 L362.8,252.6 L363.2,254.2 L362.2,258.5 L360.9,260.2 L357.4,263.8 L355.8,266.8 L353.9,269.0 L353.3,269.1 L352.6,271.0 L352.8,275.9 L352.1,279.9 L351.8,281.7 L351.0,282.7 L350.6,286.2 L348.1,289.6 L347.6,292.3 L345.6,293.4 L345.0,295.0 L342.3,295.0 L338.4,296.0 L336.6,297.1 L333.8,297.9 L330.9,300.0 L328.8,302.6 L328.4,304.5 L328.8,306.0 L328.3,308.6 L327.8,309.9 L326.0,311.3 L323.3,315.9 L321.1,318.0 L319.4,319.2 L318.2,321.7 L316.6,323.2 Z" fill="#e7ece6" stroke="#9ca89f" stroke-width="0.6" fill-rule="evenodd" vector-effect="non-scaling-stroke"/>
      <path d="M276.2,263.6 L278.0,263.8 L279.3,263.8 L279.9,263.0 L282.1,261.9 L283.4,260.9 L286.7,260.5 L286.4,262.4 L286.7,263.5 L286.5,265.2 L289.2,267.5 L292.0,268.0 L293.0,268.9 L294.7,269.5 L295.7,270.2 L297.3,270.2 L298.7,271.0 L298.9,272.5 L299.3,273.2 L299.4,274.4 L298.6,274.4 L299.6,277.5 L304.4,277.6 L304.0,279.1 L304.3,280.1 L305.7,280.8 L306.3,282.5 L305.8,284.5 L305.1,285.7 L305.4,287.1 L304.6,287.7 L304.5,286.9 L302.2,285.5 L299.9,285.5 L295.5,286.3 L294.3,288.6 L294.3,290.0 L293.3,293.1 L292.9,292.5 L290.0,292.4 L289.1,294.5 L287.6,292.6 L284.3,292.0 L282.2,294.4 L280.4,294.7 L279.5,291.1 L278.1,288.2 L278.9,285.7 L277.6,284.6 L277.2,282.7 L276.0,280.9 L277.6,278.1 L276.5,275.9 L277.1,275.0 L276.7,274.0 L277.6,272.7 L277.7,270.5 L277.8,268.7 L278.3,267.8 L276.2,263.6 Z" fill="#e7ece6" stroke="#9ca89f" stroke-width="0.6" fill-rule="evenodd" vector-effect="non-scaling-stroke"/>
      <path d="M275.3,246.2 L273.0,246.1 L272.7,246.5 L270.6,247.0 L267.8,248.8 L267.6,250.0 L267.0,250.9 L267.2,252.3 L265.7,253.1 L265.7,254.2 L265.0,254.6 L266.1,257.0 L267.5,258.6 L266.9,259.7 L268.6,259.9 L269.5,261.3 L271.7,261.3 L273.8,259.8 L273.6,263.7 L274.8,264.0 L276.2,263.6 L278.3,267.8 L277.8,268.7 L277.7,270.5 L277.6,272.7 L276.7,274.0 L277.1,275.0 L276.5,275.9 L277.6,278.1 L276.0,280.9 L275.4,282.2 L274.1,282.9 L271.6,281.4 L271.3,280.3 L266.4,277.7 L261.9,274.9 L260.0,273.3 L258.9,271.1 L259.4,270.3 L257.2,266.9 L254.8,262.1 L252.4,256.9 L251.4,255.7 L250.6,253.8 L248.7,252.1 L246.9,251.0 L247.7,249.9 L246.5,247.4 L247.3,245.5 L249.2,243.9 L249.5,245.0 L248.8,245.6 L248.9,246.6 L249.9,246.3 L250.9,246.6 L252.0,247.9 L253.4,246.9 L253.9,245.1 L255.4,242.8 L258.4,241.8 L261.1,239.1 L261.9,237.4 L261.6,235.4 L262.2,235.1 L263.9,236.4 L264.7,237.6 L265.9,238.3 L267.3,241.0 L269.2,241.4 L270.6,240.7 L271.5,241.1 L273.0,240.9 L274.9,242.1 L273.3,244.8 L274.0,244.8 L275.3,246.2 Z" fill="#e7ece6" stroke="#9ca89f" stroke-width="0.6" fill-rule="evenodd" vector-effect="non-scaling-stroke"/>
      <path d="M282.8,231.7 L282.3,232.0 L281.9,230.5 L281.2,229.7 L280.3,230.6 L275.5,230.5 L275.5,232.2 L277.0,232.4 L276.9,233.4 L276.4,233.2 L275.0,233.6 L274.9,235.5 L276.1,236.4 L276.4,237.9 L276.4,239.1 L275.3,246.2 L274.0,244.8 L273.3,244.8 L274.9,242.1 L273.0,240.9 L271.5,241.1 L270.6,240.7 L269.2,241.4 L267.3,241.0 L265.9,238.3 L264.7,237.6 L263.9,236.4 L262.2,235.1 L261.6,235.4 L260.5,234.8 L259.3,233.9 L258.6,234.3 L256.4,234.0 L255.8,232.8 L255.4,232.9 L252.9,231.4 L252.5,230.6 L253.5,230.4 L253.3,229.1 L253.9,228.1 L255.2,228.0 L256.2,226.3 L257.2,224.9 L256.3,224.3 L256.7,222.8 L256.2,220.4 L256.7,219.7 L256.3,217.5 L255.3,216.1 L255.6,214.9 L256.4,215.1 L256.9,214.3 L256.3,212.7 L256.6,212.4 L257.9,212.4 L259.8,210.6 L260.8,210.3 L260.8,209.5 L261.3,207.3 L262.7,206.1 L264.3,206.0 L264.5,205.5 L266.5,205.7 L268.4,204.4 L269.4,203.8 L270.6,202.5 L271.5,202.7 L272.2,203.4 L271.7,204.3 L270.1,204.7 L269.4,206.0 L268.5,206.7 L267.7,207.7 L267.4,209.6 L266.7,211.1 L268.0,211.3 L268.3,212.5 L268.9,213.1 L269.1,214.1 L268.8,215.1 L268.9,215.6 L269.5,215.8 L270.1,216.7 L273.3,216.5 L274.8,216.8 L276.5,219.1 L277.5,218.8 L279.3,218.9 L280.8,218.6 L281.6,219.1 L281.2,220.5 L280.6,221.4 L280.4,223.2 L280.9,225.0 L281.7,225.8 L281.7,226.3 L280.5,227.6 L281.4,228.2 L282.0,229.1 L282.8,231.7 Z" fill="#e7ece6" stroke="#9ca89f" stroke-width="0.6" fill-rule="evenodd" vector-effect="non-scaling-stroke"/>
      <path d="M256.6,212.4 L256.3,212.7 L256.9,214.3 L256.4,215.1 L255.6,214.9 L255.3,216.1 L254.5,215.4 L253.9,214.0 L254.5,213.3 L253.9,213.1 L253.4,212.2 L252.2,211.5 L251.1,211.7 L250.6,212.6 L249.6,213.2 L249.0,213.3 L248.8,213.9 L250.0,215.3 L249.3,215.6 L248.9,216.0 L247.8,216.1 L247.4,214.6 L247.0,215.0 L246.2,214.9 L245.7,213.8 L244.7,213.7 L244.0,213.3 L242.9,213.4 L242.9,213.9 L242.6,213.5 L242.7,213.0 L242.9,212.5 L242.8,212.0 L243.2,211.7 L242.7,211.3 L242.7,210.3 L243.6,210.0 L244.5,211.0 L244.5,211.5 L245.5,211.6 L245.7,211.4 L246.4,212.1 L247.6,211.9 L248.7,211.2 L250.2,210.7 L251.1,209.9 L252.4,210.1 L252.4,210.3 L253.7,210.4 L254.9,210.9 L255.7,211.6 L256.6,212.4 Z" fill="#e7ece6" stroke="#9ca89f" stroke-width="0.6" fill-rule="evenodd" vector-effect="non-scaling-stroke"/>
      <path d="M243.6,210.0 L242.7,210.3 L242.7,211.3 L243.2,211.7 L242.8,212.0 L242.9,212.5 L242.7,213.0 L242.6,213.5 L241.2,212.9 L240.7,212.4 L241.0,211.9 L240.9,211.4 L240.2,210.7 L239.2,210.2 L238.4,209.9 L238.2,209.1 L237.6,208.7 L237.7,209.4 L237.2,210.0 L236.7,209.3 L235.8,209.1 L235.5,208.5 L235.5,207.7 L235.9,206.9 L235.1,206.6 L235.7,206.0 L236.1,205.7 L237.7,206.4 L238.3,206.1 L239.1,206.3 L239.5,206.8 L240.3,207.0 L240.9,206.4 L241.5,207.9 L242.5,208.9 L243.6,210.0 Z" fill="#e7ece6" stroke="#9ca89f" stroke-width="0.6" fill-rule="evenodd" vector-effect="non-scaling-stroke"/>
      <path d="M240.9,206.4 L240.3,207.0 L239.5,206.8 L239.1,206.3 L238.3,206.1 L237.7,206.4 L236.1,205.7 L235.7,206.0 L234.9,205.2 L233.7,204.2 L233.1,203.3 L232.1,202.5 L230.8,201.3 L231.1,200.9 L231.5,201.3 L231.7,201.1 L232.5,201.0 L232.8,200.4 L233.2,200.4 L233.1,199.1 L233.7,199.0 L234.2,199.0 L234.8,198.3 L235.5,198.9 L235.8,198.5 L236.2,198.2 L237.1,197.5 L237.1,197.0 L237.4,197.0 L237.7,196.4 L237.9,196.3 L238.4,196.7 L238.9,196.8 L239.4,196.5 L240.1,196.5 L240.9,196.1 L241.3,195.8 L242.1,195.8 L241.9,196.1 L241.8,196.7 L242.0,197.6 L241.5,198.5 L241.2,199.6 L241.1,200.7 L241.3,201.4 L241.3,202.6 L240.9,202.8 L240.7,203.9 L240.9,204.6 L240.4,205.3 L240.5,206.0 L240.9,206.4 Z" fill="#e7ece6" stroke="#9ca89f" stroke-width="0.6" fill-rule="evenodd" vector-effect="non-scaling-stroke"/>
      <path d="M242.1,195.8 L241.3,195.8 L240.9,196.1 L240.1,196.5 L239.4,196.5 L238.9,196.8 L238.4,196.7 L237.9,196.3 L237.7,196.4 L237.4,197.0 L237.1,197.0 L237.1,197.5 L236.2,198.2 L235.8,198.5 L235.5,198.9 L234.8,198.3 L234.2,199.0 L233.7,199.0 L233.1,199.1 L233.2,200.4 L232.8,200.4 L232.5,201.0 L231.7,201.1 L231.3,200.3 L230.5,200.1 L230.7,199.0 L230.4,198.7 L229.8,198.5 L228.7,198.8 L228.6,198.5 L227.9,198.1 L227.4,197.6 L226.6,197.3 L227.1,196.7 L226.9,196.2 L227.1,195.7 L228.3,194.9 L229.4,193.9 L229.7,194.0 L230.2,193.6 L231.0,193.5 L231.2,193.8 L231.6,193.6 L232.7,193.9 L233.9,193.8 L234.7,193.5 L235.0,193.2 L235.8,193.3 L236.4,193.5 L237.0,193.5 L237.5,193.2 L238.7,193.6 L239.1,193.7 L239.8,194.1 L240.6,194.7 L241.5,195.1 L242.1,195.8 Z" fill="#e7ece6" stroke="#9ca89f" stroke-width="0.6" fill-rule="evenodd" vector-effect="non-scaling-stroke"/>
      <path d="M226.6,197.3 L227.4,197.6 L227.9,198.1 L228.6,198.5 L228.7,198.8 L229.8,198.5 L230.4,198.7 L230.7,199.0 L230.5,200.1 L230.2,200.7 L228.8,200.6 L227.9,200.4 L226.9,199.9 L225.5,199.7 L224.8,199.1 L224.8,198.8 L225.7,198.1 L226.2,197.8 L226.0,197.5 L226.6,197.3 Z" fill="#e7ece6" stroke="#9ca89f" stroke-width="0.6" fill-rule="evenodd" vector-effect="non-scaling-stroke"/>
      <path d="M219.4,197.0 L219.5,196.3 L219.8,195.7 L219.4,195.2 L220.6,193.0 L223.8,193.0 L223.9,192.2 L223.5,192.0 L223.2,191.4 L222.3,190.8 L221.4,190.0 L222.5,189.9 L222.5,188.5 L224.8,188.5 L227.1,188.5 L227.1,190.6 L226.9,193.5 L227.7,193.5 L228.5,194.0 L228.7,193.6 L229.4,193.9 L228.3,194.9 L227.1,195.7 L226.9,196.2 L227.1,196.7 L226.6,197.3 L226.0,197.5 L226.2,197.8 L225.7,198.1 L224.8,198.8 L224.8,199.1 L223.5,198.7 L221.9,198.6 L220.8,198.1 L219.4,197.0 Z" fill="#e7ece6" stroke="#9ca89f" stroke-width="0.6" fill-rule="evenodd" vector-effect="non-scaling-stroke"/>
      <path d="M227.1,188.5 L227.1,188.1 L227.4,188.0 L227.9,188.3 L228.8,186.7 L229.2,186.7 L229.3,187.1 L229.7,187.1 L229.7,187.8 L229.3,188.9 L229.5,189.3 L229.2,190.3 L229.4,190.5 L229.1,191.8 L228.6,192.5 L228.2,192.6 L227.7,193.5 L226.9,193.5 L227.1,190.6 L227.1,188.5 Z" fill="#e7ece6" stroke="#9ca89f" stroke-width="0.6" fill-rule="evenodd" vector-effect="non-scaling-stroke"/>
      <path d="M298.2,221.4 L298.5,222.2 L297.6,223.2 L294.8,224.1 L293.0,224.5 L292.3,225.2 L290.3,224.5 L288.4,224.2 L288.0,224.4 L289.1,225.1 L289.0,226.8 L289.3,228.5 L291.4,228.7 L291.6,229.3 L289.8,230.0 L289.5,231.1 L288.5,231.5 L286.6,232.1 L286.1,232.9 L284.2,233.1 L282.8,231.7 L282.0,229.1 L281.4,228.2 L280.5,227.6 L281.7,226.3 L281.7,225.8 L280.9,225.0 L280.4,223.2 L280.6,221.4 L281.2,220.5 L281.6,219.1 L280.8,218.6 L279.3,218.9 L277.5,218.8 L276.5,219.1 L274.8,216.8 L273.3,216.5 L270.1,216.7 L269.5,215.8 L268.9,215.6 L268.8,215.1 L269.1,214.1 L268.9,213.1 L268.3,212.5 L268.0,211.3 L266.7,211.1 L267.4,209.6 L267.7,207.7 L268.5,206.7 L269.4,206.0 L270.1,204.7 L271.7,204.3 L271.6,204.9 L270.1,205.2 L270.9,206.4 L270.9,207.7 L269.8,209.2 L270.8,211.3 L271.8,211.1 L272.4,209.3 L271.6,208.3 L271.5,206.4 L274.6,205.3 L274.3,204.1 L275.1,203.2 L276.0,205.1 L277.8,205.1 L279.4,206.6 L279.5,207.4 L281.8,207.5 L284.4,207.2 L285.9,208.4 L287.8,208.7 L289.2,207.9 L289.2,207.2 L292.3,207.1 L295.3,207.0 L293.2,207.8 L294.0,209.0 L296.0,209.2 L297.9,210.5 L298.3,212.6 L299.6,212.5 L300.6,213.2 L298.6,214.7 L298.4,215.6 L299.3,216.6 L298.6,217.1 L297.1,217.5 L297.2,218.7 L296.5,219.4 L298.2,221.4 Z" fill="#e7ece6" stroke="#9ca89f" stroke-width="0.6" fill-rule="evenodd" vector-effect="non-scaling-stroke"/>
      <path d="M308.7,230.0 L308.0,230.1 L306.7,229.9 L305.8,230.6 L304.7,231.1 L303.9,231.2 L303.6,231.7 L302.4,231.6 L300.9,230.3 L300.7,229.1 L300.1,227.8 L300.5,225.6 L301.2,224.7 L300.6,223.4 L299.7,223.1 L300.0,221.9 L299.5,221.3 L298.2,221.4 L296.5,219.4 L297.2,218.7 L297.1,217.5 L298.6,217.1 L299.3,216.6 L298.4,215.6 L298.6,214.7 L300.6,213.2 L302.2,214.1 L303.8,215.8 L303.9,217.2 L304.8,217.2 L306.1,218.5 L307.1,219.4 L306.7,221.8 L305.2,222.4 L305.3,223.0 L304.9,224.4 L306.0,226.3 L306.8,226.3 L307.1,227.8 L308.7,230.0 Z" fill="#e7ece6" stroke="#9ca89f" stroke-width="0.6" fill-rule="evenodd" vector-effect="non-scaling-stroke"/>
      <path d="M313.7,229.0 L312.3,228.4 L311.1,228.7 L310.1,228.4 L309.8,229.2 L310.2,229.7 L310.0,230.3 L308.7,230.0 L307.1,227.8 L306.8,226.3 L306.0,226.3 L304.9,224.4 L305.3,223.0 L305.2,222.4 L306.7,221.8 L307.1,219.4 L310.1,219.9 L310.4,219.5 L312.4,219.3 L315.1,220.0 L313.8,222.2 L314.0,224.0 L315.0,225.5 L314.5,226.7 L314.3,227.9 L313.7,229.0 Z" fill="#e7ece6" stroke="#9ca89f" stroke-width="0.6" fill-rule="evenodd" vector-effect="non-scaling-stroke"/>
      <path d="M320.9,224.1 L319.4,226.5 L318.6,228.5 L317.7,229.5 L316.5,229.6 L316.1,228.9 L315.6,228.8 L314.8,229.5 L313.7,229.0 L314.3,227.9 L314.5,226.7 L315.0,225.5 L314.0,224.0 L313.8,222.2 L315.1,220.0 L316.0,220.3 L317.8,220.9 L320.4,223.1 L320.9,224.1 Z M465.5,105.8 L466.6,106.5 L470.2,107.0 L469.0,108.8 L468.7,110.7 L468.0,111.1 L466.8,110.9 L466.9,111.5 L465.1,113.0 L465.1,114.2 L466.3,113.8 L467.1,114.9 L467.0,115.6 L467.7,116.6 L466.9,117.4 L467.5,119.4 L468.9,119.8 L468.6,120.9 L466.3,122.4 L461.4,121.7 L457.8,122.5 L457.5,124.1 L454.6,124.4 L451.8,123.3 L450.8,123.8 L446.2,122.6 L445.2,121.6 L446.5,120.1 L447.0,114.8 L444.4,112.1 L442.6,110.8 L438.8,109.8 L438.5,107.9 L441.8,107.3 L446.0,108.0 L445.2,105.0 L447.5,106.1 L453.3,104.1 L454.1,102.0 L456.3,101.4 L456.6,102.4 L457.8,102.4 L459.0,103.5 L460.7,104.7 L462.0,104.5 L464.2,105.7 L464.7,105.9 L465.5,105.8 Z M471.9,123.7 L473.5,122.7 L473.9,124.9 L473.1,127.0 L471.9,126.4 L471.4,124.7 L471.9,123.7 Z" fill="#e7ece6" stroke="#9ca89f" stroke-width="0.6" fill-rule="evenodd" vector-effect="non-scaling-stroke"/>
      <path d="M261.6,235.4 L261.9,237.4 L261.1,239.1 L258.4,241.8 L255.4,242.8 L253.9,245.1 L253.4,246.9 L252.0,247.9 L250.9,246.6 L249.9,246.3 L248.9,246.6 L248.8,245.6 L249.5,245.0 L249.2,243.9 L250.6,241.9 L250.0,240.8 L249.1,242.0 L247.6,240.9 L248.1,240.1 L247.7,237.8 L248.5,237.4 L249.0,235.7 L249.9,234.1 L249.8,233.0 L251.1,232.4 L252.9,231.4 L255.4,232.9 L255.8,232.8 L256.4,234.0 L258.6,234.3 L259.3,233.9 L260.5,234.8 L261.6,235.4 Z" fill="#e7ece6" stroke="#9ca89f" stroke-width="0.6" fill-rule="evenodd" vector-effect="non-scaling-stroke"/>
      <path d="M284.3,186.7 L285.6,186.9 L286.0,187.4 L285.4,188.1 L283.5,188.0 L282.0,188.1 L281.9,187.0 L282.2,186.6 L284.3,186.7 Z" fill="#e7ece6" stroke="#9ca89f" stroke-width="0.6" fill-rule="evenodd" vector-effect="non-scaling-stroke"/>
      <path d="M256.1,186.7 L257.8,187.0 L259.1,187.6 L259.5,188.3 L257.7,188.3 L257.0,188.8 L255.6,188.4 L254.2,187.4 L254.5,186.8 L255.5,186.6 L256.1,186.7 Z" fill="#e7ece6" stroke="#9ca89f" stroke-width="0.6" fill-rule="evenodd" vector-effect="non-scaling-stroke"/>
      <path d="M244.3,174.5 L246.5,174.6 L248.5,174.7 L250.8,175.6 L251.8,176.5 L254.1,176.2 L255.0,176.8 L257.1,178.4 L258.7,179.6 L259.5,179.6 L261.0,180.1 L260.8,180.9 L262.7,181.0 L264.6,182.0 L264.3,182.6 L262.6,183.0 L260.9,183.1 L259.2,182.9 L255.6,183.2 L257.3,181.7 L256.3,181.0 L254.7,180.8 L253.8,180.1 L253.2,178.6 L251.8,178.7 L249.5,178.0 L248.7,177.5 L245.4,177.1 L244.6,176.5 L245.5,175.9 L243.1,175.8 L241.3,177.1 L240.2,177.2 L239.9,177.8 L238.6,178.1 L237.6,177.8 L238.9,177.0 L239.4,176.1 L240.6,175.5 L241.8,175.0 L243.7,174.7 L244.3,174.5 Z" fill="#e7ece6" stroke="#9ca89f" stroke-width="0.6" fill-rule="evenodd" vector-effect="non-scaling-stroke"/>
      <path d="M528.0,293.1 L526.6,292.8 L525.8,293.2 L524.6,292.7 L523.6,292.7 L522.0,291.5 L520.1,291.1 L519.3,289.4 L519.3,288.5 L518.2,288.2 L515.4,285.4 L514.6,283.9 L514.1,283.4 L513.2,281.3 L516.0,281.6 L516.8,281.9 L517.6,281.8 L519.0,280.1 L521.2,278.0 L522.1,277.8 L522.4,276.9 L523.8,275.8 L525.7,275.5 L525.8,276.5 L527.9,276.4 L529.1,277.0 L529.6,277.6 L530.8,277.8 L532.1,278.6 L532.1,281.9 L531.6,283.8 L531.5,285.7 L531.9,286.5 L531.6,288.0 L531.3,288.3 L530.6,290.1 L528.0,293.1 Z" fill="#e7ece6" stroke="#9ca89f" stroke-width="0.6" fill-rule="evenodd" vector-effect="non-scaling-stroke"/>
      <path d="M523.6,292.7 L520.0,294.6 L517.8,296.6 L517.0,298.3 L516.2,299.3 L514.9,299.5 L514.4,300.7 L514.2,301.5 L512.6,302.2 L510.5,302.0 L509.3,301.3 L508.3,301.0 L507.1,301.6 L506.4,302.8 L505.3,303.6 L504.0,304.8 L502.2,305.1 L501.7,304.1 L501.9,302.5 L500.4,300.1 L499.7,299.7 L499.7,292.1 L502.2,292.0 L502.3,282.7 L504.1,282.6 L508.0,281.7 L508.9,282.7 L510.5,281.7 L511.3,281.7 L512.7,281.1 L513.2,281.3 L514.1,283.4 L514.6,283.9 L515.4,285.4 L518.2,288.2 L519.3,288.5 L519.3,289.4 L520.1,291.1 L522.0,291.5 L523.6,292.7 Z" fill="#e7ece6" stroke="#9ca89f" stroke-width="0.6" fill-rule="evenodd" vector-effect="non-scaling-stroke"/>
      <path d="M499.7,299.7 L499.7,309.3 L497.5,310.7 L496.2,310.8 L494.6,310.3 L493.5,310.2 L493.0,309.0 L492.1,308.3 L490.9,309.6 L489.0,307.6 L488.0,305.7 L487.5,303.2 L486.9,301.3 L486.0,297.3 L486.0,294.2 L485.6,292.7 L484.7,291.7 L483.4,289.5 L482.1,286.4 L481.5,284.7 L479.5,282.2 L479.3,280.2 L480.5,279.7 L482.0,279.2 L483.7,279.3 L485.1,280.5 L485.5,280.3 L495.7,280.2 L497.4,281.4 L503.4,281.8 L508.0,280.8 L510.1,280.2 L511.7,280.3 L512.7,280.9 L512.7,281.1 L511.3,281.7 L510.5,281.7 L508.9,282.7 L508.0,281.7 L504.1,282.6 L502.3,282.7 L502.2,292.0 L499.7,292.1 L499.7,299.7 Z" fill="#e7ece6" stroke="#9ca89f" stroke-width="0.6" fill-rule="evenodd" vector-effect="non-scaling-stroke"/>
      <path d="M408.2,199.5 L407.2,197.5 L405.9,196.5 L407.0,196.0 L408.2,194.2 L408.8,192.9 L409.7,192.0 L410.9,192.3 L412.2,191.7 L413.6,191.7 L414.8,192.4 L416.4,193.1 L417.9,195.0 L419.6,196.8 L419.7,198.5 L420.2,200.0 L421.1,200.7 L421.3,201.7 L421.2,202.5 L420.9,202.7 L419.5,202.5 L419.3,202.7 L418.8,202.8 L417.0,202.2 L415.7,202.1 L411.1,202.0 L410.5,202.3 L409.6,202.2 L408.3,202.7 L407.9,200.7 L410.2,200.7 L410.8,200.3 L411.2,200.3 L412.1,199.7 L413.2,200.3 L414.3,200.3 L415.4,199.7 L414.9,199.0 L414.1,199.4 L413.3,199.4 L412.3,198.8 L411.5,198.8 L410.9,199.4 L408.2,199.5 Z" fill="#e7ece6" stroke="#9ca89f" stroke-width="0.6" fill-rule="evenodd" vector-effect="non-scaling-stroke"/>
      <path d="M421.2,202.5 L421.3,201.7 L421.1,200.7 L420.2,200.0 L419.7,198.5 L419.6,196.8 L420.4,196.4 L420.8,194.8 L421.6,194.8 L423.4,195.5 L424.8,195.0 L425.7,195.1 L426.1,194.6 L436.2,194.5 L436.7,192.7 L436.3,192.4 L435.1,181.1 L433.9,169.8 L437.7,169.8 L446.1,175.5 L454.6,181.2 L455.2,182.4 L456.7,183.2 L457.9,183.6 L457.9,185.2 L460.7,185.0 L460.7,191.0 L459.3,192.7 L459.1,194.3 L456.9,194.8 L453.5,195.0 L452.5,195.9 L450.9,196.0 L449.3,196.0 L448.7,195.5 L447.3,195.9 L445.0,197.0 L444.5,197.8 L442.6,199.0 L442.2,199.6 L441.2,200.2 L440.0,199.8 L439.3,200.5 L438.9,202.2 L436.9,204.4 L437.0,205.3 L436.3,206.4 L436.5,207.9 L435.5,208.3 L434.9,208.6 L434.5,207.5 L433.8,207.8 L433.3,207.8 L432.9,208.5 L430.9,208.5 L430.3,208.1 L429.9,208.3 L429.2,207.6 L429.3,206.8 L429.0,206.5 L428.4,206.8 L428.5,205.9 L429.1,205.2 L428.0,204.2 L427.7,203.4 L427.2,202.9 L426.7,202.8 L426.1,203.2 L425.3,203.5 L424.6,204.1 L423.5,203.9 L422.8,203.2 L422.4,203.1 L421.8,203.5 L421.4,203.5 L421.2,202.5 Z" fill="#e7ece6" stroke="#9ca89f" stroke-width="0.6" fill-rule="evenodd" vector-effect="non-scaling-stroke"/>
      <path d="M407.3,180.2 L407.9,179.3 L417.7,179.3 L417.2,175.5 L417.8,174.2 L420.2,174.0 L420.1,167.3 L428.3,167.4 L428.3,163.5 L437.7,169.8 L433.9,169.8 L435.1,181.1 L436.3,192.4 L436.7,192.7 L436.2,194.5 L426.1,194.6 L425.7,195.1 L424.8,195.0 L423.4,195.5 L421.6,194.8 L420.8,194.8 L420.4,196.4 L419.6,196.8 L417.9,195.0 L416.4,193.1 L414.8,192.4 L413.6,191.7 L412.2,191.7 L410.9,192.3 L409.7,192.0 L408.8,192.9 L408.6,191.5 L409.3,190.2 L409.6,187.7 L409.4,185.1 L409.1,183.8 L409.3,182.5 L408.7,181.3 L407.3,180.2 Z" fill="#e7ece6" stroke="#9ca89f" stroke-width="0.6" fill-rule="evenodd" vector-effect="non-scaling-stroke"/>
      <path d="M456.7,218.7 L454.7,219.0 L454.0,217.2 L454.2,211.2 L453.7,210.6 L453.6,209.3 L452.7,208.4 L451.9,207.7 L452.2,206.3 L453.1,206.0 L453.6,204.8 L454.8,204.6 L455.4,203.8 L456.2,203.1 L457.1,203.1 L459.0,204.6 L458.9,205.4 L459.5,207.0 L459.0,208.0 L459.3,208.7 L458.1,210.3 L457.3,211.1 L456.8,212.8 L456.9,214.4 L456.7,218.7 Z" fill="#e7ece6" stroke="#9ca89f" stroke-width="0.6" fill-rule="evenodd" vector-effect="non-scaling-stroke"/>
      <path d="M487.1,175.3 L487.7,179.4 L488.7,180.0 L488.7,180.9 L489.8,181.8 L489.2,182.9 L488.3,188.2 L488.1,191.6 L484.9,194.0 L483.9,197.5 L484.9,198.5 L484.9,200.1 L486.5,200.2 L486.2,201.4 L485.5,201.6 L485.5,202.4 L485.0,202.5 L483.3,199.6 L482.7,199.5 L480.8,201.0 L478.8,200.2 L477.5,200.0 L476.8,200.4 L475.3,200.3 L473.8,201.4 L472.5,201.5 L469.5,200.2 L468.3,200.8 L467.1,200.8 L466.1,199.8 L463.6,198.8 L460.9,199.1 L460.3,199.7 L459.9,201.2 L459.2,202.2 L459.0,204.6 L457.1,203.1 L456.2,203.1 L455.4,203.8 L455.4,202.0 L452.6,201.4 L452.5,200.2 L451.1,198.5 L450.7,197.3 L450.9,196.0 L452.5,195.9 L453.5,195.0 L456.9,194.8 L459.1,194.3 L459.3,192.7 L460.7,191.0 L460.7,185.0 L464.2,183.8 L471.4,178.7 L480.0,173.7 L484.0,174.8 L485.4,176.3 L487.1,175.3 Z" fill="#e7ece6" stroke="#9ca89f" stroke-width="0.6" fill-rule="evenodd" vector-effect="non-scaling-stroke"/>
      <path d="M456.7,218.7 L456.9,214.4 L456.8,212.8 L457.3,211.1 L458.1,210.3 L459.3,208.7 L459.0,208.0 L459.5,207.0 L458.9,205.4 L459.0,204.6 L459.2,202.2 L459.9,201.2 L460.3,199.7 L460.9,199.1 L463.6,198.8 L466.1,199.8 L467.1,200.8 L468.3,200.8 L469.5,200.2 L472.5,201.5 L473.8,201.4 L475.3,200.3 L476.8,200.4 L477.5,200.0 L478.8,200.2 L480.8,201.0 L482.7,199.5 L483.3,199.6 L485.0,202.5 L485.5,202.4 L486.4,203.4 L486.2,203.9 L486.0,204.8 L483.9,206.8 L483.3,208.5 L482.9,209.8 L482.4,210.4 L481.9,212.2 L480.5,213.3 L480.2,214.6 L479.6,215.7 L479.4,216.8 L477.6,217.7 L476.2,216.6 L475.3,216.6 L473.8,218.1 L473.1,218.2 L471.9,220.7 L471.3,222.5 L468.7,223.5 L467.7,223.3 L466.7,223.9 L464.7,223.9 L463.4,222.2 L462.6,220.3 L460.8,218.6 L458.9,218.7 L456.7,218.7 Z" fill="#e7ece6" stroke="#9ca89f" stroke-width="0.6" fill-rule="evenodd" vector-effect="non-scaling-stroke"/>
      <path d="M486.2,201.4 L487.2,203.1 L487.4,204.8 L487.3,206.6 L488.7,208.9 L487.3,208.9 L486.6,209.1 L485.4,208.8 L484.9,210.1 L486.4,211.6 L487.4,212.0 L487.8,213.1 L488.6,214.9 L488.2,215.6 L486.9,218.3 L486.3,218.7 L486.1,220.8 L486.4,221.9 L486.2,222.6 L487.4,224.0 L487.6,224.9 L488.5,226.3 L489.7,227.1 L489.8,228.3 L490.0,229.1 L489.9,230.5 L487.9,229.9 L485.8,229.2 L482.7,229.1 L482.4,228.9 L480.9,229.3 L479.4,228.9 L478.2,229.1 L474.1,229.0 L474.5,227.0 L473.5,225.2 L472.4,224.8 L471.9,223.6 L471.2,223.3 L471.3,222.5 L471.9,220.7 L473.1,218.2 L473.8,218.1 L475.3,216.6 L476.2,216.6 L477.6,217.7 L479.4,216.8 L479.6,215.7 L480.2,214.6 L480.5,213.3 L481.9,212.2 L482.4,210.4 L482.9,209.8 L483.3,208.5 L483.9,206.8 L486.0,204.8 L486.2,203.9 L486.4,203.4 L485.5,202.4 L485.5,201.6 L486.2,201.4 Z" fill="#e7ece6" stroke="#9ca89f" stroke-width="0.6" fill-rule="evenodd" vector-effect="non-scaling-stroke"/>
      <path d="M452.2,206.3 L451.9,207.7 L452.7,208.4 L453.6,209.3 L453.7,210.6 L454.2,211.2 L454.0,217.2 L454.7,219.0 L452.7,219.5 L452.1,218.6 L451.4,216.9 L451.2,215.6 L451.8,213.3 L451.2,212.3 L450.9,210.3 L450.9,208.4 L449.9,207.0 L450.1,206.2 L452.2,206.3 Z" fill="#e7ece6" stroke="#9ca89f" stroke-width="0.6" fill-rule="evenodd" vector-effect="non-scaling-stroke"/>
      <path d="M450.1,206.2 L449.9,207.0 L450.9,208.4 L450.9,210.3 L451.2,212.3 L451.8,213.3 L451.2,215.6 L451.4,216.9 L452.1,218.6 L452.7,219.5 L448.7,221.0 L447.3,221.9 L445.1,222.7 L442.9,222.0 L443.0,220.9 L441.9,218.7 L442.5,215.7 L443.6,213.5 L442.9,209.8 L442.6,207.9 L442.6,206.4 L447.0,206.3 L448.1,206.4 L448.9,206.0 L450.1,206.2 Z" fill="#e7ece6" stroke="#9ca89f" stroke-width="0.6" fill-rule="evenodd" vector-effect="non-scaling-stroke"/>
      <path d="M429.9,208.3 L430.3,208.1 L430.9,208.5 L432.9,208.5 L433.3,207.8 L433.8,207.8 L434.5,207.5 L434.9,208.6 L435.5,208.3 L436.5,207.9 L437.6,208.5 L438.1,209.4 L439.2,209.9 L440.0,209.2 L441.2,209.1 L442.9,209.8 L443.6,213.5 L442.5,215.7 L441.9,218.7 L443.0,220.9 L442.9,222.0 L441.7,222.0 L440.0,221.5 L438.4,221.5 L435.4,222.0 L433.7,222.7 L431.2,223.7 L430.7,223.6 L430.9,221.5 L431.2,221.1 L431.1,220.1 L430.0,219.0 L429.2,218.8 L428.5,218.1 L429.0,217.0 L428.8,215.7 L428.9,214.9 L429.3,214.9 L429.4,213.8 L429.3,213.3 L429.5,212.9 L430.4,212.6 L429.8,210.5 L429.2,209.4 L429.4,208.6 L429.9,208.3 Z" fill="#e7ece6" stroke="#9ca89f" stroke-width="0.6" fill-rule="evenodd" vector-effect="non-scaling-stroke"/>
      <path d="M415.7,202.1 L417.0,202.2 L418.8,202.8 L419.3,202.7 L419.5,202.5 L420.9,202.7 L421.2,202.5 L421.4,203.5 L421.8,203.5 L422.4,203.1 L422.8,203.2 L423.5,203.9 L424.6,204.1 L425.3,203.5 L426.1,203.2 L426.7,202.8 L427.2,202.9 L427.7,203.4 L428.0,204.2 L429.1,205.2 L428.5,205.9 L428.4,206.8 L429.0,206.5 L429.3,206.8 L429.2,207.6 L429.9,208.3 L429.4,208.6 L429.2,209.4 L429.8,210.5 L430.4,212.6 L429.5,212.9 L429.3,213.3 L429.4,213.8 L429.3,214.9 L428.9,214.9 L428.2,214.9 L427.7,215.9 L427.0,215.9 L426.5,215.3 L426.7,214.3 L425.6,212.7 L425.0,213.0 L424.4,213.1 L423.7,213.2 L423.8,212.2 L423.4,211.6 L423.4,210.8 L422.9,209.7 L422.2,208.8 L420.2,208.8 L419.6,209.3 L418.9,209.3 L418.5,209.9 L418.2,210.6 L416.9,211.8 L415.8,210.2 L414.8,209.2 L414.2,208.8 L413.6,208.3 L413.3,207.2 L412.9,206.6 L412.2,206.2 L413.3,204.9 L414.0,204.9 L414.7,204.5 L415.2,204.5 L415.6,204.2 L415.4,203.3 L415.7,203.0 L415.7,202.1 Z" fill="#e7ece6" stroke="#9ca89f" stroke-width="0.6" fill-rule="evenodd" vector-effect="non-scaling-stroke"/>
      <path d="M408.3,202.7 L409.6,202.2 L410.5,202.3 L411.1,202.0 L415.7,202.1 L415.7,203.0 L415.4,203.3 L415.6,204.2 L415.2,204.5 L414.7,204.5 L414.0,204.9 L413.3,204.9 L412.2,206.2 L410.8,205.1 L409.8,204.9 L409.2,204.2 L409.2,203.8 L408.5,203.2 L408.3,202.7 Z" fill="#e7ece6" stroke="#9ca89f" stroke-width="0.6" fill-rule="evenodd" vector-effect="non-scaling-stroke"/>
      <path d="M428.9,214.9 L428.8,215.7 L429.0,217.0 L428.5,218.1 L429.2,218.8 L430.0,219.0 L431.1,220.1 L431.2,221.1 L430.9,221.5 L430.7,223.6 L430.1,223.6 L427.5,222.4 L425.2,220.4 L423.1,219.0 L421.4,217.3 L422.0,216.4 L422.1,215.7 L423.3,214.3 L424.4,213.1 L425.0,213.0 L425.6,212.7 L426.7,214.3 L426.5,215.3 L427.0,215.9 L427.7,215.9 L428.2,214.9 L428.9,214.9 Z" fill="#e7ece6" stroke="#9ca89f" stroke-width="0.6" fill-rule="evenodd" vector-effect="non-scaling-stroke"/>
      <path d="M416.9,211.8 L418.2,210.6 L418.5,209.9 L418.9,209.3 L419.6,209.3 L420.2,208.8 L422.2,208.8 L422.9,209.7 L423.4,210.8 L423.4,211.6 L423.8,212.2 L423.7,213.2 L424.4,213.1 L423.3,214.3 L422.1,215.7 L422.0,216.4 L421.4,217.3 L420.7,217.1 L418.9,216.0 L417.6,214.6 L417.2,213.7 L416.9,211.8 Z" fill="#e7ece6" stroke="#9ca89f" stroke-width="0.6" fill-rule="evenodd" vector-effect="non-scaling-stroke"/>
      <path d="M436.5,207.9 L436.3,206.4 L437.0,205.3 L436.9,204.4 L438.9,202.2 L439.3,200.5 L440.0,199.8 L441.2,200.2 L442.2,199.6 L442.6,199.0 L444.5,197.8 L445.0,197.0 L447.3,195.9 L448.7,195.5 L449.3,196.0 L450.9,196.0 L450.7,197.3 L451.1,198.5 L452.5,200.2 L452.6,201.4 L455.4,202.0 L455.4,203.8 L454.8,204.6 L453.6,204.8 L453.1,206.0 L452.2,206.3 L450.1,206.2 L448.9,206.0 L448.1,206.4 L447.0,206.3 L442.6,206.4 L442.6,207.9 L442.9,209.8 L441.2,209.1 L440.0,209.2 L439.2,209.9 L438.1,209.4 L437.6,208.5 L436.5,207.9 Z" fill="#e7ece6" stroke="#9ca89f" stroke-width="0.6" fill-rule="evenodd" vector-effect="non-scaling-stroke"/>
      <path d="M518.4,221.3 L517.6,221.6 L516.0,221.6 L514.1,221.3 L513.2,221.5 L512.8,222.1 L512.0,222.2 L511.0,221.7 L508.2,223.0 L507.1,222.7 L506.8,222.9 L506.0,224.5 L504.1,224.0 L502.3,223.7 L500.7,222.7 L498.7,221.9 L497.3,222.7 L496.4,224.0 L496.1,225.8 L494.5,225.7 L492.8,225.3 L491.3,226.6 L490.0,229.1 L489.8,228.3 L489.7,227.1 L488.5,226.3 L487.6,224.9 L487.4,224.0 L486.2,222.6 L486.4,221.9 L486.1,220.8 L486.3,218.7 L486.9,218.3 L488.2,215.6 L490.3,215.4 L490.7,214.8 L491.1,214.8 L491.8,215.4 L494.9,214.4 L496.0,213.4 L497.3,212.5 L497.0,211.5 L497.7,211.3 L500.1,211.5 L502.5,210.3 L504.3,207.4 L505.6,206.4 L507.2,205.9 L507.4,207.0 L508.9,208.7 L508.9,209.7 L508.5,210.8 L508.6,211.6 L509.5,212.4 L511.4,213.5 L512.8,214.6 L512.8,215.4 L514.5,216.8 L515.5,217.9 L516.2,219.5 L518.0,220.5 L518.4,221.3 Z" fill="#e7ece6" stroke="#9ca89f" stroke-width="0.6" fill-rule="evenodd" vector-effect="non-scaling-stroke"/>
      <path d="M496.1,225.8 L496.0,227.4 L495.2,228.8 L494.7,230.5 L494.4,232.8 L494.6,234.2 L494.2,235.2 L494.1,236.1 L493.8,236.9 L492.2,238.2 L491.0,239.5 L489.9,242.1 L490.0,244.2 L489.4,245.1 L487.9,246.3 L486.5,248.0 L485.5,247.5 L485.4,246.8 L484.0,246.8 L483.1,247.7 L482.5,247.5 L481.6,246.6 L480.8,247.0 L479.8,248.2 L477.7,245.4 L479.6,243.9 L478.7,242.2 L479.6,241.6 L481.2,241.2 L481.4,240.1 L482.8,241.3 L485.0,241.5 L485.7,240.2 L486.1,238.5 L485.8,236.4 L484.6,234.9 L485.7,231.9 L485.1,231.4 L483.2,231.6 L482.5,230.2 L482.7,229.1 L485.8,229.2 L487.9,229.9 L489.9,230.5 L490.0,229.1 L491.3,226.6 L492.8,225.3 L494.5,225.7 L496.1,225.8 Z" fill="#e7ece6" stroke="#9ca89f" stroke-width="0.6" fill-rule="evenodd" vector-effect="non-scaling-stroke"/>
      <path d="M478.2,229.1 L479.4,228.9 L480.9,229.3 L482.4,228.9 L482.7,229.1 L482.5,230.2 L483.2,231.6 L485.1,231.4 L485.7,231.9 L484.6,234.9 L485.8,236.4 L486.1,238.5 L485.7,240.2 L485.0,241.5 L482.8,241.3 L481.4,240.1 L481.2,241.2 L479.6,241.6 L478.7,242.2 L479.6,243.9 L477.7,245.4 L475.2,242.8 L473.5,240.6 L472.0,237.9 L472.1,237.0 L472.6,236.2 L473.2,234.3 L473.7,232.4 L474.6,232.2 L478.2,232.2 L478.2,229.1 Z" fill="#e7ece6" stroke="#9ca89f" stroke-width="0.6" fill-rule="evenodd" vector-effect="non-scaling-stroke"/>
      <path d="M474.1,229.0 L478.2,229.1 L478.2,232.2 L474.6,232.2 L473.7,232.4 L473.3,232.0 L474.1,229.0 Z" fill="#e7ece6" stroke="#9ca89f" stroke-width="0.6" fill-rule="evenodd" vector-effect="non-scaling-stroke"/>
      <path d="M526.9,256.8 L527.9,257.4 L528.9,257.9 L530.5,258.3 L531.9,259.1 L533.1,260.3 L533.7,262.5 L533.3,263.2 L532.8,265.3 L533.3,267.5 L532.5,268.4 L531.7,270.8 L533.0,271.5 L525.4,273.6 L525.7,275.5 L523.8,275.8 L522.4,276.9 L522.1,277.8 L521.2,278.0 L519.0,280.1 L517.6,281.8 L516.8,281.9 L516.0,281.6 L513.2,281.3 L512.7,281.1 L512.7,280.9 L511.7,280.3 L510.1,280.2 L508.0,280.8 L506.4,279.1 L504.7,277.0 L504.8,268.7 L510.0,268.7 L509.8,267.8 L510.2,266.8 L509.8,265.6 L510.0,264.3 L509.8,263.5 L510.6,263.6 L510.8,264.4 L512.0,264.3 L513.5,264.6 L514.4,265.8 L516.4,266.1 L517.9,265.3 L518.5,266.7 L520.4,267.0 L521.3,268.2 L522.3,269.6 L524.2,269.6 L524.0,266.8 L523.4,267.3 L521.6,266.3 L520.9,265.8 L521.2,263.2 L521.7,260.1 L521.1,258.9 L521.8,257.3 L522.5,257.0 L525.9,256.5 L526.9,256.8 Z" fill="#e7ece6" stroke="#9ca89f" stroke-width="0.6" fill-rule="evenodd" vector-effect="non-scaling-stroke"/>
      <path d="M531.9,259.1 L534.3,259.6 L534.9,260.3 L535.7,261.5 L536.4,265.1 L535.7,267.1 L536.4,270.5 L537.3,270.4 L538.2,271.3 L539.2,273.2 L539.4,276.5 L538.3,277.1 L537.6,278.9 L536.0,277.3 L535.8,275.4 L536.3,274.2 L536.1,273.2 L535.2,272.5 L534.5,272.7 L533.0,271.5 L531.7,270.8 L532.5,268.4 L533.3,267.5 L532.8,265.3 L533.3,263.2 L533.7,262.5 L533.1,260.3 L531.9,259.1 Z" fill="#e7ece6" stroke="#9ca89f" stroke-width="0.6" fill-rule="evenodd" vector-effect="non-scaling-stroke"/>
      <path d="M536.4,265.1 L538.3,264.9 L541.3,265.6 L541.9,265.3 L543.7,265.2 L544.6,264.4 L546.1,264.5 L548.8,263.5 L550.8,261.9 L550.8,261.9 L550.8,261.9 L551.2,263.1 L551.1,265.7 L551.4,268.0 L551.5,272.1 L551.9,273.4 L551.2,275.2 L550.2,277.0 L548.6,278.7 L546.3,279.7 L543.5,280.9 L540.7,283.7 L539.7,284.2 L538.0,286.1 L537.0,286.7 L536.8,288.5 L537.9,290.5 L538.4,292.0 L538.5,292.8 L538.9,292.7 L538.8,295.2 L538.4,296.5 L539.0,296.9 L538.6,298.0 L537.6,298.9 L535.5,299.8 L532.5,301.2 L531.4,302.2 L531.7,303.3 L532.3,303.5 L532.1,304.8 L530.2,304.8 L530.0,303.7 L529.6,302.5 L529.4,301.5 L529.8,298.6 L529.2,296.8 L528.0,293.1 L530.6,290.1 L531.3,288.3 L531.6,288.0 L531.9,286.5 L531.5,285.7 L531.6,283.8 L532.1,281.9 L532.1,278.6 L530.8,277.8 L529.6,277.6 L529.1,277.0 L527.9,276.4 L525.8,276.5 L525.7,275.5 L525.4,273.6 L533.0,271.5 L534.5,272.7 L535.2,272.5 L536.1,273.2 L536.3,274.2 L535.8,275.4 L536.0,277.3 L537.6,278.9 L538.3,277.1 L539.4,276.5 L539.2,273.2 L538.2,271.3 L537.3,270.4 L536.4,270.5 L535.7,267.1 L536.4,265.1 Z" fill="#e7ece6" stroke="#9ca89f" stroke-width="0.6" fill-rule="evenodd" vector-effect="non-scaling-stroke"/>
      <path d="M530.2,304.8 L529.7,306.0 L528.2,306.2 L526.7,304.8 L526.7,303.9 L527.4,302.9 L527.6,302.2 L528.3,302.0 L529.6,302.5 L530.0,303.7 L530.2,304.8 Z" fill="#e7ece6" stroke="#9ca89f" stroke-width="0.6" fill-rule="evenodd" vector-effect="non-scaling-stroke"/>
      <path d="M482.5,247.5 L481.6,248.0 L481.2,248.7 L481.1,249.8 L480.5,250.1 L479.8,248.2 L480.8,247.0 L481.6,246.6 L482.5,247.5 Z M480.8,250.9 L481.8,250.6 L482.6,250.6 L483.4,250.3 L490.8,250.3 L491.4,252.3 L492.2,253.9 L492.7,254.7 L493.7,256.1 L495.3,255.9 L496.2,255.5 L497.5,255.9 L497.9,255.2 L498.5,253.7 L500.1,253.6 L500.2,253.1 L501.5,253.1 L501.3,254.1 L504.3,254.0 L504.4,255.7 L504.9,256.7 L504.5,258.3 L504.7,259.9 L505.5,260.8 L505.4,263.9 L506.0,263.7 L507.1,263.8 L508.6,263.4 L509.8,263.5 L510.0,264.3 L509.8,265.6 L510.2,266.8 L509.8,267.8 L510.0,268.7 L504.8,268.7 L504.7,277.0 L506.4,279.1 L508.0,280.8 L503.4,281.8 L497.4,281.4 L495.7,280.2 L485.5,280.3 L485.1,280.5 L483.7,279.3 L482.0,279.2 L480.5,279.7 L479.3,280.2 L479.1,278.5 L479.4,276.2 L480.3,273.8 L480.4,272.7 L481.3,270.4 L481.8,269.3 L483.3,267.6 L484.1,266.4 L484.3,264.5 L484.2,263.0 L483.5,262.1 L482.8,260.5 L482.2,258.9 L482.3,258.4 L483.1,257.4 L482.3,254.8 L481.8,253.1 L480.6,251.4 L480.8,250.9 Z" fill="#e7ece6" stroke="#9ca89f" stroke-width="0.6" fill-rule="evenodd" vector-effect="non-scaling-stroke"/>
      <path d="M526.2,241.3 L526.3,242.3 L526.9,242.9 L526.9,243.8 L526.3,244.3 L525.3,245.7 L524.4,246.6 L523.3,246.7 L523.2,243.6 L522.6,242.4 L524.1,242.6 L524.8,241.1 L526.2,241.3 Z" fill="#e7ece6" stroke="#9ca89f" stroke-width="0.6" fill-rule="evenodd" vector-effect="non-scaling-stroke"/>
      <path d="M573.9,267.6 L574.5,268.7 L575.1,270.4 L575.5,273.5 L576.2,274.8 L575.9,276.0 L575.5,276.8 L574.7,275.2 L574.2,276.0 L574.7,278.0 L574.4,279.1 L573.7,279.7 L573.6,281.9 L572.6,284.9 L571.4,288.5 L569.8,293.5 L568.9,297.1 L567.7,300.1 L565.7,300.7 L563.5,301.8 L562.1,301.2 L560.1,300.2 L559.4,298.9 L559.2,296.6 L558.4,294.5 L558.1,292.6 L558.6,290.7 L559.7,290.3 L559.7,289.4 L560.9,287.4 L561.2,285.7 L560.6,284.5 L560.1,282.9 L559.9,280.5 L560.8,279.0 L561.1,277.3 L562.4,277.2 L563.8,276.7 L564.7,276.2 L565.8,276.2 L567.2,274.7 L569.3,273.1 L570.0,271.8 L569.7,270.7 L570.7,271.0 L572.1,269.2 L572.2,267.6 L573.0,266.4 L573.9,267.6 Z" fill="#e7ece6" stroke="#9ca89f" stroke-width="0.6" fill-rule="evenodd" vector-effect="non-scaling-stroke"/>
      <path d="M408.2,199.5 L410.9,199.4 L411.5,198.8 L412.3,198.8 L413.3,199.4 L414.1,199.4 L414.9,199.0 L415.4,199.7 L414.3,200.3 L413.2,200.3 L412.1,199.7 L411.2,200.3 L410.8,200.3 L410.2,200.7 L407.9,200.7 L408.2,199.5 Z" fill="#e7ece6" stroke="#9ca89f" stroke-width="0.6" fill-rule="evenodd" vector-effect="non-scaling-stroke"/>
      <path d="M428.3,163.5 L428.3,163.0 L428.3,162.8 L428.3,159.7 L432.4,157.8 L434.8,157.4 L436.9,156.7 L437.9,155.4 L440.8,154.3 L440.9,152.4 L442.3,152.2 L443.5,151.2 L446.7,150.8 L447.2,149.7 L446.5,149.2 L445.7,146.4 L445.5,144.8 L444.6,143.2 L447.0,141.7 L449.7,141.3 L451.3,140.2 L453.7,139.4 L457.9,139.0 L462.0,138.7 L463.3,139.1 L465.7,138.1 L468.3,138.1 L469.3,138.7 L471.1,138.5 L470.5,139.9 L470.9,142.4 L470.4,144.5 L468.8,146.0 L469.0,147.9 L471.1,149.5 L471.1,150.1 L472.6,151.2 L473.7,155.9 L474.5,158.2 L474.6,159.4 L474.2,161.5 L474.4,162.7 L474.1,164.1 L474.3,165.8 L473.3,166.9 L474.8,168.8 L474.9,169.9 L475.8,171.3 L476.9,170.9 L478.9,172.1 L480.0,173.7 L471.4,178.7 L464.2,183.8 L460.7,185.0 L457.9,185.2 L457.9,183.6 L456.7,183.2 L455.2,182.4 L454.6,181.2 L446.1,175.5 L437.7,169.8 L428.3,163.5 Z" fill="#e7ece6" stroke="#9ca89f" stroke-width="0.6" fill-rule="evenodd" vector-effect="non-scaling-stroke"/>
      <path d="M541.1,197.3 L540.8,196.3 L541.9,192.5 L542.1,190.7 L542.9,189.9 L544.8,189.5 L546.0,188.0 L547.5,191.0 L548.2,193.4 L549.5,194.7 L552.9,197.2 L554.3,198.7 L555.7,200.2 L556.5,201.1 L557.7,201.8 L556.9,202.5 L555.9,202.3 L555.0,201.4 L554.0,199.9 L552.9,199.0 L552.2,198.1 L550.1,197.1 L548.4,197.1 L547.7,196.5 L546.3,197.1 L544.8,195.9 L544.0,197.9 L541.1,197.3 Z" fill="#e7ece6" stroke="#9ca89f" stroke-width="0.6" fill-rule="evenodd" vector-effect="non-scaling-stroke"/>
      <path d="M304.6,287.7 L305.3,289.1 L305.2,292.7 L307.8,293.2 L308.8,292.7 L310.5,293.4 L311.0,294.2 L311.2,296.5 L311.5,297.6 L312.4,297.7 L313.4,297.2 L314.3,297.7 L314.3,299.2 L313.9,300.7 L313.4,302.2 L313.0,304.5 L310.8,306.5 L308.8,306.9 L306.0,306.5 L303.5,305.8 L305.9,301.9 L305.6,300.7 L303.0,299.7 L299.9,297.8 L297.9,297.4 L293.3,293.1 L294.3,290.0 L294.3,288.6 L295.5,286.3 L299.9,285.5 L302.2,285.5 L304.5,286.9 L304.6,287.7 Z" fill="#e7ece6" stroke="#9ca89f" stroke-width="0.6" fill-rule="evenodd" vector-effect="non-scaling-stroke"/>
      <path d="M580.0,185.4 L582.0,189.7 L582.8,191.5 L581.0,192.2 L580.5,193.4 L580.4,194.3 L577.9,195.4 L573.9,196.6 L571.7,198.4 L570.6,198.6 L569.8,198.4 L568.4,199.5 L566.8,200.0 L564.7,200.1 L564.1,200.3 L563.5,201.0 L562.9,201.2 L562.5,201.8 L561.2,201.8 L560.4,202.1 L558.7,202.0 L558.1,200.5 L558.1,199.1 L557.7,198.3 L557.2,196.3 L556.5,195.3 L557.0,195.1 L556.8,194.0 L557.1,193.5 L556.9,192.3 L558.0,191.5 L557.8,190.4 L558.5,189.1 L559.5,189.8 L560.2,189.5 L563.0,189.5 L563.5,189.7 L565.9,190.0 L566.9,189.9 L567.5,190.7 L568.7,190.3 L570.5,187.6 L572.8,186.4 L580.0,185.4 Z" fill="#e7ece6" stroke="#9ca89f" stroke-width="0.6" fill-rule="evenodd" vector-effect="non-scaling-stroke"/>
      <path d="M537.4,158.3 L540.2,158.8 L541.3,158.0 L541.9,157.0 L543.8,156.7 L544.2,155.8 L545.0,155.3 L542.5,152.7 L547.5,151.4 L548.0,151.0 L551.0,151.7 L554.7,153.6 L561.8,158.8 L566.4,159.0 L568.6,159.3 L569.3,160.5 L571.0,160.4 L572.0,162.7 L573.2,163.3 L573.7,164.2 L575.4,165.3 L575.5,166.4 L575.3,167.3 L575.6,168.1 L576.3,168.9 L576.7,169.7 L577.0,170.4 L577.8,170.9 L578.5,170.7 L578.9,171.7 L579.0,172.3 L580.0,174.9 L587.5,176.3 L588.0,175.7 L589.2,177.6 L587.5,182.8 L580.0,185.4 L572.8,186.4 L570.5,187.6 L568.7,190.3 L567.5,190.7 L566.9,189.9 L565.9,190.0 L563.5,189.7 L563.0,189.5 L560.2,189.5 L559.5,189.8 L558.5,189.1 L557.8,190.4 L558.0,191.5 L556.9,192.3 L556.6,191.2 L555.9,190.4 L555.7,189.4 L554.4,188.4 L553.1,186.2 L552.3,184.1 L550.6,182.3 L549.5,181.9 L547.8,179.4 L547.6,177.6 L547.7,176.0 L546.2,173.1 L545.1,172.1 L543.7,171.6 L542.9,170.1 L543.0,169.5 L542.3,168.1 L541.6,167.6 L540.6,165.6 L539.1,163.5 L537.8,161.7 L536.6,161.7 L537.0,160.3 L537.1,159.4 L537.4,158.3 Z" fill="#e7ece6" stroke="#9ca89f" stroke-width="0.6" fill-rule="evenodd" vector-effect="non-scaling-stroke"/>
      <path d="M328.3,438.8 L329.6,438.8 L333.3,438.2 L337.1,438.8 L340.2,439.9 L341.3,441.5 L341.6,442.6 L341.7,444.0 L337.8,444.8 L333.7,445.4 L329.0,446.1 L323.8,446.6 L317.9,446.4 L314.6,445.5 L315.0,444.5 L320.4,443.8 L322.5,442.9 L324.1,441.8 L325.2,440.8 L326.7,439.9 L328.3,438.8 L328.3,438.8 Z M284.3,444.6 L289.9,444.7 L295.3,444.9 L297.2,443.8 L298.5,442.9 L301.1,444.0 L300.3,445.3 L299.6,446.5 L294.4,446.1 L288.8,446.3 L285.6,445.4 L285.6,445.3 L284.3,444.6 Z M265.2,421.1 L265.2,421.1 L266.9,420.8 L269.8,420.9 L270.5,419.6 L270.7,418.6 L270.6,416.5 L272.1,415.3 L274.4,414.9 L275.7,415.8 L276.3,416.8 L277.4,418.0 L278.2,419.1 L278.9,420.3 L279.2,421.5 L278.7,422.5 L278.0,423.4 L275.1,423.8 L272.3,424.3 L269.0,424.3 L270.3,423.2 L267.3,423.6 L264.5,424.0 L262.6,423.2 L262.5,422.1 L265.2,421.1 Z M194.2,422.7 L194.2,422.7 L195.7,422.3 L198.9,422.6 L202.5,422.8 L205.3,423.2 L208.0,422.9 L209.5,424.4 L207.5,424.2 L204.5,424.3 L201.4,424.2 L198.0,424.3 L195.5,423.8 L194.2,422.7 Z M143.4,427.3 L143.4,427.3 L144.0,426.5 L147.0,426.9 L150.2,427.3 L153.2,426.9 L151.8,427.8 L149.4,428.5 L145.9,428.2 L143.4,427.3 Z M131.8,426.8 L131.8,426.8 L133.6,426.3 L136.1,426.9 L139.9,427.9 L138.5,427.8 L135.2,427.5 L131.8,426.8 Z M40.7,440.2 L40.7,440.2 L42.2,439.2 L46.9,439.7 L49.4,440.5 L51.3,441.4 L52.0,442.6 L47.2,442.9 L43.9,442.0 L42.4,441.1 L42.3,440.9 L40.7,440.2 Z M900.0,456.2 L900.0,470.0 L0.0,470.0 L0.0,456.2 L0.1,456.2 L2.4,454.7 L6.9,455.5 L7.1,455.4 L9.8,454.6 L10.1,454.6 L10.4,454.6 L14.0,455.7 L17.2,454.6 L17.8,454.5 L25.1,454.0 L27.5,454.6 L28.7,455.0 L32.4,455.8 L39.5,456.5 L45.2,457.3 L54.8,457.9 L62.0,457.2 L72.6,457.7 L78.7,458.5 L85.3,457.8 L92.2,457.1 L92.8,455.8 L82.9,455.7 L74.8,455.1 L72.7,454.1 L66.0,453.5 L66.5,452.3 L67.4,451.3 L68.3,450.3 L67.8,449.2 L63.7,448.5 L61.8,447.6 L57.9,446.8 L64.0,446.9 L69.8,446.5 L73.4,447.4 L77.8,446.6 L81.9,445.6 L84.0,444.8 L83.1,443.7 L79.8,443.0 L76.2,442.2 L71.0,442.1 L66.5,441.7 L61.7,441.4 L60.1,440.5 L56.8,439.7 L54.9,438.7 L54.1,435.8 L55.3,436.0 L57.6,436.8 L61.7,436.6 L65.6,436.2 L67.7,437.4 L71.7,437.1 L75.0,436.5 L78.1,435.8 L81.0,434.9 L84.7,434.7 L84.6,433.7 L83.8,432.7 L84.5,431.8 L87.7,431.4 L89.2,432.2 L93.0,431.7 L95.9,431.1 L99.5,431.0 L102.9,430.8 L106.2,430.1 L108.9,429.6 L112.0,429.0 L113.9,429.2 L115.6,429.4 L119.4,429.0 L122.7,429.5 L126.1,429.4 L129.4,429.1 L132.8,429.3 L136.5,429.6 L140.0,429.5 L143.6,429.5 L147.3,429.6 L150.7,429.5 L153.3,428.7 L156.3,428.3 L159.5,428.9 L162.4,428.4 L165.1,427.5 L166.8,428.3 L167.6,429.2 L169.3,430.1 L171.8,429.3 L174.8,430.3 L178.2,430.6 L181.1,431.3 L184.6,431.2 L187.8,430.7 L191.6,430.8 L195.0,431.2 L198.4,431.6 L199.7,430.5 L198.1,429.6 L196.9,428.7 L193.6,428.5 L192.2,427.5 L191.7,426.6 L190.8,424.6 L192.7,425.0 L196.0,425.1 L199.2,425.0 L202.2,425.4 L204.7,426.1 L205.8,427.1 L209.2,427.2 L212.4,426.9 L215.8,426.4 L218.9,426.0 L221.4,426.7 L224.8,426.5 L226.9,424.5 L228.9,425.6 L231.8,426.1 L235.0,425.8 L237.0,426.9 L240.3,427.0 L243.3,427.3 L246.3,427.8 L248.3,426.9 L249.3,425.9 L251.8,427.0 L255.2,426.7 L257.7,427.3 L259.4,428.1 L262.8,427.9 L265.4,427.3 L267.9,426.7 L271.0,426.3 L274.5,426.0 L277.7,425.6 L280.1,425.1 L281.6,424.3 L282.2,423.1 L281.9,422.1 L281.1,421.0 L280.2,420.0 L279.4,419.0 L278.8,418.1 L278.6,417.0 L278.9,416.0 L280.1,415.0 L281.0,414.0 L281.4,412.9 L280.9,411.8 L280.6,410.8 L281.9,409.6 L283.2,408.9 L284.9,407.9 L286.6,407.1 L288.6,406.3 L289.6,405.2 L290.9,404.5 L292.5,403.8 L294.9,403.6 L296.5,402.8 L298.2,402.3 L300.3,402.0 L302.1,401.3 L303.5,400.5 L305.5,400.2 L306.9,400.9 L306.0,401.7 L303.5,402.5 L302.4,403.1 L300.5,402.7 L298.5,402.9 L296.8,403.5 L294.9,404.2 L293.7,405.0 L293.4,406.0 L293.5,407.0 L294.7,407.8 L293.0,408.4 L290.6,408.6 L289.3,409.5 L287.8,410.3 L286.2,411.5 L285.8,412.4 L286.7,413.5 L288.0,414.3 L290.1,414.9 L292.0,415.8 L293.0,416.8 L293.6,417.8 L294.3,418.8 L295.5,419.6 L296.2,420.6 L296.6,423.0 L297.3,424.0 L297.5,425.0 L298.3,426.0 L297.9,427.4 L296.6,428.5 L295.1,429.4 L291.8,429.7 L290.6,430.6 L289.1,431.5 L285.3,432.5 L282.0,432.9 L278.9,433.5 L275.5,434.0 L273.5,435.1 L269.5,435.2 L265.1,435.1 L261.1,435.3 L256.9,435.3 L257.7,436.3 L261.5,436.8 L264.3,437.5 L265.9,438.4 L263.1,439.2 L258.8,439.0 L255.2,439.7 L255.0,440.7 L254.9,441.8 L257.9,442.6 L258.4,443.6 L261.6,444.6 L266.9,445.0 L271.4,445.7 L275.0,446.5 L279.5,447.3 L285.7,447.7 L291.9,448.5 L296.1,449.2 L300.8,450.1 L303.2,451.3 L304.4,452.3 L307.5,451.4 L311.6,450.6 L316.0,449.8 L321.1,449.1 L325.6,448.4 L331.8,448.4 L337.9,448.7 L343.0,449.3 L344.6,448.2 L348.1,447.4 L354.4,447.4 L359.3,446.8 L364.0,446.3 L369.2,445.9 L374.8,445.4 L378.6,444.8 L376.9,443.9 L375.8,442.9 L375.8,442.0 L370.9,442.1 L365.8,442.5 L360.9,442.5 L360.2,441.5 L360.6,439.6 L361.7,439.0 L365.3,438.4 L369.5,437.8 L372.5,437.0 L375.5,436.2 L377.8,435.2 L381.2,434.7 L384.6,434.4 L386.3,434.2 L390.2,434.1 L393.9,433.7 L396.9,433.2 L400.0,432.6 L402.7,432.0 L406.2,431.2 L408.4,430.3 L410.7,429.5 L411.5,428.5 L408.8,427.9 L409.7,426.8 L411.4,426.0 L414.0,425.5 L416.7,424.9 L419.3,424.0 L421.2,423.0 L422.4,421.8 L424.3,421.1 L427.2,421.2 L428.5,422.1 L431.5,422.2 L431.6,421.2 L432.8,420.2 L435.5,420.5 L436.2,421.4 L439.1,421.6 L442.4,421.1 L445.5,420.8 L448.4,421.0 L449.4,422.1 L452.2,421.2 L454.7,420.7 L457.6,420.4 L460.3,420.0 L462.9,419.4 L465.7,419.0 L467.8,418.4 L469.4,417.5 L471.2,418.2 L473.8,417.8 L475.6,419.0 L477.0,420.0 L479.9,419.4 L481.0,418.4 L483.6,417.7 L486.8,417.9 L487.8,418.8 L489.9,417.9 L492.6,417.6 L495.5,417.4 L498.1,417.5 L500.9,417.8 L503.6,418.0 L504.8,418.8 L506.4,419.6 L509.2,419.1 L512.1,419.0 L514.9,419.0 L517.7,419.0 L520.2,418.6 L522.9,418.3 L525.1,417.6 L527.4,417.1 L530.0,416.9 L531.9,416.2 L533.3,414.7 L534.7,413.9 L537.3,414.3 L538.3,415.2 L540.4,415.8 L543.0,415.6 L544.8,416.5 L546.6,417.2 L549.2,416.6 L550.1,415.5 L552.3,415.0 L554.9,414.1 L557.3,413.8 L560.3,413.3 L562.2,412.7 L564.3,412.1 L566.3,411.5 L568.6,411.8 L570.9,410.9 L572.5,410.2 L574.8,410.2 L576.9,409.6 L577.4,408.7 L579.5,408.0 L581.5,407.5 L584.0,407.1 L586.3,406.9 L588.5,407.0 L590.9,407.3 L592.9,408.0 L593.1,409.1 L595.3,410.0 L596.9,410.7 L599.8,411.0 L601.5,411.7 L603.6,412.4 L606.0,412.6 L608.0,412.1 L610.1,411.0 L612.5,411.6 L614.9,411.9 L617.3,412.2 L619.7,412.4 L622.2,412.4 L624.3,415.1 L624.2,415.8 L623.9,416.9 L621.5,417.6 L619.5,418.6 L619.9,419.6 L622.7,419.5 L622.3,420.6 L621.0,421.5 L619.9,422.6 L621.8,423.4 L624.7,423.7 L627.6,423.2 L628.9,422.2 L629.8,421.2 L631.1,420.4 L632.7,419.6 L633.3,418.7 L634.7,417.4 L636.2,417.2 L639.1,417.1 L641.6,416.8 L644.1,416.4 L645.3,415.4 L646.1,414.4 L647.8,413.4 L650.2,412.7 L652.3,412.2 L653.7,411.4 L655.1,410.9 L656.9,410.5 L659.4,410.7 L661.7,410.5 L664.1,410.2 L666.9,410.3 L668.7,409.6 L670.0,407.9 L670.9,408.6 L672.1,409.8 L674.2,410.3 L676.6,410.5 L679.0,410.2 L681.5,410.4 L683.9,410.5 L685.4,410.2 L687.5,410.4 L689.5,411.0 L691.7,410.6 L694.4,410.6 L696.7,410.2 L699.3,410.6 L701.0,409.7 L702.2,408.9 L703.9,408.1 L707.1,406.2 L708.7,406.6 L710.6,407.3 L712.3,408.2 L715.5,409.8 L717.9,409.8 L720.2,409.8 L722.9,409.5 L725.6,409.2 L727.6,408.4 L729.4,407.7 L732.2,407.6 L734.0,407.0 L736.0,407.5 L737.2,408.3 L739.0,409.2 L741.7,409.1 L743.5,409.7 L746.4,410.4 L749.6,410.6 L752.2,410.4 L754.1,409.6 L755.8,408.8 L758.1,408.6 L760.3,409.0 L762.9,409.2 L765.3,408.8 L767.5,408.8 L769.7,409.1 L772.0,409.3 L774.3,408.9 L777.0,408.4 L779.5,408.3 L782.3,408.3 L784.6,408.1 L786.9,407.9 L787.6,406.6 L787.7,405.5 L789.2,406.2 L789.7,407.4 L790.5,408.5 L791.5,409.4 L793.7,409.8 L796.5,409.7 L799.8,409.6 L802.0,409.5 L805.3,409.5 L807.7,409.4 L810.9,409.5 L813.7,409.7 L815.5,410.5 L815.0,411.5 L816.6,412.3 L819.3,412.9 L822.1,413.6 L825.3,414.0 L828.7,414.4 L831.3,414.8 L834.1,414.9 L835.7,414.0 L837.9,414.7 L839.8,415.6 L842.0,416.2 L845.1,416.4 L848.0,416.7 L849.2,417.8 L852.0,418.4 L853.9,419.3 L856.7,419.7 L859.6,419.6 L862.3,419.8 L865.3,419.8 L868.3,420.0 L871.1,420.3 L873.7,420.9 L876.3,421.4 L878.0,422.2 L877.7,423.2 L876.4,424.2 L875.3,425.3 L874.4,426.2 L873.2,427.3 L869.9,427.7 L868.5,428.7 L865.2,429.2 L864.1,430.2 L862.4,431.2 L860.6,432.0 L859.6,433.1 L858.9,434.1 L858.7,435.3 L858.7,436.2 L860.1,437.2 L860.7,438.2 L861.9,439.1 L866.5,439.5 L867.5,440.6 L863.0,441.0 L859.2,441.6 L854.4,441.7 L852.3,443.2 L851.9,444.4 L850.8,445.4 L849.5,446.4 L852.8,447.2 L854.1,448.3 L856.2,449.3 L859.3,450.1 L862.7,451.0 L866.5,451.8 L872.2,452.6 L873.5,453.9 L880.7,454.4 L881.2,454.6 L883.1,455.4 L890.0,454.7 L895.7,455.6 L900.0,456.2 Z" fill="#e7ece6" stroke="#9ca89f" stroke-width="0.6" fill-rule="evenodd" vector-effect="non-scaling-stroke"/>
      <path d="M444.6,143.2 L445.5,144.8 L445.7,146.4 L446.5,149.2 L447.2,149.7 L446.7,150.8 L443.5,151.2 L442.3,152.2 L440.9,152.4 L440.8,154.3 L437.9,155.4 L436.9,156.7 L434.8,157.4 L432.4,157.8 L428.3,159.7 L428.3,162.8 L428.0,162.8 L428.0,164.2 L426.5,164.3 L425.7,164.9 L424.5,164.9 L423.6,164.5 L421.5,164.8 L420.7,166.8 L419.9,167.0 L418.7,170.3 L415.3,173.1 L414.4,176.7 L413.4,177.9 L413.1,178.9 L407.5,179.1 L407.4,179.1 L407.6,177.9 L408.5,177.1 L409.3,175.8 L409.2,174.9 L410.0,173.1 L411.4,171.4 L412.3,171.0 L412.9,169.5 L413.0,168.1 L413.9,166.4 L415.6,165.5 L417.2,162.8 L417.2,162.8 L418.5,161.8 L420.8,161.5 L422.7,159.7 L424.0,159.0 L426.1,156.8 L425.5,153.6 L426.4,151.3 L426.7,150.0 L428.4,148.2 L430.9,147.0 L432.7,145.9 L434.4,143.2 L435.2,141.6 L437.0,141.6 L438.5,142.7 L440.9,142.6 L443.5,143.1 L444.6,143.2 Z" fill="#e7ece6" stroke="#9ca89f" stroke-width="0.6" fill-rule="evenodd" vector-effect="non-scaling-stroke"/>
      <path d="M542.2,177.6 L532.2,177.6 L522.6,177.6 L512.5,177.6 L512.5,167.9 L512.5,158.7 L511.8,156.6 L512.4,154.9 L512.0,153.8 L512.9,152.6 L516.2,152.5 L518.6,153.2 L521.1,154.0 L522.3,154.4 L524.2,153.6 L525.2,152.8 L527.4,152.6 L529.2,152.9 L529.9,154.2 L530.5,153.4 L532.5,154.0 L534.4,154.1 L535.7,153.5 L535.7,153.5 L537.1,157.3 L537.3,158.0 L536.6,159.0 L536.1,161.0 L535.4,162.4 L534.8,162.8 L534.0,162.0 L532.8,160.8 L531.1,157.1 L530.8,157.3 L531.8,160.0 L533.4,162.7 L535.3,166.7 L536.2,168.2 L537.0,169.6 L539.2,172.5 L538.7,173.0 L538.8,174.7 L541.7,177.0 L542.2,177.6 Z" fill="#e7ece6" stroke="#9ca89f" stroke-width="0.6" fill-rule="evenodd" vector-effect="non-scaling-stroke"/>
      <path d="M512.5,177.6 L512.5,182.8 L509.6,182.8 L509.6,183.9 L499.6,178.9 L489.7,173.9 L487.1,175.3 L485.4,176.3 L484.0,174.8 L480.0,173.7 L478.9,172.1 L476.9,170.9 L475.8,171.3 L474.9,169.9 L474.8,168.8 L473.3,166.9 L474.3,165.8 L474.1,164.1 L474.4,162.7 L474.2,161.5 L474.6,159.4 L474.5,158.2 L473.7,155.9 L474.9,155.3 L475.1,154.2 L474.9,153.1 L476.6,152.1 L477.4,151.2 L478.6,150.5 L478.7,148.5 L481.7,149.4 L482.7,149.1 L484.8,149.6 L488.1,150.8 L489.3,153.1 L491.5,153.6 L495.1,154.7 L497.7,156.0 L498.9,155.3 L500.1,154.1 L499.6,152.1 L500.3,150.8 L502.1,149.6 L503.9,149.2 L507.2,149.8 L508.1,150.9 L509.0,151.0 L509.8,151.4 L512.3,151.7 L512.9,152.6 L512.0,153.8 L512.4,154.9 L511.8,156.6 L512.5,158.7 L512.5,167.9 L512.5,177.6 Z" fill="#e7ece6" stroke="#9ca89f" stroke-width="0.6" fill-rule="evenodd" vector-effect="non-scaling-stroke"/>
      <path d="M569.5,214.1 L562.4,221.9 L559.2,222.1 L556.9,223.9 L555.3,223.9 L554.6,224.8 L552.9,224.8 L551.9,223.9 L549.6,225.0 L548.9,226.1 L547.2,225.9 L546.7,225.6 L546.1,225.6 L545.3,225.6 L542.1,223.4 L540.4,223.4 L539.5,222.5 L539.5,221.1 L538.2,220.6 L536.8,217.8 L535.6,217.2 L535.2,216.1 L533.9,214.9 L532.4,214.7 L533.2,213.2 L534.6,213.1 L534.9,212.3 L534.9,210.0 L535.6,207.2 L536.8,206.5 L537.1,205.4 L538.2,203.5 L539.7,202.2 L540.7,199.6 L541.1,197.3 L544.0,197.9 L544.8,195.9 L546.3,197.1 L547.7,196.5 L548.4,197.1 L550.1,197.1 L552.2,198.1 L552.9,199.0 L554.0,199.9 L555.0,201.4 L555.9,202.3 L555.0,203.4 L554.2,204.6 L554.3,205.4 L554.4,206.1 L555.8,206.2 L556.4,206.0 L556.9,206.5 L556.4,207.4 L557.3,208.8 L558.2,210.1 L559.2,211.0 L567.4,214.1 L569.5,214.1 Z" fill="#e7ece6" stroke="#9ca89f" stroke-width="0.6" fill-rule="evenodd" vector-effect="non-scaling-stroke"/>
      <path d="M555.9,202.3 L556.9,202.5 L557.7,201.8 L558.3,202.6 L558.2,203.7 L556.8,204.4 L557.9,205.1 L556.9,206.5 L556.4,206.0 L555.8,206.2 L554.4,206.1 L554.3,205.4 L554.2,204.6 L555.0,203.4 L555.9,202.3 Z" fill="#e7ece6" stroke="#9ca89f" stroke-width="0.6" fill-rule="evenodd" vector-effect="non-scaling-stroke"/>
      <path d="M572.4,205.2 L572.4,205.2 L572.4,205.2 L572.3,206.3 L572.3,209.0 L572.3,210.3 L571.2,211.9 L569.5,214.1 L567.4,214.1 L559.2,211.0 L558.2,210.1 L557.3,208.8 L556.4,207.4 L556.9,206.5 L557.9,205.1 L558.7,205.6 L559.2,206.6 L560.3,207.7 L561.5,207.7 L563.9,207.1 L566.6,206.8 L568.8,205.9 L570.1,205.8 L570.9,205.3 L572.4,205.2 L572.4,205.2 Z" fill="#e7ece6" stroke="#9ca89f" stroke-width="0.6" fill-rule="evenodd" vector-effect="non-scaling-stroke"/>
      <path d="M534.8,237.5 L529.7,237.7 L526.9,237.6 L526.0,238.0 L524.6,238.8 L523.9,238.5 L524.0,236.5 L524.5,235.5 L524.7,233.4 L525.2,232.2 L526.2,230.9 L527.1,230.2 L527.9,229.2 L526.9,228.9 L527.1,225.8 L527.1,225.8 L528.1,225.1 L529.7,225.7 L531.7,225.1 L533.5,225.1 L535.0,223.9 L536.2,225.7 L536.5,227.0 L537.6,230.0 L536.7,231.9 L535.5,233.7 L534.7,234.7 L534.8,237.5 Z" fill="#e7ece6" stroke="#9ca89f" stroke-width="0.6" fill-rule="evenodd" vector-effect="non-scaling-stroke"/>
      <path d="M526.0,238.0 L527.0,239.4 L526.9,241.0 L526.2,241.3 L526.2,241.3 L524.8,241.1 L524.1,242.6 L522.6,242.4 L522.8,241.0 L523.1,240.8 L523.2,239.2 L523.9,238.5 L524.6,238.8 L526.0,238.0 Z" fill="#e7ece6" stroke="#9ca89f" stroke-width="0.6" fill-rule="evenodd" vector-effect="non-scaling-stroke"/>
      <path d="M295.8,206.9 L297.2,206.6 L297.8,206.7 L297.7,208.6 L295.6,208.9 L295.1,208.7 L295.9,207.9 L295.8,206.9 Z" fill="#e7ece6" stroke="#9ca89f" stroke-width="0.6" fill-rule="evenodd" vector-effect="non-scaling-stroke"/>
      <path d="M527.1,225.8 L524.9,224.1 L524.3,223.0 L522.9,223.5 L521.7,223.4 L521.1,223.8 L519.9,223.5 L518.4,221.3 L518.0,220.5 L516.2,219.5 L515.5,217.9 L514.5,216.8 L512.8,215.4 L512.8,214.6 L511.4,213.5 L509.7,212.5 L510.5,212.2 L511.3,211.7 L512.0,209.4 L512.7,208.2 L514.5,207.8 L514.9,208.5 L516.2,210.1 L516.9,210.3 L517.8,209.8 L519.6,209.9 L519.9,210.5 L522.4,210.5 L522.5,209.9 L523.8,209.4 L524.0,208.7 L525.0,208.1 L527.1,209.7 L528.4,209.4 L529.6,207.5 L531.0,206.1 L530.8,204.5 L530.2,203.7 L531.7,203.6 L531.9,203.0 L533.0,203.2 L532.7,205.1 L533.0,207.0 L534.3,208.0 L534.6,208.9 L534.6,210.2 L534.9,210.3 L534.9,212.3 L534.6,213.1 L533.2,213.2 L532.4,214.7 L533.9,214.9 L535.2,216.1 L535.6,217.2 L536.8,217.8 L538.2,220.6 L536.6,222.3 L535.0,223.9 L533.5,225.1 L531.7,225.1 L529.7,225.7 L528.1,225.1 L527.1,225.8 Z" fill="#e7ece6" stroke="#9ca89f" stroke-width="0.6" fill-rule="evenodd" vector-effect="non-scaling-stroke"/>
  </g>
  <path d="M278.4,372.4 L278.4,378.3 L281.1,378.3 L282.6,378.3 L281.8,379.4 L279.6,380.2 L278.4,380.1 L276.9,379.9 L275.1,379.1 L272.5,378.8 L269.3,377.3 L266.8,375.9 L263.3,373.0 L265.4,373.5 L268.9,375.3 L272.2,376.2 L273.5,375.0 L274.3,373.2 L276.6,372.1 L278.4,372.4 Z M276.0,280.9 L277.2,282.7 L277.6,284.6 L278.9,285.7 L278.1,288.2 L279.5,291.1 L280.4,294.7 L282.2,294.4 L282.5,295.0 L281.7,297.7 L279.0,299.0 L279.0,303.4 L278.5,304.2 L279.3,305.2 L277.5,306.9 L275.9,309.3 L275.0,311.7 L275.2,314.2 L273.7,316.9 L274.8,321.4 L275.5,321.9 L275.5,324.3 L274.0,326.8 L274.1,329.0 L272.2,330.7 L272.2,333.1 L273.0,335.7 L271.5,336.6 L270.8,338.9 L270.2,341.6 L270.6,344.8 L269.6,345.3 L270.2,348.3 L271.3,349.3 L270.5,350.4 L271.7,351.0 L271.9,351.9 L270.9,352.4 L271.1,354.0 L270.2,357.4 L268.9,359.7 L269.2,361.0 L268.4,362.6 L266.5,363.8 L266.7,366.5 L267.6,367.5 L269.2,367.3 L269.2,369.3 L270.2,370.8 L276.3,371.2 L278.6,371.6 L276.3,371.5 L275.1,372.2 L272.9,373.1 L272.5,375.6 L271.4,375.6 L268.6,374.8 L265.7,373.0 L265.7,373.0 L262.6,371.5 L261.8,369.8 L262.6,368.3 L261.3,366.5 L261.0,362.1 L262.0,359.6 L264.7,357.6 L260.9,356.8 L263.3,354.5 L264.1,350.2 L266.9,351.1 L268.2,345.7 L266.5,345.0 L265.7,348.2 L264.2,347.9 L265.0,344.1 L265.8,339.3 L267.0,337.5 L266.2,335.0 L266.0,332.0 L267.1,331.9 L268.6,327.7 L270.3,323.5 L271.4,319.6 L270.8,315.7 L271.6,313.6 L271.3,310.4 L272.7,307.2 L273.2,302.1 L274.0,296.7 L274.8,290.9 L274.6,286.6 L274.1,282.9 L275.4,282.2 L276.0,280.9 Z" fill="#2f7d4f" stroke="#173f3a" stroke-width="1.8" fill-rule="evenodd" vector-effect="non-scaling-stroke"/>
  <circle cx="269.2" cy="334.6" r="4.8" fill="#c2563d" stroke="#ffffff" stroke-width="1.4"/>
</svg>
