<svg xmlns="http://www.w3.org/2000/svg" viewBox="472.7 155.2 153.2 80" role="img" aria-label="Wereldkaart met een land ingekleurd">
  <rect width="900" height="470" fill="#ffffff"/>
  <g>
      <path d="M523.3,246.7 L523.8,249.2 L523.5,250.5 L524.1,252.0 L525.5,253.5 L526.9,256.8 L526.9,256.8 L525.9,256.5 L522.5,257.0 L521.8,257.3 L521.1,258.9 L521.7,260.1 L521.2,263.2 L520.9,265.8 L521.6,266.3 L523.4,267.3 L524.0,266.8 L524.2,269.6 L522.3,269.6 L521.3,268.2 L520.4,267.0 L518.5,266.7 L517.9,265.3 L516.4,266.1 L514.4,265.8 L513.5,264.6 L512.0,264.3 L510.8,264.4 L510.6,263.6 L509.8,263.5 L508.6,263.4 L507.1,263.8 L506.0,263.7 L505.4,263.9 L505.5,260.8 L504.7,259.9 L504.5,258.3 L504.9,256.7 L504.4,255.7 L504.3,254.0 L501.3,254.1 L501.5,253.1 L500.2,253.1 L500.1,253.6 L498.5,253.7 L497.9,255.2 L497.5,255.9 L496.2,255.5 L495.3,255.9 L493.7,256.1 L492.7,254.7 L492.2,253.9 L491.4,252.3 L490.8,250.3 L483.4,250.3 L482.6,250.6 L481.8,250.6 L480.8,250.9 L480.5,250.1 L481.1,249.8 L481.2,248.7 L481.6,248.0 L482.5,247.5 L483.1,247.7 L484.0,246.8 L485.4,246.8 L485.5,247.5 L486.5,248.0 L487.9,246.3 L489.4,245.1 L490.0,244.2 L489.9,242.1 L491.0,239.5 L492.2,238.2 L493.8,236.9 L494.1,236.1 L494.2,235.2 L494.6,234.2 L494.4,232.8 L494.7,230.5 L495.2,228.8 L496.0,227.4 L496.1,225.8 L496.4,224.0 L497.3,222.7 L498.7,221.9 L500.7,222.7 L502.3,223.7 L504.1,224.0 L506.0,224.5 L506.8,222.9 L507.1,222.7 L508.2,223.0 L511.0,221.7 L512.0,222.2 L512.8,222.1 L513.2,221.5 L514.1,221.3 L516.0,221.6 L517.6,221.6 L518.4,221.3 L519.9,223.5 L521.1,223.8 L521.7,223.4 L522.9,223.5 L524.3,223.0 L524.9,224.1 L527.1,225.8 L527.1,225.8 L526.9,228.9 L527.9,229.2 L527.1,230.2 L526.2,230.9 L525.2,232.2 L524.7,233.4 L524.5,235.5 L524.0,236.5 L523.9,238.5 L523.2,239.2 L523.1,240.8 L522.8,241.0 L522.6,242.4 L523.2,243.6 L523.3,246.7 Z" fill="#e7ece6" stroke="#9ca89f" stroke-width="0.6" fill-rule="evenodd" vector-effect="non-scaling-stroke"/>
      <path d="M554.0,239.4 L552.5,237.2 L552.5,227.7 L554.6,224.8 L555.3,223.9 L556.9,223.9 L559.2,222.1 L562.4,221.9 L569.5,214.1 L571.2,211.9 L572.3,210.3 L572.3,209.0 L572.3,206.3 L572.4,205.2 L572.4,205.2 L572.4,205.2 L573.2,205.2 L574.3,204.8 L575.6,204.5 L576.8,203.6 L577.8,203.6 L577.8,204.3 L577.6,205.8 L577.6,207.2 L577.1,208.2 L576.4,211.0 L575.2,213.9 L573.6,217.2 L571.5,221.1 L569.4,224.0 L566.4,227.5 L563.9,229.7 L560.2,232.3 L557.8,234.2 L555.1,237.4 L554.5,238.8 L554.0,239.4 Z" fill="#e7ece6" stroke="#9ca89f" stroke-width="0.6" fill-rule="evenodd" vector-effect="non-scaling-stroke"/>
      <path d="M548.0,247.2 L544.4,244.6 L544.2,243.1 L535.2,237.8 L534.8,237.5 L534.7,234.7 L535.5,233.7 L536.7,231.9 L537.6,230.0 L536.5,227.0 L536.2,225.7 L535.0,223.9 L536.6,222.3 L538.2,220.6 L539.5,221.1 L539.5,222.5 L540.4,223.4 L542.1,223.4 L545.3,225.6 L546.1,225.6 L546.7,225.6 L547.2,225.9 L548.9,226.1 L549.6,225.0 L551.9,223.9 L552.9,224.8 L554.6,224.8 L552.5,227.7 L552.5,237.2 L554.0,239.4 L552.2,240.4 L551.6,241.5 L550.7,241.7 L550.3,243.6 L549.5,244.6 L549.0,246.3 L548.0,247.2 Z" fill="#e7ece6" stroke="#9ca89f" stroke-width="0.6" fill-rule="evenodd" vector-effect="non-scaling-stroke"/>
      <path d="M511.4,213.5 L509.5,212.4 L508.6,211.6 L508.5,210.8 L508.9,209.7 L508.9,208.7 L507.4,207.0 L507.2,205.9 L507.2,205.3 L506.3,204.5 L506.2,203.0 L505.7,202.0 L504.8,202.1 L505.1,201.2 L505.7,200.1 L505.5,199.0 L506.3,198.2 L505.8,197.6 L506.4,196.0 L507.6,194.1 L509.7,194.2 L509.6,183.9 L509.6,182.8 L512.5,182.8 L512.5,177.6 L522.6,177.6 L532.2,177.6 L542.2,177.6 L543.0,180.1 L542.4,180.6 L542.8,183.3 L543.7,186.4 L544.7,187.0 L546.0,188.0 L544.8,189.5 L542.9,189.9 L542.1,190.7 L541.9,192.5 L540.8,196.3 L541.1,197.3 L540.7,199.6 L539.7,202.2 L538.2,203.5 L537.1,205.4 L536.8,206.5 L535.6,207.2 L534.9,210.0 L534.9,212.3 L534.9,210.3 L534.6,210.2 L534.6,208.9 L534.3,208.0 L533.0,207.0 L532.7,205.1 L533.0,203.2 L531.9,203.0 L531.7,203.6 L530.2,203.7 L530.8,204.5 L531.0,206.1 L529.6,207.5 L528.4,209.4 L527.1,209.7 L525.0,208.1 L524.0,208.7 L523.8,209.4 L522.5,209.9 L522.4,210.5 L519.9,210.5 L519.6,209.9 L517.8,209.8 L516.9,210.3 L516.2,210.1 L514.9,208.5 L514.5,207.8 L512.7,208.2 L512.0,209.4 L511.3,211.7 L510.5,212.2 L509.7,212.5 L511.4,213.5 Z" fill="#e7ece6" stroke="#9ca89f" stroke-width="0.6" fill-rule="evenodd" vector-effect="non-scaling-stroke"/>
      <path d="M509.6,183.9 L509.7,194.2 L507.6,194.1 L506.4,196.0 L505.8,197.6 L506.3,198.2 L505.5,199.0 L505.7,200.1 L505.1,201.2 L504.8,202.1 L505.7,202.0 L506.2,203.0 L506.3,204.5 L507.2,205.3 L507.2,205.9 L505.6,206.4 L504.3,207.4 L502.5,210.3 L500.1,211.5 L497.7,211.3 L497.0,211.5 L497.3,212.5 L496.0,213.4 L494.9,214.4 L491.8,215.4 L491.1,214.8 L490.7,214.8 L490.3,215.4 L488.2,215.6 L488.6,214.9 L487.8,213.1 L487.4,212.0 L486.4,211.6 L484.9,210.1 L485.4,208.8 L486.6,209.1 L487.3,208.9 L488.7,208.9 L487.3,206.6 L487.4,204.8 L487.2,203.1 L486.2,201.4 L486.5,200.2 L484.9,200.1 L484.9,198.5 L483.9,197.5 L484.9,194.0 L488.1,191.6 L488.3,188.2 L489.2,182.9 L489.8,181.8 L488.7,180.9 L488.7,180.0 L487.7,179.4 L487.1,175.3 L489.7,173.9 L499.6,178.9 L509.6,183.9 Z" fill="#e7ece6" stroke="#9ca89f" stroke-width="0.6" fill-rule="evenodd" vector-effect="non-scaling-stroke"/>
      <path d="M320.9,224.1 L319.4,226.5 L318.6,228.5 L317.7,229.5 L316.5,229.6 L316.1,228.9 L315.6,228.8 L314.8,229.5 L313.7,229.0 L314.3,227.9 L314.5,226.7 L315.0,225.5 L314.0,224.0 L313.8,222.2 L315.1,220.0 L316.0,220.3 L317.8,220.9 L320.4,223.1 L320.9,224.1 Z M465.5,105.8 L466.6,106.5 L470.2,107.0 L469.0,108.8 L468.7,110.7 L468.0,111.1 L466.8,110.9 L466.9,111.5 L465.1,113.0 L465.1,114.2 L466.3,113.8 L467.1,114.9 L467.0,115.6 L467.7,116.6 L466.9,117.4 L467.5,119.4 L468.9,119.8 L468.6,120.9 L466.3,122.4 L461.4,121.7 L457.8,122.5 L457.5,124.1 L454.6,124.4 L451.8,123.3 L450.8,123.8 L446.2,122.6 L445.2,121.6 L446.5,120.1 L447.0,114.8 L444.4,112.1 L442.6,110.8 L438.8,109.8 L438.5,107.9 L441.8,107.3 L446.0,108.0 L445.2,105.0 L447.5,106.1 L453.3,104.1 L454.1,102.0 L456.3,101.4 L456.6,102.4 L457.8,102.4 L459.0,103.5 L460.7,104.7 L462.0,104.5 L464.2,105.7 L464.7,105.9 L465.5,105.8 Z M471.9,123.7 L473.5,122.7 L473.9,124.9 L473.1,127.0 L471.9,126.4 L471.4,124.7 L471.9,123.7 Z" fill="#e7ece6" stroke="#9ca89f" stroke-width="0.6" fill-rule="evenodd" vector-effect="non-scaling-stroke"/>
      <path d="M487.1,175.3 L487.7,179.4 L488.7,180.0 L488.7,180.9 L489.8,181.8 L489.2,182.9 L488.3,188.2 L488.1,191.6 L484.9,194.0 L483.9,197.5 L484.9,198.5 L484.9,200.1 L486.5,200.2 L486.2,201.4 L485.5,201.6 L485.5,202.4 L485.0,202.5 L483.3,199.6 L482.7,199.5 L480.8,201.0 L478.8,200.2 L477.5,200.0 L476.8,200.4 L475.3,200.3 L473.8,201.4 L472.5,201.5 L469.5,200.2 L468.3,200.8 L467.1,200.8 L466.1,199.8 L463.6,198.8 L460.9,199.1 L460.3,199.7 L459.9,201.2 L459.2,202.2 L459.0,204.6 L457.1,203.1 L456.2,203.1 L455.4,203.8 L455.4,202.0 L452.6,201.4 L452.5,200.2 L451.1,198.5 L450.7,197.3 L450.9,196.0 L452.5,195.9 L453.5,195.0 L456.9,194.8 L459.1,194.3 L459.3,192.7 L460.7,191.0 L460.7,185.0 L464.2,183.8 L471.4,178.7 L480.0,173.7 L484.0,174.8 L485.4,176.3 L487.1,175.3 Z" fill="#e7ece6" stroke="#9ca89f" stroke-width="0.6" fill-rule="evenodd" vector-effect="non-scaling-stroke"/>
      <path d="M456.7,218.7 L456.9,214.4 L456.8,212.8 L457.3,211.1 L458.1,210.3 L459.3,208.7 L459.0,208.0 L459.5,207.0 L458.9,205.4 L459.0,204.6 L459.2,202.2 L459.9,201.2 L460.3,199.7 L460.9,199.1 L463.6,198.8 L466.1,199.8 L467.1,200.8 L468.3,200.8 L469.5,200.2 L472.5,201.5 L473.8,201.4 L475.3,200.3 L476.8,200.4 L477.5,200.0 L478.8,200.2 L480.8,201.0 L482.7,199.5 L483.3,199.6 L485.0,202.5 L485.5,202.4 L486.4,203.4 L486.2,203.9 L486.0,204.8 L483.9,206.8 L483.3,208.5 L482.9,209.8 L482.4,210.4 L481.9,212.2 L480.5,213.3 L480.2,214.6 L479.6,215.7 L479.4,216.8 L477.6,217.7 L476.2,216.6 L475.3,216.6 L473.8,218.1 L473.1,218.2 L471.9,220.7 L471.3,222.5 L468.7,223.5 L467.7,223.3 L466.7,223.9 L464.7,223.9 L463.4,222.2 L462.6,220.3 L460.8,218.6 L458.9,218.7 L456.7,218.7 Z" fill="#e7ece6" stroke="#9ca89f" stroke-width="0.6" fill-rule="evenodd" vector-effect="non-scaling-stroke"/>
      <path d="M486.2,201.4 L487.2,203.1 L487.4,204.8 L487.3,206.6 L488.7,208.9 L487.3,208.9 L486.6,209.1 L485.4,208.8 L484.9,210.1 L486.4,211.6 L487.4,212.0 L487.8,213.1 L488.6,214.9 L488.2,215.6 L486.9,218.3 L486.3,218.7 L486.1,220.8 L486.4,221.9 L486.2,222.6 L487.4,224.0 L487.6,224.9 L488.5,226.3 L489.7,227.1 L489.8,228.3 L490.0,229.1 L489.9,230.5 L487.9,229.9 L485.8,229.2 L482.7,229.1 L482.4,228.9 L480.9,229.3 L479.4,228.9 L478.2,229.1 L474.1,229.0 L474.5,227.0 L473.5,225.2 L472.4,224.8 L471.9,223.6 L471.2,223.3 L471.3,222.5 L471.9,220.7 L473.1,218.2 L473.8,218.1 L475.3,216.6 L476.2,216.6 L477.6,217.7 L479.4,216.8 L479.6,215.7 L480.2,214.6 L480.5,213.3 L481.9,212.2 L482.4,210.4 L482.9,209.8 L483.3,208.5 L483.9,206.8 L486.0,204.8 L486.2,203.9 L486.4,203.4 L485.5,202.4 L485.5,201.6 L486.2,201.4 Z" fill="#e7ece6" stroke="#9ca89f" stroke-width="0.6" fill-rule="evenodd" vector-effect="non-scaling-stroke"/>
      <path d="M518.4,221.3 L517.6,221.6 L516.0,221.6 L514.1,221.3 L513.2,221.5 L512.8,222.1 L512.0,222.2 L511.0,221.7 L508.2,223.0 L507.1,222.7 L506.8,222.9 L506.0,224.5 L504.1,224.0 L502.3,223.7 L500.7,222.7 L498.7,221.9 L497.3,222.7 L496.4,224.0 L496.1,225.8 L494.5,225.7 L492.8,225.3 L491.3,226.6 L490.0,229.1 L489.8,228.3 L489.7,227.1 L488.5,226.3 L487.6,224.9 L487.4,224.0 L486.2,222.6 L486.4,221.9 L486.1,220.8 L486.3,218.7 L486.9,218.3 L488.2,215.6 L490.3,215.4 L490.7,214.8 L491.1,214.8 L491.8,215.4 L494.9,214.4 L496.0,213.4 L497.3,212.5 L497.0,211.5 L497.7,211.3 L500.1,211.5 L502.5,210.3 L504.3,207.4 L505.6,206.4 L507.2,205.9 L507.4,207.0 L508.9,208.7 L508.9,209.7 L508.5,210.8 L508.6,211.6 L509.5,212.4 L511.4,213.5 L512.8,214.6 L512.8,215.4 L514.5,216.8 L515.5,217.9 L516.2,219.5 L518.0,220.5 L518.4,221.3 Z" fill="#e7ece6" stroke="#9ca89f" stroke-width="0.6" fill-rule="evenodd" vector-effect="non-scaling-stroke"/>
      <path d="M496.1,225.8 L496.0,227.4 L495.2,228.8 L494.7,230.5 L494.4,232.8 L494.6,234.2 L494.2,235.2 L494.1,236.1 L493.8,236.9 L492.2,238.2 L491.0,239.5 L489.9,242.1 L490.0,244.2 L489.4,245.1 L487.9,246.3 L486.5,248.0 L485.5,247.5 L485.4,246.8 L484.0,246.8 L483.1,247.7 L482.5,247.5 L481.6,246.6 L480.8,247.0 L479.8,248.2 L477.7,245.4 L479.6,243.9 L478.7,242.2 L479.6,241.6 L481.2,241.2 L481.4,240.1 L482.8,241.3 L485.0,241.5 L485.7,240.2 L486.1,238.5 L485.8,236.4 L484.6,234.9 L485.7,231.9 L485.1,231.4 L483.2,231.6 L482.5,230.2 L482.7,229.1 L485.8,229.2 L487.9,229.9 L489.9,230.5 L490.0,229.1 L491.3,226.6 L492.8,225.3 L494.5,225.7 L496.1,225.8 Z" fill="#e7ece6" stroke="#9ca89f" stroke-width="0.6" fill-rule="evenodd" vector-effect="non-scaling-stroke"/>
      <path d="M478.2,229.1 L479.4,228.9 L480.9,229.3 L482.4,228.9 L482.7,229.1 L482.5,230.2 L483.2,231.6 L485.1,231.4 L485.7,231.9 L484.6,234.9 L485.8,236.4 L486.1,238.5 L485.7,240.2 L485.0,241.5 L482.8,241.3 L481.4,240.1 L481.2,241.2 L479.6,241.6 L478.7,242.2 L479.6,243.9 L477.7,245.4 L475.2,242.8 L473.5,240.6 L472.0,237.9 L472.1,237.0 L472.6,236.2 L473.2,234.3 L473.7,232.4 L474.6,232.2 L478.2,232.2 L478.2,229.1 Z" fill="#e7ece6" stroke="#9ca89f" stroke-width="0.6" fill-rule="evenodd" vector-effect="non-scaling-stroke"/>
      <path d="M474.1,229.0 L478.2,229.1 L478.2,232.2 L474.6,232.2 L473.7,232.4 L473.3,232.0 L474.1,229.0 Z" fill="#e7ece6" stroke="#9ca89f" stroke-width="0.6" fill-rule="evenodd" vector-effect="non-scaling-stroke"/>
      <path d="M539.3,149.6 L538.9,150.4 L538.0,150.1 L537.4,151.8 L538.1,152.1 L537.4,152.4 L537.3,153.1 L538.5,152.8 L538.6,153.8 L537.3,158.0 L537.1,157.3 L535.7,153.5 L535.7,153.5 L535.7,153.5 L536.4,152.6 L536.2,152.5 L536.9,151.3 L537.4,149.3 L537.7,148.6 L537.8,148.6 L538.7,148.6 L538.9,148.1 L539.6,148.1 L539.6,149.2 L539.3,149.6 L539.3,149.6 Z" fill="#e7ece6" stroke="#9ca89f" stroke-width="0.6" fill-rule="evenodd" vector-effect="non-scaling-stroke"/>
      <path d="M473.7,155.9 L472.6,151.2 L471.1,150.1 L471.1,149.5 L469.0,147.9 L468.8,146.0 L470.4,144.5 L470.9,142.4 L470.5,139.9 L471.1,138.5 L473.8,137.5 L475.5,137.8 L475.5,139.1 L477.6,138.1 L477.8,138.7 L476.5,139.9 L476.5,141.1 L477.3,141.8 L477.0,144.0 L475.4,145.4 L475.8,146.8 L477.1,146.8 L477.8,148.1 L478.7,148.5 L478.6,150.5 L477.4,151.2 L476.6,152.1 L474.9,153.1 L475.1,154.2 L474.9,155.3 L473.7,155.9 Z" fill="#e7ece6" stroke="#9ca89f" stroke-width="0.6" fill-rule="evenodd" vector-effect="non-scaling-stroke"/>
      <path d="M428.3,163.5 L428.3,163.0 L428.3,162.8 L428.3,159.7 L432.4,157.8 L434.8,157.4 L436.9,156.7 L437.9,155.4 L440.8,154.3 L440.9,152.4 L442.3,152.2 L443.5,151.2 L446.7,150.8 L447.2,149.7 L446.5,149.2 L445.7,146.4 L445.5,144.8 L444.6,143.2 L447.0,141.7 L449.7,141.3 L451.3,140.2 L453.7,139.4 L457.9,139.0 L462.0,138.7 L463.3,139.1 L465.7,138.1 L468.3,138.1 L469.3,138.7 L471.1,138.5 L470.5,139.9 L470.9,142.4 L470.4,144.5 L468.8,146.0 L469.0,147.9 L471.1,149.5 L471.1,150.1 L472.6,151.2 L473.7,155.9 L474.5,158.2 L474.6,159.4 L474.2,161.5 L474.4,162.7 L474.1,164.1 L474.3,165.8 L473.3,166.9 L474.8,168.8 L474.9,169.9 L475.8,171.3 L476.9,170.9 L478.9,172.1 L480.0,173.7 L471.4,178.7 L464.2,183.8 L460.7,185.0 L457.9,185.2 L457.9,183.6 L456.7,183.2 L455.2,182.4 L454.6,181.2 L446.1,175.5 L437.7,169.8 L428.3,163.5 Z" fill="#e7ece6" stroke="#9ca89f" stroke-width="0.6" fill-rule="evenodd" vector-effect="non-scaling-stroke"/>
      <path d="M538.9,150.4 L539.3,149.6 L542.1,150.6 L547.0,147.8 L548.0,151.0 L547.5,151.4 L542.5,152.7 L545.0,155.3 L544.2,155.8 L543.8,156.7 L541.9,157.0 L541.3,158.0 L540.2,158.8 L537.4,158.3 L537.3,158.0 L538.6,153.8 L538.5,152.8 L538.9,152.0 L538.9,150.4 Z" fill="#e7ece6" stroke="#9ca89f" stroke-width="0.6" fill-rule="evenodd" vector-effect="non-scaling-stroke"/>
      <path d="M578.9,171.7 L579.4,171.6 L579.5,172.3 L581.4,171.9 L583.5,171.9 L585.0,172.0 L586.7,170.2 L588.6,168.6 L590.2,167.0 L590.7,167.9 L591.0,169.9 L589.7,169.9 L589.5,171.6 L590.0,172.0 L588.8,172.5 L588.8,173.6 L588.1,174.7 L588.0,175.7 L587.5,176.3 L580.0,174.9 L579.0,172.3 L578.9,171.7 Z" fill="#e7ece6" stroke="#9ca89f" stroke-width="0.6" fill-rule="evenodd" vector-effect="non-scaling-stroke"/>
      <path d="M577.0,170.4 L576.9,168.5 L577.5,167.1 L578.2,166.8 L579.0,167.6 L579.0,169.2 L578.5,170.7 L577.8,170.9 L577.0,170.4 Z" fill="#e7ece6" stroke="#9ca89f" stroke-width="0.6" fill-rule="evenodd" vector-effect="non-scaling-stroke"/>
      <path d="M569.9,156.7 L570.5,157.9 L570.2,158.5 L571.0,160.4 L569.3,160.5 L568.6,159.3 L566.4,159.0 L568.3,156.5 L569.9,156.7 Z" fill="#e7ece6" stroke="#9ca89f" stroke-width="0.6" fill-rule="evenodd" vector-effect="non-scaling-stroke"/>
      <path d="M548.0,151.0 L547.0,147.8 L552.5,145.1 L553.5,142.0 L553.2,140.1 L554.6,139.4 L555.9,137.8 L556.9,137.4 L559.9,137.7 L560.7,138.4 L561.9,137.9 L563.6,141.1 L565.2,141.8 L565.4,143.4 L564.1,144.3 L563.5,146.3 L565.3,148.8 L568.3,150.2 L569.6,152.2 L569.2,154.1 L570.0,154.1 L570.0,155.5 L571.4,156.9 L569.9,156.7 L568.3,156.5 L566.4,159.0 L561.8,158.8 L554.7,153.6 L551.0,151.7 L548.0,151.0 Z" fill="#e7ece6" stroke="#9ca89f" stroke-width="0.6" fill-rule="evenodd" vector-effect="non-scaling-stroke"/>
      <path d="M588.0,175.7 L588.1,174.7 L588.8,173.6 L588.8,172.5 L590.0,172.0 L589.5,171.6 L589.7,169.9 L591.0,169.9 L592.1,171.7 L593.5,172.7 L595.3,173.0 L596.8,173.5 L598.0,175.0 L598.6,175.8 L599.5,176.2 L599.5,176.7 L598.6,178.3 L598.2,179.0 L597.2,179.9 L596.2,181.7 L595.1,181.5 L594.6,182.1 L594.2,183.5 L594.5,185.2 L594.2,185.5 L593.1,185.5 L591.5,186.5 L591.3,187.8 L590.7,188.3 L589.2,188.3 L588.2,189.0 L588.2,190.0 L587.0,190.7 L585.6,190.5 L583.9,191.4 L582.8,191.5 L582.0,189.7 L580.0,185.4 L587.5,182.8 L589.2,177.6 L588.0,175.7 Z M590.7,167.9 L590.2,167.0 L590.9,166.1 L591.2,166.3 L591.0,167.4 L590.7,167.9 Z" fill="#e7ece6" stroke="#9ca89f" stroke-width="0.6" fill-rule="evenodd" vector-effect="non-scaling-stroke"/>
      <path d="M693.3,161.2 L693.5,162.2 L692.6,162.7 L692.8,164.3 L691.0,163.8 L687.8,165.6 L687.9,167.1 L686.5,169.3 L686.4,170.6 L685.3,172.7 L683.3,172.1 L683.2,174.8 L682.7,175.7 L682.9,176.8 L681.7,177.4 L680.4,173.3 L679.7,173.3 L679.3,175.0 L677.9,173.6 L678.7,172.1 L679.8,172.0 L680.9,169.8 L679.5,169.3 L677.2,169.4 L674.8,169.0 L674.6,167.2 L673.4,167.1 L671.4,165.9 L670.5,167.7 L672.3,169.1 L670.8,170.1 L670.2,171.0 L671.7,171.7 L671.3,173.3 L672.2,175.3 L672.6,177.4 L672.2,178.4 L670.5,178.3 L667.4,178.9 L667.6,180.8 L666.2,182.4 L662.7,184.1 L659.9,187.2 L658.0,188.9 L655.5,190.6 L655.5,191.8 L654.2,192.4 L652.0,193.3 L650.8,193.5 L650.1,195.5 L650.6,198.9 L650.7,201.0 L649.7,203.5 L649.6,208.0 L648.4,208.1 L647.2,210.1 L648.0,210.9 L645.7,211.7 L644.9,213.5 L643.8,214.2 L641.5,211.8 L640.3,208.1 L639.4,205.5 L638.5,204.2 L637.2,201.7 L636.5,198.5 L636.1,196.8 L633.8,193.2 L632.8,188.2 L632.1,184.8 L632.1,181.7 L631.6,179.2 L627.9,180.8 L626.2,180.5 L622.9,177.3 L624.1,176.4 L623.4,175.4 L620.4,173.1 L622.1,171.4 L627.6,171.4 L627.1,169.2 L625.7,167.8 L625.4,165.8 L623.8,164.7 L626.5,161.9 L629.4,162.1 L632.1,159.4 L633.6,156.7 L636.1,154.1 L636.0,152.2 L638.1,150.7 L636.1,149.4 L635.3,147.7 L634.4,145.4 L635.6,144.3 L639.4,144.9 L642.2,144.5 L644.6,142.3 L647.3,145.4 L647.0,147.5 L648.0,148.8 L647.9,150.2 L646.1,149.8 L646.8,152.7 L649.3,154.4 L652.8,156.2 L651.2,157.4 L650.2,159.8 L652.6,160.8 L655.0,162.1 L658.3,163.5 L661.7,163.9 L663.1,165.2 L665.1,165.5 L668.1,166.1 L670.2,166.0 L670.4,165.0 L670.1,163.3 L670.3,162.2 L671.8,161.7 L672.0,163.7 L672.1,164.2 L674.4,165.2 L675.9,164.8 L678.0,165.0 L680.1,164.9 L680.3,163.3 L679.2,162.5 L681.3,162.2 L683.5,160.2 L686.4,158.6 L688.5,159.2 L690.3,158.1 L691.5,159.7 L690.6,160.8 L693.3,161.2 Z" fill="#e7ece6" stroke="#9ca89f" stroke-width="0.6" fill-rule="evenodd" vector-effect="non-scaling-stroke"/>
      <path d="M644.6,142.3 L642.2,144.5 L639.4,144.9 L635.6,144.3 L634.4,145.4 L635.3,147.7 L636.1,149.4 L638.1,150.7 L636.0,152.2 L636.1,154.1 L633.6,156.7 L632.1,159.4 L629.4,162.1 L626.5,161.9 L623.8,164.7 L625.4,165.8 L625.7,167.8 L627.1,169.2 L627.6,171.4 L622.1,171.4 L620.4,173.1 L618.6,172.5 L617.9,170.6 L615.9,168.6 L611.3,169.1 L607.3,169.2 L603.7,169.5 L604.7,166.5 L608.3,165.1 L608.1,163.9 L606.9,163.5 L606.8,161.2 L604.4,160.1 L603.4,158.5 L602.2,157.1 L606.4,158.4 L608.9,158.1 L610.4,158.4 L610.9,157.8 L612.6,158.0 L615.9,157.0 L616.0,154.7 L617.3,153.3 L619.2,153.3 L619.5,152.5 L621.4,152.2 L622.3,152.4 L623.3,151.7 L623.2,150.1 L624.2,148.6 L625.8,147.9 L624.8,146.2 L627.2,146.3 L627.9,145.3 L627.8,144.3 L629.0,143.2 L628.7,141.9 L628.2,140.8 L629.6,139.7 L632.3,139.1 L635.2,138.8 L636.4,138.3 L637.9,138.0 L639.7,139.3 L640.5,141.3 L644.6,142.3 Z" fill="#e7ece6" stroke="#9ca89f" stroke-width="0.6" fill-rule="evenodd" vector-effect="non-scaling-stroke"/>
      <path d="M616.3,137.4 L617.7,137.5 L619.6,138.0 L620.3,138.3 L622.1,137.5 L623.0,138.0 L623.8,136.8 L625.3,136.9 L625.7,136.5 L625.9,135.4 L627.0,134.5 L628.4,135.1 L628.1,135.9 L628.9,136.0 L628.6,138.2 L629.6,139.1 L630.5,138.5 L631.6,138.3 L633.2,137.1 L634.9,137.3 L637.5,137.3 L637.9,138.0 L636.4,138.3 L635.2,138.8 L632.3,139.1 L629.6,139.7 L628.2,140.8 L628.7,141.9 L629.0,143.2 L627.8,144.3 L627.9,145.3 L627.2,146.3 L624.8,146.2 L625.8,147.9 L624.2,148.6 L623.2,150.1 L623.3,151.7 L622.3,152.4 L621.4,152.2 L619.5,152.5 L619.2,153.3 L617.3,153.3 L616.0,154.7 L615.9,157.0 L612.6,158.0 L610.9,157.8 L610.4,158.4 L608.9,158.1 L606.4,158.4 L602.2,157.1 L604.5,154.7 L604.2,153.1 L602.4,152.6 L602.2,151.0 L601.3,148.9 L602.4,147.5 L601.3,147.1 L602.0,145.2 L603.0,141.9 L605.6,142.9 L607.5,142.6 L608.0,141.4 L610.0,141.0 L611.4,140.2 L611.9,138.1 L614.0,137.6 L614.4,136.7 L615.5,137.4 L616.3,137.4 Z" fill="#e7ece6" stroke="#9ca89f" stroke-width="0.6" fill-rule="evenodd" vector-effect="non-scaling-stroke"/>
      <path d="M571.4,156.9 L570.0,155.5 L570.0,154.1 L569.2,154.1 L569.6,152.2 L568.3,150.2 L565.3,148.8 L563.5,146.3 L564.1,144.3 L565.4,143.4 L565.2,141.8 L563.6,141.1 L561.9,137.9 L561.9,137.9 L560.6,135.9 L561.1,135.0 L560.3,132.0 L562.0,131.3 L562.4,132.3 L563.6,133.5 L565.4,133.8 L566.3,133.8 L569.2,131.8 L570.2,131.6 L570.9,132.4 L570.0,133.7 L571.6,135.1 L572.2,134.9 L573.0,136.9 L575.4,137.4 L577.1,138.7 L580.7,139.2 L584.6,138.5 L584.8,137.9 L587.0,137.4 L588.8,135.9 L590.5,135.9 L591.5,135.5 L593.3,135.7 L596.1,137.0 L598.1,137.3 L600.9,139.6 L602.8,139.7 L603.0,141.9 L602.0,145.2 L601.3,147.1 L602.4,147.5 L601.3,148.9 L602.2,151.0 L602.4,152.6 L604.2,153.1 L604.5,154.7 L602.2,157.1 L603.4,158.5 L604.4,160.1 L606.8,161.2 L606.9,163.5 L608.1,163.9 L608.3,165.1 L604.7,166.5 L603.7,169.5 L599.0,168.7 L596.3,168.1 L593.5,167.8 L592.4,164.6 L591.2,164.1 L589.3,164.6 L586.8,165.9 L583.7,165.0 L581.2,163.0 L578.8,162.2 L577.1,159.8 L575.3,156.3 L573.9,156.7 L572.4,155.8 L571.4,156.9 Z" fill="#e7ece6" stroke="#9ca89f" stroke-width="0.6" fill-rule="evenodd" vector-effect="non-scaling-stroke"/>
      <path d="M541.1,197.3 L540.8,196.3 L541.9,192.5 L542.1,190.7 L542.9,189.9 L544.8,189.5 L546.0,188.0 L547.5,191.0 L548.2,193.4 L549.5,194.7 L552.9,197.2 L554.3,198.7 L555.7,200.2 L556.5,201.1 L557.7,201.8 L556.9,202.5 L555.9,202.3 L555.0,201.4 L554.0,199.9 L552.9,199.0 L552.2,198.1 L550.1,197.1 L548.4,197.1 L547.7,196.5 L546.3,197.1 L544.8,195.9 L544.0,197.9 L541.1,197.3 Z" fill="#e7ece6" stroke="#9ca89f" stroke-width="0.6" fill-rule="evenodd" vector-effect="non-scaling-stroke"/>
      <path d="M580.0,185.4 L582.0,189.7 L582.8,191.5 L581.0,192.2 L580.5,193.4 L580.4,194.3 L577.9,195.4 L573.9,196.6 L571.7,198.4 L570.6,198.6 L569.8,198.4 L568.4,199.5 L566.8,200.0 L564.7,200.1 L564.1,200.3 L563.5,201.0 L562.9,201.2 L562.5,201.8 L561.2,201.8 L560.4,202.1 L558.7,202.0 L558.1,200.5 L558.1,199.1 L557.7,198.3 L557.2,196.3 L556.5,195.3 L557.0,195.1 L556.8,194.0 L557.1,193.5 L556.9,192.3 L558.0,191.5 L557.8,190.4 L558.5,189.1 L559.5,189.8 L560.2,189.5 L563.0,189.5 L563.5,189.7 L565.9,190.0 L566.9,189.9 L567.5,190.7 L568.7,190.3 L570.5,187.6 L572.8,186.4 L580.0,185.4 Z" fill="#e7ece6" stroke="#9ca89f" stroke-width="0.6" fill-rule="evenodd" vector-effect="non-scaling-stroke"/>
      <path d="M537.4,158.3 L540.2,158.8 L541.3,158.0 L541.9,157.0 L543.8,156.7 L544.2,155.8 L545.0,155.3 L542.5,152.7 L547.5,151.4 L548.0,151.0 L551.0,151.7 L554.7,153.6 L561.8,158.8 L566.4,159.0 L568.6,159.3 L569.3,160.5 L571.0,160.4 L572.0,162.7 L573.2,163.3 L573.7,164.2 L575.4,165.3 L575.5,166.4 L575.3,167.3 L575.6,168.1 L576.3,168.9 L576.7,169.7 L577.0,170.4 L577.8,170.9 L578.5,170.7 L578.9,171.7 L579.0,172.3 L580.0,174.9 L587.5,176.3 L588.0,175.7 L589.2,177.6 L587.5,182.8 L580.0,185.4 L572.8,186.4 L570.5,187.6 L568.7,190.3 L567.5,190.7 L566.9,189.9 L565.9,190.0 L563.5,189.7 L563.0,189.5 L560.2,189.5 L559.5,189.8 L558.5,189.1 L557.8,190.4 L558.0,191.5 L556.9,192.3 L556.6,191.2 L555.9,190.4 L555.7,189.4 L554.4,188.4 L553.1,186.2 L552.3,184.1 L550.6,182.3 L549.5,181.9 L547.8,179.4 L547.6,177.6 L547.7,176.0 L546.2,173.1 L545.1,172.1 L543.7,171.6 L542.9,170.1 L543.0,169.5 L542.3,168.1 L541.6,167.6 L540.6,165.6 L539.1,163.5 L537.8,161.7 L536.6,161.7 L537.0,160.3 L537.1,159.4 L537.4,158.3 Z" fill="#e7ece6" stroke="#9ca89f" stroke-width="0.6" fill-rule="evenodd" vector-effect="non-scaling-stroke"/>
      <path d="M542.2,177.6 L532.2,177.6 L522.6,177.6 L512.5,177.6 L512.5,167.9 L512.5,158.7 L511.8,156.6 L512.4,154.9 L512.0,153.8 L512.9,152.6 L516.2,152.5 L518.6,153.2 L521.1,154.0 L522.3,154.4 L524.2,153.6 L525.2,152.8 L527.4,152.6 L529.2,152.9 L529.9,154.2 L530.5,153.4 L532.5,154.0 L534.4,154.1 L535.7,153.5 L535.7,153.5 L537.1,157.3 L537.3,158.0 L536.6,159.0 L536.1,161.0 L535.4,162.4 L534.8,162.8 L534.0,162.0 L532.8,160.8 L531.1,157.1 L530.8,157.3 L531.8,160.0 L533.4,162.7 L535.3,166.7 L536.2,168.2 L537.0,169.6 L539.2,172.5 L538.7,173.0 L538.8,174.7 L541.7,177.0 L542.2,177.6 Z" fill="#e7ece6" stroke="#9ca89f" stroke-width="0.6" fill-rule="evenodd" vector-effect="non-scaling-stroke"/>
      <path d="M512.5,177.6 L512.5,182.8 L509.6,182.8 L509.6,183.9 L499.6,178.9 L489.7,173.9 L487.1,175.3 L485.4,176.3 L484.0,174.8 L480.0,173.7 L478.9,172.1 L476.9,170.9 L475.8,171.3 L474.9,169.9 L474.8,168.8 L473.3,166.9 L474.3,165.8 L474.1,164.1 L474.4,162.7 L474.2,161.5 L474.6,159.4 L474.5,158.2 L473.7,155.9 L474.9,155.3 L475.1,154.2 L474.9,153.1 L476.6,152.1 L477.4,151.2 L478.6,150.5 L478.7,148.5 L481.7,149.4 L482.7,149.1 L484.8,149.6 L488.1,150.8 L489.3,153.1 L491.5,153.6 L495.1,154.7 L497.7,156.0 L498.9,155.3 L500.1,154.1 L499.6,152.1 L500.3,150.8 L502.1,149.6 L503.9,149.2 L507.2,149.8 L508.1,150.9 L509.0,151.0 L509.8,151.4 L512.3,151.7 L512.9,152.6 L512.0,153.8 L512.4,154.9 L511.8,156.6 L512.5,158.7 L512.5,167.9 L512.5,177.6 Z" fill="#e7ece6" stroke="#9ca89f" stroke-width="0.6" fill-rule="evenodd" vector-effect="non-scaling-stroke"/>
      <path d="M569.5,214.1 L562.4,221.9 L559.2,222.1 L556.9,223.9 L555.3,223.9 L554.6,224.8 L552.9,224.8 L551.9,223.9 L549.6,225.0 L548.9,226.1 L547.2,225.9 L546.7,225.6 L546.1,225.6 L545.3,225.6 L542.1,223.4 L540.4,223.4 L539.5,222.5 L539.5,221.1 L538.2,220.6 L536.8,217.8 L535.6,217.2 L535.2,216.1 L533.9,214.9 L532.4,214.7 L533.2,213.2 L534.6,213.1 L534.9,212.3 L534.9,210.0 L535.6,207.2 L536.8,206.5 L537.1,205.4 L538.2,203.5 L539.7,202.2 L540.7,199.6 L541.1,197.3 L544.0,197.9 L544.8,195.9 L546.3,197.1 L547.7,196.5 L548.4,197.1 L550.1,197.1 L552.2,198.1 L552.9,199.0 L554.0,199.9 L555.0,201.4 L555.9,202.3 L555.0,203.4 L554.2,204.6 L554.3,205.4 L554.4,206.1 L555.8,206.2 L556.4,206.0 L556.9,206.5 L556.4,207.4 L557.3,208.8 L558.2,210.1 L559.2,211.0 L567.4,214.1 L569.5,214.1 Z" fill="#e7ece6" stroke="#9ca89f" stroke-width="0.6" fill-rule="evenodd" vector-effect="non-scaling-stroke"/>
      <path d="M555.9,202.3 L556.9,202.5 L557.7,201.8 L558.3,202.6 L558.2,203.7 L556.8,204.4 L557.9,205.1 L556.9,206.5 L556.4,206.0 L555.8,206.2 L554.4,206.1 L554.3,205.4 L554.2,204.6 L555.0,203.4 L555.9,202.3 Z" fill="#e7ece6" stroke="#9ca89f" stroke-width="0.6" fill-rule="evenodd" vector-effect="non-scaling-stroke"/>
      <path d="M572.4,205.2 L572.4,205.2 L572.4,205.2 L572.3,206.3 L572.3,209.0 L572.3,210.3 L571.2,211.9 L569.5,214.1 L567.4,214.1 L559.2,211.0 L558.2,210.1 L557.3,208.8 L556.4,207.4 L556.9,206.5 L557.9,205.1 L558.7,205.6 L559.2,206.6 L560.3,207.7 L561.5,207.7 L563.9,207.1 L566.6,206.8 L568.8,205.9 L570.1,205.8 L570.9,205.3 L572.4,205.2 L572.4,205.2 Z" fill="#e7ece6" stroke="#9ca89f" stroke-width="0.6" fill-rule="evenodd" vector-effect="non-scaling-stroke"/>
      <path d="M534.8,237.5 L529.7,237.7 L526.9,237.6 L526.0,238.0 L524.6,238.8 L523.9,238.5 L524.0,236.5 L524.5,235.5 L524.7,233.4 L525.2,232.2 L526.2,230.9 L527.1,230.2 L527.9,229.2 L526.9,228.9 L527.1,225.8 L527.1,225.8 L528.1,225.1 L529.7,225.7 L531.7,225.1 L533.5,225.1 L535.0,223.9 L536.2,225.7 L536.5,227.0 L537.6,230.0 L536.7,231.9 L535.5,233.7 L534.7,234.7 L534.8,237.5 Z" fill="#e7ece6" stroke="#9ca89f" stroke-width="0.6" fill-rule="evenodd" vector-effect="non-scaling-stroke"/>
      <path d="M527.1,225.8 L524.9,224.1 L524.3,223.0 L522.9,223.5 L521.7,223.4 L521.1,223.8 L519.9,223.5 L518.4,221.3 L518.0,220.5 L516.2,219.5 L515.5,217.9 L514.5,216.8 L512.8,215.4 L512.8,214.6 L511.4,213.5 L509.7,212.5 L510.5,212.2 L511.3,211.7 L512.0,209.4 L512.7,208.2 L514.5,207.8 L514.9,208.5 L516.2,210.1 L516.9,210.3 L517.8,209.8 L519.6,209.9 L519.9,210.5 L522.4,210.5 L522.5,209.9 L523.8,209.4 L524.0,208.7 L525.0,208.1 L527.1,209.7 L528.4,209.4 L529.6,207.5 L531.0,206.1 L530.8,204.5 L530.2,203.7 L531.7,203.6 L531.9,203.0 L533.0,203.2 L532.7,205.1 L533.0,207.0 L534.3,208.0 L534.6,208.9 L534.6,210.2 L534.9,210.3 L534.9,212.3 L534.6,213.1 L533.2,213.2 L532.4,214.7 L533.9,214.9 L535.2,216.1 L535.6,217.2 L536.8,217.8 L538.2,220.6 L536.6,222.3 L535.0,223.9 L533.5,225.1 L531.7,225.1 L529.7,225.7 L528.1,225.1 L527.1,225.8 Z" fill="#e7ece6" stroke="#9ca89f" stroke-width="0.6" fill-rule="evenodd" vector-effect="non-scaling-stroke"/>
  </g>
  <path d="M541.1,197.3 L540.8,196.3 L541.9,192.5 L542.1,190.7 L542.9,189.9 L544.8,189.5 L546.0,188.0 L547.5,191.0 L548.2,193.4 L549.5,194.7 L552.9,197.2 L554.3,198.7 L555.7,200.2 L556.5,201.1 L557.7,201.8 L556.9,202.5 L555.9,202.3 L555.0,201.4 L554.0,199.9 L552.9,199.0 L552.2,198.1 L550.1,197.1 L548.4,197.1 L547.7,196.5 L546.3,197.1 L544.8,195.9 L544.0,197.9 L541.1,197.3 Z" fill="#146c65" stroke="#ffffff" stroke-width="5.2" stroke-linejoin="round" fill-rule="evenodd" vector-effect="non-scaling-stroke"/>
  <path d="M541.1,197.3 L540.8,196.3 L541.9,192.5 L542.1,190.7 L542.9,189.9 L544.8,189.5 L546.0,188.0 L547.5,191.0 L548.2,193.4 L549.5,194.7 L552.9,197.2 L554.3,198.7 L555.7,200.2 L556.5,201.1 L557.7,201.8 L556.9,202.5 L555.9,202.3 L555.0,201.4 L554.0,199.9 L552.9,199.0 L552.2,198.1 L550.1,197.1 L548.4,197.1 L547.7,196.5 L546.3,197.1 L544.8,195.9 L544.0,197.9 L541.1,197.3 Z" fill="#146c65" stroke="#062f2b" stroke-width="2.4" stroke-linejoin="round" fill-rule="evenodd" vector-effect="non-scaling-stroke"/>
</svg>
