<svg xmlns="http://www.w3.org/2000/svg" viewBox="437.7 42.1 153.2 80" role="img" aria-label="Wereldkaart met een land ingekleurd">
  <rect width="900" height="470" fill="#ffffff"/>
  <g>
      <path d="M668.4,106.5 L666.5,108.2 L664.4,108.5 L664.3,111.1 L662.9,112.3 L658.0,111.4 L656.1,116.1 L654.9,116.7 L649.9,117.7 L652.2,122.3 L650.5,122.9 L650.6,124.4 L649.1,124.0 L647.9,123.1 L644.1,122.8 L640.0,122.8 L639.1,123.0 L635.5,121.9 L634.1,122.5 L633.7,124.0 L629.6,123.1 L628.0,123.5 L627.4,124.6 L626.0,125.1 L622.7,126.9 L621.6,128.8 L620.6,128.8 L620.0,127.6 L616.8,127.5 L616.3,125.4 L615.1,125.3 L615.2,122.7 L612.3,120.8 L608.0,121.0 L605.0,121.4 L602.6,119.1 L600.6,118.1 L596.7,116.2 L596.3,116.0 L589.8,117.5 L589.9,127.1 L588.6,127.3 L586.9,125.2 L585.2,124.5 L582.4,125.0 L581.3,125.9 L581.1,125.3 L581.7,124.2 L581.3,123.3 L578.4,122.4 L577.2,120.0 L575.8,119.4 L575.8,118.5 L578.2,118.8 L578.3,116.9 L580.4,116.4 L582.6,116.8 L583.1,114.3 L582.6,112.7 L580.1,112.8 L578.0,112.2 L575.1,113.3 L572.8,113.8 L571.5,113.4 L571.7,112.1 L570.1,110.3 L568.3,110.4 L566.2,108.6 L567.6,106.7 L566.9,106.1 L568.9,103.3 L571.4,104.8 L571.8,102.9 L576.9,100.0 L580.8,100.0 L586.3,101.8 L589.3,102.8 L591.9,101.7 L595.9,101.7 L599.1,103.0 L599.8,102.2 L603.3,102.4 L604.0,101.1 L599.9,99.3 L602.3,98.1 L601.8,97.3 L604.2,96.7 L602.4,94.9 L603.6,94.0 L612.9,93.1 L614.2,92.4 L620.4,91.5 L622.7,90.4 L627.2,90.9 L628.0,93.7 L630.6,93.0 L633.8,93.9 L633.6,95.3 L636.0,95.2 L642.2,92.7 L641.3,93.5 L644.5,95.6 L650.1,102.2 L651.4,100.8 L654.9,102.3 L658.5,101.7 L659.8,102.1 L661.0,103.6 L662.8,104.1 L663.9,105.2 L667.1,104.9 L668.4,106.5 Z" fill="#e7ece6" stroke="#9ca89f" stroke-width="0.6" fill-rule="evenodd" vector-effect="non-scaling-stroke"/>
      <path d="M589.9,127.1 L589.8,117.5 L596.3,116.0 L596.7,116.2 L600.6,118.1 L602.6,119.1 L605.0,121.4 L608.0,121.0 L612.3,120.8 L615.2,122.7 L615.1,125.3 L616.3,125.4 L616.8,127.5 L620.0,127.6 L620.6,128.8 L621.6,128.8 L622.7,126.9 L626.0,125.1 L627.4,124.6 L628.1,124.9 L626.1,126.6 L627.9,127.6 L629.7,126.9 L632.6,128.3 L629.4,130.2 L627.5,129.9 L626.5,130.0 L626.1,129.3 L626.7,128.0 L623.3,128.7 L622.5,130.3 L621.3,131.8 L619.3,131.7 L618.6,132.8 L620.4,133.4 L621.0,135.4 L619.6,138.0 L617.7,137.5 L616.3,137.4 L616.4,135.8 L613.0,134.7 L610.4,133.4 L608.8,132.2 L605.9,130.4 L604.7,127.7 L603.9,127.2 L601.2,127.4 L600.2,126.8 L599.9,124.8 L596.6,123.4 L594.5,124.9 L592.3,125.8 L592.7,127.1 L589.9,127.1 Z" fill="#e7ece6" stroke="#9ca89f" stroke-width="0.6" fill-rule="evenodd" vector-effect="non-scaling-stroke"/>
      <path d="M896.8,49.4 L900.0,48.3 L900.0,50.0 L897.3,50.2 L896.8,49.4 Z M572.8,113.8 L571.6,115.4 L569.2,115.8 L566.7,118.5 L569.0,121.0 L568.7,122.8 L571.5,125.8 L571.5,125.8 L570.0,126.9 L569.5,127.5 L568.4,127.4 L566.7,125.8 L566.0,125.7 L564.4,125.1 L563.7,124.0 L561.3,123.5 L559.8,123.9 L559.4,123.4 L556.0,122.1 L552.3,121.7 L550.2,121.3 L549.9,121.6 L546.7,119.4 L543.8,118.4 L541.7,116.9 L543.5,116.4 L545.6,114.3 L544.2,113.2 L547.9,112.2 L547.8,111.6 L545.6,112.0 L545.6,110.9 L546.9,110.1 L549.3,109.9 L549.7,109.1 L549.2,107.6 L550.2,106.3 L550.2,105.5 L546.5,104.6 L545.0,104.7 L543.5,103.4 L541.6,103.9 L538.4,102.9 L538.4,102.4 L537.6,101.3 L535.6,101.2 L535.4,100.4 L536.0,99.8 L534.4,98.3 L531.8,98.6 L531.0,98.5 L530.4,99.1 L529.5,99.0 L529.5,99.0 L528.9,97.3 L528.3,96.4 L528.7,96.2 L530.8,96.3 L531.7,95.7 L531.0,95.0 L529.3,94.5 L529.5,94.1 L528.5,93.6 L526.9,91.9 L527.4,91.2 L527.2,90.0 L524.7,89.3 L523.4,89.6 L523.1,89.0 L520.4,88.3 L519.6,86.8 L519.4,85.5 L518.2,84.9 L519.3,84.1 L518.6,81.7 L520.3,80.2 L520.0,79.7 L520.0,79.7 L522.8,78.3 L520.2,77.0 L520.2,77.0 L525.5,73.7 L527.8,72.2 L528.8,70.8 L525.1,69.1 L526.1,67.4 L523.9,65.4 L525.5,63.2 L522.6,60.2 L524.9,58.2 L521.1,56.5 L521.5,54.7 L523.5,54.4 L527.8,53.4 L527.8,53.4 L530.3,52.5 L534.4,54.0 L541.3,54.7 L550.7,57.6 L552.6,58.9 L552.8,60.6 L550.0,62.0 L546.0,62.7 L534.8,60.7 L533.0,61.0 L537.0,62.9 L537.2,64.1 L537.4,66.8 L540.6,67.6 L542.5,68.3 L542.9,67.0 L541.3,65.9 L542.9,64.9 L549.0,66.5 L551.1,65.9 L549.4,64.0 L555.2,61.4 L557.5,61.6 L559.9,62.5 L561.3,60.7 L559.2,59.1 L560.5,57.6 L558.6,56.0 L565.6,56.8 L567.1,58.3 L563.9,58.6 L563.9,60.0 L565.9,60.9 L569.7,60.4 L570.3,58.7 L575.6,57.4 L584.3,55.2 L586.2,55.3 L583.7,56.9 L586.8,57.2 L588.6,56.3 L593.3,56.2 L597.0,55.1 L599.9,56.7 L602.7,55.0 L600.1,53.5 L601.4,52.6 L608.8,53.4 L612.2,54.2 L621.3,57.2 L623.0,55.8 L620.4,54.5 L620.3,53.9 L617.3,53.6 L618.1,52.4 L616.8,50.4 L616.7,49.5 L621.4,47.2 L623.0,44.8 L624.9,44.3 L631.5,45.0 L632.0,46.4 L629.6,48.5 L631.2,49.4 L632.0,51.2 L631.4,54.8 L634.2,56.4 L633.1,58.1 L628.2,61.8 L631.1,62.2 L632.1,61.3 L634.8,60.6 L635.5,59.3 L637.6,58.1 L636.2,56.6 L637.3,54.9 L634.6,54.6 L634.0,53.2 L636.0,50.6 L632.8,48.4 L637.2,46.7 L636.6,44.8 L637.9,44.8 L639.2,46.2 L638.2,48.7 L640.9,49.2 L639.8,47.3 L643.9,46.3 L649.1,46.2 L653.8,47.7 L651.5,45.5 L651.3,42.7 L655.6,42.2 L661.6,42.3 L667.1,41.9 L665.0,40.6 L667.9,38.9 L670.8,38.8 L675.6,37.5 L682.3,37.1 L683.1,36.4 L689.7,36.2 L691.7,36.8 L697.3,35.4 L701.9,35.4 L702.6,34.3 L705.0,33.2 L710.9,32.1 L715.2,33.0 L711.8,33.6 L717.4,34.0 L718.1,35.3 L720.4,34.7 L727.7,34.7 L733.3,36.0 L735.3,37.0 L734.7,38.3 L731.9,39.1 L725.4,40.5 L723.5,41.3 L726.6,41.7 L730.3,42.3 L732.5,41.8 L733.8,43.5 L734.9,42.8 L738.9,42.4 L746.9,42.9 L747.5,44.1 L758.0,44.5 L758.1,42.5 L763.5,42.9 L767.4,42.9 L771.5,44.3 L772.6,46.0 L771.2,47.1 L774.3,49.1 L778.2,50.2 L780.6,47.4 L784.6,48.6 L788.9,47.9 L793.7,48.7 L795.6,48.0 L799.7,48.3 L797.9,45.9 L801.2,44.8 L823.8,46.5 L825.9,48.0 L832.4,50.0 L842.5,49.5 L847.5,50.0 L849.6,51.0 L849.3,52.9 L852.4,53.7 L855.7,53.2 L860.1,53.1 L864.9,53.6 L869.6,53.3 L873.9,55.6 L877.0,54.8 L875.0,53.1 L876.1,52.0 L884.1,52.7 L889.3,52.5 L896.5,53.8 L900.0,54.9 L900.0,65.3 L900.0,65.3 L896.8,66.5 L893.5,66.3 L895.8,67.7 L897.3,69.8 L898.4,70.5 L898.7,71.6 L898.1,72.3 L893.4,71.7 L886.4,73.7 L884.2,74.0 L880.4,75.9 L876.7,77.5 L875.8,78.6 L872.3,76.8 L865.7,78.9 L864.6,77.9 L862.2,79.0 L858.8,78.7 L858.0,80.4 L855.0,82.9 L855.1,84.0 L858.0,84.6 L857.6,88.4 L855.3,88.5 L854.3,90.6 L855.3,91.8 L850.9,93.1 L850.1,96.1 L846.3,96.7 L845.6,99.4 L842.0,101.8 L841.0,100.0 L840.0,96.2 L838.6,90.4 L839.8,86.8 L841.9,85.2 L842.0,84.0 L845.9,83.4 L850.4,80.1 L854.7,77.4 L859.2,75.4 L861.2,71.7 L858.1,71.9 L856.6,74.0 L850.3,76.9 L848.3,73.7 L841.8,74.6 L835.5,79.0 L837.6,80.6 L832.0,81.2 L828.2,81.5 L828.3,79.6 L824.5,79.2 L821.4,80.5 L813.7,80.1 L805.5,80.8 L797.4,85.9 L787.8,92.1 L791.8,92.4 L793.0,94.1 L795.4,94.6 L797.0,93.3 L799.8,93.5 L803.4,96.4 L803.4,98.6 L801.5,101.2 L801.3,104.3 L800.2,108.5 L796.4,112.3 L795.5,114.1 L792.2,117.1 L788.8,120.1 L787.2,121.7 L783.8,123.2 L782.3,123.2 L780.7,122.0 L777.3,123.9 L777.0,124.8 L777.0,124.8 L776.9,124.8 L776.9,124.8 L776.6,124.3 L776.6,124.3 L776.6,123.0 L777.9,122.9 L778.2,119.8 L777.6,117.6 L779.7,116.7 L782.7,117.1 L784.4,114.6 L785.3,111.7 L786.3,110.8 L787.6,108.4 L783.4,109.2 L781.3,110.2 L777.5,110.2 L776.5,107.8 L773.5,105.9 L769.1,105.1 L768.2,102.5 L767.3,100.9 L766.4,99.8 L764.9,97.2 L762.7,96.2 L758.9,95.4 L755.6,95.5 L752.5,96.0 L750.4,97.3 L751.8,97.9 L751.8,99.3 L750.5,100.2 L748.2,102.9 L748.2,104.1 L744.7,105.7 L741.7,104.7 L738.7,105.0 L737.4,104.1 L735.9,103.8 L732.2,105.6 L729.0,106.1 L726.7,106.7 L723.5,106.3 L721.2,106.3 L719.7,105.0 L717.2,103.7 L714.7,103.4 L711.6,103.7 L709.2,104.2 L705.6,103.1 L705.2,101.2 L702.2,100.5 L700.0,100.2 L697.2,99.1 L694.6,101.8 L695.6,103.3 L693.1,105.2 L689.5,104.5 L687.0,104.4 L685.4,103.2 L682.8,103.2 L680.6,102.3 L676.8,103.6 L672.0,105.8 L669.4,106.3 L668.4,106.5 L667.1,104.9 L663.9,105.2 L662.8,104.1 L661.0,103.6 L659.8,102.1 L658.5,101.7 L654.9,102.3 L651.4,100.8 L650.1,102.2 L644.5,95.6 L641.3,93.5 L642.2,92.7 L636.0,95.2 L633.6,95.3 L633.8,93.9 L630.6,93.0 L628.0,93.7 L627.2,90.9 L622.7,90.4 L620.4,91.5 L614.2,92.4 L612.9,93.1 L603.6,94.0 L602.4,94.9 L604.2,96.7 L601.8,97.3 L602.3,98.1 L599.9,99.3 L604.0,101.1 L603.3,102.4 L599.8,102.2 L599.1,103.0 L595.9,101.7 L591.9,101.7 L589.3,102.8 L586.3,101.8 L580.8,100.0 L576.9,100.0 L571.8,102.9 L571.4,104.8 L568.9,103.3 L566.9,106.1 L567.6,106.7 L566.2,108.6 L568.3,110.4 L570.1,110.3 L571.7,112.1 L571.5,113.4 L572.8,113.8 Z M684.4,23.4 L689.9,22.8 L694.7,24.2 L700.5,26.7 L699.8,29.0 L694.4,29.4 L687.4,28.6 L683.3,27.6 L681.4,25.7 L678.0,25.2 L684.4,23.4 Z M707.1,28.0 L713.4,29.5 L712.7,30.5 L698.6,31.5 L703.2,28.1 L705.2,27.8 L707.1,28.0 Z M797.1,36.2 L803.7,36.3 L812.7,37.7 L810.8,39.6 L801.5,39.6 L797.4,40.2 L792.4,38.5 L793.8,36.7 L797.1,36.2 Z M820.6,38.3 L826.8,38.9 L823.9,40.0 L819.9,39.7 L815.3,38.7 L815.9,37.9 L820.6,38.3 Z M799.7,43.4 L802.0,42.4 L805.2,42.1 L808.7,43.1 L809.0,43.8 L805.2,43.9 L800.1,43.6 L799.7,43.4 Z M562.1,24.6 L567.0,24.1 L570.8,24.1 L571.3,24.8 L572.7,24.1 L575.1,23.7 L578.8,24.3 L577.8,24.7 L574.5,25.0 L572.2,25.2 L571.9,25.7 L569.0,26.1 L566.3,25.5 L567.7,24.7 L562.1,24.6 Z M506.8,93.1 L502.2,93.2 L499.2,92.9 L499.7,91.7 L503.2,90.9 L505.8,91.3 L506.9,91.8 L506.6,92.5 L506.8,93.1 Z M583.8,42.4 L589.8,40.1 L589.1,39.0 L594.7,37.6 L602.9,35.9 L611.2,35.4 L615.5,34.4 L620.4,34.1 L622.1,35.1 L620.5,35.9 L611.6,37.2 L604.0,38.5 L596.2,41.0 L592.5,43.5 L588.5,46.0 L589.1,48.2 L593.8,50.3 L592.4,50.6 L584.2,50.2 L583.5,49.1 L579.0,48.4 L578.6,47.0 L581.2,46.4 L581.1,45.0 L586.1,42.8 L583.8,42.4 Z M807.3,94.8 L808.2,97.3 L808.1,99.9 L809.1,102.5 L811.6,107.1 L807.9,106.3 L806.4,110.0 L808.8,112.7 L808.8,114.5 L806.9,113.0 L805.2,115.0 L804.8,112.8 L805.0,110.2 L804.8,107.4 L805.3,105.4 L805.4,102.0 L804.0,99.4 L804.2,95.8 L806.5,94.6 L805.5,93.4 L806.6,93.0 L807.3,94.8 Z M12.7,59.5 L12.5,61.1 L14.2,61.8 L13.6,59.9 L20.4,60.3 L25.3,62.7 L22.8,63.9 L18.7,64.1 L18.6,66.7 L17.6,67.2 L15.3,67.2 L13.4,66.2 L10.0,65.5 L9.5,64.3 L6.9,63.9 L4.1,64.3 L2.7,63.3 L3.3,62.4 L0.3,63.0 L1.4,64.2 L0.0,65.3 L0.0,54.9 L6.1,56.9 L12.7,59.5 Z M3.3,49.9 L0.0,50.0 L0.0,48.3 L0.3,48.2 L2.4,48.2 L6.1,48.9 L5.8,49.3 L3.3,49.9 Z M533.6,115.0 L534.2,114.3 L536.0,114.9 L536.8,115.0 L537.2,115.5 L537.5,115.6 L537.6,115.8 L538.8,116.4 L541.3,116.3 L540.8,117.2 L538.1,117.7 L534.7,119.2 L533.3,118.6 L533.9,117.4 L531.1,116.6 L531.6,116.1 L534.0,115.3 L533.6,115.0 Z" fill="#e7ece6" stroke="#9ca89f" stroke-width="0.6" fill-rule="evenodd" vector-effect="non-scaling-stroke"/>
      <path d="M487.9,27.0 L488.8,26.1 L492.5,26.0 L495.6,26.9 L503.9,28.8 L497.6,29.9 L496.2,31.8 L494.0,32.3 L492.8,34.4 L489.8,34.5 L484.4,33.0 L486.7,32.0 L482.9,31.3 L478.1,29.1 L476.1,27.0 L482.9,26.1 L484.3,27.0 L487.9,27.0 Z M527.8,53.4 L523.5,54.4 L521.5,54.7 L522.5,52.8 L519.3,51.8 L515.4,52.7 L514.2,54.6 L511.8,55.7 L509.2,55.1 L505.9,55.2 L503.1,53.9 L501.6,54.6 L500.1,54.7 L499.7,56.4 L495.0,56.0 L494.3,57.4 L491.9,57.4 L490.3,59.3 L487.8,62.2 L483.9,65.8 L484.8,66.7 L483.9,67.8 L481.4,67.7 L479.8,70.2 L480.0,73.6 L481.6,75.0 L480.8,78.0 L478.7,79.8 L477.6,81.3 L475.9,79.7 L471.0,82.7 L467.6,83.3 L464.2,82.0 L463.3,79.2 L462.5,73.2 L464.8,71.5 L471.4,69.3 L476.3,66.6 L480.9,63.0 L486.9,57.9 L491.1,56.0 L498.0,52.7 L503.4,51.6 L507.6,51.7 L511.4,49.5 L515.9,49.6 L520.4,49.1 L528.2,51.0 L525.0,51.7 L527.8,53.4 Z M518.5,26.0 L514.8,27.4 L507.6,27.7 L500.2,27.2 L499.7,26.5 L496.2,26.5 L493.4,25.3 L501.1,24.5 L504.8,25.2 L507.3,24.4 L513.6,25.0 L518.5,26.0 Z M511.8,31.7 L506.2,32.8 L501.8,32.2 L503.5,31.5 L502.0,30.7 L507.2,30.1 L508.2,31.1 L511.8,31.7 Z" fill="#e7ece6" stroke="#9ca89f" stroke-width="0.6" fill-rule="evenodd" vector-effect="non-scaling-stroke"/>
      <path d="M320.9,224.1 L319.4,226.5 L318.6,228.5 L317.7,229.5 L316.5,229.6 L316.1,228.9 L315.6,228.8 L314.8,229.5 L313.7,229.0 L314.3,227.9 L314.5,226.7 L315.0,225.5 L314.0,224.0 L313.8,222.2 L315.1,220.0 L316.0,220.3 L317.8,220.9 L320.4,223.1 L320.9,224.1 Z M465.5,105.8 L466.6,106.5 L470.2,107.0 L469.0,108.8 L468.7,110.7 L468.0,111.1 L466.8,110.9 L466.9,111.5 L465.1,113.0 L465.1,114.2 L466.3,113.8 L467.1,114.9 L467.0,115.6 L467.7,116.6 L466.9,117.4 L467.5,119.4 L468.9,119.8 L468.6,120.9 L466.3,122.4 L461.4,121.7 L457.8,122.5 L457.5,124.1 L454.6,124.4 L451.8,123.3 L450.8,123.8 L446.2,122.6 L445.2,121.6 L446.5,120.1 L447.0,114.8 L444.4,112.1 L442.6,110.8 L438.8,109.8 L438.5,107.9 L441.8,107.3 L446.0,108.0 L445.2,105.0 L447.5,106.1 L453.3,104.1 L454.1,102.0 L456.3,101.4 L456.6,102.4 L457.8,102.4 L459.0,103.5 L460.7,104.7 L462.0,104.5 L464.2,105.7 L464.7,105.9 L465.5,105.8 Z M471.9,123.7 L473.5,122.7 L473.9,124.9 L473.1,127.0 L471.9,126.4 L471.4,124.7 L471.9,123.7 Z" fill="#e7ece6" stroke="#9ca89f" stroke-width="0.6" fill-rule="evenodd" vector-effect="non-scaling-stroke"/>
      <path d="M477.6,81.3 L478.7,79.8 L480.8,78.0 L481.6,75.0 L480.0,73.6 L479.8,70.2 L481.4,67.7 L483.9,67.8 L484.8,66.7 L483.9,65.8 L487.8,62.2 L490.3,59.3 L491.9,57.4 L494.3,57.4 L495.0,56.0 L499.7,56.4 L500.1,54.7 L501.6,54.6 L504.9,55.8 L508.8,57.6 L508.9,61.6 L509.8,62.6 L505.5,63.4 L503.0,65.2 L503.4,66.8 L499.4,68.9 L494.6,71.2 L492.8,74.8 L494.6,76.7 L497.0,78.1 L494.7,81.1 L492.1,81.7 L491.1,86.1 L489.7,88.5 L486.7,88.3 L485.3,90.3 L482.4,90.4 L481.6,88.0 L479.5,85.0 L477.6,81.3 Z" fill="#e7ece6" stroke="#9ca89f" stroke-width="0.6" fill-rule="evenodd" vector-effect="non-scaling-stroke"/>
      <path d="M520.4,88.3 L523.1,89.0 L523.4,89.6 L524.7,89.3 L527.2,90.0 L527.4,91.2 L526.9,91.9 L528.5,93.6 L529.5,94.1 L529.3,94.5 L531.0,95.0 L531.7,95.7 L530.8,96.3 L528.7,96.2 L528.3,96.4 L528.9,97.3 L529.5,99.0 L529.5,99.0 L527.3,99.1 L526.5,99.7 L526.4,101.0 L525.4,100.7 L523.1,100.9 L522.5,100.3 L521.5,100.7 L520.6,100.3 L518.6,100.3 L515.8,99.7 L513.3,99.5 L511.4,99.5 L510.0,100.2 L508.8,100.3 L508.8,99.2 L508.0,98.0 L509.5,97.4 L509.5,96.4 L508.8,95.4 L508.7,94.2 L511.1,94.2 L513.8,93.3 L514.4,91.8 L516.5,91.0 L516.2,89.8 L517.8,89.3 L520.4,88.3 Z" fill="#e7ece6" stroke="#9ca89f" stroke-width="0.6" fill-rule="evenodd" vector-effect="non-scaling-stroke"/>
      <path d="M529.5,99.0 L530.4,99.1 L531.0,98.5 L531.8,98.6 L534.4,98.3 L536.0,99.8 L535.4,100.4 L535.6,101.2 L537.6,101.3 L538.4,102.4 L538.4,102.9 L541.6,103.9 L543.5,103.4 L545.0,104.7 L546.5,104.6 L550.2,105.5 L550.2,106.3 L549.2,107.6 L549.7,109.1 L549.3,109.9 L546.9,110.1 L545.6,110.9 L545.6,112.0 L543.6,112.2 L541.9,113.1 L539.6,113.2 L537.4,114.2 L537.5,115.6 L537.2,115.5 L536.8,115.0 L536.0,114.9 L534.2,114.3 L533.6,115.0 L533.2,114.7 L529.4,114.0 L529.2,113.0 L526.9,113.4 L525.9,114.8 L524.0,116.7 L522.9,116.3 L521.7,116.7 L520.6,116.2 L521.2,115.9 L521.6,115.0 L522.3,114.2 L522.2,113.7 L522.7,113.5 L522.9,113.9 L524.4,114.0 L525.1,113.8 L524.6,113.5 L524.8,113.1 L523.9,112.5 L523.5,111.4 L522.6,110.9 L522.8,110.1 L521.7,109.4 L520.6,109.3 L518.8,108.4 L517.1,108.7 L516.5,109.1 L515.5,109.1 L514.9,109.7 L513.0,110.0 L512.2,110.4 L511.0,109.7 L509.4,109.7 L507.9,109.4 L506.8,110.0 L506.6,109.3 L505.2,108.6 L505.7,107.5 L506.4,106.8 L506.9,107.0 L506.3,105.8 L508.6,103.6 L509.8,103.3 L510.1,102.6 L508.8,100.3 L510.0,100.2 L511.4,99.5 L513.3,99.5 L515.8,99.7 L518.6,100.3 L520.6,100.3 L521.5,100.7 L522.5,100.3 L523.1,100.9 L525.4,100.7 L526.4,101.0 L526.5,99.7 L527.3,99.1 L529.5,99.0 Z" fill="#e7ece6" stroke="#9ca89f" stroke-width="0.6" fill-rule="evenodd" vector-effect="non-scaling-stroke"/>
      <path d="M508.7,94.2 L508.8,95.4 L509.5,96.4 L509.5,97.4 L508.0,98.0 L508.8,99.2 L508.8,100.3 L510.1,102.6 L509.8,103.3 L508.6,103.6 L506.3,105.8 L506.9,107.0 L506.4,106.8 L504.0,105.8 L502.2,106.2 L501.0,105.9 L499.6,106.5 L498.3,105.6 L497.3,105.9 L497.1,105.8 L496.0,104.5 L494.1,104.3 L493.9,103.5 L492.2,103.2 L491.8,103.9 L490.4,103.3 L490.6,102.6 L488.7,102.4 L487.5,101.6 L486.5,99.9 L486.7,99.0 L486.1,97.6 L485.2,96.7 L485.9,96.0 L485.3,94.6 L487.0,93.9 L490.9,92.7 L494.1,91.8 L496.6,92.2 L496.7,92.9 L499.2,92.9 L502.2,93.2 L506.8,93.1 L508.1,93.4 L508.7,94.2 Z" fill="#e7ece6" stroke="#9ca89f" stroke-width="0.6" fill-rule="evenodd" vector-effect="non-scaling-stroke"/>
      <path d="M492.4,109.3 L492.3,110.4 L490.9,110.4 L491.3,111.0 L490.5,112.7 L490.0,113.1 L487.8,113.2 L486.6,113.8 L484.5,113.6 L480.9,112.9 L480.4,112.0 L477.9,112.4 L477.6,112.9 L476.1,112.6 L474.8,112.5 L473.7,112.0 L474.1,111.4 L474.0,110.9 L474.7,110.8 L476.0,111.5 L476.4,110.8 L478.6,110.9 L480.4,110.4 L481.6,110.5 L482.3,111.1 L482.6,110.6 L482.2,108.9 L483.1,108.6 L484.0,107.4 L485.8,108.2 L487.3,107.1 L488.1,107.0 L490.1,107.8 L491.2,107.6 L492.4,108.1 L492.2,108.4 L492.4,109.3 Z" fill="#e7ece6" stroke="#9ca89f" stroke-width="0.6" fill-rule="evenodd" vector-effect="non-scaling-stroke"/>
      <path d="M505.2,108.6 L506.6,109.3 L506.8,110.0 L505.2,110.5 L504.1,112.3 L502.6,114.1 L500.6,114.6 L499.0,114.4 L497.1,115.1 L497.1,115.1 L496.1,115.5 L494.1,115.0 L492.2,113.9 L491.4,113.6 L490.9,112.7 L490.5,112.7 L491.3,111.0 L490.9,110.4 L492.3,110.4 L492.4,109.3 L493.7,110.0 L494.6,110.3 L496.7,110.0 L496.9,109.5 L497.9,109.4 L499.2,109.0 L499.4,109.1 L500.6,108.8 L501.2,108.2 L502.0,108.0 L504.7,108.8 L505.2,108.6 Z" fill="#e7ece6" stroke="#9ca89f" stroke-width="0.6" fill-rule="evenodd" vector-effect="non-scaling-stroke"/>
      <path d="M516.5,109.1 L517.1,108.7 L518.8,108.4 L520.6,109.3 L521.7,109.4 L522.8,110.1 L522.6,110.9 L523.5,111.4 L523.9,112.5 L524.8,113.1 L524.6,113.5 L525.1,113.8 L524.4,114.0 L522.9,113.9 L522.7,113.5 L522.2,113.7 L522.3,114.2 L521.6,115.0 L521.2,115.9 L520.6,116.2 L520.1,115.0 L520.4,113.9 L520.3,112.8 L518.9,111.2 L518.1,110.1 L517.3,109.3 L516.5,109.1 Z" fill="#e7ece6" stroke="#9ca89f" stroke-width="0.6" fill-rule="evenodd" vector-effect="non-scaling-stroke"/>
      <path d="M520.6,116.2 L521.7,116.7 L522.9,116.3 L524.0,116.7 L524.1,117.4 L522.9,118.0 L522.1,117.7 L521.4,120.9 L519.9,120.6 L518.1,119.7 L515.2,120.3 L513.9,120.9 L510.3,120.8 L508.3,120.4 L507.4,120.6 L506.6,119.5 L506.2,119.0 L506.8,118.6 L506.1,118.3 L505.4,118.9 L503.9,118.1 L503.7,117.0 L502.2,116.4 L501.9,115.6 L500.6,114.6 L502.6,114.1 L504.1,112.3 L505.2,110.5 L506.8,110.0 L507.9,109.4 L509.4,109.7 L511.0,109.7 L512.2,110.4 L513.0,110.0 L514.9,109.7 L515.5,109.1 L516.5,109.1 L517.3,109.3 L518.1,110.1 L518.9,111.2 L520.3,112.8 L520.4,113.9 L520.1,115.0 L520.6,116.2 Z" fill="#e7ece6" stroke="#9ca89f" stroke-width="0.6" fill-rule="evenodd" vector-effect="non-scaling-stroke"/>
      <path d="M516.2,89.8 L516.5,91.0 L514.4,91.8 L513.8,93.3 L511.1,94.2 L508.7,94.2 L508.1,93.4 L506.8,93.1 L506.6,92.5 L506.9,91.8 L505.8,91.3 L503.2,90.9 L502.6,88.7 L505.5,87.9 L509.7,88.1 L512.2,87.8 L512.5,88.3 L513.8,88.5 L516.2,89.8 Z" fill="#e7ece6" stroke="#9ca89f" stroke-width="0.6" fill-rule="evenodd" vector-effect="non-scaling-stroke"/>
      <path d="M518.2,84.9 L519.4,85.5 L519.6,86.8 L520.4,88.3 L517.8,89.3 L516.2,89.8 L513.8,88.5 L512.5,88.3 L512.2,87.8 L509.7,88.1 L505.5,87.9 L502.6,88.7 L502.7,86.7 L504.0,85.1 L506.3,84.2 L508.3,86.2 L510.3,86.1 L510.8,84.1 L512.9,83.6 L514.0,84.0 L516.2,84.9 L518.2,84.9 Z" fill="#e7ece6" stroke="#9ca89f" stroke-width="0.6" fill-rule="evenodd" vector-effect="non-scaling-stroke"/>
      <path d="M520.0,79.7 L520.0,79.7 L520.3,80.2 L518.6,81.7 L519.3,84.1 L518.2,84.9 L516.2,84.9 L514.0,84.0 L512.9,83.6 L510.8,84.1 L511.1,82.6 L510.2,82.9 L508.6,82.0 L508.3,80.5 L511.5,79.7 L514.7,79.3 L517.4,79.8 L520.0,79.7 L520.0,79.7 Z" fill="#e7ece6" stroke="#9ca89f" stroke-width="0.6" fill-rule="evenodd" vector-effect="non-scaling-stroke"/>
      <path d="M485.3,94.6 L485.9,96.0 L485.2,96.7 L486.1,97.6 L486.7,99.0 L486.5,99.9 L487.5,101.6 L486.4,101.8 L485.8,101.5 L485.1,102.0 L483.3,102.5 L482.4,103.2 L480.6,103.7 L481.0,104.5 L481.3,105.6 L482.6,106.3 L484.0,107.4 L483.1,108.6 L482.2,108.9 L482.6,110.6 L482.3,111.1 L481.6,110.5 L480.4,110.4 L478.6,110.9 L476.4,110.8 L476.0,111.5 L474.7,110.8 L474.0,110.9 L471.3,110.1 L470.8,110.7 L468.7,110.7 L469.0,108.8 L470.2,107.0 L466.6,106.5 L465.5,105.8 L465.6,104.7 L465.1,104.1 L465.4,102.3 L465.0,99.6 L466.5,99.6 L467.1,98.6 L467.7,96.2 L467.3,95.4 L467.8,94.8 L469.8,94.7 L470.3,95.2 L472.0,93.9 L471.4,93.0 L471.3,91.5 L473.2,91.8 L474.8,91.4 L474.8,92.4 L477.4,93.1 L477.3,94.0 L479.9,93.5 L481.3,92.8 L484.1,93.8 L485.3,94.6 Z" fill="#e7ece6" stroke="#9ca89f" stroke-width="0.6" fill-rule="evenodd" vector-effect="non-scaling-stroke"/>
      <path d="M506.6,119.5 L507.4,120.6 L508.3,120.4 L510.3,120.8 L513.9,120.9 L515.2,120.3 L518.1,119.7 L519.9,120.6 L521.4,120.9 L520.1,122.0 L519.2,123.8 L520.0,125.3 L517.8,125.0 L515.3,125.8 L515.3,127.1 L513.0,127.3 L511.2,126.4 L509.2,127.1 L507.4,127.1 L507.2,125.3 L506.0,124.5 L506.4,124.1 L506.1,123.8 L506.5,123.0 L507.5,122.2 L506.3,121.0 L506.0,120.1 L506.6,119.5 Z" fill="#e7ece6" stroke="#9ca89f" stroke-width="0.6" fill-rule="evenodd" vector-effect="non-scaling-stroke"/>
      <path d="M491.4,113.6 L492.2,113.9 L494.1,115.0 L496.1,115.5 L497.1,115.1 L497.7,116.1 L498.5,116.9 L497.5,117.9 L496.4,117.3 L494.7,117.3 L492.5,116.9 L491.3,116.9 L490.8,117.5 L489.9,116.9 L489.4,118.0 L490.6,119.2 L491.1,120.0 L492.3,121.0 L493.2,121.6 L494.2,122.6 L496.4,123.6 L496.1,124.1 L496.1,124.1 L493.8,123.1 L492.3,122.2 L490.0,121.4 L487.9,119.5 L488.4,119.3 L487.3,118.2 L487.3,117.3 L485.6,116.9 L484.9,118.0 L484.1,117.1 L484.2,116.2 L484.3,116.2 L486.0,116.3 L486.5,115.8 L487.3,116.3 L488.3,116.3 L488.3,115.6 L489.2,115.3 L489.4,114.3 L491.4,113.6 Z" fill="#e7ece6" stroke="#9ca89f" stroke-width="0.6" fill-rule="evenodd" vector-effect="non-scaling-stroke"/>
      <path d="M474.0,110.9 L474.1,111.4 L473.7,112.0 L474.8,112.5 L476.1,112.6 L475.9,113.6 L474.8,114.1 L473.0,113.7 L472.4,114.8 L471.2,114.9 L470.8,114.5 L469.4,115.3 L468.2,115.5 L467.1,114.9 L466.3,113.8 L465.1,114.2 L465.1,113.0 L466.9,111.5 L466.8,110.9 L468.0,111.1 L468.7,110.7 L470.8,110.7 L471.3,110.1 L474.0,110.9 Z" fill="#e7ece6" stroke="#9ca89f" stroke-width="0.6" fill-rule="evenodd" vector-effect="non-scaling-stroke"/>
      <path d="M465.1,104.1 L465.6,104.7 L465.5,105.8 L464.7,105.9 L464.2,105.7 L464.5,104.2 L465.1,104.1 Z" fill="#e7ece6" stroke="#9ca89f" stroke-width="0.6" fill-rule="evenodd" vector-effect="non-scaling-stroke"/>
      <path d="M465.4,102.3 L465.1,104.1 L464.5,104.2 L464.2,105.7 L462.0,104.5 L460.7,104.7 L459.0,103.5 L457.8,102.4 L456.6,102.4 L456.3,101.4 L458.3,100.9 L458.3,100.9 L458.3,100.9 L460.1,101.1 L462.4,100.6 L464.0,101.7 L465.4,102.3 Z" fill="#e7ece6" stroke="#9ca89f" stroke-width="0.6" fill-rule="evenodd" vector-effect="non-scaling-stroke"/>
      <path d="M467.3,95.4 L467.7,96.2 L467.1,98.6 L466.5,99.6 L465.0,99.6 L465.4,102.3 L464.0,101.7 L462.4,100.6 L460.1,101.1 L458.3,100.9 L458.3,100.9 L459.6,100.2 L461.8,96.4 L465.2,95.3 L467.3,95.4 Z" fill="#e7ece6" stroke="#9ca89f" stroke-width="0.6" fill-rule="evenodd" vector-effect="non-scaling-stroke"/>
      <path d="M431.4,138.1 L431.2,137.3 L432.1,136.3 L432.4,135.6 L431.6,134.8 L432.3,133.1 L431.3,131.5 L432.3,131.3 L432.4,130.1 L432.8,129.7 L432.9,127.7 L434.0,126.9 L433.3,125.6 L431.9,125.5 L431.4,125.9 L430.0,125.9 L429.3,124.6 L428.3,125.0 L427.4,125.6 L427.5,123.8 L426.5,122.7 L430.1,120.8 L433.1,121.2 L436.5,121.2 L439.1,121.7 L441.2,121.5 L445.2,121.6 L446.2,122.6 L450.8,123.8 L451.8,123.3 L454.6,124.4 L457.5,124.1 L457.6,125.6 L455.2,127.4 L452.0,127.9 L451.8,128.8 L450.3,130.2 L449.3,132.4 L450.3,133.8 L448.8,135.0 L448.3,136.7 L446.4,137.2 L444.6,139.2 L441.5,139.3 L439.1,139.2 L437.5,140.2 L436.6,141.1 L435.3,140.9 L434.4,140.0 L433.7,138.5 L431.4,138.1 Z" fill="#e7ece6" stroke="#9ca89f" stroke-width="0.6" fill-rule="evenodd" vector-effect="non-scaling-stroke"/>
      <path d="M476.1,112.6 L477.6,112.9 L477.9,112.4 L480.4,112.0 L480.9,112.9 L484.5,113.6 L484.2,114.8 L484.8,116.0 L482.9,115.6 L480.8,116.5 L481.0,117.8 L480.7,118.5 L481.5,119.9 L483.8,121.2 L485.1,123.3 L487.9,125.5 L489.8,125.4 L490.4,126.0 L489.7,126.5 L492.0,127.5 L493.8,128.3 L495.9,129.6 L496.2,130.1 L495.7,131.0 L494.3,129.8 L492.2,129.4 L491.1,131.1 L492.9,132.1 L492.6,133.4 L491.6,133.6 L490.3,135.8 L489.2,136.0 L489.2,135.2 L489.7,133.8 L490.3,133.3 L489.3,131.7 L488.5,130.4 L487.5,130.1 L486.8,129.0 L485.2,128.5 L484.1,127.5 L482.2,127.3 L480.3,126.1 L478.0,124.4 L476.3,122.9 L475.5,120.3 L474.3,120.0 L472.2,119.2 L471.1,119.5 L469.6,120.7 L468.6,120.9 L468.9,119.8 L467.5,119.4 L466.9,117.4 L467.7,116.6 L467.0,115.6 L467.1,114.9 L468.2,115.5 L469.4,115.3 L470.8,114.5 L471.2,114.9 L472.4,114.8 L473.0,113.7 L474.8,114.1 L475.9,113.6 L476.1,112.6 Z M486.9,135.4 L488.8,135.2 L487.9,137.2 L488.3,138.0 L487.7,139.4 L485.8,138.4 L484.6,138.1 L481.1,136.8 L481.4,135.4 L484.4,135.7 L486.9,135.4 Z M471.8,128.2 L473.0,127.4 L474.5,129.2 L474.2,132.7 L473.0,132.5 L472.0,133.4 L471.1,132.7 L471.0,129.6 L470.4,128.1 L471.8,128.2 Z" fill="#e7ece6" stroke="#9ca89f" stroke-width="0.6" fill-rule="evenodd" vector-effect="non-scaling-stroke"/>
      <path d="M474.8,91.4 L473.2,91.8 L471.3,91.5 L470.3,90.0 L470.2,87.4 L470.6,86.7 L471.4,85.9 L473.6,85.7 L474.4,85.0 L476.5,84.3 L476.4,85.6 L475.6,86.5 L475.9,87.2 L477.3,87.6 L476.7,88.6 L475.9,88.3 L474.1,90.2 L474.8,91.4 Z M480.9,88.5 L481.7,89.8 L480.2,91.9 L477.6,90.4 L477.3,89.4 L480.9,88.5 Z" fill="#e7ece6" stroke="#9ca89f" stroke-width="0.6" fill-rule="evenodd" vector-effect="non-scaling-stroke"/>
      <path d="M434.5,94.3 L432.6,93.8 L431.1,93.8 L431.6,92.4 L431.1,91.0 L433.2,90.9 L435.8,92.6 L434.5,94.3 Z M442.3,95.6 L442.3,95.6 L442.6,94.0 L441.0,92.4 L440.9,92.4 L437.9,91.9 L437.3,91.2 L438.2,90.1 L437.4,89.3 L436.0,90.6 L435.9,88.1 L434.6,86.7 L435.5,84.0 L437.5,81.9 L439.5,82.1 L442.5,81.9 L439.8,84.7 L442.4,84.4 L445.1,84.4 L444.5,86.5 L442.2,88.8 L444.8,89.0 L445.0,89.3 L447.2,92.4 L448.9,92.8 L450.5,95.8 L451.2,96.8 L454.2,97.3 L453.9,99.0 L452.6,99.7 L453.6,101.1 L451.4,102.4 L448.0,102.4 L443.8,103.1 L442.6,102.6 L441.0,103.8 L438.6,103.6 L436.9,104.5 L435.6,104.0 L439.2,101.3 L441.5,100.7 L441.4,100.7 L437.5,100.3 L436.8,99.2 L439.4,98.4 L438.1,97.0 L438.6,95.3 L442.3,95.6 Z" fill="#e7ece6" stroke="#9ca89f" stroke-width="0.6" fill-rule="evenodd" vector-effect="non-scaling-stroke"/>
      <path d="M549.9,121.6 L550.2,121.3 L552.3,121.7 L556.0,122.1 L559.4,123.4 L559.8,123.9 L561.3,123.5 L563.7,124.0 L564.4,125.1 L566.0,125.7 L565.4,126.1 L566.6,127.5 L566.3,127.8 L564.9,127.6 L563.0,126.9 L562.4,127.3 L559.0,127.7 L556.5,126.4 L553.9,126.5 L554.3,125.4 L553.6,123.6 L552.2,122.7 L550.8,122.4 L549.9,121.6 Z" fill="#e7ece6" stroke="#9ca89f" stroke-width="0.6" fill-rule="evenodd" vector-effect="non-scaling-stroke"/>
      <path d="M484.5,113.6 L486.6,113.8 L487.8,113.2 L490.0,113.1 L490.5,112.7 L490.9,112.7 L491.4,113.6 L489.4,114.3 L489.2,115.3 L488.3,115.6 L488.3,116.3 L487.3,116.3 L486.5,115.8 L486.0,116.3 L484.3,116.2 L484.8,116.0 L484.2,114.8 L484.5,113.6 Z" fill="#e7ece6" stroke="#9ca89f" stroke-width="0.6" fill-rule="evenodd" vector-effect="non-scaling-stroke"/>
      <path d="M521.5,54.7 L521.1,56.5 L524.9,58.2 L522.6,60.2 L525.5,63.2 L523.9,65.4 L526.1,67.4 L525.1,69.1 L528.8,70.8 L527.8,72.2 L525.5,73.7 L520.2,77.0 L520.2,77.0 L520.2,77.0 L515.6,77.2 L511.2,78.2 L507.2,78.7 L505.7,77.3 L503.3,76.5 L503.9,73.9 L502.6,71.5 L503.8,70.0 L506.1,68.4 L511.8,65.5 L513.5,65.0 L513.2,63.9 L509.8,62.6 L508.9,61.6 L508.8,57.6 L504.9,55.8 L501.6,54.6 L503.1,53.9 L505.9,55.2 L509.2,55.1 L511.8,55.7 L514.2,54.6 L515.4,52.7 L519.3,51.8 L522.5,52.8 L521.5,54.7 Z" fill="#e7ece6" stroke="#9ca89f" stroke-width="0.6" fill-rule="evenodd" vector-effect="non-scaling-stroke"/>
      <path d="M506.4,106.8 L505.7,107.5 L505.2,108.6 L504.7,108.8 L502.0,108.0 L501.2,108.2 L500.6,108.8 L499.4,109.1 L499.2,109.0 L497.9,109.4 L496.9,109.5 L496.7,110.0 L494.6,110.3 L493.7,110.0 L492.4,109.3 L492.2,108.4 L492.4,108.1 L492.8,107.5 L493.9,107.6 L494.7,107.3 L494.8,107.1 L495.3,106.9 L495.4,106.3 L496.0,106.2 L496.4,105.8 L497.1,105.8 L497.3,105.9 L498.3,105.6 L499.6,106.5 L501.0,105.9 L502.2,106.2 L504.0,105.8 L506.4,106.8 Z" fill="#e7ece6" stroke="#9ca89f" stroke-width="0.6" fill-rule="evenodd" vector-effect="non-scaling-stroke"/>
      <path d="M487.5,101.6 L488.7,102.4 L490.6,102.6 L490.4,103.3 L491.8,103.9 L492.2,103.2 L493.9,103.5 L494.1,104.3 L496.0,104.5 L497.1,105.8 L496.4,105.8 L496.0,106.2 L495.4,106.3 L495.3,106.9 L494.8,107.1 L494.7,107.3 L493.9,107.6 L492.8,107.5 L492.4,108.1 L491.2,107.6 L490.1,107.8 L488.1,107.0 L487.3,107.1 L485.8,108.2 L484.0,107.4 L482.6,106.3 L481.3,105.6 L481.0,104.5 L480.6,103.7 L482.4,103.2 L483.3,102.5 L485.1,102.0 L485.8,101.5 L486.4,101.8 L487.5,101.6 Z" fill="#e7ece6" stroke="#9ca89f" stroke-width="0.6" fill-rule="evenodd" vector-effect="non-scaling-stroke"/>
      <path d="M496.4,123.6 L494.2,122.6 L493.2,121.6 L492.3,121.0 L491.1,120.0 L490.6,119.2 L489.4,118.0 L489.9,116.9 L490.8,117.5 L491.3,116.9 L492.5,116.9 L494.7,117.3 L496.4,117.3 L497.5,117.9 L497.5,117.9 L498.4,117.9 L497.8,119.0 L499.0,120.0 L498.6,121.2 L498.0,121.4 L497.6,121.6 L496.8,122.2 L496.4,123.6 Z" fill="#e7ece6" stroke="#9ca89f" stroke-width="0.6" fill-rule="evenodd" vector-effect="non-scaling-stroke"/>
      <path d="M497.1,115.1 L497.1,115.1 L499.0,114.4 L500.6,114.6 L501.9,115.6 L502.2,116.4 L503.7,117.0 L503.9,118.1 L505.4,118.9 L506.1,118.3 L506.8,118.6 L506.2,119.0 L506.6,119.5 L506.0,120.1 L506.3,121.0 L507.5,122.2 L506.5,123.0 L506.1,123.8 L506.4,124.1 L506.0,124.5 L504.8,124.5 L503.9,124.7 L503.9,124.5 L504.2,124.2 L504.4,123.6 L504.1,123.6 L503.6,123.1 L503.2,123.0 L502.9,122.5 L502.4,122.4 L502.0,122.0 L501.6,122.2 L501.2,123.0 L500.6,123.2 L500.8,123.0 L499.9,122.4 L499.1,122.2 L498.7,121.8 L498.0,121.4 L498.6,121.2 L499.0,120.0 L497.8,119.0 L498.4,117.9 L497.5,117.9 L497.5,117.9 L498.5,116.9 L497.7,116.1 L497.1,115.1 Z" fill="#e7ece6" stroke="#9ca89f" stroke-width="0.6" fill-rule="evenodd" vector-effect="non-scaling-stroke"/>
      <path d="M500.2,123.8 L499.5,124.0 L499.3,123.5 L498.3,124.8 L498.4,125.7 L497.9,125.5 L497.2,124.6 L496.1,124.1 L496.4,123.6 L496.8,122.2 L497.6,121.6 L498.0,121.4 L498.7,121.8 L499.1,122.2 L499.9,122.4 L500.8,123.0 L500.6,123.2 L500.2,123.8 Z" fill="#e7ece6" stroke="#9ca89f" stroke-width="0.6" fill-rule="evenodd" vector-effect="non-scaling-stroke"/>
      <path d="M501.5,125.7 L501.3,124.8 L500.7,124.5 L500.2,123.8 L500.6,123.2 L501.2,123.0 L501.6,122.2 L502.0,122.0 L502.4,122.4 L502.9,122.5 L503.2,123.0 L503.6,123.1 L504.1,123.6 L504.4,123.6 L504.2,124.2 L503.9,124.5 L503.9,124.7 L503.4,124.8 L501.9,125.2 L501.8,125.7 L501.5,125.7 Z" fill="#e7ece6" stroke="#9ca89f" stroke-width="0.6" fill-rule="evenodd" vector-effect="non-scaling-stroke"/>
  </g>
  <path d="M520.0,79.7 L520.0,79.7 L520.3,80.2 L518.6,81.7 L519.3,84.1 L518.2,84.9 L516.2,84.9 L514.0,84.0 L512.9,83.6 L510.8,84.1 L511.1,82.6 L510.2,82.9 L508.6,82.0 L508.3,80.5 L511.5,79.7 L514.7,79.3 L517.4,79.8 L520.0,79.7 L520.0,79.7 Z" fill="#2f7d4f" stroke="#173f3a" stroke-width="1.8" fill-rule="evenodd" vector-effect="non-scaling-stroke"/>
  <circle cx="514.7" cy="81.7" r="4.8" fill="#c2563d" stroke="#ffffff" stroke-width="1.4"/>
</svg>
