<svg xmlns="http://www.w3.org/2000/svg" viewBox="113.2 112.7 287.2 150" role="img" aria-label="Wereldkaart met een land ingekleurd">
  <rect width="900" height="470" fill="#ffffff"/>
  <g>
      <path d="M142.9,107.1 L142.6,107.0 L137.7,104.5 L135.9,103.4 L131.4,102.3 L130.0,100.0 L130.4,98.4 L127.2,97.2 L126.7,95.1 L123.7,93.2 L123.7,91.9 L123.7,91.9 L125.1,90.6 L125.0,89.0 L120.7,87.3 L118.2,84.4 L116.6,82.5 L114.3,81.3 L112.6,80.2 L111.3,78.9 L108.8,79.7 L106.4,81.2 L104.1,79.5 L102.4,78.3 L100.0,77.6 L97.5,77.5 L97.5,62.7 L97.5,53.0 L97.5,53.0 L102.2,53.6 L106.1,54.9 L108.7,55.1 L110.9,54.0 L114.0,53.2 L117.7,53.5 L121.4,52.4 L125.5,51.7 L127.2,52.8 L129.1,52.2 L129.7,51.0 L131.4,51.2 L135.6,53.6 L138.9,51.8 L139.3,53.8 L142.3,53.4 L143.3,52.6 L146.3,52.8 L150.1,53.8 L156.0,54.8 L159.4,55.2 L161.9,55.1 L165.3,56.4 L161.7,57.7 L166.3,58.3 L173.0,58.0 L175.1,57.5 L177.8,59.1 L180.5,57.7 L178.0,56.6 L179.6,55.7 L182.6,55.6 L184.6,55.4 L186.6,56.0 L189.2,57.4 L191.9,57.2 L196.4,58.4 L200.2,58.0 L203.9,58.0 L203.6,56.4 L205.8,55.9 L209.7,56.8 L209.7,59.3 L211.3,57.2 L213.3,57.3 L214.4,54.7 L211.7,53.0 L208.8,52.0 L209.0,49.1 L212.0,47.2 L215.3,47.6 L217.8,48.8 L221.2,51.7 L219.0,53.0 L223.6,53.5 L223.6,56.2 L227.0,54.2 L230.0,55.8 L229.2,57.8 L231.6,59.5 L234.2,57.6 L236.1,55.4 L236.2,52.5 L239.7,52.7 L243.4,53.1 L246.8,54.4 L246.9,55.7 L245.1,57.1 L246.9,58.5 L246.5,59.8 L241.6,61.6 L238.2,62.0 L235.6,61.2 L234.8,62.5 L232.4,64.7 L231.7,65.9 L228.8,67.6 L225.2,67.8 L223.2,68.9 L223.1,70.6 L220.2,70.9 L217.1,73.0 L214.4,76.0 L213.4,78.0 L213.3,81.1 L217.0,81.5 L218.1,84.0 L219.3,85.9 L222.8,85.4 L227.4,86.6 L229.9,87.5 L231.7,88.8 L234.8,89.5 L237.5,90.6 L241.6,90.7 L244.3,91.0 L243.9,93.3 L244.7,95.9 L246.5,98.8 L250.2,101.3 L252.1,100.4 L253.5,97.8 L252.2,93.6 L250.4,92.3 L254.4,91.0 L257.3,89.2 L258.6,87.4 L258.4,85.6 L256.7,83.4 L253.7,81.5 L256.7,78.7 L255.6,76.4 L254.7,72.3 L256.5,71.7 L260.8,72.4 L263.3,72.6 L265.4,72.0 L267.7,72.8 L270.8,74.4 L271.6,75.4 L276.0,75.6 L275.9,77.8 L276.8,81.1 L279.1,81.5 L280.9,83.0 L284.5,81.6 L286.9,78.7 L288.5,77.5 L290.5,79.8 L293.7,83.1 L296.5,86.3 L295.5,87.9 L298.8,89.4 L301.1,90.9 L305.1,91.5 L306.7,92.4 L307.7,94.6 L309.6,94.9 L310.6,95.9 L310.8,98.8 L309.0,99.8 L307.2,100.7 L303.1,101.7 L299.9,103.8 L295.7,104.2 L290.3,103.7 L286.6,103.7 L284.0,103.8 L281.9,105.7 L278.7,106.9 L275.1,110.3 L272.2,112.7 L274.4,112.3 L278.4,108.9 L283.6,106.7 L287.4,106.4 L289.6,107.7 L287.2,109.5 L288.0,112.3 L288.8,114.3 L292.1,115.6 L296.2,115.2 L298.7,112.3 L298.9,114.2 L300.5,115.1 L297.4,116.8 L291.9,118.4 L289.4,119.4 L286.6,121.3 L284.7,121.1 L284.6,118.9 L288.9,116.7 L284.9,116.8 L282.2,117.1 L280.5,115.7 L280.5,112.1 L279.4,111.4 L277.7,111.8 L276.9,111.1 L275.0,113.1 L274.2,115.1 L273.4,116.3 L272.3,116.7 L271.5,116.8 L271.2,117.5 L266.6,117.5 L262.8,117.5 L261.7,118.0 L259.1,119.9 L258.8,120.1 L257.9,121.1 L255.7,121.1 L253.2,121.1 L252.1,121.5 L252.5,122.0 L252.7,122.8 L252.7,123.1 L249.4,124.4 L246.8,124.8 L243.9,126.2 L243.3,126.2 L242.4,125.8 L242.1,125.4 L242.2,125.1 L242.7,124.2 L243.9,122.8 L244.7,121.2 L244.2,119.0 L243.6,116.6 L241.0,115.4 L241.3,114.9 L241.0,114.6 L240.3,114.6 L239.8,114.2 L239.6,113.6 L239.2,113.8 L238.5,113.7 L238.6,113.5 L238.1,113.2 L237.8,112.5 L235.9,111.7 L233.8,110.8 L231.4,109.8 L229.1,108.9 L226.8,109.6 L226.0,109.6 L222.9,109.0 L220.9,109.3 L218.5,108.5 L215.9,108.1 L214.2,107.9 L213.4,107.5 L213.0,106.0 L212.1,106.1 L212.1,107.1 L206.9,107.1 L198.4,107.1 L189.9,107.1 L182.4,107.1 L174.9,107.1 L167.5,107.1 L159.9,107.1 L157.4,107.1 L150.0,107.1 L142.9,107.1 Z M240.0,71.9 L241.9,70.7 L245.3,70.7 L245.3,71.3 L242.3,72.7 L240.6,72.6 L240.0,71.9 Z M250.6,44.9 L247.8,43.5 L247.9,42.6 L249.1,42.4 L254.8,42.7 L259.1,44.1 L259.4,44.8 L256.7,44.8 L254.0,44.7 L251.3,45.1 L250.6,44.9 Z M249.2,72.9 L250.2,72.1 L251.2,72.2 L251.8,72.7 L250.9,74.1 L249.8,73.8 L249.1,73.1 L249.2,72.9 Z M216.0,39.2 L214.6,40.2 L211.0,40.0 L207.9,39.4 L209.3,38.2 L212.9,37.5 L215.1,38.4 L216.0,39.2 Z M215.4,32.6 L214.3,32.7 L209.6,32.5 L208.9,31.8 L213.9,31.8 L215.7,32.3 L215.4,32.6 Z M208.1,29.3 L211.1,30.2 L210.4,31.2 L206.7,31.7 L204.7,31.1 L203.6,30.1 L203.4,29.1 L206.7,29.2 L208.1,29.3 Z M229.6,40.8 L225.6,40.4 L218.9,39.6 L218.1,38.2 L217.8,36.9 L215.3,35.7 L210.1,35.4 L207.2,34.6 L208.1,33.5 L213.3,33.7 L216.1,34.5 L221.0,34.5 L223.1,35.4 L222.6,36.4 L225.4,37.0 L227.0,37.6 L230.4,37.7 L234.1,37.9 L238.0,37.3 L243.1,37.1 L247.2,37.3 L249.9,38.3 L250.4,39.4 L248.9,40.1 L245.1,40.6 L241.9,40.3 L234.8,40.7 L229.6,40.8 Z M171.8,30.9 L175.4,31.3 L174.5,32.1 L169.9,32.9 L166.2,32.0 L168.2,31.2 L171.8,30.9 Z M172.6,29.2 L175.8,29.8 L172.8,30.3 L168.6,30.3 L168.7,29.9 L171.2,29.1 L172.6,29.2 Z M311.0,101.0 L309.7,102.7 L308.0,104.9 L309.6,104.1 L311.3,104.6 L310.4,105.5 L312.7,106.2 L313.8,105.6 L316.3,106.4 L315.5,108.3 L317.3,107.9 L317.6,109.3 L318.4,110.9 L317.3,113.2 L316.2,113.3 L314.6,112.8 L315.1,110.6 L314.4,110.3 L311.5,112.6 L310.0,112.5 L311.8,111.3 L309.4,110.6 L306.7,110.8 L301.8,110.7 L301.5,109.9 L303.0,109.0 L301.9,108.3 L304.0,106.7 L306.6,102.6 L308.2,101.1 L310.3,100.2 L311.5,100.3 L311.0,101.0 Z M240.3,65.0 L243.0,65.9 L245.9,66.7 L246.1,67.9 L248.0,67.7 L249.7,68.6 L247.5,69.4 L243.6,68.8 L242.2,67.6 L239.7,69.0 L236.2,70.4 L235.3,68.8 L231.9,69.1 L234.1,67.8 L234.4,65.7 L235.3,63.3 L237.1,63.6 L237.6,64.7 L238.8,64.3 L240.3,65.0 Z M253.1,46.1 L255.4,45.0 L261.0,46.4 L264.4,47.6 L264.8,48.7 L269.4,48.2 L272.0,49.8 L278.0,50.9 L280.2,51.9 L282.6,54.3 L278.0,55.6 L283.9,57.3 L287.8,57.8 L291.4,60.2 L295.4,60.4 L294.6,62.2 L290.2,65.3 L287.1,64.2 L283.2,61.7 L280.0,62.0 L279.6,63.5 L282.3,65.0 L285.7,66.2 L286.7,66.9 L288.3,69.5 L287.5,71.4 L284.3,70.6 L278.0,68.6 L281.6,70.8 L284.2,72.4 L284.6,73.3 L277.8,72.2 L272.4,70.7 L269.4,69.5 L270.3,68.7 L266.6,67.4 L262.9,66.1 L263.0,66.9 L255.7,67.3 L253.6,66.4 L255.3,64.5 L260.0,64.4 L265.1,64.1 L264.3,63.2 L265.1,61.9 L268.4,59.3 L267.7,58.2 L266.7,57.3 L262.9,56.0 L257.8,55.1 L259.4,54.4 L256.8,52.8 L254.6,52.7 L252.6,51.8 L251.3,52.6 L246.7,52.9 L237.6,52.3 L232.3,51.5 L228.3,51.1 L226.2,50.2 L228.8,49.0 L225.3,49.0 L224.5,46.4 L226.4,44.1 L229.0,43.0 L235.4,42.3 L233.6,44.0 L235.6,45.6 L237.9,43.5 L244.2,42.4 L248.5,45.1 L248.1,46.8 L253.1,46.1 Z M213.7,41.4 L218.9,41.5 L223.7,42.2 L220.0,44.5 L217.0,45.0 L214.3,46.9 L211.5,46.8 L209.9,44.5 L210.0,43.2 L211.3,42.1 L213.7,41.4 Z M142.9,36.3 L142.9,36.3 L147.1,34.3 L152.2,32.6 L156.1,32.6 L159.5,32.3 L159.2,34.3 L157.2,35.2 L154.9,35.3 L150.3,36.4 L146.3,36.8 L142.9,36.3 Z M118.2,93.9 L120.6,93.7 L119.9,96.7 L122.1,98.8 L121.1,98.7 L119.5,97.6 L118.6,96.3 L117.4,95.5 L116.9,94.4 L117.0,93.6 L118.2,93.9 Z M186.3,27.9 L191.2,28.3 L197.9,29.2 L199.8,30.5 L200.8,31.6 L196.7,31.3 L192.6,30.4 L187.1,30.3 L189.5,29.6 L186.5,28.9 L186.3,27.9 Z M141.2,108.3 L140.0,108.7 L135.9,107.5 L135.1,106.6 L132.9,105.7 L132.4,104.9 L129.9,104.5 L128.9,103.0 L129.1,102.4 L131.7,103.0 L133.3,103.4 L135.6,103.7 L136.5,104.6 L137.7,105.8 L140.2,106.9 L141.2,108.3 Z M146.2,40.6 L149.7,41.1 L156.1,41.3 L158.5,42.0 L161.2,43.1 L158.1,43.8 L151.9,45.6 L148.9,47.5 L148.9,48.6 L142.3,49.9 L140.9,48.7 L135.2,47.3 L136.2,46.2 L138.0,44.3 L140.2,42.6 L137.7,41.0 L146.2,40.6 Z M180.5,37.0 L182.7,36.5 L185.3,36.6 L185.7,37.9 L184.2,39.2 L175.8,39.6 L169.4,40.7 L165.6,40.7 L165.3,39.9 L170.5,38.7 L159.2,39.1 L155.7,38.6 L159.1,36.0 L161.5,35.3 L168.5,36.2 L173.0,37.7 L177.3,37.9 L173.8,35.4 L176.0,34.5 L178.6,34.8 L179.5,36.0 L180.5,37.0 Z M183.7,44.2 L186.5,45.2 L188.1,47.8 L188.8,49.6 L193.0,50.9 L197.5,52.2 L197.3,53.3 L193.2,53.5 L194.8,54.5 L193.9,55.5 L189.4,55.1 L185.1,54.4 L182.2,54.5 L177.5,55.4 L171.2,55.8 L166.7,56.0 L165.4,54.8 L161.9,54.1 L159.7,54.4 L156.7,52.3 L158.3,52.0 L162.2,51.6 L165.7,51.7 L169.0,51.3 L164.1,50.7 L158.8,50.9 L155.2,50.8 L153.9,49.8 L159.7,48.8 L155.9,48.8 L151.5,48.2 L153.6,46.2 L155.3,45.2 L162.0,43.6 L164.6,44.1 L163.3,45.3 L168.9,44.5 L172.4,45.8 L175.2,44.5 L177.5,45.3 L179.5,47.9 L180.8,46.8 L179.0,44.2 L181.2,43.8 L183.7,44.2 Z M198.9,45.2 L196.2,43.4 L199.1,42.2 L202.1,42.7 L206.6,42.4 L207.2,43.2 L204.9,44.4 L208.6,45.5 L208.2,47.9 L204.1,48.9 L201.7,48.7 L200.0,47.7 L193.8,45.7 L193.8,44.8 L198.9,45.2 Z M183.5,42.8 L186.8,42.7 L188.8,43.3 L186.6,45.0 L182.7,43.2 L183.5,42.8 Z M203.8,34.7 L205.7,35.9 L205.7,37.2 L204.6,39.2 L200.5,39.4 L197.8,39.0 L197.8,37.5 L193.7,37.7 L193.6,35.7 L196.3,35.8 L200.0,34.9 L203.6,35.0 L203.8,34.7 Z M210.0,24.5 L211.7,23.7 L214.3,23.6 L213.2,23.0 L219.0,22.8 L222.2,24.2 L226.4,24.8 L230.5,25.3 L232.4,27.0 L235.5,27.8 L232.0,28.6 L227.4,30.6 L223.0,30.8 L217.8,30.4 L215.1,29.4 L215.2,28.4 L217.1,27.7 L212.6,27.7 L209.8,26.9 L208.2,25.7 L210.0,24.5 Z M221.0,21.2 L224.8,20.7 L227.7,20.6 L232.6,20.2 L236.2,19.2 L239.3,19.3 L242.0,20.1 L243.9,18.6 L247.3,18.2 L251.7,17.9 L259.4,17.8 L260.7,18.1 L267.9,17.7 L273.3,17.8 L278.8,18.0 L285.4,18.2 L290.8,18.5 L295.4,19.2 L295.3,19.9 L289.2,21.1 L283.1,21.6 L280.9,22.2 L286.3,22.2 L280.4,23.8 L276.3,24.5 L272.0,26.6 L266.9,27.1 L265.3,27.6 L257.7,27.9 L261.2,28.2 L259.4,28.7 L261.5,30.0 L259.1,30.9 L255.3,31.6 L254.1,32.6 L250.6,33.4 L251.0,34.0 L255.2,33.9 L255.3,34.5 L248.6,36.1 L242.1,35.4 L234.7,35.8 L231.0,35.5 L226.3,35.3 L226.0,34.1 L230.6,33.5 L229.3,31.6 L230.9,31.4 L237.6,32.5 L234.1,30.9 L230.1,30.4 L232.1,29.4 L236.6,28.7 L237.3,27.8 L233.7,26.8 L232.7,25.5 L239.5,25.6 L241.5,25.9 L245.4,24.9 L239.8,24.6 L231.0,24.8 L226.6,23.9 L224.5,22.8 L221.6,22.1 L221.0,21.2 Z M262.0,58.9 L260.3,59.7 L257.5,59.8 L256.9,58.5 L258.0,57.1 L260.3,56.7 L262.2,57.4 L262.2,58.5 L262.0,58.9 Z M209.4,53.6 L210.9,54.6 L209.3,55.5 L206.0,54.7 L203.9,55.0 L200.5,53.8 L202.7,53.0 L204.5,51.8 L207.1,52.6 L208.6,53.1 L209.4,53.6 Z M288.7,104.8 L289.6,104.6 L292.9,105.2 L295.4,106.3 L295.5,106.8 L294.3,106.8 L291.0,106.0 L288.7,104.8 Z M290.0,112.2 L290.8,113.5 L292.7,113.8 L295.0,113.7 L293.7,114.8 L292.8,115.0 L289.6,113.9 L289.0,113.0 L290.0,112.2 Z" fill="#e7ece6" stroke="#9ca89f" stroke-width="0.6" fill-rule="evenodd" vector-effect="non-scaling-stroke"/>
      <path d="M142.9,107.1 L150.0,107.1 L157.4,107.1 L159.9,107.1 L167.5,107.1 L174.9,107.1 L182.4,107.1 L189.9,107.1 L198.4,107.1 L206.9,107.1 L212.1,107.1 L212.1,106.1 L213.0,106.0 L213.4,107.5 L214.2,107.9 L215.9,108.1 L218.5,108.5 L220.9,109.3 L222.9,109.0 L226.0,109.6 L226.8,109.6 L229.1,108.9 L231.4,109.8 L233.8,110.8 L235.9,111.7 L237.8,112.5 L238.1,113.2 L238.6,113.5 L238.5,113.7 L239.2,113.8 L239.6,113.6 L239.8,114.2 L240.3,114.6 L241.0,114.6 L241.3,114.9 L241.0,115.4 L243.6,116.6 L244.2,119.0 L244.7,121.2 L243.9,122.8 L242.7,124.2 L242.2,125.1 L242.1,125.4 L242.4,125.8 L243.3,126.2 L243.9,126.2 L246.8,124.8 L249.4,124.4 L252.7,123.1 L252.7,122.8 L252.5,122.0 L252.1,121.5 L253.2,121.1 L255.7,121.1 L257.9,121.1 L258.8,120.1 L259.1,119.9 L261.7,118.0 L262.8,117.5 L266.6,117.5 L271.2,117.5 L271.5,116.8 L272.3,116.7 L273.4,116.3 L274.2,115.1 L275.0,113.1 L276.9,111.1 L277.7,111.8 L279.4,111.4 L280.5,112.1 L280.5,115.7 L282.2,117.1 L282.6,118.0 L279.9,119.3 L277.3,120.2 L274.7,120.9 L273.4,122.5 L273.0,123.1 L272.9,124.5 L273.8,125.8 L274.8,125.9 L274.5,125.0 L275.3,125.5 L275.1,126.3 L273.4,126.7 L272.2,126.7 L270.3,127.1 L269.3,127.2 L267.8,127.4 L265.7,128.1 L269.4,127.6 L270.1,128.1 L266.6,128.9 L265.0,128.9 L265.1,128.6 L264.4,129.3 L265.1,129.4 L264.6,131.3 L262.7,133.3 L262.5,132.7 L262.0,132.5 L261.2,131.9 L261.7,133.3 L262.3,133.7 L262.4,134.7 L261.6,135.7 L260.1,137.8 L259.9,137.7 L260.7,135.9 L259.4,134.9 L259.1,132.8 L258.6,133.9 L259.2,135.6 L257.5,135.2 L259.2,136.0 L259.4,138.5 L260.1,138.7 L260.3,139.6 L260.7,142.2 L259.1,144.1 L256.5,144.9 L254.9,146.4 L253.6,146.6 L252.3,147.5 L252.0,148.4 L249.2,150.1 L247.8,151.4 L246.7,152.9 L246.3,154.8 L246.7,156.6 L247.6,158.8 L248.7,160.7 L248.7,161.8 L249.9,164.8 L249.8,166.6 L249.7,167.6 L249.0,169.2 L248.3,169.5 L247.1,169.2 L246.7,168.1 L245.7,167.5 L244.4,165.2 L243.2,163.2 L242.9,162.2 L243.4,160.5 L242.7,159.0 L240.7,156.8 L239.8,156.4 L237.2,157.6 L236.8,157.5 L235.6,156.3 L234.0,155.6 L231.2,156.0 L229.0,155.7 L227.0,155.8 L226.0,156.2 L226.5,156.9 L226.4,158.0 L227.0,158.5 L226.5,158.9 L225.6,158.5 L224.6,159.0 L222.8,158.9 L220.9,157.5 L218.8,157.8 L216.9,157.2 L215.4,157.4 L213.3,158.0 L211.0,160.0 L208.5,161.1 L207.2,162.3 L206.6,163.5 L206.6,165.3 L206.7,166.6 L207.2,167.5 L206.2,167.5 L204.4,167.0 L202.4,166.1 L201.8,164.9 L201.2,163.1 L199.7,161.6 L198.9,160.1 L197.6,158.3 L195.8,157.2 L193.8,157.3 L192.2,159.4 L190.2,158.6 L188.9,157.8 L188.2,156.3 L187.4,155.0 L185.9,153.8 L184.6,153.0 L183.7,152.1 L179.4,152.1 L179.4,153.2 L177.4,153.2 L172.4,153.2 L166.7,151.3 L163.0,150.1 L163.2,149.6 L160.0,149.8 L157.2,150.0 L156.8,148.7 L155.1,147.2 L154.0,146.9 L153.7,146.1 L152.3,146.0 L151.4,145.3 L149.1,145.1 L148.4,144.6 L148.1,143.2 L145.7,140.6 L143.6,136.9 L143.7,136.3 L142.6,135.5 L140.7,133.3 L140.3,131.2 L139.0,129.7 L139.6,127.6 L139.5,125.3 L138.7,123.3 L139.6,120.9 L139.9,118.5 L140.3,116.1 L139.8,112.6 L139.0,110.4 L138.3,109.2 L138.6,108.7 L142.2,109.6 L143.5,112.0 L144.1,111.3 L143.8,109.2 L142.9,107.1 Z M61.5,182.6 L61.9,182.8 L62.3,183.1 L63.0,184.1 L62.9,184.2 L61.9,184.8 L61.1,185.2 L60.8,185.6 L60.2,185.2 L60.2,184.5 L59.8,183.6 L59.9,183.3 L60.4,182.8 L60.2,182.3 L60.3,182.1 L60.5,182.1 L61.5,182.6 Z M60.0,180.8 L59.8,181.1 L59.0,181.3 L58.5,180.7 L58.2,180.5 L58.2,180.4 L58.5,180.1 L59.4,180.4 L60.0,180.8 Z M58.1,179.7 L58.0,180.0 L56.7,179.9 L56.9,179.6 L58.1,179.7 Z M54.9,178.3 L55.1,178.5 L55.9,179.3 L55.7,179.5 L55.6,179.4 L54.7,179.4 L54.4,178.8 L54.3,178.7 L54.9,178.3 Z M51.6,177.0 L51.6,177.6 L51.3,177.9 L50.5,177.4 L50.6,177.2 L51.0,176.9 L51.6,177.0 Z M33.8,77.3 L35.8,77.6 L36.1,78.6 L34.5,79.0 L32.9,78.5 L31.4,77.8 L33.8,77.3 Z M66.9,83.6 L68.6,83.8 L69.6,84.6 L67.5,85.9 L65.0,86.9 L63.7,86.2 L63.3,85.0 L65.6,84.0 L66.9,83.6 Z M97.5,53.0 L97.5,53.0 L97.5,62.7 L97.5,77.5 L100.0,77.6 L102.4,78.3 L104.1,79.5 L106.4,81.2 L108.8,79.7 L111.3,78.9 L112.6,80.2 L114.3,81.3 L116.6,82.5 L118.2,84.4 L120.7,87.3 L125.0,89.0 L125.1,90.6 L123.7,91.9 L123.7,91.9 L123.7,91.9 L122.3,90.9 L120.1,90.1 L119.4,87.8 L116.2,85.7 L114.8,83.2 L112.4,83.1 L108.4,83.0 L105.5,82.3 L100.3,79.5 L97.9,79.0 L93.6,78.1 L90.1,78.3 L85.2,77.1 L82.2,76.0 L79.4,76.6 L80.0,78.4 L78.6,78.6 L75.7,79.1 L73.5,80.0 L70.7,80.5 L70.4,79.0 L71.5,76.4 L74.1,75.6 L73.4,75.0 L70.3,76.4 L68.6,78.2 L65.0,80.0 L66.8,81.3 L64.4,83.2 L61.7,84.3 L59.2,85.1 L58.6,86.2 L54.7,87.6 L53.9,88.8 L51.0,89.9 L49.3,89.7 L46.9,90.4 L44.4,91.3 L42.3,92.2 L38.0,92.9 L37.6,92.5 L40.4,91.3 L42.8,90.5 L45.5,89.1 L48.6,88.8 L49.8,87.7 L53.3,86.1 L53.8,85.6 L55.7,84.7 L56.1,82.7 L57.4,81.2 L54.5,81.9 L53.7,81.5 L52.4,82.4 L50.7,81.1 L50.0,82.1 L49.1,80.8 L46.6,81.8 L45.1,81.8 L44.9,80.2 L45.3,79.3 L43.7,78.4 L40.5,78.9 L38.3,77.6 L36.6,77.0 L36.6,75.5 L34.7,74.4 L35.7,72.9 L37.7,71.5 L38.6,70.1 L40.6,69.9 L42.3,70.3 L44.3,69.1 L46.2,69.3 L48.1,68.5 L47.6,67.3 L46.2,66.8 L48.1,65.8 L46.5,65.9 L43.9,66.4 L43.1,67.0 L41.1,66.4 L37.6,66.7 L33.9,66.1 L32.9,65.0 L29.7,63.5 L33.2,62.4 L38.8,61.2 L40.9,61.2 L40.5,62.5 L45.8,62.4 L43.8,60.7 L40.7,59.8 L38.9,58.4 L36.5,57.3 L33.1,56.5 L34.5,55.1 L38.9,55.1 L42.1,53.9 L42.7,52.6 L45.2,51.4 L47.7,51.1 L52.4,49.9 L54.7,50.1 L58.5,48.7 L62.3,49.2 L64.1,50.4 L65.2,49.9 L69.5,50.1 L69.3,50.7 L73.2,51.1 L75.7,50.8 L81.0,51.7 L85.8,51.9 L87.7,52.2 L91.0,51.8 L94.8,52.6 L97.5,53.0 L97.5,53.0 Z M20.7,68.5 L22.2,69.0 L23.8,68.7 L25.8,69.4 L28.3,69.7 L28.1,70.0 L26.2,70.6 L24.3,70.0 L23.3,69.5 L21.1,69.7 L20.5,69.4 L20.7,68.5 Z" fill="#e7ece6" stroke="#9ca89f" stroke-width="0.6" fill-rule="evenodd" vector-effect="non-scaling-stroke"/>
      <path d="M270.7,183.5 L270.9,184.9 L270.7,185.9 L270.1,186.4 L270.8,187.2 L270.7,187.9 L269.1,187.4 L267.9,187.6 L266.4,187.4 L265.2,187.9 L263.9,187.1 L264.1,186.3 L266.4,186.6 L268.3,186.8 L269.2,186.3 L268.0,185.1 L268.0,184.1 L266.5,183.7 L267.0,183.0 L268.6,183.1 L270.7,183.5 Z" fill="#e7ece6" stroke="#9ca89f" stroke-width="0.6" fill-rule="evenodd" vector-effect="non-scaling-stroke"/>
      <path d="M270.7,187.9 L270.8,187.2 L270.1,186.4 L270.7,185.9 L270.9,184.9 L270.7,183.5 L271.0,183.1 L273.0,183.1 L274.5,183.8 L275.1,183.7 L275.6,184.6 L276.9,184.6 L276.9,185.3 L278.0,185.4 L279.2,186.4 L278.3,187.5 L277.1,186.9 L275.9,187.0 L275.1,186.9 L274.7,187.4 L273.7,187.5 L273.3,186.9 L272.5,187.3 L271.5,189.0 L270.9,188.6 L270.7,187.9 Z" fill="#e7ece6" stroke="#9ca89f" stroke-width="0.6" fill-rule="evenodd" vector-effect="non-scaling-stroke"/>
      <path d="M896.8,49.4 L900.0,48.3 L900.0,50.0 L897.3,50.2 L896.8,49.4 Z M572.8,113.8 L571.6,115.4 L569.2,115.8 L566.7,118.5 L569.0,121.0 L568.7,122.8 L571.5,125.8 L571.5,125.8 L570.0,126.9 L569.5,127.5 L568.4,127.4 L566.7,125.8 L566.0,125.7 L564.4,125.1 L563.7,124.0 L561.3,123.5 L559.8,123.9 L559.4,123.4 L556.0,122.1 L552.3,121.7 L550.2,121.3 L549.9,121.6 L546.7,119.4 L543.8,118.4 L541.7,116.9 L543.5,116.4 L545.6,114.3 L544.2,113.2 L547.9,112.2 L547.8,111.6 L545.6,112.0 L545.6,110.9 L546.9,110.1 L549.3,109.9 L549.7,109.1 L549.2,107.6 L550.2,106.3 L550.2,105.5 L546.5,104.6 L545.0,104.7 L543.5,103.4 L541.6,103.9 L538.4,102.9 L538.4,102.4 L537.6,101.3 L535.6,101.2 L535.4,100.4 L536.0,99.8 L534.4,98.3 L531.8,98.6 L531.0,98.5 L530.4,99.1 L529.5,99.0 L529.5,99.0 L528.9,97.3 L528.3,96.4 L528.7,96.2 L530.8,96.3 L531.7,95.7 L531.0,95.0 L529.3,94.5 L529.5,94.1 L528.5,93.6 L526.9,91.9 L527.4,91.2 L527.2,90.0 L524.7,89.3 L523.4,89.6 L523.1,89.0 L520.4,88.3 L519.6,86.8 L519.4,85.5 L518.2,84.9 L519.3,84.1 L518.6,81.7 L520.3,80.2 L520.0,79.7 L520.0,79.7 L522.8,78.3 L520.2,77.0 L520.2,77.0 L525.5,73.7 L527.8,72.2 L528.8,70.8 L525.1,69.1 L526.1,67.4 L523.9,65.4 L525.5,63.2 L522.6,60.2 L524.9,58.2 L521.1,56.5 L521.5,54.7 L523.5,54.4 L527.8,53.4 L527.8,53.4 L530.3,52.5 L534.4,54.0 L541.3,54.7 L550.7,57.6 L552.6,58.9 L552.8,60.6 L550.0,62.0 L546.0,62.7 L534.8,60.7 L533.0,61.0 L537.0,62.9 L537.2,64.1 L537.4,66.8 L540.6,67.6 L542.5,68.3 L542.9,67.0 L541.3,65.9 L542.9,64.9 L549.0,66.5 L551.1,65.9 L549.4,64.0 L555.2,61.4 L557.5,61.6 L559.9,62.5 L561.3,60.7 L559.2,59.1 L560.5,57.6 L558.6,56.0 L565.6,56.8 L567.1,58.3 L563.9,58.6 L563.9,60.0 L565.9,60.9 L569.7,60.4 L570.3,58.7 L575.6,57.4 L584.3,55.2 L586.2,55.3 L583.7,56.9 L586.8,57.2 L588.6,56.3 L593.3,56.2 L597.0,55.1 L599.9,56.7 L602.7,55.0 L600.1,53.5 L601.4,52.6 L608.8,53.4 L612.2,54.2 L621.3,57.2 L623.0,55.8 L620.4,54.5 L620.3,53.9 L617.3,53.6 L618.1,52.4 L616.8,50.4 L616.7,49.5 L621.4,47.2 L623.0,44.8 L624.9,44.3 L631.5,45.0 L632.0,46.4 L629.6,48.5 L631.2,49.4 L632.0,51.2 L631.4,54.8 L634.2,56.4 L633.1,58.1 L628.2,61.8 L631.1,62.2 L632.1,61.3 L634.8,60.6 L635.5,59.3 L637.6,58.1 L636.2,56.6 L637.3,54.9 L634.6,54.6 L634.0,53.2 L636.0,50.6 L632.8,48.4 L637.2,46.7 L636.6,44.8 L637.9,44.8 L639.2,46.2 L638.2,48.7 L640.9,49.2 L639.8,47.3 L643.9,46.3 L649.1,46.2 L653.8,47.7 L651.5,45.5 L651.3,42.7 L655.6,42.2 L661.6,42.3 L667.1,41.9 L665.0,40.6 L667.9,38.9 L670.8,38.8 L675.6,37.5 L682.3,37.1 L683.1,36.4 L689.7,36.2 L691.7,36.8 L697.3,35.4 L701.9,35.4 L702.6,34.3 L705.0,33.2 L710.9,32.1 L715.2,33.0 L711.8,33.6 L717.4,34.0 L718.1,35.3 L720.4,34.7 L727.7,34.7 L733.3,36.0 L735.3,37.0 L734.7,38.3 L731.9,39.1 L725.4,40.5 L723.5,41.3 L726.6,41.7 L730.3,42.3 L732.5,41.8 L733.8,43.5 L734.9,42.8 L738.9,42.4 L746.9,42.9 L747.5,44.1 L758.0,44.5 L758.1,42.5 L763.5,42.9 L767.4,42.9 L771.5,44.3 L772.6,46.0 L771.2,47.1 L774.3,49.1 L778.2,50.2 L780.6,47.4 L784.6,48.6 L788.9,47.9 L793.7,48.7 L795.6,48.0 L799.7,48.3 L797.9,45.9 L801.2,44.8 L823.8,46.5 L825.9,48.0 L832.4,50.0 L842.5,49.5 L847.5,50.0 L849.6,51.0 L849.3,52.9 L852.4,53.7 L855.7,53.2 L860.1,53.1 L864.9,53.6 L869.6,53.3 L873.9,55.6 L877.0,54.8 L875.0,53.1 L876.1,52.0 L884.1,52.7 L889.3,52.5 L896.5,53.8 L900.0,54.9 L900.0,65.3 L900.0,65.3 L896.8,66.5 L893.5,66.3 L895.8,67.7 L897.3,69.8 L898.4,70.5 L898.7,71.6 L898.1,72.3 L893.4,71.7 L886.4,73.7 L884.2,74.0 L880.4,75.9 L876.7,77.5 L875.8,78.6 L872.3,76.8 L865.7,78.9 L864.6,77.9 L862.2,79.0 L858.8,78.7 L858.0,80.4 L855.0,82.9 L855.1,84.0 L858.0,84.6 L857.6,88.4 L855.3,88.5 L854.3,90.6 L855.3,91.8 L850.9,93.1 L850.1,96.1 L846.3,96.7 L845.6,99.4 L842.0,101.8 L841.0,100.0 L840.0,96.2 L838.6,90.4 L839.8,86.8 L841.9,85.2 L842.0,84.0 L845.9,83.4 L850.4,80.1 L854.7,77.4 L859.2,75.4 L861.2,71.7 L858.1,71.9 L856.6,74.0 L850.3,76.9 L848.3,73.7 L841.8,74.6 L835.5,79.0 L837.6,80.6 L832.0,81.2 L828.2,81.5 L828.3,79.6 L824.5,79.2 L821.4,80.5 L813.7,80.1 L805.5,80.8 L797.4,85.9 L787.8,92.1 L791.8,92.4 L793.0,94.1 L795.4,94.6 L797.0,93.3 L799.8,93.5 L803.4,96.4 L803.4,98.6 L801.5,101.2 L801.3,104.3 L800.2,108.5 L796.4,112.3 L795.5,114.1 L792.2,117.1 L788.8,120.1 L787.2,121.7 L783.8,123.2 L782.3,123.2 L780.7,122.0 L777.3,123.9 L777.0,124.8 L777.0,124.8 L776.9,124.8 L776.9,124.8 L776.6,124.3 L776.6,124.3 L776.6,123.0 L777.9,122.9 L778.2,119.8 L777.6,117.6 L779.7,116.7 L782.7,117.1 L784.4,114.6 L785.3,111.7 L786.3,110.8 L787.6,108.4 L783.4,109.2 L781.3,110.2 L777.5,110.2 L776.5,107.8 L773.5,105.9 L769.1,105.1 L768.2,102.5 L767.3,100.9 L766.4,99.8 L764.9,97.2 L762.7,96.2 L758.9,95.4 L755.6,95.5 L752.5,96.0 L750.4,97.3 L751.8,97.9 L751.8,99.3 L750.5,100.2 L748.2,102.9 L748.2,104.1 L744.7,105.7 L741.7,104.7 L738.7,105.0 L737.4,104.1 L735.9,103.8 L732.2,105.6 L729.0,106.1 L726.7,106.7 L723.5,106.3 L721.2,106.3 L719.7,105.0 L717.2,103.7 L714.7,103.4 L711.6,103.7 L709.2,104.2 L705.6,103.1 L705.2,101.2 L702.2,100.5 L700.0,100.2 L697.2,99.1 L694.6,101.8 L695.6,103.3 L693.1,105.2 L689.5,104.5 L687.0,104.4 L685.4,103.2 L682.8,103.2 L680.6,102.3 L676.8,103.6 L672.0,105.8 L669.4,106.3 L668.4,106.5 L667.1,104.9 L663.9,105.2 L662.8,104.1 L661.0,103.6 L659.8,102.1 L658.5,101.7 L654.9,102.3 L651.4,100.8 L650.1,102.2 L644.5,95.6 L641.3,93.5 L642.2,92.7 L636.0,95.2 L633.6,95.3 L633.8,93.9 L630.6,93.0 L628.0,93.7 L627.2,90.9 L622.7,90.4 L620.4,91.5 L614.2,92.4 L612.9,93.1 L603.6,94.0 L602.4,94.9 L604.2,96.7 L601.8,97.3 L602.3,98.1 L599.9,99.3 L604.0,101.1 L603.3,102.4 L599.8,102.2 L599.1,103.0 L595.9,101.7 L591.9,101.7 L589.3,102.8 L586.3,101.8 L580.8,100.0 L576.9,100.0 L571.8,102.9 L571.4,104.8 L568.9,103.3 L566.9,106.1 L567.6,106.7 L566.2,108.6 L568.3,110.4 L570.1,110.3 L571.7,112.1 L571.5,113.4 L572.8,113.8 Z M684.4,23.4 L689.9,22.8 L694.7,24.2 L700.5,26.7 L699.8,29.0 L694.4,29.4 L687.4,28.6 L683.3,27.6 L681.4,25.7 L678.0,25.2 L684.4,23.4 Z M707.1,28.0 L713.4,29.5 L712.7,30.5 L698.6,31.5 L703.2,28.1 L705.2,27.8 L707.1,28.0 Z M797.1,36.2 L803.7,36.3 L812.7,37.7 L810.8,39.6 L801.5,39.6 L797.4,40.2 L792.4,38.5 L793.8,36.7 L797.1,36.2 Z M820.6,38.3 L826.8,38.9 L823.9,40.0 L819.9,39.7 L815.3,38.7 L815.9,37.9 L820.6,38.3 Z M799.7,43.4 L802.0,42.4 L805.2,42.1 L808.7,43.1 L809.0,43.8 L805.2,43.9 L800.1,43.6 L799.7,43.4 Z M562.1,24.6 L567.0,24.1 L570.8,24.1 L571.3,24.8 L572.7,24.1 L575.1,23.7 L578.8,24.3 L577.8,24.7 L574.5,25.0 L572.2,25.2 L571.9,25.7 L569.0,26.1 L566.3,25.5 L567.7,24.7 L562.1,24.6 Z M506.8,93.1 L502.2,93.2 L499.2,92.9 L499.7,91.7 L503.2,90.9 L505.8,91.3 L506.9,91.8 L506.6,92.5 L506.8,93.1 Z M583.8,42.4 L589.8,40.1 L589.1,39.0 L594.7,37.6 L602.9,35.9 L611.2,35.4 L615.5,34.4 L620.4,34.1 L622.1,35.1 L620.5,35.9 L611.6,37.2 L604.0,38.5 L596.2,41.0 L592.5,43.5 L588.5,46.0 L589.1,48.2 L593.8,50.3 L592.4,50.6 L584.2,50.2 L583.5,49.1 L579.0,48.4 L578.6,47.0 L581.2,46.4 L581.1,45.0 L586.1,42.8 L583.8,42.4 Z M807.3,94.8 L808.2,97.3 L808.1,99.9 L809.1,102.5 L811.6,107.1 L807.9,106.3 L806.4,110.0 L808.8,112.7 L808.8,114.5 L806.9,113.0 L805.2,115.0 L804.8,112.8 L805.0,110.2 L804.8,107.4 L805.3,105.4 L805.4,102.0 L804.0,99.4 L804.2,95.8 L806.5,94.6 L805.5,93.4 L806.6,93.0 L807.3,94.8 Z M12.7,59.5 L12.5,61.1 L14.2,61.8 L13.6,59.9 L20.4,60.3 L25.3,62.7 L22.8,63.9 L18.7,64.1 L18.6,66.7 L17.6,67.2 L15.3,67.2 L13.4,66.2 L10.0,65.5 L9.5,64.3 L6.9,63.9 L4.1,64.3 L2.7,63.3 L3.3,62.4 L0.3,63.0 L1.4,64.2 L0.0,65.3 L0.0,54.9 L6.1,56.9 L12.7,59.5 Z M3.3,49.9 L0.0,50.0 L0.0,48.3 L0.3,48.2 L2.4,48.2 L6.1,48.9 L5.8,49.3 L3.3,49.9 Z M533.6,115.0 L534.2,114.3 L536.0,114.9 L536.8,115.0 L537.2,115.5 L537.5,115.6 L537.6,115.8 L538.8,116.4 L541.3,116.3 L540.8,117.2 L538.1,117.7 L534.7,119.2 L533.3,118.6 L533.9,117.4 L531.1,116.6 L531.6,116.1 L534.0,115.3 L533.6,115.0 Z" fill="#e7ece6" stroke="#9ca89f" stroke-width="0.6" fill-rule="evenodd" vector-effect="non-scaling-stroke"/>
      <path d="M252.5,165.0 L253.7,164.8 L255.4,164.9 L255.4,165.6 L252.7,166.0 L252.5,165.0 Z M255.5,164.4 L257.5,165.6 L257.1,167.4 L256.6,167.1 L256.7,165.7 L255.5,164.7 L255.5,164.4 Z M254.5,169.2 L255.3,169.3 L256.1,171.4 L256.2,173.0 L255.6,173.1 L254.9,171.6 L254.0,170.8 L254.5,169.2 Z" fill="#e7ece6" stroke="#9ca89f" stroke-width="0.6" fill-rule="evenodd" vector-effect="non-scaling-stroke"/>
      <path d="M157.2,150.0 L160.0,149.8 L163.2,149.6 L163.0,150.1 L166.7,151.3 L172.4,153.2 L177.4,153.2 L179.4,153.2 L179.4,152.1 L183.7,152.1 L184.6,153.0 L185.9,153.8 L187.4,155.0 L188.2,156.3 L188.9,157.8 L190.2,158.6 L192.2,159.4 L193.8,157.3 L195.8,157.2 L197.6,158.3 L198.9,160.1 L199.7,161.6 L201.2,163.1 L201.8,164.9 L202.4,166.1 L204.4,167.0 L206.2,167.5 L207.1,167.5 L206.2,169.7 L205.7,171.6 L205.6,175.1 L205.3,176.4 L205.8,177.8 L206.5,179.1 L207.0,181.1 L208.7,183.1 L209.3,184.6 L210.2,185.8 L212.9,186.5 L213.9,187.6 L216.1,186.9 L218.0,186.6 L219.9,186.2 L221.5,185.7 L223.1,184.6 L223.7,183.1 L223.9,180.9 L224.3,180.2 L226.0,179.5 L228.6,178.9 L230.9,179.0 L232.4,178.7 L233.0,179.3 L232.9,180.6 L231.5,182.1 L230.9,183.7 L231.4,184.2 L231.0,185.3 L230.4,187.3 L229.8,186.7 L229.2,186.7 L228.8,186.7 L227.9,188.3 L227.4,188.0 L227.1,188.1 L227.1,188.5 L224.8,188.5 L222.5,188.5 L222.5,189.9 L221.4,190.0 L222.3,190.8 L223.2,191.4 L223.5,192.0 L223.9,192.2 L223.8,193.0 L220.6,193.0 L219.4,195.2 L219.8,195.7 L219.5,196.3 L219.4,197.0 L216.6,194.2 L215.3,193.4 L213.3,192.7 L211.9,192.9 L209.9,193.9 L208.6,194.1 L206.8,193.4 L205.0,192.9 L202.6,191.7 L200.8,191.4 L197.9,190.2 L195.8,188.9 L195.2,188.2 L193.8,188.1 L191.2,187.2 L190.2,186.0 L187.5,184.6 L186.3,182.9 L185.7,181.6 L186.5,181.4 L186.2,180.6 L186.8,180.0 L186.8,179.1 L186.0,177.9 L185.8,176.9 L184.9,175.5 L182.7,172.9 L180.2,170.9 L179.0,169.3 L176.8,168.2 L176.4,167.6 L176.8,166.0 L175.5,165.3 L174.0,164.1 L173.4,162.3 L172.1,162.0 L170.6,160.7 L169.4,159.4 L169.3,158.6 L168.0,156.6 L167.1,154.6 L167.1,153.6 L165.3,152.6 L164.5,152.7 L163.1,152.0 L162.7,153.0 L163.1,154.3 L163.3,156.2 L164.2,157.3 L166.0,159.1 L166.4,159.7 L166.8,159.9 L167.1,160.8 L167.6,160.8 L168.1,162.5 L168.9,163.1 L169.4,164.1 L171.0,165.4 L171.8,167.8 L172.5,169.0 L173.2,170.2 L173.4,171.6 L174.6,171.6 L175.6,172.8 L176.5,174.0 L176.4,174.5 L175.4,175.4 L174.9,175.4 L174.3,173.8 L172.6,172.3 L170.8,171.1 L169.5,170.4 L169.6,168.5 L169.2,167.1 L168.1,166.3 L166.3,165.1 L166.0,165.4 L165.4,164.8 L163.8,164.1 L162.4,162.6 L162.5,162.4 L163.6,162.6 L164.5,161.6 L164.6,160.4 L162.7,158.5 L161.2,157.8 L160.3,156.2 L159.4,154.5 L158.2,152.4 L157.2,150.0 Z" fill="#e7ece6" stroke="#9ca89f" stroke-width="0.6" fill-rule="evenodd" vector-effect="non-scaling-stroke"/>
      <path d="M316.6,323.2 L315.9,321.7 L317.0,320.5 L315.5,318.7 L313.6,317.2 L311.0,315.6 L310.1,315.6 L307.6,313.6 L305.9,313.9 L309.3,310.3 L312.1,307.8 L313.8,306.7 L315.9,305.3 L315.9,303.2 L314.7,301.7 L313.4,302.2 L313.9,300.7 L314.3,299.2 L314.3,297.7 L313.4,297.2 L312.4,297.7 L311.5,297.6 L311.2,296.5 L311.0,294.2 L310.5,293.4 L308.8,292.7 L307.8,293.2 L305.2,292.7 L305.3,289.1 L304.6,287.7 L305.4,287.1 L305.1,285.7 L305.8,284.5 L306.3,282.5 L305.7,280.8 L304.3,280.1 L304.0,279.1 L304.4,277.6 L299.6,277.5 L298.6,274.4 L299.4,274.4 L299.3,273.2 L298.9,272.5 L298.7,271.0 L297.3,270.2 L295.7,270.2 L294.7,269.5 L293.0,268.9 L292.0,268.0 L289.2,267.5 L286.5,265.2 L286.7,263.5 L286.4,262.4 L286.7,260.5 L283.4,260.9 L282.1,261.9 L279.9,263.0 L279.3,263.8 L278.0,263.8 L276.2,263.6 L274.8,264.0 L273.6,263.7 L273.8,259.8 L271.7,261.3 L269.5,261.3 L268.6,259.9 L266.9,259.7 L267.5,258.6 L266.1,257.0 L265.0,254.6 L265.7,254.2 L265.7,253.1 L267.2,252.3 L267.0,250.9 L267.6,250.0 L267.8,248.8 L270.6,247.0 L272.7,246.5 L273.0,246.1 L275.3,246.2 L276.4,239.1 L276.4,237.9 L276.1,236.4 L274.9,235.5 L275.0,233.6 L276.4,233.2 L276.9,233.4 L277.0,232.4 L275.5,232.2 L275.5,230.5 L280.3,230.6 L281.2,229.7 L281.9,230.5 L282.3,232.0 L282.8,231.7 L284.2,233.1 L286.1,232.9 L286.6,232.1 L288.5,231.5 L289.5,231.1 L289.8,230.0 L291.6,229.3 L291.4,228.7 L289.3,228.5 L289.0,226.8 L289.1,225.1 L288.0,224.4 L288.4,224.2 L290.3,224.5 L292.3,225.2 L293.0,224.5 L294.8,224.1 L297.6,223.2 L298.5,222.2 L298.2,221.4 L299.5,221.3 L300.0,221.9 L299.7,223.1 L300.6,223.4 L301.2,224.7 L300.5,225.6 L300.1,227.8 L300.7,229.1 L300.9,230.3 L302.4,231.6 L303.6,231.7 L303.9,231.2 L304.7,231.1 L305.8,230.6 L306.7,229.9 L308.0,230.1 L308.7,230.0 L310.0,230.3 L310.2,229.7 L309.8,229.2 L310.1,228.4 L311.1,228.7 L312.3,228.4 L313.7,229.0 L314.8,229.5 L315.6,228.8 L316.1,228.9 L316.5,229.6 L317.7,229.5 L318.6,228.5 L319.4,226.5 L320.9,224.1 L321.7,224.0 L322.3,225.5 L323.7,230.0 L325.1,230.5 L325.1,232.3 L323.3,234.4 L324.0,235.2 L328.4,235.6 L328.5,238.2 L330.4,236.5 L333.6,237.5 L337.7,239.1 L339.0,240.6 L338.5,242.0 L341.5,241.2 L346.3,242.6 L350.1,242.5 L353.7,244.7 L356.9,247.6 L358.9,248.3 L361.0,248.4 L361.9,249.3 L362.8,252.6 L363.2,254.2 L362.2,258.5 L360.9,260.2 L357.4,263.8 L355.8,266.8 L353.9,269.0 L353.3,269.1 L352.6,271.0 L352.8,275.9 L352.1,279.9 L351.8,281.7 L351.0,282.7 L350.6,286.2 L348.1,289.6 L347.6,292.3 L345.6,293.4 L345.0,295.0 L342.3,295.0 L338.4,296.0 L336.6,297.1 L333.8,297.9 L330.9,300.0 L328.8,302.6 L328.4,304.5 L328.8,306.0 L328.3,308.6 L327.8,309.9 L326.0,311.3 L323.3,315.9 L321.1,318.0 L319.4,319.2 L318.2,321.7 L316.6,323.2 Z" fill="#e7ece6" stroke="#9ca89f" stroke-width="0.6" fill-rule="evenodd" vector-effect="non-scaling-stroke"/>
      <path d="M276.2,263.6 L278.0,263.8 L279.3,263.8 L279.9,263.0 L282.1,261.9 L283.4,260.9 L286.7,260.5 L286.4,262.4 L286.7,263.5 L286.5,265.2 L289.2,267.5 L292.0,268.0 L293.0,268.9 L294.7,269.5 L295.7,270.2 L297.3,270.2 L298.7,271.0 L298.9,272.5 L299.3,273.2 L299.4,274.4 L298.6,274.4 L299.6,277.5 L304.4,277.6 L304.0,279.1 L304.3,280.1 L305.7,280.8 L306.3,282.5 L305.8,284.5 L305.1,285.7 L305.4,287.1 L304.6,287.7 L304.5,286.9 L302.2,285.5 L299.9,285.5 L295.5,286.3 L294.3,288.6 L294.3,290.0 L293.3,293.1 L292.9,292.5 L290.0,292.4 L289.1,294.5 L287.6,292.6 L284.3,292.0 L282.2,294.4 L280.4,294.7 L279.5,291.1 L278.1,288.2 L278.9,285.7 L277.6,284.6 L277.2,282.7 L276.0,280.9 L277.6,278.1 L276.5,275.9 L277.1,275.0 L276.7,274.0 L277.6,272.7 L277.7,270.5 L277.8,268.7 L278.3,267.8 L276.2,263.6 Z" fill="#e7ece6" stroke="#9ca89f" stroke-width="0.6" fill-rule="evenodd" vector-effect="non-scaling-stroke"/>
      <path d="M275.3,246.2 L273.0,246.1 L272.7,246.5 L270.6,247.0 L267.8,248.8 L267.6,250.0 L267.0,250.9 L267.2,252.3 L265.7,253.1 L265.7,254.2 L265.0,254.6 L266.1,257.0 L267.5,258.6 L266.9,259.7 L268.6,259.9 L269.5,261.3 L271.7,261.3 L273.8,259.8 L273.6,263.7 L274.8,264.0 L276.2,263.6 L278.3,267.8 L277.8,268.7 L277.7,270.5 L277.6,272.7 L276.7,274.0 L277.1,275.0 L276.5,275.9 L277.6,278.1 L276.0,280.9 L275.4,282.2 L274.1,282.9 L271.6,281.4 L271.3,280.3 L266.4,277.7 L261.9,274.9 L260.0,273.3 L258.9,271.1 L259.4,270.3 L257.2,266.9 L254.8,262.1 L252.4,256.9 L251.4,255.7 L250.6,253.8 L248.7,252.1 L246.9,251.0 L247.7,249.9 L246.5,247.4 L247.3,245.5 L249.2,243.9 L249.5,245.0 L248.8,245.6 L248.9,246.6 L249.9,246.3 L250.9,246.6 L252.0,247.9 L253.4,246.9 L253.9,245.1 L255.4,242.8 L258.4,241.8 L261.1,239.1 L261.9,237.4 L261.6,235.4 L262.2,235.1 L263.9,236.4 L264.7,237.6 L265.9,238.3 L267.3,241.0 L269.2,241.4 L270.6,240.7 L271.5,241.1 L273.0,240.9 L274.9,242.1 L273.3,244.8 L274.0,244.8 L275.3,246.2 Z" fill="#e7ece6" stroke="#9ca89f" stroke-width="0.6" fill-rule="evenodd" vector-effect="non-scaling-stroke"/>
      <path d="M282.8,231.7 L282.3,232.0 L281.9,230.5 L281.2,229.7 L280.3,230.6 L275.5,230.5 L275.5,232.2 L277.0,232.4 L276.9,233.4 L276.4,233.2 L275.0,233.6 L274.9,235.5 L276.1,236.4 L276.4,237.9 L276.4,239.1 L275.3,246.2 L274.0,244.8 L273.3,244.8 L274.9,242.1 L273.0,240.9 L271.5,241.1 L270.6,240.7 L269.2,241.4 L267.3,241.0 L265.9,238.3 L264.7,237.6 L263.9,236.4 L262.2,235.1 L261.6,235.4 L260.5,234.8 L259.3,233.9 L258.6,234.3 L256.4,234.0 L255.8,232.8 L255.4,232.9 L252.9,231.4 L252.5,230.6 L253.5,230.4 L253.3,229.1 L253.9,228.1 L255.2,228.0 L256.2,226.3 L257.2,224.9 L256.3,224.3 L256.7,222.8 L256.2,220.4 L256.7,219.7 L256.3,217.5 L255.3,216.1 L255.6,214.9 L256.4,215.1 L256.9,214.3 L256.3,212.7 L256.6,212.4 L257.9,212.4 L259.8,210.6 L260.8,210.3 L260.8,209.5 L261.3,207.3 L262.7,206.1 L264.3,206.0 L264.5,205.5 L266.5,205.7 L268.4,204.4 L269.4,203.8 L270.6,202.5 L271.5,202.7 L272.2,203.4 L271.7,204.3 L270.1,204.7 L269.4,206.0 L268.5,206.7 L267.7,207.7 L267.4,209.6 L266.7,211.1 L268.0,211.3 L268.3,212.5 L268.9,213.1 L269.1,214.1 L268.8,215.1 L268.9,215.6 L269.5,215.8 L270.1,216.7 L273.3,216.5 L274.8,216.8 L276.5,219.1 L277.5,218.8 L279.3,218.9 L280.8,218.6 L281.6,219.1 L281.2,220.5 L280.6,221.4 L280.4,223.2 L280.9,225.0 L281.7,225.8 L281.7,226.3 L280.5,227.6 L281.4,228.2 L282.0,229.1 L282.8,231.7 Z" fill="#e7ece6" stroke="#9ca89f" stroke-width="0.6" fill-rule="evenodd" vector-effect="non-scaling-stroke"/>
      <path d="M256.6,212.4 L256.3,212.7 L256.9,214.3 L256.4,215.1 L255.6,214.9 L255.3,216.1 L254.5,215.4 L253.9,214.0 L254.5,213.3 L253.9,213.1 L253.4,212.2 L252.2,211.5 L251.1,211.7 L250.6,212.6 L249.6,213.2 L249.0,213.3 L248.8,213.9 L250.0,215.3 L249.3,215.6 L248.9,216.0 L247.8,216.1 L247.4,214.6 L247.0,215.0 L246.2,214.9 L245.7,213.8 L244.7,213.7 L244.0,213.3 L242.9,213.4 L242.9,213.9 L242.6,213.5 L242.7,213.0 L242.9,212.5 L242.8,212.0 L243.2,211.7 L242.7,211.3 L242.7,210.3 L243.6,210.0 L244.5,211.0 L244.5,211.5 L245.5,211.6 L245.7,211.4 L246.4,212.1 L247.6,211.9 L248.7,211.2 L250.2,210.7 L251.1,209.9 L252.4,210.1 L252.4,210.3 L253.7,210.4 L254.9,210.9 L255.7,211.6 L256.6,212.4 Z" fill="#e7ece6" stroke="#9ca89f" stroke-width="0.6" fill-rule="evenodd" vector-effect="non-scaling-stroke"/>
      <path d="M243.6,210.0 L242.7,210.3 L242.7,211.3 L243.2,211.7 L242.8,212.0 L242.9,212.5 L242.7,213.0 L242.6,213.5 L241.2,212.9 L240.7,212.4 L241.0,211.9 L240.9,211.4 L240.2,210.7 L239.2,210.2 L238.4,209.9 L238.2,209.1 L237.6,208.7 L237.7,209.4 L237.2,210.0 L236.7,209.3 L235.8,209.1 L235.5,208.5 L235.5,207.7 L235.9,206.9 L235.1,206.6 L235.7,206.0 L236.1,205.7 L237.7,206.4 L238.3,206.1 L239.1,206.3 L239.5,206.8 L240.3,207.0 L240.9,206.4 L241.5,207.9 L242.5,208.9 L243.6,210.0 Z" fill="#e7ece6" stroke="#9ca89f" stroke-width="0.6" fill-rule="evenodd" vector-effect="non-scaling-stroke"/>
      <path d="M240.9,206.4 L240.3,207.0 L239.5,206.8 L239.1,206.3 L238.3,206.1 L237.7,206.4 L236.1,205.7 L235.7,206.0 L234.9,205.2 L233.7,204.2 L233.1,203.3 L232.1,202.5 L230.8,201.3 L231.1,200.9 L231.5,201.3 L231.7,201.1 L232.5,201.0 L232.8,200.4 L233.2,200.4 L233.1,199.1 L233.7,199.0 L234.2,199.0 L234.8,198.3 L235.5,198.9 L235.8,198.5 L236.2,198.2 L237.1,197.5 L237.1,197.0 L237.4,197.0 L237.7,196.4 L237.9,196.3 L238.4,196.7 L238.9,196.8 L239.4,196.5 L240.1,196.5 L240.9,196.1 L241.3,195.8 L242.1,195.8 L241.9,196.1 L241.8,196.7 L242.0,197.6 L241.5,198.5 L241.2,199.6 L241.1,200.7 L241.3,201.4 L241.3,202.6 L240.9,202.8 L240.7,203.9 L240.9,204.6 L240.4,205.3 L240.5,206.0 L240.9,206.4 Z" fill="#e7ece6" stroke="#9ca89f" stroke-width="0.6" fill-rule="evenodd" vector-effect="non-scaling-stroke"/>
      <path d="M242.1,195.8 L241.3,195.8 L240.9,196.1 L240.1,196.5 L239.4,196.5 L238.9,196.8 L238.4,196.7 L237.9,196.3 L237.7,196.4 L237.4,197.0 L237.1,197.0 L237.1,197.5 L236.2,198.2 L235.8,198.5 L235.5,198.9 L234.8,198.3 L234.2,199.0 L233.7,199.0 L233.1,199.1 L233.2,200.4 L232.8,200.4 L232.5,201.0 L231.7,201.1 L231.3,200.3 L230.5,200.1 L230.7,199.0 L230.4,198.7 L229.8,198.5 L228.7,198.8 L228.6,198.5 L227.9,198.1 L227.4,197.6 L226.6,197.3 L227.1,196.7 L226.9,196.2 L227.1,195.7 L228.3,194.9 L229.4,193.9 L229.7,194.0 L230.2,193.6 L231.0,193.5 L231.2,193.8 L231.6,193.6 L232.7,193.9 L233.9,193.8 L234.7,193.5 L235.0,193.2 L235.8,193.3 L236.4,193.5 L237.0,193.5 L237.5,193.2 L238.7,193.6 L239.1,193.7 L239.8,194.1 L240.6,194.7 L241.5,195.1 L242.1,195.8 Z" fill="#e7ece6" stroke="#9ca89f" stroke-width="0.6" fill-rule="evenodd" vector-effect="non-scaling-stroke"/>
      <path d="M226.6,197.3 L227.4,197.6 L227.9,198.1 L228.6,198.5 L228.7,198.8 L229.8,198.5 L230.4,198.7 L230.7,199.0 L230.5,200.1 L230.2,200.7 L228.8,200.6 L227.9,200.4 L226.9,199.9 L225.5,199.7 L224.8,199.1 L224.8,198.8 L225.7,198.1 L226.2,197.8 L226.0,197.5 L226.6,197.3 Z" fill="#e7ece6" stroke="#9ca89f" stroke-width="0.6" fill-rule="evenodd" vector-effect="non-scaling-stroke"/>
      <path d="M219.4,197.0 L219.5,196.3 L219.8,195.7 L219.4,195.2 L220.6,193.0 L223.8,193.0 L223.9,192.2 L223.5,192.0 L223.2,191.4 L222.3,190.8 L221.4,190.0 L222.5,189.9 L222.5,188.5 L224.8,188.5 L227.1,188.5 L227.1,190.6 L226.9,193.5 L227.7,193.5 L228.5,194.0 L228.7,193.6 L229.4,193.9 L228.3,194.9 L227.1,195.7 L226.9,196.2 L227.1,196.7 L226.6,197.3 L226.0,197.5 L226.2,197.8 L225.7,198.1 L224.8,198.8 L224.8,199.1 L223.5,198.7 L221.9,198.6 L220.8,198.1 L219.4,197.0 Z" fill="#e7ece6" stroke="#9ca89f" stroke-width="0.6" fill-rule="evenodd" vector-effect="non-scaling-stroke"/>
      <path d="M227.1,188.5 L227.1,188.1 L227.4,188.0 L227.9,188.3 L228.8,186.7 L229.2,186.7 L229.3,187.1 L229.7,187.1 L229.7,187.8 L229.3,188.9 L229.5,189.3 L229.2,190.3 L229.4,190.5 L229.1,191.8 L228.6,192.5 L228.2,192.6 L227.7,193.5 L226.9,193.5 L227.1,190.6 L227.1,188.5 Z" fill="#e7ece6" stroke="#9ca89f" stroke-width="0.6" fill-rule="evenodd" vector-effect="non-scaling-stroke"/>
      <path d="M298.2,221.4 L298.5,222.2 L297.6,223.2 L294.8,224.1 L293.0,224.5 L292.3,225.2 L290.3,224.5 L288.4,224.2 L288.0,224.4 L289.1,225.1 L289.0,226.8 L289.3,228.5 L291.4,228.7 L291.6,229.3 L289.8,230.0 L289.5,231.1 L288.5,231.5 L286.6,232.1 L286.1,232.9 L284.2,233.1 L282.8,231.7 L282.0,229.1 L281.4,228.2 L280.5,227.6 L281.7,226.3 L281.7,225.8 L280.9,225.0 L280.4,223.2 L280.6,221.4 L281.2,220.5 L281.6,219.1 L280.8,218.6 L279.3,218.9 L277.5,218.8 L276.5,219.1 L274.8,216.8 L273.3,216.5 L270.1,216.7 L269.5,215.8 L268.9,215.6 L268.8,215.1 L269.1,214.1 L268.9,213.1 L268.3,212.5 L268.0,211.3 L266.7,211.1 L267.4,209.6 L267.7,207.7 L268.5,206.7 L269.4,206.0 L270.1,204.7 L271.7,204.3 L271.6,204.9 L270.1,205.2 L270.9,206.4 L270.9,207.7 L269.8,209.2 L270.8,211.3 L271.8,211.1 L272.4,209.3 L271.6,208.3 L271.5,206.4 L274.6,205.3 L274.3,204.1 L275.1,203.2 L276.0,205.1 L277.8,205.1 L279.4,206.6 L279.5,207.4 L281.8,207.5 L284.4,207.2 L285.9,208.4 L287.8,208.7 L289.2,207.9 L289.2,207.2 L292.3,207.1 L295.3,207.0 L293.2,207.8 L294.0,209.0 L296.0,209.2 L297.9,210.5 L298.3,212.6 L299.6,212.5 L300.6,213.2 L298.6,214.7 L298.4,215.6 L299.3,216.6 L298.6,217.1 L297.1,217.5 L297.2,218.7 L296.5,219.4 L298.2,221.4 Z" fill="#e7ece6" stroke="#9ca89f" stroke-width="0.6" fill-rule="evenodd" vector-effect="non-scaling-stroke"/>
      <path d="M308.7,230.0 L308.0,230.1 L306.7,229.9 L305.8,230.6 L304.7,231.1 L303.9,231.2 L303.6,231.7 L302.4,231.6 L300.9,230.3 L300.7,229.1 L300.1,227.8 L300.5,225.6 L301.2,224.7 L300.6,223.4 L299.7,223.1 L300.0,221.9 L299.5,221.3 L298.2,221.4 L296.5,219.4 L297.2,218.7 L297.1,217.5 L298.6,217.1 L299.3,216.6 L298.4,215.6 L298.6,214.7 L300.6,213.2 L302.2,214.1 L303.8,215.8 L303.9,217.2 L304.8,217.2 L306.1,218.5 L307.1,219.4 L306.7,221.8 L305.2,222.4 L305.3,223.0 L304.9,224.4 L306.0,226.3 L306.8,226.3 L307.1,227.8 L308.7,230.0 Z" fill="#e7ece6" stroke="#9ca89f" stroke-width="0.6" fill-rule="evenodd" vector-effect="non-scaling-stroke"/>
      <path d="M313.7,229.0 L312.3,228.4 L311.1,228.7 L310.1,228.4 L309.8,229.2 L310.2,229.7 L310.0,230.3 L308.7,230.0 L307.1,227.8 L306.8,226.3 L306.0,226.3 L304.9,224.4 L305.3,223.0 L305.2,222.4 L306.7,221.8 L307.1,219.4 L310.1,219.9 L310.4,219.5 L312.4,219.3 L315.1,220.0 L313.8,222.2 L314.0,224.0 L315.0,225.5 L314.5,226.7 L314.3,227.9 L313.7,229.0 Z" fill="#e7ece6" stroke="#9ca89f" stroke-width="0.6" fill-rule="evenodd" vector-effect="non-scaling-stroke"/>
      <path d="M320.9,224.1 L319.4,226.5 L318.6,228.5 L317.7,229.5 L316.5,229.6 L316.1,228.9 L315.6,228.8 L314.8,229.5 L313.7,229.0 L314.3,227.9 L314.5,226.7 L315.0,225.5 L314.0,224.0 L313.8,222.2 L315.1,220.0 L316.0,220.3 L317.8,220.9 L320.4,223.1 L320.9,224.1 Z M465.5,105.8 L466.6,106.5 L470.2,107.0 L469.0,108.8 L468.7,110.7 L468.0,111.1 L466.8,110.9 L466.9,111.5 L465.1,113.0 L465.1,114.2 L466.3,113.8 L467.1,114.9 L467.0,115.6 L467.7,116.6 L466.9,117.4 L467.5,119.4 L468.9,119.8 L468.6,120.9 L466.3,122.4 L461.4,121.7 L457.8,122.5 L457.5,124.1 L454.6,124.4 L451.8,123.3 L450.8,123.8 L446.2,122.6 L445.2,121.6 L446.5,120.1 L447.0,114.8 L444.4,112.1 L442.6,110.8 L438.8,109.8 L438.5,107.9 L441.8,107.3 L446.0,108.0 L445.2,105.0 L447.5,106.1 L453.3,104.1 L454.1,102.0 L456.3,101.4 L456.6,102.4 L457.8,102.4 L459.0,103.5 L460.7,104.7 L462.0,104.5 L464.2,105.7 L464.7,105.9 L465.5,105.8 Z M471.9,123.7 L473.5,122.7 L473.9,124.9 L473.1,127.0 L471.9,126.4 L471.4,124.7 L471.9,123.7 Z" fill="#e7ece6" stroke="#9ca89f" stroke-width="0.6" fill-rule="evenodd" vector-effect="non-scaling-stroke"/>
      <path d="M261.6,235.4 L261.9,237.4 L261.1,239.1 L258.4,241.8 L255.4,242.8 L253.9,245.1 L253.4,246.9 L252.0,247.9 L250.9,246.6 L249.9,246.3 L248.9,246.6 L248.8,245.6 L249.5,245.0 L249.2,243.9 L250.6,241.9 L250.0,240.8 L249.1,242.0 L247.6,240.9 L248.1,240.1 L247.7,237.8 L248.5,237.4 L249.0,235.7 L249.9,234.1 L249.8,233.0 L251.1,232.4 L252.9,231.4 L255.4,232.9 L255.8,232.8 L256.4,234.0 L258.6,234.3 L259.3,233.9 L260.5,234.8 L261.6,235.4 Z" fill="#e7ece6" stroke="#9ca89f" stroke-width="0.6" fill-rule="evenodd" vector-effect="non-scaling-stroke"/>
      <path d="M284.3,186.7 L285.6,186.9 L286.0,187.4 L285.4,188.1 L283.5,188.0 L282.0,188.1 L281.9,187.0 L282.2,186.6 L284.3,186.7 Z" fill="#e7ece6" stroke="#9ca89f" stroke-width="0.6" fill-rule="evenodd" vector-effect="non-scaling-stroke"/>
      <path d="M256.1,186.7 L257.8,187.0 L259.1,187.6 L259.5,188.3 L257.7,188.3 L257.0,188.8 L255.6,188.4 L254.2,187.4 L254.5,186.8 L255.5,186.6 L256.1,186.7 Z" fill="#e7ece6" stroke="#9ca89f" stroke-width="0.6" fill-rule="evenodd" vector-effect="non-scaling-stroke"/>
      <path d="M244.3,174.5 L246.5,174.6 L248.5,174.7 L250.8,175.6 L251.8,176.5 L254.1,176.2 L255.0,176.8 L257.1,178.4 L258.7,179.6 L259.5,179.6 L261.0,180.1 L260.8,180.9 L262.7,181.0 L264.6,182.0 L264.3,182.6 L262.6,183.0 L260.9,183.1 L259.2,182.9 L255.6,183.2 L257.3,181.7 L256.3,181.0 L254.7,180.8 L253.8,180.1 L253.2,178.6 L251.8,178.7 L249.5,178.0 L248.7,177.5 L245.4,177.1 L244.6,176.5 L245.5,175.9 L243.1,175.8 L241.3,177.1 L240.2,177.2 L239.9,177.8 L238.6,178.1 L237.6,177.8 L238.9,177.0 L239.4,176.1 L240.6,175.5 L241.8,175.0 L243.7,174.7 L244.3,174.5 Z" fill="#e7ece6" stroke="#9ca89f" stroke-width="0.6" fill-rule="evenodd" vector-effect="non-scaling-stroke"/>
      <path d="M295.8,206.9 L297.2,206.6 L297.8,206.7 L297.7,208.6 L295.6,208.9 L295.1,208.7 L295.9,207.9 L295.8,206.9 Z" fill="#e7ece6" stroke="#9ca89f" stroke-width="0.6" fill-rule="evenodd" vector-effect="non-scaling-stroke"/>
  </g>
  <path d="M256.1,186.7 L257.8,187.0 L259.1,187.6 L259.5,188.3 L257.7,188.3 L257.0,188.8 L255.6,188.4 L254.2,187.4 L254.5,186.8 L255.5,186.6 L256.1,186.7 Z" fill="#2f7d4f" stroke="#173f3a" stroke-width="1.8" fill-rule="evenodd" vector-effect="non-scaling-stroke"/>
  <circle cx="256.7" cy="187.6" r="4.8" fill="#c2563d" stroke="#ffffff" stroke-width="1.4"/>
</svg>
