<svg xmlns="http://www.w3.org/2000/svg" viewBox="682.3 78.2 217.7 113.7" role="img" aria-label="Wereldkaart met een land ingekleurd">
  <rect width="900" height="470" fill="#ffffff"/>
  <g>
      <path d="M896.8,49.4 L900.0,48.3 L900.0,50.0 L897.3,50.2 L896.8,49.4 Z M572.8,113.8 L571.6,115.4 L569.2,115.8 L566.7,118.5 L569.0,121.0 L568.7,122.8 L571.5,125.8 L571.5,125.8 L570.0,126.9 L569.5,127.5 L568.4,127.4 L566.7,125.8 L566.0,125.7 L564.4,125.1 L563.7,124.0 L561.3,123.5 L559.8,123.9 L559.4,123.4 L556.0,122.1 L552.3,121.7 L550.2,121.3 L549.9,121.6 L546.7,119.4 L543.8,118.4 L541.7,116.9 L543.5,116.4 L545.6,114.3 L544.2,113.2 L547.9,112.2 L547.8,111.6 L545.6,112.0 L545.6,110.9 L546.9,110.1 L549.3,109.9 L549.7,109.1 L549.2,107.6 L550.2,106.3 L550.2,105.5 L546.5,104.6 L545.0,104.7 L543.5,103.4 L541.6,103.9 L538.4,102.9 L538.4,102.4 L537.6,101.3 L535.6,101.2 L535.4,100.4 L536.0,99.8 L534.4,98.3 L531.8,98.6 L531.0,98.5 L530.4,99.1 L529.5,99.0 L529.5,99.0 L528.9,97.3 L528.3,96.4 L528.7,96.2 L530.8,96.3 L531.7,95.7 L531.0,95.0 L529.3,94.5 L529.5,94.1 L528.5,93.6 L526.9,91.9 L527.4,91.2 L527.2,90.0 L524.7,89.3 L523.4,89.6 L523.1,89.0 L520.4,88.3 L519.6,86.8 L519.4,85.5 L518.2,84.9 L519.3,84.1 L518.6,81.7 L520.3,80.2 L520.0,79.7 L520.0,79.7 L522.8,78.3 L520.2,77.0 L520.2,77.0 L525.5,73.7 L527.8,72.2 L528.8,70.8 L525.1,69.1 L526.1,67.4 L523.9,65.4 L525.5,63.2 L522.6,60.2 L524.9,58.2 L521.1,56.5 L521.5,54.7 L523.5,54.4 L527.8,53.4 L527.8,53.4 L530.3,52.5 L534.4,54.0 L541.3,54.7 L550.7,57.6 L552.6,58.9 L552.8,60.6 L550.0,62.0 L546.0,62.7 L534.8,60.7 L533.0,61.0 L537.0,62.9 L537.2,64.1 L537.4,66.8 L540.6,67.6 L542.5,68.3 L542.9,67.0 L541.3,65.9 L542.9,64.9 L549.0,66.5 L551.1,65.9 L549.4,64.0 L555.2,61.4 L557.5,61.6 L559.9,62.5 L561.3,60.7 L559.2,59.1 L560.5,57.6 L558.6,56.0 L565.6,56.8 L567.1,58.3 L563.9,58.6 L563.9,60.0 L565.9,60.9 L569.7,60.4 L570.3,58.7 L575.6,57.4 L584.3,55.2 L586.2,55.3 L583.7,56.9 L586.8,57.2 L588.6,56.3 L593.3,56.2 L597.0,55.1 L599.9,56.7 L602.7,55.0 L600.1,53.5 L601.4,52.6 L608.8,53.4 L612.2,54.2 L621.3,57.2 L623.0,55.8 L620.4,54.5 L620.3,53.9 L617.3,53.6 L618.1,52.4 L616.8,50.4 L616.7,49.5 L621.4,47.2 L623.0,44.8 L624.9,44.3 L631.5,45.0 L632.0,46.4 L629.6,48.5 L631.2,49.4 L632.0,51.2 L631.4,54.8 L634.2,56.4 L633.1,58.1 L628.2,61.8 L631.1,62.2 L632.1,61.3 L634.8,60.6 L635.5,59.3 L637.6,58.1 L636.2,56.6 L637.3,54.9 L634.6,54.6 L634.0,53.2 L636.0,50.6 L632.8,48.4 L637.2,46.7 L636.6,44.8 L637.9,44.8 L639.2,46.2 L638.2,48.7 L640.9,49.2 L639.8,47.3 L643.9,46.3 L649.1,46.2 L653.8,47.7 L651.5,45.5 L651.3,42.7 L655.6,42.2 L661.6,42.3 L667.1,41.9 L665.0,40.6 L667.9,38.9 L670.8,38.8 L675.6,37.5 L682.3,37.1 L683.1,36.4 L689.7,36.2 L691.7,36.8 L697.3,35.4 L701.9,35.4 L702.6,34.3 L705.0,33.2 L710.9,32.1 L715.2,33.0 L711.8,33.6 L717.4,34.0 L718.1,35.3 L720.4,34.7 L727.7,34.7 L733.3,36.0 L735.3,37.0 L734.7,38.3 L731.9,39.1 L725.4,40.5 L723.5,41.3 L726.6,41.7 L730.3,42.3 L732.5,41.8 L733.8,43.5 L734.9,42.8 L738.9,42.4 L746.9,42.9 L747.5,44.1 L758.0,44.5 L758.1,42.5 L763.5,42.9 L767.4,42.9 L771.5,44.3 L772.6,46.0 L771.2,47.1 L774.3,49.1 L778.2,50.2 L780.6,47.4 L784.6,48.6 L788.9,47.9 L793.7,48.7 L795.6,48.0 L799.7,48.3 L797.9,45.9 L801.2,44.8 L823.8,46.5 L825.9,48.0 L832.4,50.0 L842.5,49.5 L847.5,50.0 L849.6,51.0 L849.3,52.9 L852.4,53.7 L855.7,53.2 L860.1,53.1 L864.9,53.6 L869.6,53.3 L873.9,55.6 L877.0,54.8 L875.0,53.1 L876.1,52.0 L884.1,52.7 L889.3,52.5 L896.5,53.8 L900.0,54.9 L900.0,65.3 L900.0,65.3 L896.8,66.5 L893.5,66.3 L895.8,67.7 L897.3,69.8 L898.4,70.5 L898.7,71.6 L898.1,72.3 L893.4,71.7 L886.4,73.7 L884.2,74.0 L880.4,75.9 L876.7,77.5 L875.8,78.6 L872.3,76.8 L865.7,78.9 L864.6,77.9 L862.2,79.0 L858.8,78.7 L858.0,80.4 L855.0,82.9 L855.1,84.0 L858.0,84.6 L857.6,88.4 L855.3,88.5 L854.3,90.6 L855.3,91.8 L850.9,93.1 L850.1,96.1 L846.3,96.7 L845.6,99.4 L842.0,101.8 L841.0,100.0 L840.0,96.2 L838.6,90.4 L839.8,86.8 L841.9,85.2 L842.0,84.0 L845.9,83.4 L850.4,80.1 L854.7,77.4 L859.2,75.4 L861.2,71.7 L858.1,71.9 L856.6,74.0 L850.3,76.9 L848.3,73.7 L841.8,74.6 L835.5,79.0 L837.6,80.6 L832.0,81.2 L828.2,81.5 L828.3,79.6 L824.5,79.2 L821.4,80.5 L813.7,80.1 L805.5,80.8 L797.4,85.9 L787.8,92.1 L791.8,92.4 L793.0,94.1 L795.4,94.6 L797.0,93.3 L799.8,93.5 L803.4,96.4 L803.4,98.6 L801.5,101.2 L801.3,104.3 L800.2,108.5 L796.4,112.3 L795.5,114.1 L792.2,117.1 L788.8,120.1 L787.2,121.7 L783.8,123.2 L782.3,123.2 L780.7,122.0 L777.3,123.9 L777.0,124.8 L777.0,124.8 L776.9,124.8 L776.9,124.8 L776.6,124.3 L776.6,124.3 L776.6,123.0 L777.9,122.9 L778.2,119.8 L777.6,117.6 L779.7,116.7 L782.7,117.1 L784.4,114.6 L785.3,111.7 L786.3,110.8 L787.6,108.4 L783.4,109.2 L781.3,110.2 L777.5,110.2 L776.5,107.8 L773.5,105.9 L769.1,105.1 L768.2,102.5 L767.3,100.9 L766.4,99.8 L764.9,97.2 L762.7,96.2 L758.9,95.4 L755.6,95.5 L752.5,96.0 L750.4,97.3 L751.8,97.9 L751.8,99.3 L750.5,100.2 L748.2,102.9 L748.2,104.1 L744.7,105.7 L741.7,104.7 L738.7,105.0 L737.4,104.1 L735.9,103.8 L732.2,105.6 L729.0,106.1 L726.7,106.7 L723.5,106.3 L721.2,106.3 L719.7,105.0 L717.2,103.7 L714.7,103.4 L711.6,103.7 L709.2,104.2 L705.6,103.1 L705.2,101.2 L702.2,100.5 L700.0,100.2 L697.2,99.1 L694.6,101.8 L695.6,103.3 L693.1,105.2 L689.5,104.5 L687.0,104.4 L685.4,103.2 L682.8,103.2 L680.6,102.3 L676.8,103.6 L672.0,105.8 L669.4,106.3 L668.4,106.5 L667.1,104.9 L663.9,105.2 L662.8,104.1 L661.0,103.6 L659.8,102.1 L658.5,101.7 L654.9,102.3 L651.4,100.8 L650.1,102.2 L644.5,95.6 L641.3,93.5 L642.2,92.7 L636.0,95.2 L633.6,95.3 L633.8,93.9 L630.6,93.0 L628.0,93.7 L627.2,90.9 L622.7,90.4 L620.4,91.5 L614.2,92.4 L612.9,93.1 L603.6,94.0 L602.4,94.9 L604.2,96.7 L601.8,97.3 L602.3,98.1 L599.9,99.3 L604.0,101.1 L603.3,102.4 L599.8,102.2 L599.1,103.0 L595.9,101.7 L591.9,101.7 L589.3,102.8 L586.3,101.8 L580.8,100.0 L576.9,100.0 L571.8,102.9 L571.4,104.8 L568.9,103.3 L566.9,106.1 L567.6,106.7 L566.2,108.6 L568.3,110.4 L570.1,110.3 L571.7,112.1 L571.5,113.4 L572.8,113.8 Z M684.4,23.4 L689.9,22.8 L694.7,24.2 L700.5,26.7 L699.8,29.0 L694.4,29.4 L687.4,28.6 L683.3,27.6 L681.4,25.7 L678.0,25.2 L684.4,23.4 Z M707.1,28.0 L713.4,29.5 L712.7,30.5 L698.6,31.5 L703.2,28.1 L705.2,27.8 L707.1,28.0 Z M797.1,36.2 L803.7,36.3 L812.7,37.7 L810.8,39.6 L801.5,39.6 L797.4,40.2 L792.4,38.5 L793.8,36.7 L797.1,36.2 Z M820.6,38.3 L826.8,38.9 L823.9,40.0 L819.9,39.7 L815.3,38.7 L815.9,37.9 L820.6,38.3 Z M799.7,43.4 L802.0,42.4 L805.2,42.1 L808.7,43.1 L809.0,43.8 L805.2,43.9 L800.1,43.6 L799.7,43.4 Z M562.1,24.6 L567.0,24.1 L570.8,24.1 L571.3,24.8 L572.7,24.1 L575.1,23.7 L578.8,24.3 L577.8,24.7 L574.5,25.0 L572.2,25.2 L571.9,25.7 L569.0,26.1 L566.3,25.5 L567.7,24.7 L562.1,24.6 Z M506.8,93.1 L502.2,93.2 L499.2,92.9 L499.7,91.7 L503.2,90.9 L505.8,91.3 L506.9,91.8 L506.6,92.5 L506.8,93.1 Z M583.8,42.4 L589.8,40.1 L589.1,39.0 L594.7,37.6 L602.9,35.9 L611.2,35.4 L615.5,34.4 L620.4,34.1 L622.1,35.1 L620.5,35.9 L611.6,37.2 L604.0,38.5 L596.2,41.0 L592.5,43.5 L588.5,46.0 L589.1,48.2 L593.8,50.3 L592.4,50.6 L584.2,50.2 L583.5,49.1 L579.0,48.4 L578.6,47.0 L581.2,46.4 L581.1,45.0 L586.1,42.8 L583.8,42.4 Z M807.3,94.8 L808.2,97.3 L808.1,99.9 L809.1,102.5 L811.6,107.1 L807.9,106.3 L806.4,110.0 L808.8,112.7 L808.8,114.5 L806.9,113.0 L805.2,115.0 L804.8,112.8 L805.0,110.2 L804.8,107.4 L805.3,105.4 L805.4,102.0 L804.0,99.4 L804.2,95.8 L806.5,94.6 L805.5,93.4 L806.6,93.0 L807.3,94.8 Z M12.7,59.5 L12.5,61.1 L14.2,61.8 L13.6,59.9 L20.4,60.3 L25.3,62.7 L22.8,63.9 L18.7,64.1 L18.6,66.7 L17.6,67.2 L15.3,67.2 L13.4,66.2 L10.0,65.5 L9.5,64.3 L6.9,63.9 L4.1,64.3 L2.7,63.3 L3.3,62.4 L0.3,63.0 L1.4,64.2 L0.0,65.3 L0.0,54.9 L6.1,56.9 L12.7,59.5 Z M3.3,49.9 L0.0,50.0 L0.0,48.3 L0.3,48.2 L2.4,48.2 L6.1,48.9 L5.8,49.3 L3.3,49.9 Z M533.6,115.0 L534.2,114.3 L536.0,114.9 L536.8,115.0 L537.2,115.5 L537.5,115.6 L537.6,115.8 L538.8,116.4 L541.3,116.3 L540.8,117.2 L538.1,117.7 L534.7,119.2 L533.3,118.6 L533.9,117.4 L531.1,116.6 L531.6,116.1 L534.0,115.3 L533.6,115.0 Z" fill="#e7ece6" stroke="#9ca89f" stroke-width="0.6" fill-rule="evenodd" vector-effect="non-scaling-stroke"/>
      <path d="M713.0,197.7 L710.7,197.4 L707.5,197.9 L705.9,200.0 L706.5,203.2 L704.2,202.0 L702.1,202.0 L702.4,200.0 L700.2,200.0 L700.0,202.9 L698.7,206.7 L697.9,209.0 L698.1,210.9 L699.7,211.0 L700.7,213.3 L701.1,215.6 L702.5,217.1 L704.1,217.4 L705.4,218.8 L704.5,219.8 L702.9,220.1 L702.7,218.8 L700.6,217.7 L700.2,218.1 L699.2,217.1 L698.8,215.8 L697.5,214.4 L696.3,213.1 L695.8,214.6 L695.4,213.2 L695.6,211.6 L696.4,209.1 L697.6,206.4 L699.0,203.9 L698.0,201.6 L698.0,200.4 L697.7,198.9 L696.1,196.8 L695.5,195.5 L696.3,195.0 L697.3,192.8 L696.2,191.0 L694.6,189.1 L693.4,186.8 L694.5,186.4 L695.6,183.5 L697.4,183.4 L698.9,182.3 L700.3,181.7 L701.4,182.5 L701.5,184.1 L703.2,184.2 L702.6,186.9 L702.6,189.3 L705.3,187.7 L706.0,188.2 L707.5,188.1 L708.0,187.2 L709.9,187.4 L711.8,189.5 L711.9,192.1 L714.0,194.3 L713.9,196.6 L713.0,197.7 Z" fill="#e7ece6" stroke="#9ca89f" stroke-width="0.6" fill-rule="evenodd" vector-effect="non-scaling-stroke"/>
      <path d="M718.5,197.9 L716.2,197.0 L715.1,198.8 L713.0,197.7 L713.9,196.6 L714.0,194.3 L711.9,192.1 L711.8,189.5 L709.9,187.4 L708.0,187.2 L707.5,188.1 L706.0,188.2 L705.3,187.7 L702.6,189.3 L702.6,186.9 L703.2,184.2 L701.5,184.1 L701.4,182.5 L700.3,181.7 L700.8,180.7 L703.0,179.0 L703.2,179.6 L704.5,179.7 L704.1,176.7 L705.4,176.3 L706.9,178.4 L708.0,180.8 L711.1,180.8 L712.1,183.1 L710.5,183.8 L709.7,184.7 L712.7,186.3 L714.8,189.3 L716.4,191.6 L718.3,193.5 L718.9,195.3 L718.5,197.9 Z" fill="#e7ece6" stroke="#9ca89f" stroke-width="0.6" fill-rule="evenodd" vector-effect="non-scaling-stroke"/>
      <path d="M700.3,181.7 L698.9,182.3 L697.4,183.4 L695.6,183.5 L694.5,186.4 L693.4,186.8 L694.6,189.1 L696.2,191.0 L697.3,192.8 L696.3,195.0 L695.5,195.5 L696.1,196.8 L697.7,198.9 L698.0,200.4 L698.0,201.6 L699.0,203.9 L697.6,206.4 L696.4,209.1 L696.1,207.1 L696.9,205.1 L696.1,203.6 L696.3,200.7 L695.3,199.4 L694.4,196.3 L694.0,193.0 L692.9,190.8 L691.3,192.1 L688.4,194.0 L687.0,193.7 L685.5,193.1 L686.3,189.9 L685.8,187.4 L683.9,184.4 L684.2,183.5 L682.7,183.2 L680.9,181.0 L680.8,178.9 L681.6,179.3 L681.7,177.4 L682.9,176.8 L682.7,175.7 L683.2,174.8 L683.3,172.1 L685.3,172.7 L686.4,170.6 L686.5,169.3 L687.9,167.1 L687.8,165.6 L691.0,163.8 L692.8,164.3 L692.6,162.7 L693.5,162.2 L693.3,161.2 L694.8,161.0 L695.6,162.5 L696.7,163.2 L696.8,165.2 L696.7,167.3 L694.3,169.5 L694.0,172.6 L696.7,172.2 L697.2,174.6 L698.8,175.1 L698.1,177.2 L700.0,178.2 L701.0,178.7 L702.9,177.9 L703.0,179.0 L700.8,180.7 L700.3,181.7 Z" fill="#e7ece6" stroke="#9ca89f" stroke-width="0.6" fill-rule="evenodd" vector-effect="non-scaling-stroke"/>
      <path d="M710.8,207.6 L713.0,206.6 L715.6,206.4 L714.5,204.8 L718.7,202.8 L719.0,199.7 L718.5,197.9 L718.9,195.3 L718.3,193.5 L716.4,191.6 L714.8,189.3 L712.7,186.3 L709.7,184.7 L710.5,183.8 L712.1,183.1 L711.1,180.8 L708.0,180.8 L706.9,178.4 L705.4,176.3 L706.8,175.7 L708.8,175.7 L711.2,175.4 L713.3,174.0 L714.5,175.0 L716.8,175.5 L716.4,177.0 L717.6,178.0 L720.1,178.7 L716.8,181.0 L714.7,183.4 L714.2,185.2 L716.1,188.0 L718.4,191.4 L720.7,193.0 L722.2,195.1 L723.3,199.9 L723.0,204.5 L720.9,206.3 L718.1,207.9 L716.0,210.1 L712.9,212.5 L712.0,210.9 L712.7,209.1 L710.8,207.6 Z" fill="#e7ece6" stroke="#9ca89f" stroke-width="0.6" fill-rule="evenodd" vector-effect="non-scaling-stroke"/>
      <path d="M777.0,124.8 L777.0,124.8 L777.0,124.8 L777.0,124.8 Z M776.6,124.3 L776.6,124.3 L776.9,124.8 L776.0,124.6 L774.9,125.5 L774.2,126.4 L774.3,128.3 L773.0,128.8 L772.5,129.3 L771.6,130.1 L769.9,130.5 L768.8,131.2 L768.8,132.3 L768.5,132.6 L769.5,133.0 L770.9,134.2 L770.5,134.8 L769.5,135.0 L767.7,135.1 L766.7,136.3 L765.6,136.2 L765.4,136.4 L764.2,135.9 L763.9,136.4 L763.2,136.6 L763.1,136.2 L762.5,135.9 L761.8,135.5 L762.5,134.3 L763.1,134.0 L762.8,133.6 L763.5,132.2 L763.3,131.7 L761.8,131.4 L760.7,130.7 L762.7,129.1 L765.5,127.7 L767.2,125.8 L768.4,126.6 L770.5,126.7 L770.1,125.3 L774.0,124.2 L775.0,122.8 L776.6,124.3 Z" fill="#e7ece6" stroke="#9ca89f" stroke-width="0.6" fill-rule="evenodd" vector-effect="non-scaling-stroke"/>
      <path d="M765.4,136.4 L765.6,136.2 L766.7,136.3 L767.7,135.1 L769.5,135.0 L770.5,134.8 L770.9,134.2 L773.0,137.3 L773.7,139.0 L773.7,142.0 L772.7,143.4 L770.5,143.9 L768.5,145.0 L766.2,145.2 L765.9,143.8 L766.4,141.8 L765.3,139.1 L767.2,138.7 L765.4,136.4 Z" fill="#e7ece6" stroke="#9ca89f" stroke-width="0.6" fill-rule="evenodd" vector-effect="non-scaling-stroke"/>
      <path d="M669.4,106.3 L672.0,105.8 L676.8,103.6 L680.6,102.3 L682.8,103.2 L685.4,103.2 L687.0,104.4 L689.5,104.5 L693.1,105.2 L695.6,103.3 L694.6,101.8 L697.2,99.1 L700.0,100.2 L702.2,100.5 L705.2,101.2 L705.6,103.1 L709.2,104.2 L711.6,103.7 L714.7,103.4 L717.2,103.7 L719.7,105.0 L721.2,106.3 L723.5,106.3 L726.7,106.7 L729.0,106.1 L732.2,105.6 L735.9,103.8 L737.4,104.1 L738.7,105.0 L741.7,104.7 L740.5,106.7 L738.7,109.3 L739.4,110.4 L740.8,110.0 L743.2,110.5 L745.2,109.5 L747.2,110.3 L749.4,112.2 L749.2,113.1 L747.2,112.8 L743.6,113.1 L741.8,113.9 L740.0,115.6 L736.2,116.6 L733.7,118.0 L731.1,117.5 L729.7,117.2 L728.4,118.9 L729.2,119.9 L729.6,120.8 L727.8,121.7 L726.0,123.1 L723.1,124.0 L719.4,124.1 L715.3,125.0 L712.4,126.4 L711.3,125.6 L708.3,125.6 L704.6,124.0 L702.1,123.6 L698.8,124.0 L693.6,123.4 L690.9,123.4 L689.4,121.9 L688.3,119.5 L686.7,119.2 L683.7,117.6 L680.3,117.2 L677.4,116.8 L676.5,115.6 L677.4,112.6 L675.7,110.5 L672.1,109.5 L670.0,108.1 L669.4,106.3 Z" fill="#e7ece6" stroke="#9ca89f" stroke-width="0.6" fill-rule="evenodd" vector-effect="non-scaling-stroke"/>
      <path d="M693.3,161.2 L693.5,162.2 L692.6,162.7 L692.8,164.3 L691.0,163.8 L687.8,165.6 L687.9,167.1 L686.5,169.3 L686.4,170.6 L685.3,172.7 L683.3,172.1 L683.2,174.8 L682.7,175.7 L682.9,176.8 L681.7,177.4 L680.4,173.3 L679.7,173.3 L679.3,175.0 L677.9,173.6 L678.7,172.1 L679.8,172.0 L680.9,169.8 L679.5,169.3 L677.2,169.4 L674.8,169.0 L674.6,167.2 L673.4,167.1 L671.4,165.9 L670.5,167.7 L672.3,169.1 L670.8,170.1 L670.2,171.0 L671.7,171.7 L671.3,173.3 L672.2,175.3 L672.6,177.4 L672.2,178.4 L670.5,178.3 L667.4,178.9 L667.6,180.8 L666.2,182.4 L662.7,184.1 L659.9,187.2 L658.0,188.9 L655.5,190.6 L655.5,191.8 L654.2,192.4 L652.0,193.3 L650.8,193.5 L650.1,195.5 L650.6,198.9 L650.7,201.0 L649.7,203.5 L649.6,208.0 L648.4,208.1 L647.2,210.1 L648.0,210.9 L645.7,211.7 L644.9,213.5 L643.8,214.2 L641.5,211.8 L640.3,208.1 L639.4,205.5 L638.5,204.2 L637.2,201.7 L636.5,198.5 L636.1,196.8 L633.8,193.2 L632.8,188.2 L632.1,184.8 L632.1,181.7 L631.6,179.2 L627.9,180.8 L626.2,180.5 L622.9,177.3 L624.1,176.4 L623.4,175.4 L620.4,173.1 L622.1,171.4 L627.6,171.4 L627.1,169.2 L625.7,167.8 L625.4,165.8 L623.8,164.7 L626.5,161.9 L629.4,162.1 L632.1,159.4 L633.6,156.7 L636.1,154.1 L636.0,152.2 L638.1,150.7 L636.1,149.4 L635.3,147.7 L634.4,145.4 L635.6,144.3 L639.4,144.9 L642.2,144.5 L644.6,142.3 L647.3,145.4 L647.0,147.5 L648.0,148.8 L647.9,150.2 L646.1,149.8 L646.8,152.7 L649.3,154.4 L652.8,156.2 L651.2,157.4 L650.2,159.8 L652.6,160.8 L655.0,162.1 L658.3,163.5 L661.7,163.9 L663.1,165.2 L665.1,165.5 L668.1,166.1 L670.2,166.0 L670.4,165.0 L670.1,163.3 L670.3,162.2 L671.8,161.7 L672.0,163.7 L672.1,164.2 L674.4,165.2 L675.9,164.8 L678.0,165.0 L680.1,164.9 L680.3,163.3 L679.2,162.5 L681.3,162.2 L683.5,160.2 L686.4,158.6 L688.5,159.2 L690.3,158.1 L691.5,159.7 L690.6,160.8 L693.3,161.2 Z" fill="#e7ece6" stroke="#9ca89f" stroke-width="0.6" fill-rule="evenodd" vector-effect="non-scaling-stroke"/>
      <path d="M723.7,187.5 L721.6,186.7 L721.6,184.4 L722.8,183.2 L725.5,182.5 L727.0,182.6 L727.5,183.6 L726.4,184.7 L725.8,186.2 L723.7,187.5 Z M650.6,124.4 L650.5,122.9 L652.2,122.3 L649.9,117.7 L654.9,116.7 L656.1,116.1 L658.0,111.4 L662.9,112.3 L664.3,111.1 L664.4,108.5 L666.5,108.2 L668.4,106.5 L669.4,106.3 L670.0,108.1 L672.1,109.5 L675.7,110.5 L677.4,112.6 L676.5,115.6 L677.4,116.8 L680.3,117.2 L683.7,117.6 L686.7,119.2 L688.3,119.5 L689.4,121.9 L690.9,123.4 L693.6,123.4 L698.8,124.0 L702.1,123.6 L704.6,124.0 L708.3,125.6 L711.3,125.6 L712.4,126.4 L715.3,125.0 L719.4,124.1 L723.1,124.0 L726.0,123.1 L727.8,121.7 L729.6,120.8 L729.2,119.9 L728.4,118.9 L729.7,117.2 L731.1,117.5 L733.7,118.0 L736.2,116.6 L740.0,115.6 L741.8,113.9 L743.6,113.1 L747.2,112.8 L749.2,113.1 L749.4,112.2 L747.2,110.3 L745.2,109.5 L743.2,110.5 L740.8,110.0 L739.4,110.4 L738.7,109.3 L740.5,106.7 L741.7,104.7 L744.7,105.7 L748.2,104.1 L748.2,102.9 L750.5,100.2 L751.8,99.3 L751.8,97.9 L750.4,97.3 L752.5,96.0 L755.6,95.5 L758.9,95.4 L762.7,96.2 L764.9,97.2 L766.4,99.8 L767.3,100.9 L768.2,102.5 L769.1,105.1 L773.5,105.9 L776.5,107.8 L777.5,110.2 L781.3,110.2 L783.4,109.2 L787.6,108.4 L786.3,110.8 L785.3,111.7 L784.4,114.6 L782.7,117.1 L779.7,116.7 L777.6,117.6 L778.2,119.8 L777.9,122.9 L776.6,123.0 L776.6,124.3 L775.0,122.8 L774.0,124.2 L770.1,125.3 L770.5,126.7 L768.4,126.6 L767.2,125.8 L765.5,127.7 L762.7,129.1 L760.7,130.7 L757.2,131.5 L755.3,132.7 L752.6,133.4 L754.0,132.2 L753.4,131.2 L755.4,129.5 L754.1,128.1 L751.9,129.0 L749.1,130.8 L747.6,132.5 L745.1,132.6 L743.8,133.9 L745.1,135.6 L747.2,136.0 L747.3,137.2 L749.3,138.0 L752.1,136.1 L754.3,137.1 L755.9,137.2 L756.3,138.6 L752.8,139.3 L751.6,140.7 L749.2,142.0 L747.9,143.8 L750.6,145.3 L751.6,147.8 L753.1,150.2 L754.8,152.2 L754.7,154.2 L753.2,154.9 L753.8,156.3 L755.2,157.1 L754.8,159.2 L754.2,161.3 L752.8,161.5 L751.0,164.4 L749.0,167.8 L746.6,170.9 L743.2,173.3 L739.7,175.5 L736.9,175.8 L735.4,177.0 L734.5,176.1 L733.1,177.4 L729.6,178.7 L727.0,179.1 L726.1,181.9 L724.7,182.0 L724.1,180.1 L724.7,179.1 L721.3,178.3 L720.1,178.7 L717.6,178.0 L716.4,177.0 L716.8,175.5 L714.5,175.0 L713.3,174.0 L711.2,175.4 L708.8,175.7 L706.8,175.7 L705.4,176.3 L704.1,176.7 L704.5,179.7 L703.2,179.6 L703.0,179.0 L702.9,177.9 L701.0,178.7 L700.0,178.2 L698.1,177.2 L698.8,175.1 L697.2,174.6 L696.7,172.2 L694.0,172.6 L694.3,169.5 L696.7,167.3 L696.8,165.2 L696.7,163.2 L695.6,162.5 L694.8,161.0 L693.3,161.2 L690.6,160.8 L691.5,159.7 L690.3,158.1 L688.5,159.2 L686.4,158.6 L683.5,160.2 L681.3,162.2 L679.2,162.5 L678.1,161.8 L676.8,161.7 L675.0,161.1 L673.7,161.8 L672.0,163.7 L671.8,161.7 L670.3,162.2 L667.4,162.0 L664.6,161.4 L662.5,160.2 L660.6,159.7 L659.7,158.4 L658.3,158.1 L655.8,156.4 L653.8,155.6 L652.8,156.2 L649.3,154.4 L646.8,152.7 L646.1,149.8 L647.9,150.2 L648.0,148.8 L647.0,147.5 L647.3,145.4 L644.6,142.3 L640.5,141.3 L639.7,139.3 L637.9,138.0 L637.5,137.3 L637.1,135.8 L637.2,134.8 L635.6,134.2 L634.8,134.5 L634.2,132.0 L634.9,131.4 L634.6,130.8 L636.9,129.6 L638.7,129.1 L641.3,129.4 L642.3,127.8 L645.5,127.5 L646.4,126.4 L650.3,125.0 L650.6,124.4 Z" fill="#e7ece6" stroke="#9ca89f" stroke-width="0.6" fill-rule="evenodd" vector-effect="non-scaling-stroke"/>
      <path d="M754.4,171.3 L752.9,175.5 L751.9,177.6 L750.6,175.4 L750.3,173.5 L751.7,170.9 L753.7,169.0 L754.9,169.7 L754.4,171.3 Z" fill="#e7ece6" stroke="#9ca89f" stroke-width="0.6" fill-rule="evenodd" vector-effect="non-scaling-stroke"/>
      <path d="M752.1,201.8 L750.8,199.8 L753.0,199.9 L753.8,200.9 L753.2,203.1 L752.1,201.8 Z M756.5,208.9 L757.1,208.2 L757.4,206.6 L758.7,206.4 L758.3,208.2 L760.2,205.7 L760.0,208.2 L759.1,209.0 L758.3,210.7 L757.5,211.4 L756.0,209.6 L756.5,208.9 Z M765.9,213.0 L766.2,214.8 L766.3,216.2 L765.5,218.6 L764.6,216.0 L763.4,217.3 L764.2,219.2 L763.5,220.4 L760.5,218.9 L759.8,217.0 L760.6,215.8 L759.0,214.5 L758.2,215.6 L757.1,215.5 L755.2,217.0 L754.8,216.2 L755.8,214.0 L757.4,213.3 L758.7,212.3 L759.6,213.5 L761.5,212.8 L761.9,211.6 L763.7,211.5 L763.5,209.5 L765.6,210.8 L765.8,212.1 L765.9,213.0 Z M746.3,210.7 L742.9,213.2 L744.2,211.3 L746.0,209.7 L747.5,207.9 L748.8,205.3 L749.2,207.4 L747.6,208.9 L746.3,210.7 Z M755.8,187.4 L755.4,188.5 L756.3,190.4 L755.6,192.5 L754.2,193.4 L753.8,195.5 L754.3,197.6 L755.6,197.9 L756.8,197.6 L759.9,199.0 L759.6,200.4 L760.5,201.1 L760.2,202.3 L758.2,201.0 L757.3,199.6 L756.7,200.6 L755.1,199.0 L752.8,199.4 L751.6,198.8 L751.7,197.7 L752.5,197.1 L751.7,196.5 L751.4,197.4 L750.2,195.9 L749.8,194.8 L749.7,192.3 L750.7,193.1 L751.0,189.0 L751.8,186.7 L753.3,186.7 L754.8,187.4 L755.6,186.7 L755.8,187.4 Z M755.1,205.2 L754.7,203.9 L756.2,204.8 L757.8,204.8 L757.8,205.8 L756.6,207.0 L755.0,207.7 L754.9,206.5 L755.1,205.2 Z M763.8,203.2 L764.5,206.2 L762.5,205.5 L762.6,206.3 L763.2,208.0 L762.0,208.5 L761.9,206.7 L761.1,206.6 L760.8,205.0 L762.2,205.2 L762.2,204.2 L760.7,202.2 L763.1,202.3 L763.8,203.2 Z" fill="#e7ece6" stroke="#9ca89f" stroke-width="0.6" fill-rule="evenodd" vector-effect="non-scaling-stroke"/>
      <path d="M804.7,132.7 L802.4,135.3 L802.4,138.0 L801.5,140.1 L801.9,141.4 L800.6,143.3 L797.4,144.5 L793.0,144.6 L789.5,147.6 L787.8,146.6 L787.7,144.7 L783.4,145.2 L780.4,146.5 L777.5,146.5 L780.0,148.4 L778.3,152.9 L776.7,154.0 L775.5,153.0 L776.1,150.6 L774.5,149.9 L773.5,148.1 L775.9,147.3 L777.2,145.6 L779.7,144.3 L781.5,142.5 L786.5,141.7 L789.2,142.2 L791.8,137.6 L793.5,138.8 L797.1,136.2 L798.6,135.2 L800.1,132.0 L799.7,129.1 L800.8,127.4 L803.4,127.0 L804.8,130.6 L804.7,132.7 Z M811.5,120.2 L813.3,119.1 L813.9,122.0 L810.1,122.8 L808.0,125.3 L804.0,123.6 L802.7,126.4 L799.9,126.5 L799.5,123.9 L800.8,121.9 L803.5,121.7 L804.2,118.1 L804.9,116.1 L807.9,118.8 L809.8,119.7 L811.5,120.2 Z M780.9,147.6 L782.3,146.1 L783.7,146.4 L784.8,145.3 L786.6,145.8 L786.9,146.7 L785.5,148.3 L784.5,147.5 L783.2,148.1 L782.5,149.6 L780.9,148.9 L780.9,147.6 Z" fill="#e7ece6" stroke="#9ca89f" stroke-width="0.6" fill-rule="evenodd" vector-effect="non-scaling-stroke"/>
  </g>
  <path d="M804.7,132.7 L802.4,135.3 L802.4,138.0 L801.5,140.1 L801.9,141.4 L800.6,143.3 L797.4,144.5 L793.0,144.6 L789.5,147.6 L787.8,146.6 L787.7,144.7 L783.4,145.2 L780.4,146.5 L777.5,146.5 L780.0,148.4 L778.3,152.9 L776.7,154.0 L775.5,153.0 L776.1,150.6 L774.5,149.9 L773.5,148.1 L775.9,147.3 L777.2,145.6 L779.7,144.3 L781.5,142.5 L786.5,141.7 L789.2,142.2 L791.8,137.6 L793.5,138.8 L797.1,136.2 L798.6,135.2 L800.1,132.0 L799.7,129.1 L800.8,127.4 L803.4,127.0 L804.8,130.6 L804.7,132.7 Z M811.5,120.2 L813.3,119.1 L813.9,122.0 L810.1,122.8 L808.0,125.3 L804.0,123.6 L802.7,126.4 L799.9,126.5 L799.5,123.9 L800.8,121.9 L803.5,121.7 L804.2,118.1 L804.9,116.1 L807.9,118.8 L809.8,119.7 L811.5,120.2 Z M780.9,147.6 L782.3,146.1 L783.7,146.4 L784.8,145.3 L786.6,145.8 L786.9,146.7 L785.5,148.3 L784.5,147.5 L783.2,148.1 L782.5,149.6 L780.9,148.9 L780.9,147.6 Z" fill="#2f7d4f" stroke="#173f3a" stroke-width="1.8" fill-rule="evenodd" vector-effect="non-scaling-stroke"/>
  <circle cx="796.1" cy="140.6" r="4.8" fill="#c2563d" stroke="#ffffff" stroke-width="1.4"/>
</svg>
