<svg xmlns="http://www.w3.org/2000/svg" viewBox="633.0 147.6 153.2 80" role="img" aria-label="Wereldkaart met een land ingekleurd">
  <rect width="900" height="470" fill="#ffffff"/>
  <g>
      <path d="M802.5,241.8 L802.5,250.3 L802.6,258.8 L800.4,256.7 L797.8,256.1 L797.2,256.9 L794.0,257.0 L795.1,254.8 L796.7,254.1 L796.0,251.3 L794.8,249.1 L790.0,246.9 L787.9,246.7 L784.2,244.2 L783.4,245.5 L782.5,245.7 L781.9,244.8 L781.9,243.6 L780.0,242.4 L782.7,241.4 L784.5,241.5 L784.2,240.8 L780.6,240.8 L779.6,239.2 L777.4,238.7 L776.3,237.4 L779.7,236.8 L781.0,236.0 L785.0,237.0 L785.4,238.0 L786.1,242.2 L788.6,243.8 L790.7,241.0 L793.6,239.4 L795.8,239.4 L798.0,240.4 L799.8,241.3 L802.5,241.8 Z M762.4,258.2 L762.7,258.7 L762.7,259.5 L761.1,261.5 L758.9,262.1 L758.6,261.7 L758.9,260.9 L760.0,259.3 L762.4,258.2 Z M785.5,253.0 L785.3,251.0 L785.7,250.1 L786.2,249.2 L786.8,250.0 L786.8,251.2 L785.5,253.0 Z M744.7,224.2 L743.3,226.6 L745.1,229.0 L744.7,230.2 L747.5,232.6 L744.5,233.0 L743.7,234.7 L743.8,237.1 L741.4,238.9 L741.3,241.5 L740.4,245.5 L740.0,244.5 L737.2,245.7 L736.2,244.1 L734.4,244.0 L733.1,243.1 L730.2,244.1 L729.3,242.8 L727.6,243.0 L725.6,242.7 L725.2,239.2 L723.9,238.4 L722.7,236.2 L722.4,233.9 L722.7,231.5 L724.2,229.8 L724.6,231.5 L726.3,233.0 L727.9,232.5 L729.5,232.6 L731.0,231.3 L732.1,231.1 L734.5,231.8 L736.6,231.3 L737.8,227.6 L738.8,226.7 L739.7,223.8 L742.5,223.8 L744.7,224.2 Z M773.4,242.3 L776.2,243.1 L777.1,245.1 L775.0,244.0 L772.9,243.8 L771.5,244.0 L769.7,243.9 L770.3,242.4 L773.4,242.3 Z M767.2,244.9 L765.5,244.4 L765.0,243.3 L767.5,243.2 L768.1,244.0 L767.2,244.9 Z M769.8,229.3 L770.0,230.7 L771.5,231.0 L771.7,232.0 L771.6,234.3 L770.3,234.1 L769.9,235.7 L770.9,237.0 L770.3,237.3 L769.2,235.7 L768.5,232.4 L769.0,230.3 L769.8,229.3 Z M757.3,232.7 L760.2,232.6 L762.7,230.7 L763.1,231.3 L761.1,233.9 L759.2,234.4 L756.8,233.9 L752.6,234.0 L750.5,234.4 L750.1,236.4 L752.3,238.7 L753.7,237.5 L758.4,236.6 L758.1,237.8 L757.1,237.4 L756.0,239.0 L753.8,240.0 L756.1,243.3 L755.7,244.2 L757.9,247.2 L757.9,248.9 L756.6,249.7 L755.6,248.8 L756.8,246.7 L754.3,247.7 L753.7,246.9 L754.0,245.9 L752.2,244.4 L752.4,241.9 L750.8,242.7 L751.0,245.7 L751.1,249.4 L749.5,249.8 L748.4,249.0 L749.1,246.6 L748.7,244.1 L747.7,244.1 L746.9,242.3 L748.0,240.6 L748.3,238.5 L749.6,234.6 L750.1,233.5 L752.2,231.6 L754.2,232.4 L757.3,232.7 Z M750.7,261.8 L747.4,260.0 L749.8,259.4 L751.1,260.2 L751.9,261.0 L751.8,261.7 L750.7,261.8 Z M753.4,257.3 L755.0,257.1 L757.3,256.1 L756.9,257.6 L753.1,258.3 L749.8,258.0 L749.8,257.1 L751.8,256.5 L753.4,257.3 Z M745.7,256.8 L747.2,256.6 L747.8,257.7 L744.9,258.3 L743.2,258.6 L741.9,258.6 L742.7,257.1 L744.1,257.1 L744.8,256.1 L745.7,256.8 Z M721.2,251.8 L721.6,252.7 L726.3,253.0 L726.9,251.9 L731.5,253.1 L732.4,254.8 L736.2,255.3 L739.3,256.9 L736.4,257.9 L733.7,256.8 L731.4,256.9 L728.8,256.7 L726.5,256.2 L723.6,255.2 L721.7,255.0 L720.7,255.3 L716.1,254.2 L715.7,253.1 L713.4,252.9 L715.1,250.4 L718.2,250.5 L720.2,251.6 L721.2,251.8 Z M710.9,237.8 L711.3,239.7 L712.2,241.1 L714.1,241.3 L715.3,243.0 L714.6,246.2 L714.5,250.3 L711.8,250.3 L709.7,248.2 L706.5,246.0 L705.4,244.4 L703.5,242.3 L702.3,240.4 L700.4,236.7 L698.2,234.5 L697.4,232.3 L696.5,230.2 L694.2,228.6 L692.9,226.4 L691.1,224.9 L688.5,222.0 L688.2,220.7 L689.8,220.8 L693.7,221.3 L695.9,223.9 L697.9,225.6 L699.2,226.7 L701.6,229.5 L704.1,229.6 L706.2,231.3 L707.7,233.5 L709.6,234.7 L708.6,236.9 L710.0,237.8 L710.9,237.8 Z" fill="#e7ece6" stroke="#9ca89f" stroke-width="0.6" fill-rule="evenodd" vector-effect="non-scaling-stroke"/>
      <path d="M706.5,203.2 L705.9,200.0 L707.5,197.9 L710.7,197.4 L713.0,197.7 L715.1,198.8 L716.2,197.0 L718.5,197.9 L719.0,199.7 L718.7,202.8 L714.5,204.8 L715.6,206.4 L713.0,206.6 L710.8,207.6 L708.7,207.2 L707.7,205.9 L706.5,203.2 Z" fill="#e7ece6" stroke="#9ca89f" stroke-width="0.6" fill-rule="evenodd" vector-effect="non-scaling-stroke"/>
      <path d="M713.0,197.7 L710.7,197.4 L707.5,197.9 L705.9,200.0 L706.5,203.2 L704.2,202.0 L702.1,202.0 L702.4,200.0 L700.2,200.0 L700.0,202.9 L698.7,206.7 L697.9,209.0 L698.1,210.9 L699.7,211.0 L700.7,213.3 L701.1,215.6 L702.5,217.1 L704.1,217.4 L705.4,218.8 L704.5,219.8 L702.9,220.1 L702.7,218.8 L700.6,217.7 L700.2,218.1 L699.2,217.1 L698.8,215.8 L697.5,214.4 L696.3,213.1 L695.8,214.6 L695.4,213.2 L695.6,211.6 L696.4,209.1 L697.6,206.4 L699.0,203.9 L698.0,201.6 L698.0,200.4 L697.7,198.9 L696.1,196.8 L695.5,195.5 L696.3,195.0 L697.3,192.8 L696.2,191.0 L694.6,189.1 L693.4,186.8 L694.5,186.4 L695.6,183.5 L697.4,183.4 L698.9,182.3 L700.3,181.7 L701.4,182.5 L701.5,184.1 L703.2,184.2 L702.6,186.9 L702.6,189.3 L705.3,187.7 L706.0,188.2 L707.5,188.1 L708.0,187.2 L709.9,187.4 L711.8,189.5 L711.9,192.1 L714.0,194.3 L713.9,196.6 L713.0,197.7 Z" fill="#e7ece6" stroke="#9ca89f" stroke-width="0.6" fill-rule="evenodd" vector-effect="non-scaling-stroke"/>
      <path d="M718.5,197.9 L716.2,197.0 L715.1,198.8 L713.0,197.7 L713.9,196.6 L714.0,194.3 L711.9,192.1 L711.8,189.5 L709.9,187.4 L708.0,187.2 L707.5,188.1 L706.0,188.2 L705.3,187.7 L702.6,189.3 L702.6,186.9 L703.2,184.2 L701.5,184.1 L701.4,182.5 L700.3,181.7 L700.8,180.7 L703.0,179.0 L703.2,179.6 L704.5,179.7 L704.1,176.7 L705.4,176.3 L706.9,178.4 L708.0,180.8 L711.1,180.8 L712.1,183.1 L710.5,183.8 L709.7,184.7 L712.7,186.3 L714.8,189.3 L716.4,191.6 L718.3,193.5 L718.9,195.3 L718.5,197.9 Z" fill="#e7ece6" stroke="#9ca89f" stroke-width="0.6" fill-rule="evenodd" vector-effect="non-scaling-stroke"/>
      <path d="M700.3,181.7 L698.9,182.3 L697.4,183.4 L695.6,183.5 L694.5,186.4 L693.4,186.8 L694.6,189.1 L696.2,191.0 L697.3,192.8 L696.3,195.0 L695.5,195.5 L696.1,196.8 L697.7,198.9 L698.0,200.4 L698.0,201.6 L699.0,203.9 L697.6,206.4 L696.4,209.1 L696.1,207.1 L696.9,205.1 L696.1,203.6 L696.3,200.7 L695.3,199.4 L694.4,196.3 L694.0,193.0 L692.9,190.8 L691.3,192.1 L688.4,194.0 L687.0,193.7 L685.5,193.1 L686.3,189.9 L685.8,187.4 L683.9,184.4 L684.2,183.5 L682.7,183.2 L680.9,181.0 L680.8,178.9 L681.6,179.3 L681.7,177.4 L682.9,176.8 L682.7,175.7 L683.2,174.8 L683.3,172.1 L685.3,172.7 L686.4,170.6 L686.5,169.3 L687.9,167.1 L687.8,165.6 L691.0,163.8 L692.8,164.3 L692.6,162.7 L693.5,162.2 L693.3,161.2 L694.8,161.0 L695.6,162.5 L696.7,163.2 L696.8,165.2 L696.7,167.3 L694.3,169.5 L694.0,172.6 L696.7,172.2 L697.2,174.6 L698.8,175.1 L698.1,177.2 L700.0,178.2 L701.0,178.7 L702.9,177.9 L703.0,179.0 L700.8,180.7 L700.3,181.7 Z" fill="#e7ece6" stroke="#9ca89f" stroke-width="0.6" fill-rule="evenodd" vector-effect="non-scaling-stroke"/>
      <path d="M710.8,207.6 L713.0,206.6 L715.6,206.4 L714.5,204.8 L718.7,202.8 L719.0,199.7 L718.5,197.9 L718.9,195.3 L718.3,193.5 L716.4,191.6 L714.8,189.3 L712.7,186.3 L709.7,184.7 L710.5,183.8 L712.1,183.1 L711.1,180.8 L708.0,180.8 L706.9,178.4 L705.4,176.3 L706.8,175.7 L708.8,175.7 L711.2,175.4 L713.3,174.0 L714.5,175.0 L716.8,175.5 L716.4,177.0 L717.6,178.0 L720.1,178.7 L716.8,181.0 L714.7,183.4 L714.2,185.2 L716.1,188.0 L718.4,191.4 L720.7,193.0 L722.2,195.1 L723.3,199.9 L723.0,204.5 L720.9,206.3 L718.1,207.9 L716.0,210.1 L712.9,212.5 L712.0,210.9 L712.7,209.1 L710.8,207.6 Z" fill="#e7ece6" stroke="#9ca89f" stroke-width="0.6" fill-rule="evenodd" vector-effect="non-scaling-stroke"/>
      <path d="M693.3,161.2 L693.5,162.2 L692.6,162.7 L692.8,164.3 L691.0,163.8 L687.8,165.6 L687.9,167.1 L686.5,169.3 L686.4,170.6 L685.3,172.7 L683.3,172.1 L683.2,174.8 L682.7,175.7 L682.9,176.8 L681.7,177.4 L680.4,173.3 L679.7,173.3 L679.3,175.0 L677.9,173.6 L678.7,172.1 L679.8,172.0 L680.9,169.8 L679.5,169.3 L677.2,169.4 L674.8,169.0 L674.6,167.2 L673.4,167.1 L671.4,165.9 L670.5,167.7 L672.3,169.1 L670.8,170.1 L670.2,171.0 L671.7,171.7 L671.3,173.3 L672.2,175.3 L672.6,177.4 L672.2,178.4 L670.5,178.3 L667.4,178.9 L667.6,180.8 L666.2,182.4 L662.7,184.1 L659.9,187.2 L658.0,188.9 L655.5,190.6 L655.5,191.8 L654.2,192.4 L652.0,193.3 L650.8,193.5 L650.1,195.5 L650.6,198.9 L650.7,201.0 L649.7,203.5 L649.6,208.0 L648.4,208.1 L647.2,210.1 L648.0,210.9 L645.7,211.7 L644.9,213.5 L643.8,214.2 L641.5,211.8 L640.3,208.1 L639.4,205.5 L638.5,204.2 L637.2,201.7 L636.5,198.5 L636.1,196.8 L633.8,193.2 L632.8,188.2 L632.1,184.8 L632.1,181.7 L631.6,179.2 L627.9,180.8 L626.2,180.5 L622.9,177.3 L624.1,176.4 L623.4,175.4 L620.4,173.1 L622.1,171.4 L627.6,171.4 L627.1,169.2 L625.7,167.8 L625.4,165.8 L623.8,164.7 L626.5,161.9 L629.4,162.1 L632.1,159.4 L633.6,156.7 L636.1,154.1 L636.0,152.2 L638.1,150.7 L636.1,149.4 L635.3,147.7 L634.4,145.4 L635.6,144.3 L639.4,144.9 L642.2,144.5 L644.6,142.3 L647.3,145.4 L647.0,147.5 L648.0,148.8 L647.9,150.2 L646.1,149.8 L646.8,152.7 L649.3,154.4 L652.8,156.2 L651.2,157.4 L650.2,159.8 L652.6,160.8 L655.0,162.1 L658.3,163.5 L661.7,163.9 L663.1,165.2 L665.1,165.5 L668.1,166.1 L670.2,166.0 L670.4,165.0 L670.1,163.3 L670.3,162.2 L671.8,161.7 L672.0,163.7 L672.1,164.2 L674.4,165.2 L675.9,164.8 L678.0,165.0 L680.1,164.9 L680.3,163.3 L679.2,162.5 L681.3,162.2 L683.5,160.2 L686.4,158.6 L688.5,159.2 L690.3,158.1 L691.5,159.7 L690.6,160.8 L693.3,161.2 Z" fill="#e7ece6" stroke="#9ca89f" stroke-width="0.6" fill-rule="evenodd" vector-effect="non-scaling-stroke"/>
      <path d="M681.7,177.4 L681.6,179.3 L680.8,178.9 L680.9,181.0 L680.2,179.7 L680.1,178.3 L679.6,177.1 L678.5,175.6 L676.2,175.5 L676.5,176.5 L675.7,178.0 L674.6,177.5 L674.3,177.9 L673.5,177.6 L672.6,177.4 L672.2,175.3 L671.3,173.3 L671.7,171.7 L670.2,171.0 L670.8,170.1 L672.3,169.1 L670.5,167.7 L671.4,165.9 L673.4,167.1 L674.6,167.2 L674.8,169.0 L677.2,169.4 L679.5,169.3 L680.9,169.8 L679.8,172.0 L678.7,172.1 L677.9,173.6 L679.3,175.0 L679.7,173.3 L680.4,173.3 L681.7,177.4 Z" fill="#e7ece6" stroke="#9ca89f" stroke-width="0.6" fill-rule="evenodd" vector-effect="non-scaling-stroke"/>
      <path d="M679.2,162.5 L680.3,163.3 L680.1,164.9 L678.0,165.0 L675.9,164.8 L674.4,165.2 L672.1,164.2 L672.0,163.7 L673.7,161.8 L675.0,161.1 L676.8,161.7 L678.1,161.8 L679.2,162.5 Z" fill="#e7ece6" stroke="#9ca89f" stroke-width="0.6" fill-rule="evenodd" vector-effect="non-scaling-stroke"/>
      <path d="M670.3,162.2 L670.1,163.3 L670.4,165.0 L670.2,166.0 L668.1,166.1 L665.1,165.5 L663.1,165.2 L661.7,163.9 L658.3,163.5 L655.0,162.1 L652.6,160.8 L650.2,159.8 L651.2,157.4 L652.8,156.2 L653.8,155.6 L655.8,156.4 L658.3,158.1 L659.7,158.4 L660.6,159.7 L662.5,160.2 L664.6,161.4 L667.4,162.0 L670.3,162.2 Z" fill="#e7ece6" stroke="#9ca89f" stroke-width="0.6" fill-rule="evenodd" vector-effect="non-scaling-stroke"/>
      <path d="M644.6,142.3 L642.2,144.5 L639.4,144.9 L635.6,144.3 L634.4,145.4 L635.3,147.7 L636.1,149.4 L638.1,150.7 L636.0,152.2 L636.1,154.1 L633.6,156.7 L632.1,159.4 L629.4,162.1 L626.5,161.9 L623.8,164.7 L625.4,165.8 L625.7,167.8 L627.1,169.2 L627.6,171.4 L622.1,171.4 L620.4,173.1 L618.6,172.5 L617.9,170.6 L615.9,168.6 L611.3,169.1 L607.3,169.2 L603.7,169.5 L604.7,166.5 L608.3,165.1 L608.1,163.9 L606.9,163.5 L606.8,161.2 L604.4,160.1 L603.4,158.5 L602.2,157.1 L606.4,158.4 L608.9,158.1 L610.4,158.4 L610.9,157.8 L612.6,158.0 L615.9,157.0 L616.0,154.7 L617.3,153.3 L619.2,153.3 L619.5,152.5 L621.4,152.2 L622.3,152.4 L623.3,151.7 L623.2,150.1 L624.2,148.6 L625.8,147.9 L624.8,146.2 L627.2,146.3 L627.9,145.3 L627.8,144.3 L629.0,143.2 L628.7,141.9 L628.2,140.8 L629.6,139.7 L632.3,139.1 L635.2,138.8 L636.4,138.3 L637.9,138.0 L639.7,139.3 L640.5,141.3 L644.6,142.3 Z" fill="#e7ece6" stroke="#9ca89f" stroke-width="0.6" fill-rule="evenodd" vector-effect="non-scaling-stroke"/>
      <path d="M616.3,137.4 L617.7,137.5 L619.6,138.0 L620.3,138.3 L622.1,137.5 L623.0,138.0 L623.8,136.8 L625.3,136.9 L625.7,136.5 L625.9,135.4 L627.0,134.5 L628.4,135.1 L628.1,135.9 L628.9,136.0 L628.6,138.2 L629.6,139.1 L630.5,138.5 L631.6,138.3 L633.2,137.1 L634.9,137.3 L637.5,137.3 L637.9,138.0 L636.4,138.3 L635.2,138.8 L632.3,139.1 L629.6,139.7 L628.2,140.8 L628.7,141.9 L629.0,143.2 L627.8,144.3 L627.9,145.3 L627.2,146.3 L624.8,146.2 L625.8,147.9 L624.2,148.6 L623.2,150.1 L623.3,151.7 L622.3,152.4 L621.4,152.2 L619.5,152.5 L619.2,153.3 L617.3,153.3 L616.0,154.7 L615.9,157.0 L612.6,158.0 L610.9,157.8 L610.4,158.4 L608.9,158.1 L606.4,158.4 L602.2,157.1 L604.5,154.7 L604.2,153.1 L602.4,152.6 L602.2,151.0 L601.3,148.9 L602.4,147.5 L601.3,147.1 L602.0,145.2 L603.0,141.9 L605.6,142.9 L607.5,142.6 L608.0,141.4 L610.0,141.0 L611.4,140.2 L611.9,138.1 L614.0,137.6 L614.4,136.7 L615.5,137.4 L616.3,137.4 Z" fill="#e7ece6" stroke="#9ca89f" stroke-width="0.6" fill-rule="evenodd" vector-effect="non-scaling-stroke"/>
      <path d="M654.5,215.4 L654.1,218.1 L653.0,218.8 L650.9,219.4 L649.7,217.3 L649.2,213.6 L650.4,209.3 L652.1,210.8 L653.3,212.6 L654.5,215.4 Z" fill="#e7ece6" stroke="#9ca89f" stroke-width="0.6" fill-rule="evenodd" vector-effect="non-scaling-stroke"/>
      <path d="M723.7,187.5 L721.6,186.7 L721.6,184.4 L722.8,183.2 L725.5,182.5 L727.0,182.6 L727.5,183.6 L726.4,184.7 L725.8,186.2 L723.7,187.5 Z M650.6,124.4 L650.5,122.9 L652.2,122.3 L649.9,117.7 L654.9,116.7 L656.1,116.1 L658.0,111.4 L662.9,112.3 L664.3,111.1 L664.4,108.5 L666.5,108.2 L668.4,106.5 L669.4,106.3 L670.0,108.1 L672.1,109.5 L675.7,110.5 L677.4,112.6 L676.5,115.6 L677.4,116.8 L680.3,117.2 L683.7,117.6 L686.7,119.2 L688.3,119.5 L689.4,121.9 L690.9,123.4 L693.6,123.4 L698.8,124.0 L702.1,123.6 L704.6,124.0 L708.3,125.6 L711.3,125.6 L712.4,126.4 L715.3,125.0 L719.4,124.1 L723.1,124.0 L726.0,123.1 L727.8,121.7 L729.6,120.8 L729.2,119.9 L728.4,118.9 L729.7,117.2 L731.1,117.5 L733.7,118.0 L736.2,116.6 L740.0,115.6 L741.8,113.9 L743.6,113.1 L747.2,112.8 L749.2,113.1 L749.4,112.2 L747.2,110.3 L745.2,109.5 L743.2,110.5 L740.8,110.0 L739.4,110.4 L738.7,109.3 L740.5,106.7 L741.7,104.7 L744.7,105.7 L748.2,104.1 L748.2,102.9 L750.5,100.2 L751.8,99.3 L751.8,97.9 L750.4,97.3 L752.5,96.0 L755.6,95.5 L758.9,95.4 L762.7,96.2 L764.9,97.2 L766.4,99.8 L767.3,100.9 L768.2,102.5 L769.1,105.1 L773.5,105.9 L776.5,107.8 L777.5,110.2 L781.3,110.2 L783.4,109.2 L787.6,108.4 L786.3,110.8 L785.3,111.7 L784.4,114.6 L782.7,117.1 L779.7,116.7 L777.6,117.6 L778.2,119.8 L777.9,122.9 L776.6,123.0 L776.6,124.3 L775.0,122.8 L774.0,124.2 L770.1,125.3 L770.5,126.7 L768.4,126.6 L767.2,125.8 L765.5,127.7 L762.7,129.1 L760.7,130.7 L757.2,131.5 L755.3,132.7 L752.6,133.4 L754.0,132.2 L753.4,131.2 L755.4,129.5 L754.1,128.1 L751.9,129.0 L749.1,130.8 L747.6,132.5 L745.1,132.6 L743.8,133.9 L745.1,135.6 L747.2,136.0 L747.3,137.2 L749.3,138.0 L752.1,136.1 L754.3,137.1 L755.9,137.2 L756.3,138.6 L752.8,139.3 L751.6,140.7 L749.2,142.0 L747.9,143.8 L750.6,145.3 L751.6,147.8 L753.1,150.2 L754.8,152.2 L754.7,154.2 L753.2,154.9 L753.8,156.3 L755.2,157.1 L754.8,159.2 L754.2,161.3 L752.8,161.5 L751.0,164.4 L749.0,167.8 L746.6,170.9 L743.2,173.3 L739.7,175.5 L736.9,175.8 L735.4,177.0 L734.5,176.1 L733.1,177.4 L729.6,178.7 L727.0,179.1 L726.1,181.9 L724.7,182.0 L724.1,180.1 L724.7,179.1 L721.3,178.3 L720.1,178.7 L717.6,178.0 L716.4,177.0 L716.8,175.5 L714.5,175.0 L713.3,174.0 L711.2,175.4 L708.8,175.7 L706.8,175.7 L705.4,176.3 L704.1,176.7 L704.5,179.7 L703.2,179.6 L703.0,179.0 L702.9,177.9 L701.0,178.7 L700.0,178.2 L698.1,177.2 L698.8,175.1 L697.2,174.6 L696.7,172.2 L694.0,172.6 L694.3,169.5 L696.7,167.3 L696.8,165.2 L696.7,163.2 L695.6,162.5 L694.8,161.0 L693.3,161.2 L690.6,160.8 L691.5,159.7 L690.3,158.1 L688.5,159.2 L686.4,158.6 L683.5,160.2 L681.3,162.2 L679.2,162.5 L678.1,161.8 L676.8,161.7 L675.0,161.1 L673.7,161.8 L672.0,163.7 L671.8,161.7 L670.3,162.2 L667.4,162.0 L664.6,161.4 L662.5,160.2 L660.6,159.7 L659.7,158.4 L658.3,158.1 L655.8,156.4 L653.8,155.6 L652.8,156.2 L649.3,154.4 L646.8,152.7 L646.1,149.8 L647.9,150.2 L648.0,148.8 L647.0,147.5 L647.3,145.4 L644.6,142.3 L640.5,141.3 L639.7,139.3 L637.9,138.0 L637.5,137.3 L637.1,135.8 L637.2,134.8 L635.6,134.2 L634.8,134.5 L634.2,132.0 L634.9,131.4 L634.6,130.8 L636.9,129.6 L638.7,129.1 L641.3,129.4 L642.3,127.8 L645.5,127.5 L646.4,126.4 L650.3,125.0 L650.6,124.4 Z" fill="#e7ece6" stroke="#9ca89f" stroke-width="0.6" fill-rule="evenodd" vector-effect="non-scaling-stroke"/>
      <path d="M754.4,171.3 L752.9,175.5 L751.9,177.6 L750.6,175.4 L750.3,173.5 L751.7,170.9 L753.7,169.0 L754.9,169.7 L754.4,171.3 Z" fill="#e7ece6" stroke="#9ca89f" stroke-width="0.6" fill-rule="evenodd" vector-effect="non-scaling-stroke"/>
      <path d="M752.1,201.8 L750.8,199.8 L753.0,199.9 L753.8,200.9 L753.2,203.1 L752.1,201.8 Z M756.5,208.9 L757.1,208.2 L757.4,206.6 L758.7,206.4 L758.3,208.2 L760.2,205.7 L760.0,208.2 L759.1,209.0 L758.3,210.7 L757.5,211.4 L756.0,209.6 L756.5,208.9 Z M765.9,213.0 L766.2,214.8 L766.3,216.2 L765.5,218.6 L764.6,216.0 L763.4,217.3 L764.2,219.2 L763.5,220.4 L760.5,218.9 L759.8,217.0 L760.6,215.8 L759.0,214.5 L758.2,215.6 L757.1,215.5 L755.2,217.0 L754.8,216.2 L755.8,214.0 L757.4,213.3 L758.7,212.3 L759.6,213.5 L761.5,212.8 L761.9,211.6 L763.7,211.5 L763.5,209.5 L765.6,210.8 L765.8,212.1 L765.9,213.0 Z M746.3,210.7 L742.9,213.2 L744.2,211.3 L746.0,209.7 L747.5,207.9 L748.8,205.3 L749.2,207.4 L747.6,208.9 L746.3,210.7 Z M755.8,187.4 L755.4,188.5 L756.3,190.4 L755.6,192.5 L754.2,193.4 L753.8,195.5 L754.3,197.6 L755.6,197.9 L756.8,197.6 L759.9,199.0 L759.6,200.4 L760.5,201.1 L760.2,202.3 L758.2,201.0 L757.3,199.6 L756.7,200.6 L755.1,199.0 L752.8,199.4 L751.6,198.8 L751.7,197.7 L752.5,197.1 L751.7,196.5 L751.4,197.4 L750.2,195.9 L749.8,194.8 L749.7,192.3 L750.7,193.1 L751.0,189.0 L751.8,186.7 L753.3,186.7 L754.8,187.4 L755.6,186.7 L755.8,187.4 Z M755.1,205.2 L754.7,203.9 L756.2,204.8 L757.8,204.8 L757.8,205.8 L756.6,207.0 L755.0,207.7 L754.9,206.5 L755.1,205.2 Z M763.8,203.2 L764.5,206.2 L762.5,205.5 L762.6,206.3 L763.2,208.0 L762.0,208.5 L761.9,206.7 L761.1,206.6 L760.8,205.0 L762.2,205.2 L762.2,204.2 L760.7,202.2 L763.1,202.3 L763.8,203.2 Z" fill="#e7ece6" stroke="#9ca89f" stroke-width="0.6" fill-rule="evenodd" vector-effect="non-scaling-stroke"/>
      <path d="M700.2,218.1 L700.6,217.7 L702.7,218.8 L702.9,220.1 L704.5,219.8 L705.4,218.8 L705.9,219.0 L707.4,220.6 L708.5,222.3 L708.6,224.1 L708.3,225.3 L708.6,226.2 L708.8,227.7 L709.6,228.4 L710.6,230.7 L710.6,231.6 L708.8,231.8 L706.4,229.9 L703.5,227.8 L703.2,226.5 L701.7,224.7 L701.4,222.6 L700.5,221.1 L700.8,219.2 L700.2,218.1 Z M744.7,224.2 L742.5,223.8 L739.7,223.8 L738.8,226.7 L737.8,227.6 L736.6,231.3 L734.5,231.8 L732.1,231.1 L731.0,231.3 L729.5,232.6 L727.9,232.5 L726.3,233.0 L724.6,231.5 L724.2,229.8 L726.0,230.7 L727.9,230.2 L728.4,228.0 L729.5,227.5 L732.5,226.9 L734.3,224.8 L735.5,223.2 L736.6,224.5 L737.2,223.6 L738.4,223.7 L738.5,222.1 L738.6,220.8 L740.6,219.0 L741.8,216.9 L742.8,216.9 L744.1,218.2 L744.2,219.4 L745.9,220.1 L748.0,220.9 L747.8,221.9 L746.1,222.0 L746.5,223.3 L744.7,224.2 Z" fill="#e7ece6" stroke="#9ca89f" stroke-width="0.6" fill-rule="evenodd" vector-effect="non-scaling-stroke"/>
      <path d="M738.6,220.8 L738.5,222.1 L738.4,223.7 L737.2,223.6 L736.6,224.5 L735.5,223.2 L736.5,222.2 L738.6,220.8 Z" fill="#e7ece6" stroke="#9ca89f" stroke-width="0.6" fill-rule="evenodd" vector-effect="non-scaling-stroke"/>
      <path d="M804.7,132.7 L802.4,135.3 L802.4,138.0 L801.5,140.1 L801.9,141.4 L800.6,143.3 L797.4,144.5 L793.0,144.6 L789.5,147.6 L787.8,146.6 L787.7,144.7 L783.4,145.2 L780.4,146.5 L777.5,146.5 L780.0,148.4 L778.3,152.9 L776.7,154.0 L775.5,153.0 L776.1,150.6 L774.5,149.9 L773.5,148.1 L775.9,147.3 L777.2,145.6 L779.7,144.3 L781.5,142.5 L786.5,141.7 L789.2,142.2 L791.8,137.6 L793.5,138.8 L797.1,136.2 L798.6,135.2 L800.1,132.0 L799.7,129.1 L800.8,127.4 L803.4,127.0 L804.8,130.6 L804.7,132.7 Z M811.5,120.2 L813.3,119.1 L813.9,122.0 L810.1,122.8 L808.0,125.3 L804.0,123.6 L802.7,126.4 L799.9,126.5 L799.5,123.9 L800.8,121.9 L803.5,121.7 L804.2,118.1 L804.9,116.1 L807.9,118.8 L809.8,119.7 L811.5,120.2 Z M780.9,147.6 L782.3,146.1 L783.7,146.4 L784.8,145.3 L786.6,145.8 L786.9,146.7 L785.5,148.3 L784.5,147.5 L783.2,148.1 L782.5,149.6 L780.9,148.9 L780.9,147.6 Z" fill="#e7ece6" stroke="#9ca89f" stroke-width="0.6" fill-rule="evenodd" vector-effect="non-scaling-stroke"/>
  </g>
  <path d="M718.5,197.9 L716.2,197.0 L715.1,198.8 L713.0,197.7 L713.9,196.6 L714.0,194.3 L711.9,192.1 L711.8,189.5 L709.9,187.4 L708.0,187.2 L707.5,188.1 L706.0,188.2 L705.3,187.7 L702.6,189.3 L702.6,186.9 L703.2,184.2 L701.5,184.1 L701.4,182.5 L700.3,181.7 L700.8,180.7 L703.0,179.0 L703.2,179.6 L704.5,179.7 L704.1,176.7 L705.4,176.3 L706.9,178.4 L708.0,180.8 L711.1,180.8 L712.1,183.1 L710.5,183.8 L709.7,184.7 L712.7,186.3 L714.8,189.3 L716.4,191.6 L718.3,193.5 L718.9,195.3 L718.5,197.9 Z" fill="#2f7d4f" stroke="#173f3a" stroke-width="1.8" fill-rule="evenodd" vector-effect="non-scaling-stroke"/>
  <circle cx="706.3" cy="184.3" r="4.8" fill="#c2563d" stroke="#ffffff" stroke-width="1.4"/>
</svg>
