<svg xmlns="http://www.w3.org/2000/svg" viewBox="405.2 247.6 181.5 94.8" role="img" aria-label="Wereldkaart met een land ingekleurd">
  <rect width="900" height="470" fill="#ffffff"/>
  <g>
      <path d="M900.0,277.0 L900.0,278.2 L898.4,278.9 L896.8,279.4 L896.5,278.4 L897.7,277.9 L898.5,277.8 L900.0,277.0 Z M895.3,280.7 L895.9,280.3 L896.8,281.0 L896.4,282.4 L894.8,282.8 L893.5,282.4 L893.2,281.3 L894.2,280.4 L895.3,280.7 Z M0.5,276.8 L0.2,278.1 L0.0,278.2 L0.0,277.0 L0.5,276.8 Z" fill="#e7ece6" stroke="#9ca89f" stroke-width="0.6" fill-rule="evenodd" vector-effect="non-scaling-stroke"/>
      <path d="M534.8,237.5 L535.2,237.8 L544.2,243.1 L544.4,244.6 L548.0,247.2 L546.9,250.4 L547.0,251.9 L548.6,252.9 L548.7,253.5 L548.0,255.1 L548.1,255.9 L548.0,257.2 L548.8,258.8 L549.9,261.4 L550.8,261.9 L550.8,261.9 L548.8,263.5 L546.1,264.5 L544.6,264.4 L543.7,265.2 L541.9,265.3 L541.3,265.6 L538.3,264.9 L536.4,265.1 L535.7,261.5 L534.9,260.3 L534.3,259.6 L531.9,259.1 L530.5,258.3 L528.9,257.9 L527.9,257.4 L526.9,256.8 L526.9,256.8 L525.5,253.5 L524.1,252.0 L523.5,250.5 L523.8,249.2 L523.3,246.7 L524.4,246.6 L525.3,245.7 L526.3,244.3 L526.9,243.8 L526.9,242.9 L526.3,242.3 L526.2,241.3 L526.2,241.3 L526.9,241.0 L527.0,239.4 L526.0,238.0 L526.9,237.6 L529.7,237.7 L534.8,237.5 Z" fill="#e7ece6" stroke="#9ca89f" stroke-width="0.6" fill-rule="evenodd" vector-effect="non-scaling-stroke"/>
      <path d="M523.3,246.7 L523.8,249.2 L523.5,250.5 L524.1,252.0 L525.5,253.5 L526.9,256.8 L526.9,256.8 L525.9,256.5 L522.5,257.0 L521.8,257.3 L521.1,258.9 L521.7,260.1 L521.2,263.2 L520.9,265.8 L521.6,266.3 L523.4,267.3 L524.0,266.8 L524.2,269.6 L522.3,269.6 L521.3,268.2 L520.4,267.0 L518.5,266.7 L517.9,265.3 L516.4,266.1 L514.4,265.8 L513.5,264.6 L512.0,264.3 L510.8,264.4 L510.6,263.6 L509.8,263.5 L508.6,263.4 L507.1,263.8 L506.0,263.7 L505.4,263.9 L505.5,260.8 L504.7,259.9 L504.5,258.3 L504.9,256.7 L504.4,255.7 L504.3,254.0 L501.3,254.1 L501.5,253.1 L500.2,253.1 L500.1,253.6 L498.5,253.7 L497.9,255.2 L497.5,255.9 L496.2,255.5 L495.3,255.9 L493.7,256.1 L492.7,254.7 L492.2,253.9 L491.4,252.3 L490.8,250.3 L483.4,250.3 L482.6,250.6 L481.8,250.6 L480.8,250.9 L480.5,250.1 L481.1,249.8 L481.2,248.7 L481.6,248.0 L482.5,247.5 L483.1,247.7 L484.0,246.8 L485.4,246.8 L485.5,247.5 L486.5,248.0 L487.9,246.3 L489.4,245.1 L490.0,244.2 L489.9,242.1 L491.0,239.5 L492.2,238.2 L493.8,236.9 L494.1,236.1 L494.2,235.2 L494.6,234.2 L494.4,232.8 L494.7,230.5 L495.2,228.8 L496.0,227.4 L496.1,225.8 L496.4,224.0 L497.3,222.7 L498.7,221.9 L500.7,222.7 L502.3,223.7 L504.1,224.0 L506.0,224.5 L506.8,222.9 L507.1,222.7 L508.2,223.0 L511.0,221.7 L512.0,222.2 L512.8,222.1 L513.2,221.5 L514.1,221.3 L516.0,221.6 L517.6,221.6 L518.4,221.3 L519.9,223.5 L521.1,223.8 L521.7,223.4 L522.9,223.5 L524.3,223.0 L524.9,224.1 L527.1,225.8 L527.1,225.8 L526.9,228.9 L527.9,229.2 L527.1,230.2 L526.2,230.9 L525.2,232.2 L524.7,233.4 L524.5,235.5 L524.0,236.5 L523.9,238.5 L523.2,239.2 L523.1,240.8 L522.8,241.0 L522.6,242.4 L523.2,243.6 L523.3,246.7 Z" fill="#e7ece6" stroke="#9ca89f" stroke-width="0.6" fill-rule="evenodd" vector-effect="non-scaling-stroke"/>
      <path d="M490.9,309.6 L492.1,308.3 L493.0,309.0 L493.5,310.2 L494.6,310.3 L496.2,310.8 L497.5,310.7 L499.7,309.3 L499.7,299.7 L500.4,300.1 L501.9,302.5 L501.7,304.1 L502.2,305.1 L504.0,304.8 L505.3,303.6 L506.4,302.8 L507.1,301.6 L508.3,301.0 L509.3,301.3 L510.5,302.0 L512.6,302.2 L514.2,301.5 L514.4,300.7 L514.9,299.5 L516.2,299.3 L517.0,298.3 L517.8,296.6 L520.0,294.6 L523.6,292.7 L524.6,292.7 L525.8,293.2 L526.6,292.8 L528.0,293.1 L529.2,296.8 L529.8,298.6 L529.4,301.5 L529.6,302.5 L528.3,302.0 L527.6,302.2 L527.4,302.9 L526.7,303.9 L526.7,304.8 L528.2,306.2 L529.7,306.0 L530.2,304.8 L532.1,304.8 L531.5,306.7 L531.2,308.9 L530.5,310.1 L528.8,311.4 L528.3,311.8 L527.3,313.1 L526.6,314.4 L525.1,316.3 L522.3,319.0 L520.5,320.6 L518.7,321.8 L516.0,322.8 L514.8,322.9 L514.5,323.6 L512.9,323.2 L511.7,323.7 L509.0,323.2 L507.5,323.6 L506.4,323.4 L503.9,324.5 L501.7,324.9 L500.2,325.9 L499.0,325.9 L498.0,325.0 L497.1,324.9 L496.1,323.8 L495.9,324.1 L495.6,323.4 L495.6,321.9 L494.8,320.2 L495.6,319.7 L495.6,317.7 L493.9,315.2 L492.7,313.0 L492.7,313.0 L490.9,309.6 Z M522.4,310.6 L521.4,309.8 L520.2,310.3 L518.8,311.4 L517.5,313.0 L519.4,315.0 L520.3,314.8 L520.7,313.9 L522.1,313.5 L522.5,312.7 L523.3,311.4 L522.4,310.6 Z" fill="#e7ece6" stroke="#9ca89f" stroke-width="0.6" fill-rule="evenodd" vector-effect="non-scaling-stroke"/>
      <path d="M522.4,310.6 L523.3,311.4 L522.5,312.7 L522.1,313.5 L520.7,313.9 L520.3,314.8 L519.4,315.0 L517.5,313.0 L518.8,311.4 L520.2,310.3 L521.4,309.8 L522.4,310.6 Z" fill="#e7ece6" stroke="#9ca89f" stroke-width="0.6" fill-rule="evenodd" vector-effect="non-scaling-stroke"/>
      <path d="M528.0,293.1 L526.6,292.8 L525.8,293.2 L524.6,292.7 L523.6,292.7 L522.0,291.5 L520.1,291.1 L519.3,289.4 L519.3,288.5 L518.2,288.2 L515.4,285.4 L514.6,283.9 L514.1,283.4 L513.2,281.3 L516.0,281.6 L516.8,281.9 L517.6,281.8 L519.0,280.1 L521.2,278.0 L522.1,277.8 L522.4,276.9 L523.8,275.8 L525.7,275.5 L525.8,276.5 L527.9,276.4 L529.1,277.0 L529.6,277.6 L530.8,277.8 L532.1,278.6 L532.1,281.9 L531.6,283.8 L531.5,285.7 L531.9,286.5 L531.6,288.0 L531.3,288.3 L530.6,290.1 L528.0,293.1 Z" fill="#e7ece6" stroke="#9ca89f" stroke-width="0.6" fill-rule="evenodd" vector-effect="non-scaling-stroke"/>
      <path d="M523.6,292.7 L520.0,294.6 L517.8,296.6 L517.0,298.3 L516.2,299.3 L514.9,299.5 L514.4,300.7 L514.2,301.5 L512.6,302.2 L510.5,302.0 L509.3,301.3 L508.3,301.0 L507.1,301.6 L506.4,302.8 L505.3,303.6 L504.0,304.8 L502.2,305.1 L501.7,304.1 L501.9,302.5 L500.4,300.1 L499.7,299.7 L499.7,292.1 L502.2,292.0 L502.3,282.7 L504.1,282.6 L508.0,281.7 L508.9,282.7 L510.5,281.7 L511.3,281.7 L512.7,281.1 L513.2,281.3 L514.1,283.4 L514.6,283.9 L515.4,285.4 L518.2,288.2 L519.3,288.5 L519.3,289.4 L520.1,291.1 L522.0,291.5 L523.6,292.7 Z" fill="#e7ece6" stroke="#9ca89f" stroke-width="0.6" fill-rule="evenodd" vector-effect="non-scaling-stroke"/>
      <path d="M499.7,299.7 L499.7,309.3 L497.5,310.7 L496.2,310.8 L494.6,310.3 L493.5,310.2 L493.0,309.0 L492.1,308.3 L490.9,309.6 L489.0,307.6 L488.0,305.7 L487.5,303.2 L486.9,301.3 L486.0,297.3 L486.0,294.2 L485.6,292.7 L484.7,291.7 L483.4,289.5 L482.1,286.4 L481.5,284.7 L479.5,282.2 L479.3,280.2 L480.5,279.7 L482.0,279.2 L483.7,279.3 L485.1,280.5 L485.5,280.3 L495.7,280.2 L497.4,281.4 L503.4,281.8 L508.0,280.8 L510.1,280.2 L511.7,280.3 L512.7,280.9 L512.7,281.1 L511.3,281.7 L510.5,281.7 L508.9,282.7 L508.0,281.7 L504.1,282.6 L502.3,282.7 L502.2,292.0 L499.7,292.1 L499.7,299.7 Z" fill="#e7ece6" stroke="#9ca89f" stroke-width="0.6" fill-rule="evenodd" vector-effect="non-scaling-stroke"/>
      <path d="M496.1,225.8 L496.0,227.4 L495.2,228.8 L494.7,230.5 L494.4,232.8 L494.6,234.2 L494.2,235.2 L494.1,236.1 L493.8,236.9 L492.2,238.2 L491.0,239.5 L489.9,242.1 L490.0,244.2 L489.4,245.1 L487.9,246.3 L486.5,248.0 L485.5,247.5 L485.4,246.8 L484.0,246.8 L483.1,247.7 L482.5,247.5 L481.6,246.6 L480.8,247.0 L479.8,248.2 L477.7,245.4 L479.6,243.9 L478.7,242.2 L479.6,241.6 L481.2,241.2 L481.4,240.1 L482.8,241.3 L485.0,241.5 L485.7,240.2 L486.1,238.5 L485.8,236.4 L484.6,234.9 L485.7,231.9 L485.1,231.4 L483.2,231.6 L482.5,230.2 L482.7,229.1 L485.8,229.2 L487.9,229.9 L489.9,230.5 L490.0,229.1 L491.3,226.6 L492.8,225.3 L494.5,225.7 L496.1,225.8 Z" fill="#e7ece6" stroke="#9ca89f" stroke-width="0.6" fill-rule="evenodd" vector-effect="non-scaling-stroke"/>
      <path d="M526.9,256.8 L527.9,257.4 L528.9,257.9 L530.5,258.3 L531.9,259.1 L533.1,260.3 L533.7,262.5 L533.3,263.2 L532.8,265.3 L533.3,267.5 L532.5,268.4 L531.7,270.8 L533.0,271.5 L525.4,273.6 L525.7,275.5 L523.8,275.8 L522.4,276.9 L522.1,277.8 L521.2,278.0 L519.0,280.1 L517.6,281.8 L516.8,281.9 L516.0,281.6 L513.2,281.3 L512.7,281.1 L512.7,280.9 L511.7,280.3 L510.1,280.2 L508.0,280.8 L506.4,279.1 L504.7,277.0 L504.8,268.7 L510.0,268.7 L509.8,267.8 L510.2,266.8 L509.8,265.6 L510.0,264.3 L509.8,263.5 L510.6,263.6 L510.8,264.4 L512.0,264.3 L513.5,264.6 L514.4,265.8 L516.4,266.1 L517.9,265.3 L518.5,266.7 L520.4,267.0 L521.3,268.2 L522.3,269.6 L524.2,269.6 L524.0,266.8 L523.4,267.3 L521.6,266.3 L520.9,265.8 L521.2,263.2 L521.7,260.1 L521.1,258.9 L521.8,257.3 L522.5,257.0 L525.9,256.5 L526.9,256.8 Z" fill="#e7ece6" stroke="#9ca89f" stroke-width="0.6" fill-rule="evenodd" vector-effect="non-scaling-stroke"/>
      <path d="M531.9,259.1 L534.3,259.6 L534.9,260.3 L535.7,261.5 L536.4,265.1 L535.7,267.1 L536.4,270.5 L537.3,270.4 L538.2,271.3 L539.2,273.2 L539.4,276.5 L538.3,277.1 L537.6,278.9 L536.0,277.3 L535.8,275.4 L536.3,274.2 L536.1,273.2 L535.2,272.5 L534.5,272.7 L533.0,271.5 L531.7,270.8 L532.5,268.4 L533.3,267.5 L532.8,265.3 L533.3,263.2 L533.7,262.5 L533.1,260.3 L531.9,259.1 Z" fill="#e7ece6" stroke="#9ca89f" stroke-width="0.6" fill-rule="evenodd" vector-effect="non-scaling-stroke"/>
      <path d="M536.4,265.1 L538.3,264.9 L541.3,265.6 L541.9,265.3 L543.7,265.2 L544.6,264.4 L546.1,264.5 L548.8,263.5 L550.8,261.9 L550.8,261.9 L550.8,261.9 L551.2,263.1 L551.1,265.7 L551.4,268.0 L551.5,272.1 L551.9,273.4 L551.2,275.2 L550.2,277.0 L548.6,278.7 L546.3,279.7 L543.5,280.9 L540.7,283.7 L539.7,284.2 L538.0,286.1 L537.0,286.7 L536.8,288.5 L537.9,290.5 L538.4,292.0 L538.5,292.8 L538.9,292.7 L538.8,295.2 L538.4,296.5 L539.0,296.9 L538.6,298.0 L537.6,298.9 L535.5,299.8 L532.5,301.2 L531.4,302.2 L531.7,303.3 L532.3,303.5 L532.1,304.8 L530.2,304.8 L530.0,303.7 L529.6,302.5 L529.4,301.5 L529.8,298.6 L529.2,296.8 L528.0,293.1 L530.6,290.1 L531.3,288.3 L531.6,288.0 L531.9,286.5 L531.5,285.7 L531.6,283.8 L532.1,281.9 L532.1,278.6 L530.8,277.8 L529.6,277.6 L529.1,277.0 L527.9,276.4 L525.8,276.5 L525.7,275.5 L525.4,273.6 L533.0,271.5 L534.5,272.7 L535.2,272.5 L536.1,273.2 L536.3,274.2 L535.8,275.4 L536.0,277.3 L537.6,278.9 L538.3,277.1 L539.4,276.5 L539.2,273.2 L538.2,271.3 L537.3,270.4 L536.4,270.5 L535.7,267.1 L536.4,265.1 Z" fill="#e7ece6" stroke="#9ca89f" stroke-width="0.6" fill-rule="evenodd" vector-effect="non-scaling-stroke"/>
      <path d="M530.2,304.8 L529.7,306.0 L528.2,306.2 L526.7,304.8 L526.7,303.9 L527.4,302.9 L527.6,302.2 L528.3,302.0 L529.6,302.5 L530.0,303.7 L530.2,304.8 Z" fill="#e7ece6" stroke="#9ca89f" stroke-width="0.6" fill-rule="evenodd" vector-effect="non-scaling-stroke"/>
      <path d="M482.5,247.5 L481.6,248.0 L481.2,248.7 L481.1,249.8 L480.5,250.1 L479.8,248.2 L480.8,247.0 L481.6,246.6 L482.5,247.5 Z M480.8,250.9 L481.8,250.6 L482.6,250.6 L483.4,250.3 L490.8,250.3 L491.4,252.3 L492.2,253.9 L492.7,254.7 L493.7,256.1 L495.3,255.9 L496.2,255.5 L497.5,255.9 L497.9,255.2 L498.5,253.7 L500.1,253.6 L500.2,253.1 L501.5,253.1 L501.3,254.1 L504.3,254.0 L504.4,255.7 L504.9,256.7 L504.5,258.3 L504.7,259.9 L505.5,260.8 L505.4,263.9 L506.0,263.7 L507.1,263.8 L508.6,263.4 L509.8,263.5 L510.0,264.3 L509.8,265.6 L510.2,266.8 L509.8,267.8 L510.0,268.7 L504.8,268.7 L504.7,277.0 L506.4,279.1 L508.0,280.8 L503.4,281.8 L497.4,281.4 L495.7,280.2 L485.5,280.3 L485.1,280.5 L483.7,279.3 L482.0,279.2 L480.5,279.7 L479.3,280.2 L479.1,278.5 L479.4,276.2 L480.3,273.8 L480.4,272.7 L481.3,270.4 L481.8,269.3 L483.3,267.6 L484.1,266.4 L484.3,264.5 L484.2,263.0 L483.5,262.1 L482.8,260.5 L482.2,258.9 L482.3,258.4 L483.1,257.4 L482.3,254.8 L481.8,253.1 L480.6,251.4 L480.8,250.9 Z" fill="#e7ece6" stroke="#9ca89f" stroke-width="0.6" fill-rule="evenodd" vector-effect="non-scaling-stroke"/>
      <path d="M573.9,267.6 L574.5,268.7 L575.1,270.4 L575.5,273.5 L576.2,274.8 L575.9,276.0 L575.5,276.8 L574.7,275.2 L574.2,276.0 L574.7,278.0 L574.4,279.1 L573.7,279.7 L573.6,281.9 L572.6,284.9 L571.4,288.5 L569.8,293.5 L568.9,297.1 L567.7,300.1 L565.7,300.7 L563.5,301.8 L562.1,301.2 L560.1,300.2 L559.4,298.9 L559.2,296.6 L558.4,294.5 L558.1,292.6 L558.6,290.7 L559.7,290.3 L559.7,289.4 L560.9,287.4 L561.2,285.7 L560.6,284.5 L560.1,282.9 L559.9,280.5 L560.8,279.0 L561.1,277.3 L562.4,277.2 L563.8,276.7 L564.7,276.2 L565.8,276.2 L567.2,274.7 L569.3,273.1 L570.0,271.8 L569.7,270.7 L570.7,271.0 L572.1,269.2 L572.2,267.6 L573.0,266.4 L573.9,267.6 Z" fill="#e7ece6" stroke="#9ca89f" stroke-width="0.6" fill-rule="evenodd" vector-effect="non-scaling-stroke"/>
  </g>
  <path d="M499.7,299.7 L499.7,309.3 L497.5,310.7 L496.2,310.8 L494.6,310.3 L493.5,310.2 L493.0,309.0 L492.1,308.3 L490.9,309.6 L489.0,307.6 L488.0,305.7 L487.5,303.2 L486.9,301.3 L486.0,297.3 L486.0,294.2 L485.6,292.7 L484.7,291.7 L483.4,289.5 L482.1,286.4 L481.5,284.7 L479.5,282.2 L479.3,280.2 L480.5,279.7 L482.0,279.2 L483.7,279.3 L485.1,280.5 L485.5,280.3 L495.7,280.2 L497.4,281.4 L503.4,281.8 L508.0,280.8 L510.1,280.2 L511.7,280.3 L512.7,280.9 L512.7,281.1 L511.3,281.7 L510.5,281.7 L508.9,282.7 L508.0,281.7 L504.1,282.6 L502.3,282.7 L502.2,292.0 L499.7,292.1 L499.7,299.7 Z" fill="#146c65" stroke="#ffffff" stroke-width="5.2" stroke-linejoin="round" fill-rule="evenodd" vector-effect="non-scaling-stroke"/>
  <path d="M499.7,299.7 L499.7,309.3 L497.5,310.7 L496.2,310.8 L494.6,310.3 L493.5,310.2 L493.0,309.0 L492.1,308.3 L490.9,309.6 L489.0,307.6 L488.0,305.7 L487.5,303.2 L486.9,301.3 L486.0,297.3 L486.0,294.2 L485.6,292.7 L484.7,291.7 L483.4,289.5 L482.1,286.4 L481.5,284.7 L479.5,282.2 L479.3,280.2 L480.5,279.7 L482.0,279.2 L483.7,279.3 L485.1,280.5 L485.5,280.3 L495.7,280.2 L497.4,281.4 L503.4,281.8 L508.0,280.8 L510.1,280.2 L511.7,280.3 L512.7,280.9 L512.7,281.1 L511.3,281.7 L510.5,281.7 L508.9,282.7 L508.0,281.7 L504.1,282.6 L502.3,282.7 L502.2,292.0 L499.7,292.1 L499.7,299.7 Z" fill="#146c65" stroke="#062f2b" stroke-width="2.4" stroke-linejoin="round" fill-rule="evenodd" vector-effect="non-scaling-stroke"/>
</svg>
