<svg xmlns="http://www.w3.org/2000/svg" viewBox="717.3 293.2 182.7 95.4" role="img" aria-label="Wereldkaart met een land ingekleurd">
  <rect width="900" height="470" fill="#ffffff"/>
  <g>
      <path d="M864.4,290.0 L866.5,291.7 L867.8,292.9 L866.9,293.5 L865.5,292.8 L863.7,291.6 L862.1,290.2 L860.4,288.4 L860.1,287.5 L861.1,287.5 L862.6,288.4 L863.7,289.3 L864.4,290.0 Z" fill="#e7ece6" stroke="#9ca89f" stroke-width="0.6" fill-rule="evenodd" vector-effect="non-scaling-stroke"/>
      <path d="M892.2,339.6 L891.3,341.0 L890.0,342.8 L888.1,343.9 L887.7,343.2 L886.6,342.8 L888.1,340.6 L887.3,339.2 L884.6,338.2 L884.6,337.2 L886.4,336.3 L886.9,334.3 L886.7,332.6 L885.7,330.9 L885.8,330.4 L884.6,329.3 L882.6,327.0 L881.6,325.2 L882.5,325.0 L883.9,326.4 L885.8,327.1 L886.5,329.4 L888.3,332.2 L888.4,330.4 L889.5,331.1 L889.9,333.1 L891.9,333.9 L893.6,334.1 L895.0,333.1 L896.3,333.4 L895.7,335.7 L894.9,337.3 L893.0,337.2 L892.3,338.0 L892.6,339.1 L892.2,339.6 Z M874.2,348.7 L876.3,347.4 L877.8,346.0 L878.9,344.1 L879.9,343.4 L880.2,341.9 L882.0,340.7 L882.6,341.8 L883.1,342.9 L884.9,341.9 L885.6,343.0 L885.6,344.1 L884.7,345.3 L883.1,347.2 L881.8,348.2 L882.7,349.5 L880.8,349.5 L878.6,350.5 L878.0,352.2 L876.5,354.9 L874.6,356.0 L873.3,356.8 L871.0,356.7 L869.4,355.9 L866.7,355.7 L866.3,354.7 L867.6,352.8 L870.8,350.2 L872.4,349.7 L874.2,348.7 Z" fill="#e7ece6" stroke="#9ca89f" stroke-width="0.6" fill-rule="evenodd" vector-effect="non-scaling-stroke"/>
      <path d="M819.2,341.6 L820.7,341.7 L820.9,344.8 L820.0,345.7 L819.8,347.8 L818.9,347.1 L817.2,348.9 L816.7,348.8 L815.1,348.7 L813.6,346.5 L813.2,344.8 L811.8,342.5 L811.9,341.3 L813.5,341.5 L815.9,342.4 L817.3,342.1 L819.2,341.6 Z M765.4,319.1 L762.7,320.5 L760.6,321.1 L760.1,322.4 L759.1,323.5 L757.0,323.6 L755.5,323.8 L753.2,323.3 L751.5,323.6 L749.7,323.7 L748.2,325.1 L747.5,325.0 L746.3,325.7 L745.1,326.6 L743.2,326.5 L741.6,326.5 L738.9,324.8 L737.6,324.3 L737.6,322.8 L738.9,322.4 L739.3,321.8 L739.2,320.9 L739.5,319.1 L739.2,317.5 L737.9,314.9 L737.5,313.4 L737.6,311.9 L736.6,310.2 L736.5,309.5 L735.4,308.4 L735.1,306.4 L733.7,304.3 L733.3,303.2 L734.4,304.3 L733.6,301.9 L734.8,302.7 L735.6,303.7 L735.5,302.3 L734.3,300.3 L734.1,299.5 L733.5,298.7 L733.8,297.2 L734.3,296.5 L734.6,295.2 L734.3,293.7 L735.4,291.8 L735.6,293.8 L736.6,292.0 L738.7,291.1 L739.9,290.0 L741.8,289.1 L742.9,288.9 L743.6,289.2 L745.6,288.2 L747.1,287.9 L747.5,287.3 L748.1,287.1 L749.5,287.2 L752.1,286.4 L753.5,285.2 L754.1,283.8 L755.6,282.5 L755.7,281.5 L755.8,280.1 L757.5,277.8 L758.6,280.1 L759.6,279.6 L758.8,278.3 L759.5,277.1 L760.6,277.6 L760.9,275.6 L762.3,274.4 L762.9,273.3 L764.2,272.9 L764.2,272.2 L765.3,272.5 L765.4,271.8 L766.5,271.4 L767.7,271.1 L769.5,272.3 L770.9,273.8 L772.5,273.8 L774.1,274.1 L773.5,272.7 L774.7,270.6 L775.8,269.9 L775.5,269.2 L776.5,267.7 L778.1,266.8 L779.3,267.1 L781.4,266.6 L781.4,265.3 L779.6,264.4 L780.9,264.1 L782.5,264.7 L783.9,265.8 L786.0,266.4 L786.7,266.2 L788.2,267.0 L789.7,266.2 L790.6,266.5 L791.2,266.0 L792.4,267.3 L791.7,268.6 L790.8,269.7 L789.9,269.8 L790.2,270.8 L789.5,272.1 L788.6,273.4 L788.8,274.2 L790.7,275.6 L792.7,276.4 L794.0,277.3 L795.8,278.9 L796.5,278.9 L797.8,279.6 L798.2,280.4 L800.5,281.2 L802.2,280.4 L802.7,279.0 L803.2,277.8 L803.5,276.4 L804.3,274.3 L803.9,273.0 L804.1,272.3 L803.8,270.8 L804.1,268.8 L804.6,268.3 L804.2,267.4 L804.8,266.0 L805.3,264.6 L805.4,263.8 L806.3,262.9 L807.0,264.1 L807.2,265.8 L807.8,266.1 L807.9,267.2 L808.8,268.5 L809.0,270.0 L808.9,270.9 L809.8,273.0 L811.4,272.0 L812.2,273.1 L813.4,274.1 L813.2,275.3 L813.7,277.5 L814.1,278.8 L814.7,279.1 L815.4,281.4 L815.2,282.7 L816.0,284.5 L818.7,285.9 L820.4,287.1 L822.1,288.2 L821.8,288.9 L823.2,290.5 L824.2,293.3 L825.2,292.8 L826.2,293.9 L826.8,293.5 L827.2,296.3 L829.0,297.9 L830.2,298.9 L832.1,301.0 L832.8,303.1 L832.9,304.6 L832.7,306.2 L833.9,308.4 L833.8,310.7 L833.3,311.9 L832.7,314.2 L832.7,315.7 L832.2,317.6 L831.1,320.0 L829.3,321.3 L828.4,323.3 L827.5,324.6 L826.8,326.8 L825.8,328.1 L825.2,330.1 L824.9,331.9 L825.0,332.7 L823.6,333.6 L820.8,333.7 L818.5,334.8 L817.3,335.8 L815.8,336.9 L813.7,335.8 L812.2,335.3 L812.6,334.0 L811.2,334.4 L809.0,336.3 L806.9,335.6 L805.4,335.2 L804.0,335.0 L801.6,334.3 L800.0,332.7 L799.5,330.7 L798.9,329.4 L797.7,328.3 L795.3,328.0 L796.1,326.7 L795.5,324.8 L794.3,326.6 L792.1,327.1 L793.4,325.6 L793.8,324.1 L794.7,322.8 L794.5,320.9 L792.5,323.1 L790.9,324.0 L790.0,326.1 L788.0,325.0 L788.1,323.6 L786.5,321.7 L785.2,320.8 L785.7,320.2 L782.5,318.6 L780.7,318.5 L778.3,317.2 L773.8,317.5 L770.6,318.4 L767.8,319.3 L765.4,319.1 Z" fill="#e7ece6" stroke="#9ca89f" stroke-width="0.6" fill-rule="evenodd" vector-effect="non-scaling-stroke"/>
  </g>
  <path d="M892.2,339.6 L891.3,341.0 L890.0,342.8 L888.1,343.9 L887.7,343.2 L886.6,342.8 L888.1,340.6 L887.3,339.2 L884.6,338.2 L884.6,337.2 L886.4,336.3 L886.9,334.3 L886.7,332.6 L885.7,330.9 L885.8,330.4 L884.6,329.3 L882.6,327.0 L881.6,325.2 L882.5,325.0 L883.9,326.4 L885.8,327.1 L886.5,329.4 L888.3,332.2 L888.4,330.4 L889.5,331.1 L889.9,333.1 L891.9,333.9 L893.6,334.1 L895.0,333.1 L896.3,333.4 L895.7,335.7 L894.9,337.3 L893.0,337.2 L892.3,338.0 L892.6,339.1 L892.2,339.6 Z M874.2,348.7 L876.3,347.4 L877.8,346.0 L878.9,344.1 L879.9,343.4 L880.2,341.9 L882.0,340.7 L882.6,341.8 L883.1,342.9 L884.9,341.9 L885.6,343.0 L885.6,344.1 L884.7,345.3 L883.1,347.2 L881.8,348.2 L882.7,349.5 L880.8,349.5 L878.6,350.5 L878.0,352.2 L876.5,354.9 L874.6,356.0 L873.3,356.8 L871.0,356.7 L869.4,355.9 L866.7,355.7 L866.3,354.7 L867.6,352.8 L870.8,350.2 L872.4,349.7 L874.2,348.7 Z" fill="#2f7d4f" stroke="#173f3a" stroke-width="1.8" fill-rule="evenodd" vector-effect="non-scaling-stroke"/>
  <circle cx="882.0" cy="338.8" r="4.8" fill="#c2563d" stroke="#ffffff" stroke-width="1.4"/>
</svg>
