<svg xmlns="http://www.w3.org/2000/svg" viewBox="125.1 187.3 274.6 143.4" role="img" aria-label="Wereldkaart met een land ingekleurd">
  <rect width="900" height="470" fill="#ffffff"/>
  <g>
      <path d="M900.0,277.0 L900.0,278.2 L898.4,278.9 L896.8,279.4 L896.5,278.4 L897.7,277.9 L898.5,277.8 L900.0,277.0 Z M895.3,280.7 L895.9,280.3 L896.8,281.0 L896.4,282.4 L894.8,282.8 L893.5,282.4 L893.2,281.3 L894.2,280.4 L895.3,280.7 Z M0.5,276.8 L0.2,278.1 L0.0,278.2 L0.0,277.0 L0.5,276.8 Z" fill="#e7ece6" stroke="#9ca89f" stroke-width="0.6" fill-rule="evenodd" vector-effect="non-scaling-stroke"/>
      <path d="M278.4,372.4 L279.4,373.6 L280.6,375.6 L283.9,377.2 L287.4,377.8 L286.2,379.1 L283.9,379.3 L282.6,378.3 L281.1,378.3 L278.4,378.3 L278.4,372.4 Z M305.9,313.9 L305.3,316.0 L304.6,318.7 L304.7,321.3 L304.1,321.9 L303.9,323.5 L303.8,324.9 L306.9,327.1 L306.6,328.9 L308.2,330.1 L308.0,331.4 L305.6,334.7 L301.9,336.1 L296.9,336.6 L294.2,336.4 L294.7,337.9 L294.2,339.9 L294.6,341.2 L293.1,342.1 L290.6,342.5 L288.2,341.5 L287.2,342.2 L287.6,344.8 L289.2,345.6 L290.6,344.8 L291.4,346.1 L289.1,346.9 L287.0,348.6 L286.7,351.2 L286.1,352.6 L283.7,352.6 L281.8,353.9 L281.0,355.9 L283.5,357.8 L285.9,358.3 L285.0,360.7 L282.1,362.2 L280.5,365.2 L278.2,366.2 L277.2,367.5 L278.0,370.2 L279.6,371.7 L278.6,371.6 L276.3,371.2 L270.2,370.8 L269.2,369.3 L269.2,367.3 L267.6,367.5 L266.7,366.5 L266.5,363.8 L268.4,362.6 L269.2,361.0 L268.9,359.7 L270.2,357.4 L271.1,354.0 L270.9,352.4 L271.9,351.9 L271.7,351.0 L270.5,350.4 L271.3,349.3 L270.2,348.3 L269.6,345.3 L270.6,344.8 L270.2,341.6 L270.8,338.9 L271.5,336.6 L273.0,335.7 L272.2,333.1 L272.2,330.7 L274.1,329.0 L274.0,326.8 L275.5,324.3 L275.5,321.9 L274.8,321.4 L273.7,316.9 L275.2,314.2 L275.0,311.7 L275.9,309.3 L277.5,306.9 L279.3,305.2 L278.5,304.2 L279.0,303.4 L279.0,299.0 L281.7,297.7 L282.5,295.0 L282.2,294.4 L284.3,292.0 L287.6,292.6 L289.1,294.5 L290.0,292.4 L292.9,292.5 L293.3,293.1 L297.9,297.4 L299.9,297.8 L303.0,299.7 L305.6,300.7 L305.9,301.9 L303.5,305.8 L306.0,306.5 L308.8,306.9 L310.8,306.5 L313.0,304.5 L313.4,302.2 L314.7,301.7 L315.9,303.2 L315.9,305.3 L313.8,306.7 L312.1,307.8 L309.3,310.3 L305.9,313.9 Z" fill="#e7ece6" stroke="#9ca89f" stroke-width="0.6" fill-rule="evenodd" vector-effect="non-scaling-stroke"/>
      <path d="M278.4,372.4 L278.4,378.3 L281.1,378.3 L282.6,378.3 L281.8,379.4 L279.6,380.2 L278.4,380.1 L276.9,379.9 L275.1,379.1 L272.5,378.8 L269.3,377.3 L266.8,375.9 L263.3,373.0 L265.4,373.5 L268.9,375.3 L272.2,376.2 L273.5,375.0 L274.3,373.2 L276.6,372.1 L278.4,372.4 Z M276.0,280.9 L277.2,282.7 L277.6,284.6 L278.9,285.7 L278.1,288.2 L279.5,291.1 L280.4,294.7 L282.2,294.4 L282.5,295.0 L281.7,297.7 L279.0,299.0 L279.0,303.4 L278.5,304.2 L279.3,305.2 L277.5,306.9 L275.9,309.3 L275.0,311.7 L275.2,314.2 L273.7,316.9 L274.8,321.4 L275.5,321.9 L275.5,324.3 L274.0,326.8 L274.1,329.0 L272.2,330.7 L272.2,333.1 L273.0,335.7 L271.5,336.6 L270.8,338.9 L270.2,341.6 L270.6,344.8 L269.6,345.3 L270.2,348.3 L271.3,349.3 L270.5,350.4 L271.7,351.0 L271.9,351.9 L270.9,352.4 L271.1,354.0 L270.2,357.4 L268.9,359.7 L269.2,361.0 L268.4,362.6 L266.5,363.8 L266.7,366.5 L267.6,367.5 L269.2,367.3 L269.2,369.3 L270.2,370.8 L276.3,371.2 L278.6,371.6 L276.3,371.5 L275.1,372.2 L272.9,373.1 L272.5,375.6 L271.4,375.6 L268.6,374.8 L265.7,373.0 L265.7,373.0 L262.6,371.5 L261.8,369.8 L262.6,368.3 L261.3,366.5 L261.0,362.1 L262.0,359.6 L264.7,357.6 L260.9,356.8 L263.3,354.5 L264.1,350.2 L266.9,351.1 L268.2,345.7 L266.5,345.0 L265.7,348.2 L264.2,347.9 L265.0,344.1 L265.8,339.3 L267.0,337.5 L266.2,335.0 L266.0,332.0 L267.1,331.9 L268.6,327.7 L270.3,323.5 L271.4,319.6 L270.8,315.7 L271.6,313.6 L271.3,310.4 L272.7,307.2 L273.2,302.1 L274.0,296.7 L274.8,290.9 L274.6,286.6 L274.1,282.9 L275.4,282.2 L276.0,280.9 Z" fill="#e7ece6" stroke="#9ca89f" stroke-width="0.6" fill-rule="evenodd" vector-effect="non-scaling-stroke"/>
      <path d="M270.7,183.5 L270.9,184.9 L270.7,185.9 L270.1,186.4 L270.8,187.2 L270.7,187.9 L269.1,187.4 L267.9,187.6 L266.4,187.4 L265.2,187.9 L263.9,187.1 L264.1,186.3 L266.4,186.6 L268.3,186.8 L269.2,186.3 L268.0,185.1 L268.0,184.1 L266.5,183.7 L267.0,183.0 L268.6,183.1 L270.7,183.5 Z" fill="#e7ece6" stroke="#9ca89f" stroke-width="0.6" fill-rule="evenodd" vector-effect="non-scaling-stroke"/>
      <path d="M270.7,187.9 L270.8,187.2 L270.1,186.4 L270.7,185.9 L270.9,184.9 L270.7,183.5 L271.0,183.1 L273.0,183.1 L274.5,183.8 L275.1,183.7 L275.6,184.6 L276.9,184.6 L276.9,185.3 L278.0,185.4 L279.2,186.4 L278.3,187.5 L277.1,186.9 L275.9,187.0 L275.1,186.9 L274.7,187.4 L273.7,187.5 L273.3,186.9 L272.5,187.3 L271.5,189.0 L270.9,188.6 L270.7,187.9 Z" fill="#e7ece6" stroke="#9ca89f" stroke-width="0.6" fill-rule="evenodd" vector-effect="non-scaling-stroke"/>
      <path d="M157.2,150.0 L160.0,149.8 L163.2,149.6 L163.0,150.1 L166.7,151.3 L172.4,153.2 L177.4,153.2 L179.4,153.2 L179.4,152.1 L183.7,152.1 L184.6,153.0 L185.9,153.8 L187.4,155.0 L188.2,156.3 L188.9,157.8 L190.2,158.6 L192.2,159.4 L193.8,157.3 L195.8,157.2 L197.6,158.3 L198.9,160.1 L199.7,161.6 L201.2,163.1 L201.8,164.9 L202.4,166.1 L204.4,167.0 L206.2,167.5 L207.1,167.5 L206.2,169.7 L205.7,171.6 L205.6,175.1 L205.3,176.4 L205.8,177.8 L206.5,179.1 L207.0,181.1 L208.7,183.1 L209.3,184.6 L210.2,185.8 L212.9,186.5 L213.9,187.6 L216.1,186.9 L218.0,186.6 L219.9,186.2 L221.5,185.7 L223.1,184.6 L223.7,183.1 L223.9,180.9 L224.3,180.2 L226.0,179.5 L228.6,178.9 L230.9,179.0 L232.4,178.7 L233.0,179.3 L232.9,180.6 L231.5,182.1 L230.9,183.7 L231.4,184.2 L231.0,185.3 L230.4,187.3 L229.8,186.7 L229.2,186.7 L228.8,186.7 L227.9,188.3 L227.4,188.0 L227.1,188.1 L227.1,188.5 L224.8,188.5 L222.5,188.5 L222.5,189.9 L221.4,190.0 L222.3,190.8 L223.2,191.4 L223.5,192.0 L223.9,192.2 L223.8,193.0 L220.6,193.0 L219.4,195.2 L219.8,195.7 L219.5,196.3 L219.4,197.0 L216.6,194.2 L215.3,193.4 L213.3,192.7 L211.9,192.9 L209.9,193.9 L208.6,194.1 L206.8,193.4 L205.0,192.9 L202.6,191.7 L200.8,191.4 L197.9,190.2 L195.8,188.9 L195.2,188.2 L193.8,188.1 L191.2,187.2 L190.2,186.0 L187.5,184.6 L186.3,182.9 L185.7,181.6 L186.5,181.4 L186.2,180.6 L186.8,180.0 L186.8,179.1 L186.0,177.9 L185.8,176.9 L184.9,175.5 L182.7,172.9 L180.2,170.9 L179.0,169.3 L176.8,168.2 L176.4,167.6 L176.8,166.0 L175.5,165.3 L174.0,164.1 L173.4,162.3 L172.1,162.0 L170.6,160.7 L169.4,159.4 L169.3,158.6 L168.0,156.6 L167.1,154.6 L167.1,153.6 L165.3,152.6 L164.5,152.7 L163.1,152.0 L162.7,153.0 L163.1,154.3 L163.3,156.2 L164.2,157.3 L166.0,159.1 L166.4,159.7 L166.8,159.9 L167.1,160.8 L167.6,160.8 L168.1,162.5 L168.9,163.1 L169.4,164.1 L171.0,165.4 L171.8,167.8 L172.5,169.0 L173.2,170.2 L173.4,171.6 L174.6,171.6 L175.6,172.8 L176.5,174.0 L176.4,174.5 L175.4,175.4 L174.9,175.4 L174.3,173.8 L172.6,172.3 L170.8,171.1 L169.5,170.4 L169.6,168.5 L169.2,167.1 L168.1,166.3 L166.3,165.1 L166.0,165.4 L165.4,164.8 L163.8,164.1 L162.4,162.6 L162.5,162.4 L163.6,162.6 L164.5,161.6 L164.6,160.4 L162.7,158.5 L161.2,157.8 L160.3,156.2 L159.4,154.5 L158.2,152.4 L157.2,150.0 Z" fill="#e7ece6" stroke="#9ca89f" stroke-width="0.6" fill-rule="evenodd" vector-effect="non-scaling-stroke"/>
      <path d="M305.9,313.9 L307.6,313.6 L310.1,315.6 L311.0,315.6 L313.6,317.2 L315.5,318.7 L317.0,320.5 L315.9,321.7 L316.6,323.2 L315.5,324.8 L312.7,326.3 L310.8,325.7 L309.5,326.0 L307.2,324.9 L305.5,325.0 L303.9,323.5 L304.1,321.9 L304.7,321.3 L304.6,318.7 L305.3,316.0 L305.9,313.9 Z" fill="#e7ece6" stroke="#9ca89f" stroke-width="0.6" fill-rule="evenodd" vector-effect="non-scaling-stroke"/>
      <path d="M316.6,323.2 L315.9,321.7 L317.0,320.5 L315.5,318.7 L313.6,317.2 L311.0,315.6 L310.1,315.6 L307.6,313.6 L305.9,313.9 L309.3,310.3 L312.1,307.8 L313.8,306.7 L315.9,305.3 L315.9,303.2 L314.7,301.7 L313.4,302.2 L313.9,300.7 L314.3,299.2 L314.3,297.7 L313.4,297.2 L312.4,297.7 L311.5,297.6 L311.2,296.5 L311.0,294.2 L310.5,293.4 L308.8,292.7 L307.8,293.2 L305.2,292.7 L305.3,289.1 L304.6,287.7 L305.4,287.1 L305.1,285.7 L305.8,284.5 L306.3,282.5 L305.7,280.8 L304.3,280.1 L304.0,279.1 L304.4,277.6 L299.6,277.5 L298.6,274.4 L299.4,274.4 L299.3,273.2 L298.9,272.5 L298.7,271.0 L297.3,270.2 L295.7,270.2 L294.7,269.5 L293.0,268.9 L292.0,268.0 L289.2,267.5 L286.5,265.2 L286.7,263.5 L286.4,262.4 L286.7,260.5 L283.4,260.9 L282.1,261.9 L279.9,263.0 L279.3,263.8 L278.0,263.8 L276.2,263.6 L274.8,264.0 L273.6,263.7 L273.8,259.8 L271.7,261.3 L269.5,261.3 L268.6,259.9 L266.9,259.7 L267.5,258.6 L266.1,257.0 L265.0,254.6 L265.7,254.2 L265.7,253.1 L267.2,252.3 L267.0,250.9 L267.6,250.0 L267.8,248.8 L270.6,247.0 L272.7,246.5 L273.0,246.1 L275.3,246.2 L276.4,239.1 L276.4,237.9 L276.1,236.4 L274.9,235.5 L275.0,233.6 L276.4,233.2 L276.9,233.4 L277.0,232.4 L275.5,232.2 L275.5,230.5 L280.3,230.6 L281.2,229.7 L281.9,230.5 L282.3,232.0 L282.8,231.7 L284.2,233.1 L286.1,232.9 L286.6,232.1 L288.5,231.5 L289.5,231.1 L289.8,230.0 L291.6,229.3 L291.4,228.7 L289.3,228.5 L289.0,226.8 L289.1,225.1 L288.0,224.4 L288.4,224.2 L290.3,224.5 L292.3,225.2 L293.0,224.5 L294.8,224.1 L297.6,223.2 L298.5,222.2 L298.2,221.4 L299.5,221.3 L300.0,221.9 L299.7,223.1 L300.6,223.4 L301.2,224.7 L300.5,225.6 L300.1,227.8 L300.7,229.1 L300.9,230.3 L302.4,231.6 L303.6,231.7 L303.9,231.2 L304.7,231.1 L305.8,230.6 L306.7,229.9 L308.0,230.1 L308.7,230.0 L310.0,230.3 L310.2,229.7 L309.8,229.2 L310.1,228.4 L311.1,228.7 L312.3,228.4 L313.7,229.0 L314.8,229.5 L315.6,228.8 L316.1,228.9 L316.5,229.6 L317.7,229.5 L318.6,228.5 L319.4,226.5 L320.9,224.1 L321.7,224.0 L322.3,225.5 L323.7,230.0 L325.1,230.5 L325.1,232.3 L323.3,234.4 L324.0,235.2 L328.4,235.6 L328.5,238.2 L330.4,236.5 L333.6,237.5 L337.7,239.1 L339.0,240.6 L338.5,242.0 L341.5,241.2 L346.3,242.6 L350.1,242.5 L353.7,244.7 L356.9,247.6 L358.9,248.3 L361.0,248.4 L361.9,249.3 L362.8,252.6 L363.2,254.2 L362.2,258.5 L360.9,260.2 L357.4,263.8 L355.8,266.8 L353.9,269.0 L353.3,269.1 L352.6,271.0 L352.8,275.9 L352.1,279.9 L351.8,281.7 L351.0,282.7 L350.6,286.2 L348.1,289.6 L347.6,292.3 L345.6,293.4 L345.0,295.0 L342.3,295.0 L338.4,296.0 L336.6,297.1 L333.8,297.9 L330.9,300.0 L328.8,302.6 L328.4,304.5 L328.8,306.0 L328.3,308.6 L327.8,309.9 L326.0,311.3 L323.3,315.9 L321.1,318.0 L319.4,319.2 L318.2,321.7 L316.6,323.2 Z" fill="#e7ece6" stroke="#9ca89f" stroke-width="0.6" fill-rule="evenodd" vector-effect="non-scaling-stroke"/>
      <path d="M276.2,263.6 L278.0,263.8 L279.3,263.8 L279.9,263.0 L282.1,261.9 L283.4,260.9 L286.7,260.5 L286.4,262.4 L286.7,263.5 L286.5,265.2 L289.2,267.5 L292.0,268.0 L293.0,268.9 L294.7,269.5 L295.7,270.2 L297.3,270.2 L298.7,271.0 L298.9,272.5 L299.3,273.2 L299.4,274.4 L298.6,274.4 L299.6,277.5 L304.4,277.6 L304.0,279.1 L304.3,280.1 L305.7,280.8 L306.3,282.5 L305.8,284.5 L305.1,285.7 L305.4,287.1 L304.6,287.7 L304.5,286.9 L302.2,285.5 L299.9,285.5 L295.5,286.3 L294.3,288.6 L294.3,290.0 L293.3,293.1 L292.9,292.5 L290.0,292.4 L289.1,294.5 L287.6,292.6 L284.3,292.0 L282.2,294.4 L280.4,294.7 L279.5,291.1 L278.1,288.2 L278.9,285.7 L277.6,284.6 L277.2,282.7 L276.0,280.9 L277.6,278.1 L276.5,275.9 L277.1,275.0 L276.7,274.0 L277.6,272.7 L277.7,270.5 L277.8,268.7 L278.3,267.8 L276.2,263.6 Z" fill="#e7ece6" stroke="#9ca89f" stroke-width="0.6" fill-rule="evenodd" vector-effect="non-scaling-stroke"/>
      <path d="M275.3,246.2 L273.0,246.1 L272.7,246.5 L270.6,247.0 L267.8,248.8 L267.6,250.0 L267.0,250.9 L267.2,252.3 L265.7,253.1 L265.7,254.2 L265.0,254.6 L266.1,257.0 L267.5,258.6 L266.9,259.7 L268.6,259.9 L269.5,261.3 L271.7,261.3 L273.8,259.8 L273.6,263.7 L274.8,264.0 L276.2,263.6 L278.3,267.8 L277.8,268.7 L277.7,270.5 L277.6,272.7 L276.7,274.0 L277.1,275.0 L276.5,275.9 L277.6,278.1 L276.0,280.9 L275.4,282.2 L274.1,282.9 L271.6,281.4 L271.3,280.3 L266.4,277.7 L261.9,274.9 L260.0,273.3 L258.9,271.1 L259.4,270.3 L257.2,266.9 L254.8,262.1 L252.4,256.9 L251.4,255.7 L250.6,253.8 L248.7,252.1 L246.9,251.0 L247.7,249.9 L246.5,247.4 L247.3,245.5 L249.2,243.9 L249.5,245.0 L248.8,245.6 L248.9,246.6 L249.9,246.3 L250.9,246.6 L252.0,247.9 L253.4,246.9 L253.9,245.1 L255.4,242.8 L258.4,241.8 L261.1,239.1 L261.9,237.4 L261.6,235.4 L262.2,235.1 L263.9,236.4 L264.7,237.6 L265.9,238.3 L267.3,241.0 L269.2,241.4 L270.6,240.7 L271.5,241.1 L273.0,240.9 L274.9,242.1 L273.3,244.8 L274.0,244.8 L275.3,246.2 Z" fill="#e7ece6" stroke="#9ca89f" stroke-width="0.6" fill-rule="evenodd" vector-effect="non-scaling-stroke"/>
      <path d="M282.8,231.7 L282.3,232.0 L281.9,230.5 L281.2,229.7 L280.3,230.6 L275.5,230.5 L275.5,232.2 L277.0,232.4 L276.9,233.4 L276.4,233.2 L275.0,233.6 L274.9,235.5 L276.1,236.4 L276.4,237.9 L276.4,239.1 L275.3,246.2 L274.0,244.8 L273.3,244.8 L274.9,242.1 L273.0,240.9 L271.5,241.1 L270.6,240.7 L269.2,241.4 L267.3,241.0 L265.9,238.3 L264.7,237.6 L263.9,236.4 L262.2,235.1 L261.6,235.4 L260.5,234.8 L259.3,233.9 L258.6,234.3 L256.4,234.0 L255.8,232.8 L255.4,232.9 L252.9,231.4 L252.5,230.6 L253.5,230.4 L253.3,229.1 L253.9,228.1 L255.2,228.0 L256.2,226.3 L257.2,224.9 L256.3,224.3 L256.7,222.8 L256.2,220.4 L256.7,219.7 L256.3,217.5 L255.3,216.1 L255.6,214.9 L256.4,215.1 L256.9,214.3 L256.3,212.7 L256.6,212.4 L257.9,212.4 L259.8,210.6 L260.8,210.3 L260.8,209.5 L261.3,207.3 L262.7,206.1 L264.3,206.0 L264.5,205.5 L266.5,205.7 L268.4,204.4 L269.4,203.8 L270.6,202.5 L271.5,202.7 L272.2,203.4 L271.7,204.3 L270.1,204.7 L269.4,206.0 L268.5,206.7 L267.7,207.7 L267.4,209.6 L266.7,211.1 L268.0,211.3 L268.3,212.5 L268.9,213.1 L269.1,214.1 L268.8,215.1 L268.9,215.6 L269.5,215.8 L270.1,216.7 L273.3,216.5 L274.8,216.8 L276.5,219.1 L277.5,218.8 L279.3,218.9 L280.8,218.6 L281.6,219.1 L281.2,220.5 L280.6,221.4 L280.4,223.2 L280.9,225.0 L281.7,225.8 L281.7,226.3 L280.5,227.6 L281.4,228.2 L282.0,229.1 L282.8,231.7 Z" fill="#e7ece6" stroke="#9ca89f" stroke-width="0.6" fill-rule="evenodd" vector-effect="non-scaling-stroke"/>
      <path d="M256.6,212.4 L256.3,212.7 L256.9,214.3 L256.4,215.1 L255.6,214.9 L255.3,216.1 L254.5,215.4 L253.9,214.0 L254.5,213.3 L253.9,213.1 L253.4,212.2 L252.2,211.5 L251.1,211.7 L250.6,212.6 L249.6,213.2 L249.0,213.3 L248.8,213.9 L250.0,215.3 L249.3,215.6 L248.9,216.0 L247.8,216.1 L247.4,214.6 L247.0,215.0 L246.2,214.9 L245.7,213.8 L244.7,213.7 L244.0,213.3 L242.9,213.4 L242.9,213.9 L242.6,213.5 L242.7,213.0 L242.9,212.5 L242.8,212.0 L243.2,211.7 L242.7,211.3 L242.7,210.3 L243.6,210.0 L244.5,211.0 L244.5,211.5 L245.5,211.6 L245.7,211.4 L246.4,212.1 L247.6,211.9 L248.7,211.2 L250.2,210.7 L251.1,209.9 L252.4,210.1 L252.4,210.3 L253.7,210.4 L254.9,210.9 L255.7,211.6 L256.6,212.4 Z" fill="#e7ece6" stroke="#9ca89f" stroke-width="0.6" fill-rule="evenodd" vector-effect="non-scaling-stroke"/>
      <path d="M243.6,210.0 L242.7,210.3 L242.7,211.3 L243.2,211.7 L242.8,212.0 L242.9,212.5 L242.7,213.0 L242.6,213.5 L241.2,212.9 L240.7,212.4 L241.0,211.9 L240.9,211.4 L240.2,210.7 L239.2,210.2 L238.4,209.9 L238.2,209.1 L237.6,208.7 L237.7,209.4 L237.2,210.0 L236.7,209.3 L235.8,209.1 L235.5,208.5 L235.5,207.7 L235.9,206.9 L235.1,206.6 L235.7,206.0 L236.1,205.7 L237.7,206.4 L238.3,206.1 L239.1,206.3 L239.5,206.8 L240.3,207.0 L240.9,206.4 L241.5,207.9 L242.5,208.9 L243.6,210.0 Z" fill="#e7ece6" stroke="#9ca89f" stroke-width="0.6" fill-rule="evenodd" vector-effect="non-scaling-stroke"/>
      <path d="M240.9,206.4 L240.3,207.0 L239.5,206.8 L239.1,206.3 L238.3,206.1 L237.7,206.4 L236.1,205.7 L235.7,206.0 L234.9,205.2 L233.7,204.2 L233.1,203.3 L232.1,202.5 L230.8,201.3 L231.1,200.9 L231.5,201.3 L231.7,201.1 L232.5,201.0 L232.8,200.4 L233.2,200.4 L233.1,199.1 L233.7,199.0 L234.2,199.0 L234.8,198.3 L235.5,198.9 L235.8,198.5 L236.2,198.2 L237.1,197.5 L237.1,197.0 L237.4,197.0 L237.7,196.4 L237.9,196.3 L238.4,196.7 L238.9,196.8 L239.4,196.5 L240.1,196.5 L240.9,196.1 L241.3,195.8 L242.1,195.8 L241.9,196.1 L241.8,196.7 L242.0,197.6 L241.5,198.5 L241.2,199.6 L241.1,200.7 L241.3,201.4 L241.3,202.6 L240.9,202.8 L240.7,203.9 L240.9,204.6 L240.4,205.3 L240.5,206.0 L240.9,206.4 Z" fill="#e7ece6" stroke="#9ca89f" stroke-width="0.6" fill-rule="evenodd" vector-effect="non-scaling-stroke"/>
      <path d="M242.1,195.8 L241.3,195.8 L240.9,196.1 L240.1,196.5 L239.4,196.5 L238.9,196.8 L238.4,196.7 L237.9,196.3 L237.7,196.4 L237.4,197.0 L237.1,197.0 L237.1,197.5 L236.2,198.2 L235.8,198.5 L235.5,198.9 L234.8,198.3 L234.2,199.0 L233.7,199.0 L233.1,199.1 L233.2,200.4 L232.8,200.4 L232.5,201.0 L231.7,201.1 L231.3,200.3 L230.5,200.1 L230.7,199.0 L230.4,198.7 L229.8,198.5 L228.7,198.8 L228.6,198.5 L227.9,198.1 L227.4,197.6 L226.6,197.3 L227.1,196.7 L226.9,196.2 L227.1,195.7 L228.3,194.9 L229.4,193.9 L229.7,194.0 L230.2,193.6 L231.0,193.5 L231.2,193.8 L231.6,193.6 L232.7,193.9 L233.9,193.8 L234.7,193.5 L235.0,193.2 L235.8,193.3 L236.4,193.5 L237.0,193.5 L237.5,193.2 L238.7,193.6 L239.1,193.7 L239.8,194.1 L240.6,194.7 L241.5,195.1 L242.1,195.8 Z" fill="#e7ece6" stroke="#9ca89f" stroke-width="0.6" fill-rule="evenodd" vector-effect="non-scaling-stroke"/>
      <path d="M226.6,197.3 L227.4,197.6 L227.9,198.1 L228.6,198.5 L228.7,198.8 L229.8,198.5 L230.4,198.7 L230.7,199.0 L230.5,200.1 L230.2,200.7 L228.8,200.6 L227.9,200.4 L226.9,199.9 L225.5,199.7 L224.8,199.1 L224.8,198.8 L225.7,198.1 L226.2,197.8 L226.0,197.5 L226.6,197.3 Z" fill="#e7ece6" stroke="#9ca89f" stroke-width="0.6" fill-rule="evenodd" vector-effect="non-scaling-stroke"/>
      <path d="M219.4,197.0 L219.5,196.3 L219.8,195.7 L219.4,195.2 L220.6,193.0 L223.8,193.0 L223.9,192.2 L223.5,192.0 L223.2,191.4 L222.3,190.8 L221.4,190.0 L222.5,189.9 L222.5,188.5 L224.8,188.5 L227.1,188.5 L227.1,190.6 L226.9,193.5 L227.7,193.5 L228.5,194.0 L228.7,193.6 L229.4,193.9 L228.3,194.9 L227.1,195.7 L226.9,196.2 L227.1,196.7 L226.6,197.3 L226.0,197.5 L226.2,197.8 L225.7,198.1 L224.8,198.8 L224.8,199.1 L223.5,198.7 L221.9,198.6 L220.8,198.1 L219.4,197.0 Z" fill="#e7ece6" stroke="#9ca89f" stroke-width="0.6" fill-rule="evenodd" vector-effect="non-scaling-stroke"/>
      <path d="M227.1,188.5 L227.1,188.1 L227.4,188.0 L227.9,188.3 L228.8,186.7 L229.2,186.7 L229.3,187.1 L229.7,187.1 L229.7,187.8 L229.3,188.9 L229.5,189.3 L229.2,190.3 L229.4,190.5 L229.1,191.8 L228.6,192.5 L228.2,192.6 L227.7,193.5 L226.9,193.5 L227.1,190.6 L227.1,188.5 Z" fill="#e7ece6" stroke="#9ca89f" stroke-width="0.6" fill-rule="evenodd" vector-effect="non-scaling-stroke"/>
      <path d="M298.2,221.4 L298.5,222.2 L297.6,223.2 L294.8,224.1 L293.0,224.5 L292.3,225.2 L290.3,224.5 L288.4,224.2 L288.0,224.4 L289.1,225.1 L289.0,226.8 L289.3,228.5 L291.4,228.7 L291.6,229.3 L289.8,230.0 L289.5,231.1 L288.5,231.5 L286.6,232.1 L286.1,232.9 L284.2,233.1 L282.8,231.7 L282.0,229.1 L281.4,228.2 L280.5,227.6 L281.7,226.3 L281.7,225.8 L280.9,225.0 L280.4,223.2 L280.6,221.4 L281.2,220.5 L281.6,219.1 L280.8,218.6 L279.3,218.9 L277.5,218.8 L276.5,219.1 L274.8,216.8 L273.3,216.5 L270.1,216.7 L269.5,215.8 L268.9,215.6 L268.8,215.1 L269.1,214.1 L268.9,213.1 L268.3,212.5 L268.0,211.3 L266.7,211.1 L267.4,209.6 L267.7,207.7 L268.5,206.7 L269.4,206.0 L270.1,204.7 L271.7,204.3 L271.6,204.9 L270.1,205.2 L270.9,206.4 L270.9,207.7 L269.8,209.2 L270.8,211.3 L271.8,211.1 L272.4,209.3 L271.6,208.3 L271.5,206.4 L274.6,205.3 L274.3,204.1 L275.1,203.2 L276.0,205.1 L277.8,205.1 L279.4,206.6 L279.5,207.4 L281.8,207.5 L284.4,207.2 L285.9,208.4 L287.8,208.7 L289.2,207.9 L289.2,207.2 L292.3,207.1 L295.3,207.0 L293.2,207.8 L294.0,209.0 L296.0,209.2 L297.9,210.5 L298.3,212.6 L299.6,212.5 L300.6,213.2 L298.6,214.7 L298.4,215.6 L299.3,216.6 L298.6,217.1 L297.1,217.5 L297.2,218.7 L296.5,219.4 L298.2,221.4 Z" fill="#e7ece6" stroke="#9ca89f" stroke-width="0.6" fill-rule="evenodd" vector-effect="non-scaling-stroke"/>
      <path d="M308.7,230.0 L308.0,230.1 L306.7,229.9 L305.8,230.6 L304.7,231.1 L303.9,231.2 L303.6,231.7 L302.4,231.6 L300.9,230.3 L300.7,229.1 L300.1,227.8 L300.5,225.6 L301.2,224.7 L300.6,223.4 L299.7,223.1 L300.0,221.9 L299.5,221.3 L298.2,221.4 L296.5,219.4 L297.2,218.7 L297.1,217.5 L298.6,217.1 L299.3,216.6 L298.4,215.6 L298.6,214.7 L300.6,213.2 L302.2,214.1 L303.8,215.8 L303.9,217.2 L304.8,217.2 L306.1,218.5 L307.1,219.4 L306.7,221.8 L305.2,222.4 L305.3,223.0 L304.9,224.4 L306.0,226.3 L306.8,226.3 L307.1,227.8 L308.7,230.0 Z" fill="#e7ece6" stroke="#9ca89f" stroke-width="0.6" fill-rule="evenodd" vector-effect="non-scaling-stroke"/>
      <path d="M313.7,229.0 L312.3,228.4 L311.1,228.7 L310.1,228.4 L309.8,229.2 L310.2,229.7 L310.0,230.3 L308.7,230.0 L307.1,227.8 L306.8,226.3 L306.0,226.3 L304.9,224.4 L305.3,223.0 L305.2,222.4 L306.7,221.8 L307.1,219.4 L310.1,219.9 L310.4,219.5 L312.4,219.3 L315.1,220.0 L313.8,222.2 L314.0,224.0 L315.0,225.5 L314.5,226.7 L314.3,227.9 L313.7,229.0 Z" fill="#e7ece6" stroke="#9ca89f" stroke-width="0.6" fill-rule="evenodd" vector-effect="non-scaling-stroke"/>
      <path d="M320.9,224.1 L319.4,226.5 L318.6,228.5 L317.7,229.5 L316.5,229.6 L316.1,228.9 L315.6,228.8 L314.8,229.5 L313.7,229.0 L314.3,227.9 L314.5,226.7 L315.0,225.5 L314.0,224.0 L313.8,222.2 L315.1,220.0 L316.0,220.3 L317.8,220.9 L320.4,223.1 L320.9,224.1 Z M465.5,105.8 L466.6,106.5 L470.2,107.0 L469.0,108.8 L468.7,110.7 L468.0,111.1 L466.8,110.9 L466.9,111.5 L465.1,113.0 L465.1,114.2 L466.3,113.8 L467.1,114.9 L467.0,115.6 L467.7,116.6 L466.9,117.4 L467.5,119.4 L468.9,119.8 L468.6,120.9 L466.3,122.4 L461.4,121.7 L457.8,122.5 L457.5,124.1 L454.6,124.4 L451.8,123.3 L450.8,123.8 L446.2,122.6 L445.2,121.6 L446.5,120.1 L447.0,114.8 L444.4,112.1 L442.6,110.8 L438.8,109.8 L438.5,107.9 L441.8,107.3 L446.0,108.0 L445.2,105.0 L447.5,106.1 L453.3,104.1 L454.1,102.0 L456.3,101.4 L456.6,102.4 L457.8,102.4 L459.0,103.5 L460.7,104.7 L462.0,104.5 L464.2,105.7 L464.7,105.9 L465.5,105.8 Z M471.9,123.7 L473.5,122.7 L473.9,124.9 L473.1,127.0 L471.9,126.4 L471.4,124.7 L471.9,123.7 Z" fill="#e7ece6" stroke="#9ca89f" stroke-width="0.6" fill-rule="evenodd" vector-effect="non-scaling-stroke"/>
      <path d="M261.6,235.4 L261.9,237.4 L261.1,239.1 L258.4,241.8 L255.4,242.8 L253.9,245.1 L253.4,246.9 L252.0,247.9 L250.9,246.6 L249.9,246.3 L248.9,246.6 L248.8,245.6 L249.5,245.0 L249.2,243.9 L250.6,241.9 L250.0,240.8 L249.1,242.0 L247.6,240.9 L248.1,240.1 L247.7,237.8 L248.5,237.4 L249.0,235.7 L249.9,234.1 L249.8,233.0 L251.1,232.4 L252.9,231.4 L255.4,232.9 L255.8,232.8 L256.4,234.0 L258.6,234.3 L259.3,233.9 L260.5,234.8 L261.6,235.4 Z" fill="#e7ece6" stroke="#9ca89f" stroke-width="0.6" fill-rule="evenodd" vector-effect="non-scaling-stroke"/>
      <path d="M284.3,186.7 L285.6,186.9 L286.0,187.4 L285.4,188.1 L283.5,188.0 L282.0,188.1 L281.9,187.0 L282.2,186.6 L284.3,186.7 Z" fill="#e7ece6" stroke="#9ca89f" stroke-width="0.6" fill-rule="evenodd" vector-effect="non-scaling-stroke"/>
      <path d="M256.1,186.7 L257.8,187.0 L259.1,187.6 L259.5,188.3 L257.7,188.3 L257.0,188.8 L255.6,188.4 L254.2,187.4 L254.5,186.8 L255.5,186.6 L256.1,186.7 Z" fill="#e7ece6" stroke="#9ca89f" stroke-width="0.6" fill-rule="evenodd" vector-effect="non-scaling-stroke"/>
      <path d="M304.6,287.7 L305.3,289.1 L305.2,292.7 L307.8,293.2 L308.8,292.7 L310.5,293.4 L311.0,294.2 L311.2,296.5 L311.5,297.6 L312.4,297.7 L313.4,297.2 L314.3,297.7 L314.3,299.2 L313.9,300.7 L313.4,302.2 L313.0,304.5 L310.8,306.5 L308.8,306.9 L306.0,306.5 L303.5,305.8 L305.9,301.9 L305.6,300.7 L303.0,299.7 L299.9,297.8 L297.9,297.4 L293.3,293.1 L294.3,290.0 L294.3,288.6 L295.5,286.3 L299.9,285.5 L302.2,285.5 L304.5,286.9 L304.6,287.7 Z" fill="#e7ece6" stroke="#9ca89f" stroke-width="0.6" fill-rule="evenodd" vector-effect="non-scaling-stroke"/>
      <path d="M295.8,206.9 L297.2,206.6 L297.8,206.7 L297.7,208.6 L295.6,208.9 L295.1,208.7 L295.9,207.9 L295.8,206.9 Z" fill="#e7ece6" stroke="#9ca89f" stroke-width="0.6" fill-rule="evenodd" vector-effect="non-scaling-stroke"/>
  </g>
  <path d="M275.3,246.2 L273.0,246.1 L272.7,246.5 L270.6,247.0 L267.8,248.8 L267.6,250.0 L267.0,250.9 L267.2,252.3 L265.7,253.1 L265.7,254.2 L265.0,254.6 L266.1,257.0 L267.5,258.6 L266.9,259.7 L268.6,259.9 L269.5,261.3 L271.7,261.3 L273.8,259.8 L273.6,263.7 L274.8,264.0 L276.2,263.6 L278.3,267.8 L277.8,268.7 L277.7,270.5 L277.6,272.7 L276.7,274.0 L277.1,275.0 L276.5,275.9 L277.6,278.1 L276.0,280.9 L275.4,282.2 L274.1,282.9 L271.6,281.4 L271.3,280.3 L266.4,277.7 L261.9,274.9 L260.0,273.3 L258.9,271.1 L259.4,270.3 L257.2,266.9 L254.8,262.1 L252.4,256.9 L251.4,255.7 L250.6,253.8 L248.7,252.1 L246.9,251.0 L247.7,249.9 L246.5,247.4 L247.3,245.5 L249.2,243.9 L249.5,245.0 L248.8,245.6 L248.9,246.6 L249.9,246.3 L250.9,246.6 L252.0,247.9 L253.4,246.9 L253.9,245.1 L255.4,242.8 L258.4,241.8 L261.1,239.1 L261.9,237.4 L261.6,235.4 L262.2,235.1 L263.9,236.4 L264.7,237.6 L265.9,238.3 L267.3,241.0 L269.2,241.4 L270.6,240.7 L271.5,241.1 L273.0,240.9 L274.9,242.1 L273.3,244.8 L274.0,244.8 L275.3,246.2 Z" fill="#2f7d4f" stroke="#173f3a" stroke-width="1.8" fill-rule="evenodd" vector-effect="non-scaling-stroke"/>
  <circle cx="267.7" cy="268.9" r="4.8" fill="#c2563d" stroke="#ffffff" stroke-width="1.4"/>
</svg>
