<svg xmlns="http://www.w3.org/2000/svg" viewBox="227.2 256.2 153.2 80" role="img" aria-label="Wereldkaart met een land ingekleurd">
  <rect width="900" height="470" fill="#ffffff"/>
  <g>
      <path d="M900.0,277.0 L900.0,278.2 L898.4,278.9 L896.8,279.4 L896.5,278.4 L897.7,277.9 L898.5,277.8 L900.0,277.0 Z M895.3,280.7 L895.9,280.3 L896.8,281.0 L896.4,282.4 L894.8,282.8 L893.5,282.4 L893.2,281.3 L894.2,280.4 L895.3,280.7 Z M0.5,276.8 L0.2,278.1 L0.0,278.2 L0.0,277.0 L0.5,276.8 Z" fill="#e7ece6" stroke="#9ca89f" stroke-width="0.6" fill-rule="evenodd" vector-effect="non-scaling-stroke"/>
      <path d="M278.4,372.4 L279.4,373.6 L280.6,375.6 L283.9,377.2 L287.4,377.8 L286.2,379.1 L283.9,379.3 L282.6,378.3 L281.1,378.3 L278.4,378.3 L278.4,372.4 Z M305.9,313.9 L305.3,316.0 L304.6,318.7 L304.7,321.3 L304.1,321.9 L303.9,323.5 L303.8,324.9 L306.9,327.1 L306.6,328.9 L308.2,330.1 L308.0,331.4 L305.6,334.7 L301.9,336.1 L296.9,336.6 L294.2,336.4 L294.7,337.9 L294.2,339.9 L294.6,341.2 L293.1,342.1 L290.6,342.5 L288.2,341.5 L287.2,342.2 L287.6,344.8 L289.2,345.6 L290.6,344.8 L291.4,346.1 L289.1,346.9 L287.0,348.6 L286.7,351.2 L286.1,352.6 L283.7,352.6 L281.8,353.9 L281.0,355.9 L283.5,357.8 L285.9,358.3 L285.0,360.7 L282.1,362.2 L280.5,365.2 L278.2,366.2 L277.2,367.5 L278.0,370.2 L279.6,371.7 L278.6,371.6 L276.3,371.2 L270.2,370.8 L269.2,369.3 L269.2,367.3 L267.6,367.5 L266.7,366.5 L266.5,363.8 L268.4,362.6 L269.2,361.0 L268.9,359.7 L270.2,357.4 L271.1,354.0 L270.9,352.4 L271.9,351.9 L271.7,351.0 L270.5,350.4 L271.3,349.3 L270.2,348.3 L269.6,345.3 L270.6,344.8 L270.2,341.6 L270.8,338.9 L271.5,336.6 L273.0,335.7 L272.2,333.1 L272.2,330.7 L274.1,329.0 L274.0,326.8 L275.5,324.3 L275.5,321.9 L274.8,321.4 L273.7,316.9 L275.2,314.2 L275.0,311.7 L275.9,309.3 L277.5,306.9 L279.3,305.2 L278.5,304.2 L279.0,303.4 L279.0,299.0 L281.7,297.7 L282.5,295.0 L282.2,294.4 L284.3,292.0 L287.6,292.6 L289.1,294.5 L290.0,292.4 L292.9,292.5 L293.3,293.1 L297.9,297.4 L299.9,297.8 L303.0,299.7 L305.6,300.7 L305.9,301.9 L303.5,305.8 L306.0,306.5 L308.8,306.9 L310.8,306.5 L313.0,304.5 L313.4,302.2 L314.7,301.7 L315.9,303.2 L315.9,305.3 L313.8,306.7 L312.1,307.8 L309.3,310.3 L305.9,313.9 Z" fill="#e7ece6" stroke="#9ca89f" stroke-width="0.6" fill-rule="evenodd" vector-effect="non-scaling-stroke"/>
      <path d="M278.4,372.4 L278.4,378.3 L281.1,378.3 L282.6,378.3 L281.8,379.4 L279.6,380.2 L278.4,380.1 L276.9,379.9 L275.1,379.1 L272.5,378.8 L269.3,377.3 L266.8,375.9 L263.3,373.0 L265.4,373.5 L268.9,375.3 L272.2,376.2 L273.5,375.0 L274.3,373.2 L276.6,372.1 L278.4,372.4 Z M276.0,280.9 L277.2,282.7 L277.6,284.6 L278.9,285.7 L278.1,288.2 L279.5,291.1 L280.4,294.7 L282.2,294.4 L282.5,295.0 L281.7,297.7 L279.0,299.0 L279.0,303.4 L278.5,304.2 L279.3,305.2 L277.5,306.9 L275.9,309.3 L275.0,311.7 L275.2,314.2 L273.7,316.9 L274.8,321.4 L275.5,321.9 L275.5,324.3 L274.0,326.8 L274.1,329.0 L272.2,330.7 L272.2,333.1 L273.0,335.7 L271.5,336.6 L270.8,338.9 L270.2,341.6 L270.6,344.8 L269.6,345.3 L270.2,348.3 L271.3,349.3 L270.5,350.4 L271.7,351.0 L271.9,351.9 L270.9,352.4 L271.1,354.0 L270.2,357.4 L268.9,359.7 L269.2,361.0 L268.4,362.6 L266.5,363.8 L266.7,366.5 L267.6,367.5 L269.2,367.3 L269.2,369.3 L270.2,370.8 L276.3,371.2 L278.6,371.6 L276.3,371.5 L275.1,372.2 L272.9,373.1 L272.5,375.6 L271.4,375.6 L268.6,374.8 L265.7,373.0 L265.7,373.0 L262.6,371.5 L261.8,369.8 L262.6,368.3 L261.3,366.5 L261.0,362.1 L262.0,359.6 L264.7,357.6 L260.9,356.8 L263.3,354.5 L264.1,350.2 L266.9,351.1 L268.2,345.7 L266.5,345.0 L265.7,348.2 L264.2,347.9 L265.0,344.1 L265.8,339.3 L267.0,337.5 L266.2,335.0 L266.0,332.0 L267.1,331.9 L268.6,327.7 L270.3,323.5 L271.4,319.6 L270.8,315.7 L271.6,313.6 L271.3,310.4 L272.7,307.2 L273.2,302.1 L274.0,296.7 L274.8,290.9 L274.6,286.6 L274.1,282.9 L275.4,282.2 L276.0,280.9 Z" fill="#e7ece6" stroke="#9ca89f" stroke-width="0.6" fill-rule="evenodd" vector-effect="non-scaling-stroke"/>
      <path d="M305.9,313.9 L307.6,313.6 L310.1,315.6 L311.0,315.6 L313.6,317.2 L315.5,318.7 L317.0,320.5 L315.9,321.7 L316.6,323.2 L315.5,324.8 L312.7,326.3 L310.8,325.7 L309.5,326.0 L307.2,324.9 L305.5,325.0 L303.9,323.5 L304.1,321.9 L304.7,321.3 L304.6,318.7 L305.3,316.0 L305.9,313.9 Z" fill="#e7ece6" stroke="#9ca89f" stroke-width="0.6" fill-rule="evenodd" vector-effect="non-scaling-stroke"/>
      <path d="M316.6,323.2 L315.9,321.7 L317.0,320.5 L315.5,318.7 L313.6,317.2 L311.0,315.6 L310.1,315.6 L307.6,313.6 L305.9,313.9 L309.3,310.3 L312.1,307.8 L313.8,306.7 L315.9,305.3 L315.9,303.2 L314.7,301.7 L313.4,302.2 L313.9,300.7 L314.3,299.2 L314.3,297.7 L313.4,297.2 L312.4,297.7 L311.5,297.6 L311.2,296.5 L311.0,294.2 L310.5,293.4 L308.8,292.7 L307.8,293.2 L305.2,292.7 L305.3,289.1 L304.6,287.7 L305.4,287.1 L305.1,285.7 L305.8,284.5 L306.3,282.5 L305.7,280.8 L304.3,280.1 L304.0,279.1 L304.4,277.6 L299.6,277.5 L298.6,274.4 L299.4,274.4 L299.3,273.2 L298.9,272.5 L298.7,271.0 L297.3,270.2 L295.7,270.2 L294.7,269.5 L293.0,268.9 L292.0,268.0 L289.2,267.5 L286.5,265.2 L286.7,263.5 L286.4,262.4 L286.7,260.5 L283.4,260.9 L282.1,261.9 L279.9,263.0 L279.3,263.8 L278.0,263.8 L276.2,263.6 L274.8,264.0 L273.6,263.7 L273.8,259.8 L271.7,261.3 L269.5,261.3 L268.6,259.9 L266.9,259.7 L267.5,258.6 L266.1,257.0 L265.0,254.6 L265.7,254.2 L265.7,253.1 L267.2,252.3 L267.0,250.9 L267.6,250.0 L267.8,248.8 L270.6,247.0 L272.7,246.5 L273.0,246.1 L275.3,246.2 L276.4,239.1 L276.4,237.9 L276.1,236.4 L274.9,235.5 L275.0,233.6 L276.4,233.2 L276.9,233.4 L277.0,232.4 L275.5,232.2 L275.5,230.5 L280.3,230.6 L281.2,229.7 L281.9,230.5 L282.3,232.0 L282.8,231.7 L284.2,233.1 L286.1,232.9 L286.6,232.1 L288.5,231.5 L289.5,231.1 L289.8,230.0 L291.6,229.3 L291.4,228.7 L289.3,228.5 L289.0,226.8 L289.1,225.1 L288.0,224.4 L288.4,224.2 L290.3,224.5 L292.3,225.2 L293.0,224.5 L294.8,224.1 L297.6,223.2 L298.5,222.2 L298.2,221.4 L299.5,221.3 L300.0,221.9 L299.7,223.1 L300.6,223.4 L301.2,224.7 L300.5,225.6 L300.1,227.8 L300.7,229.1 L300.9,230.3 L302.4,231.6 L303.6,231.7 L303.9,231.2 L304.7,231.1 L305.8,230.6 L306.7,229.9 L308.0,230.1 L308.7,230.0 L310.0,230.3 L310.2,229.7 L309.8,229.2 L310.1,228.4 L311.1,228.7 L312.3,228.4 L313.7,229.0 L314.8,229.5 L315.6,228.8 L316.1,228.9 L316.5,229.6 L317.7,229.5 L318.6,228.5 L319.4,226.5 L320.9,224.1 L321.7,224.0 L322.3,225.5 L323.7,230.0 L325.1,230.5 L325.1,232.3 L323.3,234.4 L324.0,235.2 L328.4,235.6 L328.5,238.2 L330.4,236.5 L333.6,237.5 L337.7,239.1 L339.0,240.6 L338.5,242.0 L341.5,241.2 L346.3,242.6 L350.1,242.5 L353.7,244.7 L356.9,247.6 L358.9,248.3 L361.0,248.4 L361.9,249.3 L362.8,252.6 L363.2,254.2 L362.2,258.5 L360.9,260.2 L357.4,263.8 L355.8,266.8 L353.9,269.0 L353.3,269.1 L352.6,271.0 L352.8,275.9 L352.1,279.9 L351.8,281.7 L351.0,282.7 L350.6,286.2 L348.1,289.6 L347.6,292.3 L345.6,293.4 L345.0,295.0 L342.3,295.0 L338.4,296.0 L336.6,297.1 L333.8,297.9 L330.9,300.0 L328.8,302.6 L328.4,304.5 L328.8,306.0 L328.3,308.6 L327.8,309.9 L326.0,311.3 L323.3,315.9 L321.1,318.0 L319.4,319.2 L318.2,321.7 L316.6,323.2 Z" fill="#e7ece6" stroke="#9ca89f" stroke-width="0.6" fill-rule="evenodd" vector-effect="non-scaling-stroke"/>
      <path d="M276.2,263.6 L278.0,263.8 L279.3,263.8 L279.9,263.0 L282.1,261.9 L283.4,260.9 L286.7,260.5 L286.4,262.4 L286.7,263.5 L286.5,265.2 L289.2,267.5 L292.0,268.0 L293.0,268.9 L294.7,269.5 L295.7,270.2 L297.3,270.2 L298.7,271.0 L298.9,272.5 L299.3,273.2 L299.4,274.4 L298.6,274.4 L299.6,277.5 L304.4,277.6 L304.0,279.1 L304.3,280.1 L305.7,280.8 L306.3,282.5 L305.8,284.5 L305.1,285.7 L305.4,287.1 L304.6,287.7 L304.5,286.9 L302.2,285.5 L299.9,285.5 L295.5,286.3 L294.3,288.6 L294.3,290.0 L293.3,293.1 L292.9,292.5 L290.0,292.4 L289.1,294.5 L287.6,292.6 L284.3,292.0 L282.2,294.4 L280.4,294.7 L279.5,291.1 L278.1,288.2 L278.9,285.7 L277.6,284.6 L277.2,282.7 L276.0,280.9 L277.6,278.1 L276.5,275.9 L277.1,275.0 L276.7,274.0 L277.6,272.7 L277.7,270.5 L277.8,268.7 L278.3,267.8 L276.2,263.6 Z" fill="#e7ece6" stroke="#9ca89f" stroke-width="0.6" fill-rule="evenodd" vector-effect="non-scaling-stroke"/>
      <path d="M275.3,246.2 L273.0,246.1 L272.7,246.5 L270.6,247.0 L267.8,248.8 L267.6,250.0 L267.0,250.9 L267.2,252.3 L265.7,253.1 L265.7,254.2 L265.0,254.6 L266.1,257.0 L267.5,258.6 L266.9,259.7 L268.6,259.9 L269.5,261.3 L271.7,261.3 L273.8,259.8 L273.6,263.7 L274.8,264.0 L276.2,263.6 L278.3,267.8 L277.8,268.7 L277.7,270.5 L277.6,272.7 L276.7,274.0 L277.1,275.0 L276.5,275.9 L277.6,278.1 L276.0,280.9 L275.4,282.2 L274.1,282.9 L271.6,281.4 L271.3,280.3 L266.4,277.7 L261.9,274.9 L260.0,273.3 L258.9,271.1 L259.4,270.3 L257.2,266.9 L254.8,262.1 L252.4,256.9 L251.4,255.7 L250.6,253.8 L248.7,252.1 L246.9,251.0 L247.7,249.9 L246.5,247.4 L247.3,245.5 L249.2,243.9 L249.5,245.0 L248.8,245.6 L248.9,246.6 L249.9,246.3 L250.9,246.6 L252.0,247.9 L253.4,246.9 L253.9,245.1 L255.4,242.8 L258.4,241.8 L261.1,239.1 L261.9,237.4 L261.6,235.4 L262.2,235.1 L263.9,236.4 L264.7,237.6 L265.9,238.3 L267.3,241.0 L269.2,241.4 L270.6,240.7 L271.5,241.1 L273.0,240.9 L274.9,242.1 L273.3,244.8 L274.0,244.8 L275.3,246.2 Z" fill="#e7ece6" stroke="#9ca89f" stroke-width="0.6" fill-rule="evenodd" vector-effect="non-scaling-stroke"/>
      <path d="M304.6,287.7 L305.3,289.1 L305.2,292.7 L307.8,293.2 L308.8,292.7 L310.5,293.4 L311.0,294.2 L311.2,296.5 L311.5,297.6 L312.4,297.7 L313.4,297.2 L314.3,297.7 L314.3,299.2 L313.9,300.7 L313.4,302.2 L313.0,304.5 L310.8,306.5 L308.8,306.9 L306.0,306.5 L303.5,305.8 L305.9,301.9 L305.6,300.7 L303.0,299.7 L299.9,297.8 L297.9,297.4 L293.3,293.1 L294.3,290.0 L294.3,288.6 L295.5,286.3 L299.9,285.5 L302.2,285.5 L304.5,286.9 L304.6,287.7 Z" fill="#e7ece6" stroke="#9ca89f" stroke-width="0.6" fill-rule="evenodd" vector-effect="non-scaling-stroke"/>
  </g>
  <path d="M304.6,287.7 L305.3,289.1 L305.2,292.7 L307.8,293.2 L308.8,292.7 L310.5,293.4 L311.0,294.2 L311.2,296.5 L311.5,297.6 L312.4,297.7 L313.4,297.2 L314.3,297.7 L314.3,299.2 L313.9,300.7 L313.4,302.2 L313.0,304.5 L310.8,306.5 L308.8,306.9 L306.0,306.5 L303.5,305.8 L305.9,301.9 L305.6,300.7 L303.0,299.7 L299.9,297.8 L297.9,297.4 L293.3,293.1 L294.3,290.0 L294.3,288.6 L295.5,286.3 L299.9,285.5 L302.2,285.5 L304.5,286.9 L304.6,287.7 Z" fill="#146c65" stroke="#ffffff" stroke-width="5.2" stroke-linejoin="round" fill-rule="evenodd" vector-effect="non-scaling-stroke"/>
  <path d="M304.6,287.7 L305.3,289.1 L305.2,292.7 L307.8,293.2 L308.8,292.7 L310.5,293.4 L311.0,294.2 L311.2,296.5 L311.5,297.6 L312.4,297.7 L313.4,297.2 L314.3,297.7 L314.3,299.2 L313.9,300.7 L313.4,302.2 L313.0,304.5 L310.8,306.5 L308.8,306.9 L306.0,306.5 L303.5,305.8 L305.9,301.9 L305.6,300.7 L303.0,299.7 L299.9,297.8 L297.9,297.4 L293.3,293.1 L294.3,290.0 L294.3,288.6 L295.5,286.3 L299.9,285.5 L302.2,285.5 L304.5,286.9 L304.6,287.7 Z" fill="#146c65" stroke="#062f2b" stroke-width="2.4" stroke-linejoin="round" fill-rule="evenodd" vector-effect="non-scaling-stroke"/>
</svg>
