<svg xmlns="http://www.w3.org/2000/svg" viewBox="0 0 860 580" role="img" aria-label="Kaart van Belgie met een provincie ingekleurd">
  <rect width="860" height="580" fill="#ffffff"/>
  <g>
      <path d="M131.3,207.1 L129.9,207.1 L127.5,206.5 L126.2,206.0 L125.4,204.5 L123.9,201.2 L123.2,200.3 L121.2,199.3 L120.6,198.4 L120.8,197.2 L122.1,194.3 L122.3,192.6 L119.0,181.1 L120.0,178.7 L123.8,174.9 L124.8,173.3 L124.2,168.1 L121.6,164.2 L115.7,157.6 L114.0,152.6 L112.4,141.0 L109.8,135.0 L113.2,132.6 L119.5,130.5 L142.1,113.6 L176.6,93.4 L210.1,71.6 L247.3,59.7 L247.4,59.7 L248.8,69.8 L248.1,76.3 L248.0,82.4 L250.4,88.9 L254.4,93.3 L255.6,93.9 L255.8,94.4 L250.3,97.8 L253.1,104.6 L249.1,107.4 L253.6,108.9 L257.5,115.8 L251.6,127.0 L244.3,131.7 L263.1,145.0 L259.5,147.6 L264.4,156.1 L260.1,162.6 L262.9,166.4 L257.8,168.7 L265.8,172.7 L262.5,172.6 L265.0,175.1 L263.8,176.3 L259.9,175.7 L261.2,178.8 L259.0,180.9 L260.3,184.5 L264.2,182.2 L266.8,183.3 L268.1,188.2 L264.2,192.2 L274.5,201.0 L272.3,203.7 L276.2,209.0 L275.7,210.9 L265.4,218.6 L257.9,224.1 L250.4,232.0 L249.7,234.0 L248.1,233.5 L247.1,233.4 L243.0,230.4 L243.3,226.8 L239.7,221.7 L232.7,222.8 L225.8,218.9 L218.4,222.7 L216.4,223.4 L213.6,218.5 L210.8,215.8 L206.5,214.5 L193.3,218.6 L193.1,217.8 L191.7,209.0 L189.1,207.3 L179.5,211.2 L179.3,212.4 L182.7,216.4 L176.4,219.0 L175.7,221.4 L171.0,222.3 L168.6,220.2 L167.5,220.5 L163.1,223.2 L166.5,234.0 L167.2,236.5 L153.9,230.4 L150.8,227.8 L149.9,226.2 L147.7,220.9 L146.7,219.2 L140.6,213.3 L139.5,211.3 L138.9,209.5 L138.1,208.0 L135.9,206.9 L134.3,206.7 L131.3,207.1 Z" fill="#d9dee3" stroke="#7c8794" stroke-width="1.2" fill-rule="evenodd" stroke-linejoin="round"/>
      <path d="M170.5,237.4 L167.9,236.8 L167.2,236.5 L166.5,234.0 L163.1,223.2 L167.5,220.5 L168.6,220.2 L171.0,222.3 L175.7,221.4 L176.4,219.0 L182.7,216.4 L179.3,212.4 L179.5,211.2 L189.1,207.3 L191.7,209.0 L193.1,217.8 L193.3,218.6 L184.6,221.4 L180.7,223.8 L177.7,227.0 L172.7,235.7 L170.5,237.4 Z M249.3,291.6 L246.4,290.7 L239.2,286.9 L237.0,285.2 L234.4,281.8 L233.5,278.8 L233.2,270.5 L228.9,255.8 L227.5,248.2 L229.8,243.8 L227.9,237.6 L226.6,235.2 L224.4,234.4 L222.0,234.1 L220.7,232.6 L218.7,227.6 L216.4,223.4 L218.4,222.7 L225.8,218.9 L232.7,222.8 L239.7,221.7 L243.3,226.8 L243.0,230.4 L247.1,233.4 L248.1,233.5 L249.7,234.0 L250.4,232.0 L257.9,224.1 L265.4,218.6 L271.4,221.1 L278.1,219.1 L279.2,227.4 L290.1,227.6 L294.8,230.8 L301.6,217.7 L306.3,215.0 L308.1,218.5 L315.3,215.5 L318.1,223.7 L324.7,222.9 L326.9,225.1 L336.3,223.1 L338.1,227.6 L336.9,231.9 L337.7,234.8 L340.0,237.9 L343.6,239.2 L353.7,239.5 L357.0,236.8 L360.2,237.8 L364.1,235.8 L365.2,237.6 L367.6,233.1 L372.1,234.6 L374.2,234.7 L371.2,235.6 L370.5,239.0 L370.7,248.6 L372.3,253.3 L375.2,254.5 L379.1,253.9 L384.3,246.7 L386.2,246.0 L389.4,250.2 L388.5,255.7 L397.4,257.9 L396.5,263.4 L401.9,264.5 L406.1,271.0 L411.0,270.5 L410.5,277.2 L414.7,272.5 L424.1,271.5 L425.8,273.3 L433.3,273.3 L434.1,274.6 L433.6,281.1 L439.1,278.2 L438.9,280.7 L441.4,281.8 L451.4,277.5 L448.4,290.4 L454.4,288.9 L453.1,291.3 L455.1,294.2 L452.9,300.3 L450.7,300.7 L452.3,302.5 L450.7,304.1 L457.9,308.5 L455.4,313.9 L452.8,314.8 L456.2,318.8 L452.2,325.5 L453.2,335.4 L442.0,337.2 L438.9,333.3 L434.3,333.7 L430.9,339.6 L421.7,338.3 L420.4,343.2 L417.4,343.1 L415.2,347.0 L409.6,347.4 L403.0,352.3 L405.8,356.0 L411.8,359.6 L413.1,359.6 L416.2,356.0 L419.7,356.8 L422.1,358.6 L420.1,367.0 L421.4,370.8 L415.4,375.5 L421.7,386.7 L419.6,391.2 L419.7,401.7 L420.4,405.9 L423.1,406.9 L424.4,420.5 L429.3,430.6 L427.1,436.1 L426.6,437.2 L426.6,437.2 L401.7,430.2 L391.4,431.8 L388.9,432.1 L386.7,431.5 L377.4,426.4 L377.5,426.4 L378.7,426.5 L378.5,422.6 L377.6,418.6 L376.8,418.3 L377.5,415.2 L378.3,413.3 L379.5,411.8 L382.6,408.9 L386.4,406.1 L390.4,404.1 L390.5,402.3 L389.3,400.3 L388.3,397.8 L385.5,386.5 L383.9,385.6 L382.1,385.9 L378.8,387.5 L376.4,386.3 L376.8,381.5 L380.0,371.0 L380.9,366.3 L381.7,364.1 L383.4,361.6 L387.3,358.5 L389.0,356.6 L389.4,353.8 L388.4,352.1 L386.3,350.3 L384.1,348.9 L382.6,348.3 L380.5,349.2 L380.4,350.9 L380.6,352.7 L379.4,353.9 L376.3,352.5 L371.8,342.6 L368.3,339.5 L364.8,337.4 L359.3,331.3 L356.1,329.7 L352.5,330.1 L342.0,334.6 L338.2,334.6 L335.2,333.2 L332.4,331.2 L329.0,329.4 L322.1,328.6 L314.8,329.1 L312.6,330.0 L311.2,331.5 L308.2,336.6 L307.5,338.8 L307.1,339.6 L306.3,340.1 L306.0,339.9 L305.8,340.0 L305.1,341.7 L299.3,336.2 L297.8,325.5 L297.8,313.3 L296.4,303.2 L293.7,298.2 L290.4,295.0 L286.8,293.2 L283.0,292.4 L272.3,292.3 L270.2,290.8 L271.8,287.9 L272.1,285.8 L271.0,284.4 L268.6,283.7 L266.2,283.9 L264.5,285.0 L262.9,286.7 L260.6,288.4 L253.4,291.1 L249.3,291.6 Z" fill="#2f7d4f" stroke="#173f3a" stroke-width="2.2" fill-rule="evenodd" stroke-linejoin="round"/>
      <path d="M493.7,382.3 L491.8,381.5 L491.1,377.6 L486.6,379.7 L468.8,397.8 L467.9,399.9 L467.4,402.5 L467.8,404.1 L468.5,405.4 L468.6,407.2 L467.4,415.5 L466.2,419.7 L464.7,422.7 L462.9,423.9 L455.9,425.0 L432.8,436.7 L427.8,437.6 L426.6,437.2 L426.6,437.2 L427.1,436.1 L429.3,430.6 L424.4,420.5 L423.1,406.9 L420.4,405.9 L419.7,401.7 L419.6,391.2 L421.7,386.7 L415.4,375.5 L421.4,370.8 L420.1,367.0 L422.1,358.6 L419.7,356.8 L416.2,356.0 L413.1,359.6 L411.8,359.6 L405.8,356.0 L403.0,352.3 L409.6,347.4 L415.2,347.0 L417.4,343.1 L420.4,343.2 L421.7,338.3 L430.9,339.6 L434.3,333.7 L438.9,333.3 L442.0,337.2 L453.2,335.4 L452.2,325.5 L456.2,318.8 L452.8,314.8 L455.4,313.9 L457.9,308.5 L450.7,304.1 L452.3,302.5 L450.7,300.7 L452.9,300.3 L455.1,294.2 L453.1,291.3 L454.4,288.9 L448.4,290.4 L451.4,277.5 L450.8,273.1 L453.6,270.8 L456.5,270.4 L462.6,272.6 L466.3,271.7 L464.4,263.6 L466.2,260.5 L467.8,260.5 L472.5,263.7 L473.2,260.8 L477.5,259.6 L478.6,264.9 L485.3,262.3 L487.1,265.1 L486.5,262.0 L487.3,261.2 L505.2,256.5 L505.3,254.9 L509.7,255.3 L513.5,250.1 L518.8,251.3 L518.2,257.6 L526.3,265.3 L530.6,277.9 L527.5,280.3 L536.7,280.8 L539.2,287.0 L541.5,287.4 L545.5,285.5 L543.2,287.7 L544.4,291.8 L547.6,291.3 L546.8,293.6 L548.7,296.8 L554.3,294.5 L557.9,298.1 L561.0,305.1 L558.4,310.2 L560.4,313.6 L568.6,315.9 L568.5,320.7 L570.8,323.9 L579.9,317.8 L586.9,320.2 L588.4,323.6 L584.9,328.3 L587.3,331.4 L578.2,338.2 L579.5,339.5 L581.6,336.5 L585.4,336.2 L587.1,340.4 L587.0,344.4 L582.4,349.2 L570.7,356.9 L568.9,354.5 L567.1,354.7 L563.4,357.3 L563.8,360.4 L559.0,360.0 L555.9,362.2 L562.3,365.8 L560.5,368.4 L562.5,368.4 L562.3,371.1 L568.2,378.1 L566.6,382.8 L561.9,384.3 L566.1,388.3 L565.3,391.1 L560.8,390.7 L556.3,393.9 L552.8,394.6 L537.2,395.7 L533.7,394.5 L532.7,387.1 L530.3,397.2 L531.7,398.7 L530.0,403.1 L524.5,408.9 L522.9,409.4 L521.4,407.8 L520.2,411.9 L517.1,411.8 L521.1,415.8 L523.3,424.3 L525.0,425.2 L532.1,423.8 L533.6,427.3 L538.5,429.9 L537.9,435.7 L541.5,439.4 L533.1,442.8 L528.9,446.8 L531.7,449.6 L519.2,458.8 L518.5,461.0 L519.9,466.1 L517.8,466.7 L517.0,471.2 L516.5,472.9 L516.5,473.0 L513.4,473.1 L506.2,475.7 L502.5,476.3 L498.1,475.7 L496.6,473.7 L496.7,463.9 L496.2,462.4 L494.6,459.6 L494.3,458.3 L494.6,456.7 L496.1,454.9 L496.6,453.6 L497.5,450.4 L498.3,448.2 L498.8,445.9 L498.5,442.5 L495.9,437.7 L488.0,434.4 L485.8,430.7 L486.5,426.6 L492.9,410.4 L493.1,407.6 L492.8,405.4 L493.0,403.0 L496.1,396.1 L497.1,395.8 L498.9,397.8 L499.3,393.2 L500.2,387.8 L500.4,383.2 L498.9,381.2 L493.7,382.3 Z" fill="#d9dee3" stroke="#7c8794" stroke-width="1.2" fill-rule="evenodd" stroke-linejoin="round"/>
      <path d="M553.7,502.9 L549.9,501.7 L546.9,499.4 L544.4,497.0 L537.3,486.5 L535.3,484.6 L529.4,482.8 L526.1,480.9 L519.9,474.7 L516.9,473.0 L516.5,473.0 L516.5,472.9 L517.0,471.2 L517.8,466.7 L519.9,466.1 L518.5,461.0 L519.2,458.8 L531.7,449.6 L528.9,446.8 L533.1,442.8 L541.5,439.4 L537.9,435.7 L538.5,429.9 L533.6,427.3 L532.1,423.8 L525.0,425.2 L523.3,424.3 L521.1,415.8 L517.1,411.8 L520.2,411.9 L521.4,407.8 L522.9,409.4 L524.5,408.9 L530.0,403.1 L531.7,398.7 L530.3,397.2 L532.7,387.1 L533.7,394.5 L537.2,395.7 L552.8,394.6 L556.3,393.9 L560.8,390.7 L565.3,391.1 L566.1,388.3 L561.9,384.3 L566.6,382.8 L568.2,378.1 L562.3,371.1 L562.5,368.4 L560.5,368.4 L562.3,365.8 L555.9,362.2 L559.0,360.0 L563.8,360.4 L563.4,357.3 L567.1,354.7 L568.9,354.5 L570.7,356.9 L582.4,349.2 L587.0,344.4 L587.1,340.4 L585.4,336.2 L581.6,336.5 L579.5,339.5 L578.2,338.2 L587.3,331.4 L584.9,328.3 L588.4,323.6 L586.9,320.2 L592.5,314.9 L589.1,308.9 L590.2,307.1 L592.4,307.0 L599.6,312.7 L606.2,308.3 L607.8,313.4 L610.6,314.0 L610.1,316.3 L611.0,317.2 L613.7,317.6 L619.4,314.9 L628.4,323.4 L633.9,323.0 L633.1,326.2 L641.5,326.2 L638.6,332.7 L638.8,335.6 L641.5,340.2 L646.0,341.3 L641.5,350.9 L651.5,349.4 L654.2,350.2 L655.3,352.7 L656.4,350.2 L666.9,348.7 L668.0,346.1 L662.2,345.3 L665.9,336.2 L662.9,333.5 L664.3,328.7 L684.5,333.2 L684.8,335.4 L690.1,338.2 L689.2,362.5 L689.9,365.4 L693.5,366.2 L691.2,368.8 L691.9,371.7 L692.1,372.3 L691.7,380.3 L691.7,380.3 L690.3,379.6 L689.2,377.7 L688.7,375.2 L687.6,374.0 L685.1,376.1 L681.5,376.4 L680.1,378.9 L679.4,382.5 L678.1,386.2 L675.6,388.8 L669.5,391.9 L666.7,394.4 L666.1,396.1 L665.8,400.4 L665.4,402.1 L664.4,403.6 L661.9,405.8 L660.9,407.4 L661.1,410.4 L661.1,412.9 L660.7,415.0 L659.5,416.3 L656.1,417.8 L655.1,419.2 L654.9,422.8 L656.1,424.2 L656.8,425.7 L654.9,429.3 L653.6,430.6 L651.1,431.2 L649.9,432.0 L648.6,433.7 L648.0,435.1 L647.6,436.4 L647.0,438.1 L641.2,448.3 L640.5,450.8 L642.5,451.7 L646.2,454.6 L647.7,456.9 L643.4,456.5 L643.4,458.0 L643.1,458.8 L642.8,459.4 L642.5,460.3 L644.1,461.9 L642.1,463.2 L641.4,465.7 L641.7,468.8 L642.7,472.1 L644.4,475.1 L646.1,475.9 L647.9,476.3 L650.0,477.6 L651.1,479.3 L655.0,487.2 L655.3,488.4 L655.6,492.0 L655.6,492.6 L656.6,493.5 L658.9,494.2 L659.9,494.8 L660.9,495.0 L661.9,494.6 L663.0,494.7 L664.0,496.3 L664.0,496.9 L664.2,498.3 L663.6,499.3 L662.8,500.3 L662.5,501.7 L662.4,503.4 L661.9,504.3 L661.7,505.2 L662.3,507.1 L663.4,508.0 L666.7,508.4 L667.9,509.4 L668.9,513.2 L667.9,515.4 L666.3,517.0 L665.0,518.6 L662.8,524.6 L661.5,527.3 L659.7,529.1 L662.5,530.7 L660.9,534.7 L657.1,538.9 L653.1,540.9 L651.2,540.4 L647.5,538.1 L645.8,537.8 L644.0,538.8 L641.8,541.7 L639.8,542.6 L636.2,542.0 L632.6,540.2 L628.9,539.3 L624.7,541.4 L622.7,544.2 L622.4,546.1 L621.8,547.2 L619.4,547.5 L617.9,547.1 L612.7,544.6 L609.6,546.0 L605.4,549.4 L601.1,552.0 L597.5,551.0 L596.5,548.7 L596.7,546.4 L597.2,543.9 L597.2,541.2 L596.5,538.8 L588.5,523.9 L586.7,522.3 L585.4,521.1 L580.3,519.1 L578.4,518.0 L577.4,517.8 L576.8,518.5 L576.1,519.9 L575.2,521.3 L574.0,521.6 L571.2,521.1 L570.4,520.1 L570.0,517.7 L570.5,513.9 L571.9,513.1 L572.6,512.1 L571.5,508.2 L568.3,504.2 L564.8,500.6 L561.2,500.7 L553.7,502.9 Z" fill="#d9dee3" stroke="#7c8794" stroke-width="1.2" fill-rule="evenodd" stroke-linejoin="round"/>
      <path d="M694.3,381.0 L692.5,380.7 L691.7,380.3 L691.7,380.3 L692.1,372.3 L691.9,371.7 L691.2,368.8 L693.5,366.2 L689.9,365.4 L689.2,362.5 L690.1,338.2 L684.8,335.4 L684.5,333.2 L664.3,328.7 L662.9,333.5 L665.9,336.2 L662.2,345.3 L668.0,346.1 L666.9,348.7 L656.4,350.2 L655.3,352.7 L654.2,350.2 L651.5,349.4 L641.5,350.9 L646.0,341.3 L641.5,340.2 L638.8,335.6 L638.6,332.7 L641.5,326.2 L633.1,326.2 L633.9,323.0 L628.4,323.4 L619.4,314.9 L613.7,317.6 L611.0,317.2 L610.1,316.3 L610.6,314.0 L607.8,313.4 L606.2,308.3 L599.6,312.7 L592.4,307.0 L590.2,307.1 L589.1,308.9 L592.5,314.9 L586.9,320.2 L579.9,317.8 L570.8,323.9 L568.5,320.7 L568.6,315.9 L560.4,313.6 L558.4,310.2 L561.0,305.1 L557.9,298.1 L554.3,294.5 L548.7,296.8 L546.8,293.6 L547.6,291.3 L544.4,291.8 L543.2,287.7 L545.5,285.5 L541.5,287.4 L539.2,287.0 L536.7,280.8 L527.5,280.3 L530.6,277.9 L526.3,265.3 L518.2,257.6 L518.8,251.3 L522.0,245.4 L521.8,237.6 L524.5,235.7 L520.4,229.9 L524.3,227.7 L524.9,222.9 L529.0,225.3 L528.9,229.9 L531.6,233.5 L534.1,234.7 L538.5,234.0 L549.6,237.2 L551.7,234.6 L549.9,230.3 L559.8,231.6 L561.0,229.1 L562.2,232.1 L567.5,228.8 L572.8,231.7 L573.6,228.7 L576.9,225.8 L584.6,223.2 L586.8,224.2 L588.9,229.3 L593.3,231.0 L597.0,230.7 L598.4,226.0 L601.6,229.6 L604.3,229.0 L608.8,225.0 L608.5,220.8 L622.8,216.5 L631.0,208.3 L631.9,209.0 L635.5,210.7 L638.1,211.5 L637.8,214.6 L636.1,220.6 L639.1,222.3 L640.9,222.7 L642.7,222.3 L643.5,221.1 L643.9,221.7 L646.4,224.2 L650.7,223.1 L657.7,232.4 L663.7,231.6 L667.7,233.6 L669.1,233.0 L673.0,227.1 L669.8,223.1 L671.7,223.7 L683.7,224.1 L687.1,223.4 L686.8,223.9 L686.7,224.4 L686.7,224.9 L686.9,225.4 L689.7,226.8 L689.8,229.3 L689.2,232.1 L689.8,234.3 L692.0,234.5 L698.6,232.7 L701.4,233.0 L704.6,236.2 L714.7,251.6 L712.5,253.1 L714.4,256.8 L717.8,258.6 L729.3,258.9 L729.7,260.5 L728.5,262.8 L726.6,265.1 L726.6,266.1 L722.9,268.3 L717.7,272.7 L714.6,277.5 L717.4,281.0 L716.1,283.0 L716.3,284.2 L717.6,284.7 L719.6,284.9 L718.3,287.2 L719.6,288.4 L721.0,291.4 L722.3,292.5 L724.0,292.5 L729.6,290.8 L730.0,290.4 L730.4,290.3 L730.8,290.4 L731.1,290.8 L733.7,292.0 L740.9,293.7 L743.9,293.9 L742.1,295.7 L741.6,297.8 L742.1,300.1 L743.0,302.8 L744.5,305.2 L745.6,305.4 L746.3,306.3 L746.2,310.7 L745.0,316.8 L743.8,320.3 L744.0,323.4 L749.8,333.5 L750.0,335.2 L750.2,337.2 L748.1,339.4 L743.7,340.2 L741.4,339.8 L739.5,339.1 L737.7,338.9 L735.4,340.2 L733.8,342.3 L732.7,344.8 L732.3,347.4 L733.1,349.8 L730.0,352.6 L722.9,354.6 L719.4,356.3 L717.8,358.8 L714.0,361.5 L712.3,363.8 L714.5,366.3 L715.5,369.2 L715.4,372.2 L714.4,374.7 L713.1,375.5 L709.8,375.7 L708.4,376.6 L708.1,377.5 L707.5,380.4 L707.2,381.7 L708.8,383.1 L709.4,384.7 L709.0,386.5 L707.4,388.3 L705.0,387.1 L704.6,385.1 L704.8,382.6 L704.1,380.2 L701.9,378.1 L700.6,378.3 L699.6,379.4 L698.1,380.3 L694.3,381.0 Z" fill="#d9dee3" stroke="#7c8794" stroke-width="1.2" fill-rule="evenodd" stroke-linejoin="round"/>
      <path d="M255.6,93.9 L259.4,95.6 L264.8,96.2 L272.6,95.0 L273.1,92.5 L272.7,89.2 L273.0,86.2 L274.8,84.4 L277.2,83.8 L279.9,83.6 L286.5,82.1 L290.6,81.9 L294.9,82.6 L315.2,89.3 L318.3,91.3 L319.2,94.7 L318.9,97.6 L319.2,100.4 L321.7,103.3 L323.7,104.2 L343.4,103.9 L347.1,102.8 L354.7,96.9 L375.3,86.6 L383.5,80.2 L390.1,71.4 L391.0,68.8 L392.2,62.7 L392.3,61.6 L392.4,61.6 L395.6,64.6 L396.9,67.2 L398.1,71.9 L400.8,75.2 L403.8,77.8 L405.9,80.4 L406.5,82.1 L406.7,83.7 L406.3,85.5 L405.2,87.4 L404.5,87.8 L403.5,90.4 L407.0,101.7 L405.6,102.6 L409.6,108.3 L410.5,111.6 L410.9,113.5 L410.1,119.2 L408.0,123.3 L401.4,125.5 L394.7,125.5 L391.4,126.1 L388.4,128.2 L386.3,130.6 L385.8,131.8 L386.0,132.9 L386.2,135.2 L386.7,137.7 L387.6,140.6 L388.2,143.7 L387.3,146.3 L386.9,146.5 L389.0,148.2 L390.8,149.0 L394.1,146.4 L395.5,148.0 L391.6,160.5 L387.8,162.3 L382.4,160.4 L379.9,165.7 L382.2,173.0 L382.1,176.3 L378.3,179.0 L370.7,175.8 L372.2,180.9 L367.8,184.1 L370.2,186.2 L370.0,189.0 L362.2,200.3 L366.5,201.0 L368.0,204.9 L365.5,212.3 L360.6,216.5 L357.7,217.6 L355.4,215.4 L352.6,219.0 L348.2,215.6 L346.2,216.8 L344.1,221.4 L347.5,226.2 L347.3,227.6 L341.9,229.0 L338.1,227.6 L336.3,223.1 L326.9,225.1 L324.7,222.9 L318.1,223.7 L315.3,215.5 L308.1,218.5 L306.3,215.0 L301.6,217.7 L294.8,230.8 L290.1,227.6 L279.2,227.4 L278.1,219.1 L271.4,221.1 L265.4,218.6 L275.7,210.9 L276.2,209.0 L272.3,203.7 L274.5,201.0 L264.2,192.2 L268.1,188.2 L266.8,183.3 L264.2,182.2 L260.3,184.5 L259.0,180.9 L261.2,178.8 L259.9,175.7 L263.8,176.3 L265.0,175.1 L262.5,172.6 L265.8,172.7 L257.8,168.7 L262.9,166.4 L260.1,162.6 L264.4,156.1 L259.5,147.6 L263.1,145.0 L244.3,131.7 L251.6,127.0 L257.5,115.8 L253.6,108.9 L249.1,107.4 L253.1,104.6 L250.3,97.8 L255.8,94.4 L255.6,93.9 Z" fill="#d9dee3" stroke="#7c8794" stroke-width="1.2" fill-rule="evenodd" stroke-linejoin="round"/>
      <path d="M482.5,28.0 L484.9,28.2 L488.0,29.4 L490.7,31.2 L492.5,33.4 L492.8,37.3 L491.8,41.1 L491.0,45.1 L492.2,49.6 L485.0,46.3 L483.1,46.6 L482.2,49.7 L485.7,51.2 L497.3,51.6 L500.4,52.4 L506.8,55.3 L510.4,54.3 L514.6,50.3 L518.4,45.2 L521.0,41.0 L522.2,37.8 L522.7,35.3 L523.7,33.7 L526.3,33.1 L526.8,33.7 L531.7,37.0 L535.0,43.1 L534.4,47.5 L532.6,51.7 L532.0,57.3 L533.0,59.9 L538.8,66.1 L539.6,68.4 L541.3,74.2 L542.1,75.9 L545.0,77.5 L551.4,76.9 L554.5,77.2 L557.4,80.9 L557.5,90.2 L560.4,90.9 L561.5,90.7 L559.5,92.3 L557.7,102.3 L564.5,108.6 L565.0,119.2 L560.8,122.8 L555.5,121.3 L551.7,126.7 L543.4,127.2 L536.6,135.6 L523.3,138.3 L523.3,141.9 L518.5,148.5 L516.2,145.8 L513.1,146.0 L506.7,148.5 L502.2,152.5 L500.2,151.5 L491.6,155.0 L489.4,153.6 L486.6,147.5 L481.2,151.6 L477.5,150.8 L471.0,158.0 L472.9,153.9 L468.4,151.4 L456.3,154.7 L454.1,160.0 L451.6,160.0 L446.3,156.9 L443.3,159.7 L437.7,155.4 L434.6,159.9 L430.9,156.2 L420.8,158.6 L420.0,154.7 L416.9,153.8 L418.5,149.8 L413.3,153.3 L412.3,152.7 L413.4,150.9 L405.2,147.2 L401.2,146.5 L395.5,148.0 L394.1,146.4 L390.8,149.0 L389.0,148.2 L386.9,146.5 L387.3,146.3 L388.2,143.7 L387.6,140.6 L386.7,137.7 L386.2,135.2 L386.0,132.9 L385.8,131.8 L386.3,130.6 L388.4,128.2 L391.4,126.1 L394.7,125.5 L401.4,125.5 L408.0,123.3 L410.1,119.2 L410.9,113.5 L410.5,111.6 L409.6,108.3 L405.6,102.6 L407.0,101.7 L403.5,90.4 L404.5,87.8 L405.2,87.4 L404.8,87.9 L406.8,86.9 L408.1,85.5 L410.5,80.4 L404.9,78.0 L403.6,77.0 L403.0,74.7 L403.1,69.0 L402.6,66.3 L401.3,64.2 L398.9,61.2 L402.2,61.3 L403.7,61.4 L409.7,64.6 L413.0,65.7 L420.7,66.2 L423.9,64.5 L424.7,60.0 L423.7,57.4 L419.9,53.1 L418.7,50.7 L418.8,48.1 L419.9,46.0 L420.2,44.1 L418.2,42.0 L426.9,37.0 L435.8,33.7 L440.7,32.9 L442.8,33.3 L444.1,35.5 L443.9,39.9 L442.5,43.1 L442.2,45.7 L445.4,47.9 L447.6,48.1 L452.4,47.3 L457.7,48.6 L460.2,48.4 L462.5,47.6 L464.2,46.3 L477.0,30.8 L482.5,28.0 Z" fill="#d9dee3" stroke="#7c8794" stroke-width="1.2" fill-rule="evenodd" stroke-linejoin="round"/>
      <path d="M613.4,101.2 L616.2,103.6 L625.6,106.4 L627.8,108.0 L629.4,109.8 L631.2,111.1 L634.1,111.0 L641.1,109.6 L643.2,109.8 L645.9,111.4 L649.4,116.2 L651.6,118.0 L656.7,116.8 L659.5,117.0 L661.0,120.3 L661.4,121.6 L659.1,123.9 L658.5,126.9 L662.3,130.9 L660.8,131.9 L659.1,132.6 L657.3,132.8 L655.5,132.6 L655.9,134.5 L656.2,135.3 L656.6,136.4 L655.4,140.0 L654.5,141.8 L653.2,143.5 L651.3,141.9 L649.9,142.7 L649.1,145.3 L648.7,148.7 L650.9,151.8 L648.3,158.2 L641.8,168.6 L645.5,167.6 L647.1,167.6 L648.7,168.6 L646.8,171.8 L643.9,177.9 L641.8,181.1 L641.0,181.7 L639.1,182.4 L637.1,183.2 L625.1,196.5 L625.5,202.4 L628.2,206.4 L631.0,208.3 L622.8,216.5 L608.5,220.8 L608.8,225.0 L604.3,229.0 L601.6,229.6 L598.4,226.0 L597.0,230.7 L593.3,231.0 L588.9,229.3 L586.8,224.2 L584.6,223.2 L576.9,225.8 L573.6,228.7 L572.8,231.7 L567.5,228.8 L562.2,232.1 L561.0,229.1 L559.8,231.6 L549.9,230.3 L551.7,234.6 L549.6,237.2 L538.5,234.0 L541.7,227.1 L538.5,225.2 L540.8,219.9 L539.4,215.0 L546.9,207.3 L543.2,206.0 L544.4,197.2 L547.2,189.5 L550.4,190.6 L551.2,189.7 L552.7,182.5 L550.2,180.4 L544.4,180.3 L543.8,178.2 L537.4,181.3 L534.6,178.2 L531.9,179.4 L530.8,178.6 L528.6,172.9 L535.3,166.9 L535.4,161.2 L542.4,158.0 L541.3,151.8 L543.0,151.4 L543.8,153.5 L548.0,151.8 L543.5,146.0 L539.8,144.4 L535.2,145.0 L535.2,151.5 L532.2,153.4 L528.8,151.3 L525.4,152.5 L522.8,147.4 L518.5,148.5 L523.3,141.9 L523.3,138.3 L536.6,135.6 L543.4,127.2 L551.7,126.7 L555.5,121.3 L560.8,122.8 L565.0,119.2 L564.5,108.6 L557.7,102.3 L559.5,92.3 L561.5,90.7 L566.7,89.4 L586.4,90.2 L589.8,88.9 L596.8,84.1 L600.1,82.5 L603.7,82.9 L607.6,85.4 L610.7,89.3 L611.8,94.4 L612.4,100.4 L613.4,101.2 Z M646.8,217.3 L648.4,217.9 L651.8,221.7 L653.5,222.9 L667.9,222.5 L669.8,223.1 L673.0,227.1 L669.1,233.0 L667.7,233.6 L663.7,231.6 L657.7,232.4 L650.7,223.1 L646.4,224.2 L643.9,221.7 L643.5,221.1 L645.3,218.4 L646.8,217.3 Z" fill="#d9dee3" stroke="#7c8794" stroke-width="1.2" fill-rule="evenodd" stroke-linejoin="round"/>
      <path d="M435.2,211.5 L421.7,218.8 L418.2,219.6 L414.6,218.9 L410.0,215.8 L405.6,206.5 L402.6,208.1 L396.3,204.7 L398.3,200.7 L402.5,199.9 L403.6,195.5 L401.9,192.6 L405.0,186.4 L411.1,183.3 L418.2,184.5 L422.5,180.3 L425.4,182.5 L428.0,186.9 L427.9,189.5 L425.3,192.1 L432.0,196.4 L434.6,204.7 L431.1,205.1 L429.7,207.4 L435.2,211.5 Z" fill="#d7d0c8" stroke="#81766f" stroke-width="1.2" fill-rule="evenodd" stroke-linejoin="round"/>
      <path d="M372.1,234.6 L367.6,233.1 L365.2,237.6 L364.1,235.8 L360.2,237.8 L357.0,236.8 L353.7,239.5 L343.6,239.2 L340.0,237.9 L337.7,234.8 L336.9,231.9 L338.1,227.6 L341.9,229.0 L347.3,227.6 L347.5,226.2 L344.1,221.4 L346.2,216.8 L348.2,215.6 L352.6,219.0 L355.4,215.4 L357.7,217.6 L360.6,216.5 L365.5,212.3 L368.0,204.9 L366.5,201.0 L362.2,200.3 L370.0,189.0 L370.2,186.2 L367.8,184.1 L372.2,180.9 L370.7,175.8 L378.3,179.0 L382.1,176.3 L382.2,173.0 L379.9,165.7 L382.4,160.4 L387.8,162.3 L391.6,160.5 L395.5,148.0 L401.2,146.5 L405.2,147.2 L413.4,150.9 L412.3,152.7 L413.3,153.3 L418.5,149.8 L416.9,153.8 L420.0,154.7 L420.8,158.6 L430.9,156.2 L434.6,159.9 L437.7,155.4 L443.3,159.7 L446.3,156.9 L451.6,160.0 L454.1,160.0 L456.3,154.7 L468.4,151.4 L472.9,153.9 L471.0,158.0 L477.5,150.8 L481.2,151.6 L486.6,147.5 L489.4,153.6 L491.6,155.0 L500.2,151.5 L502.2,152.5 L506.7,148.5 L513.1,146.0 L516.2,145.8 L518.5,148.5 L522.8,147.4 L525.4,152.5 L528.8,151.3 L532.2,153.4 L535.2,151.5 L535.2,145.0 L539.8,144.4 L543.5,146.0 L548.0,151.8 L543.8,153.5 L543.0,151.4 L541.3,151.8 L542.4,158.0 L535.4,161.2 L535.3,166.9 L528.6,172.9 L530.8,178.6 L531.9,179.4 L534.6,178.2 L537.4,181.3 L543.8,178.2 L544.4,180.3 L550.2,180.4 L552.7,182.5 L551.2,189.7 L550.4,190.6 L547.2,189.5 L544.4,197.2 L543.2,206.0 L546.9,207.3 L539.4,215.0 L540.8,219.9 L538.5,225.2 L541.7,227.1 L538.5,234.0 L534.1,234.7 L531.6,233.5 L528.9,229.9 L529.0,225.3 L524.9,222.9 L518.6,217.9 L510.5,224.4 L508.0,224.8 L505.9,223.0 L506.4,218.3 L493.9,219.6 L494.6,216.7 L490.6,216.4 L487.1,210.5 L480.1,208.1 L475.7,209.6 L474.2,213.0 L473.6,211.0 L470.6,212.7 L462.0,210.4 L461.3,217.1 L464.3,221.2 L461.1,225.0 L455.5,225.3 L454.7,219.6 L450.7,223.8 L443.5,225.6 L443.1,228.8 L437.8,225.8 L437.0,224.4 L437.7,221.4 L435.3,221.1 L431.6,222.2 L425.6,226.9 L417.6,228.2 L416.7,232.1 L413.5,231.9 L410.3,227.5 L409.1,228.9 L410.9,231.5 L407.3,231.6 L406.8,235.6 L405.7,237.0 L403.3,237.8 L398.7,236.2 L395.4,238.6 L390.0,234.1 L385.5,234.2 L381.9,229.2 L380.3,228.6 L378.6,229.2 L377.4,232.1 L373.4,232.0 L372.1,234.6 Z M435.2,211.5 L429.7,207.4 L431.1,205.1 L434.6,204.7 L432.0,196.4 L425.3,192.1 L427.9,189.5 L428.0,186.9 L425.4,182.5 L422.5,180.3 L418.2,184.5 L411.1,183.3 L405.0,186.4 L401.9,192.6 L403.6,195.5 L402.5,199.9 L398.3,200.7 L396.3,204.7 L402.6,208.1 L405.6,206.5 L410.0,215.8 L414.6,218.9 L418.2,219.6 L421.7,218.8 L435.2,211.5 Z" fill="#d9dee3" stroke="#7c8794" stroke-width="1.2" fill-rule="evenodd" stroke-linejoin="round"/>
      <path d="M372.1,234.6 L373.4,232.0 L377.4,232.1 L378.6,229.2 L380.3,228.6 L381.9,229.2 L385.5,234.2 L390.0,234.1 L395.4,238.6 L398.7,236.2 L403.3,237.8 L405.7,237.0 L406.8,235.6 L407.3,231.6 L410.9,231.5 L409.1,228.9 L410.3,227.5 L413.5,231.9 L416.7,232.1 L417.6,228.2 L425.6,226.9 L431.6,222.2 L435.3,221.1 L437.7,221.4 L437.0,224.4 L437.8,225.8 L443.1,228.8 L443.5,225.6 L450.7,223.8 L454.7,219.6 L455.5,225.3 L461.1,225.0 L464.3,221.2 L461.3,217.1 L462.0,210.4 L470.6,212.7 L473.6,211.0 L474.2,213.0 L475.7,209.6 L480.1,208.1 L487.1,210.5 L490.6,216.4 L494.6,216.7 L493.9,219.6 L506.4,218.3 L505.9,223.0 L508.0,224.8 L510.5,224.4 L518.6,217.9 L524.9,222.9 L524.3,227.7 L520.4,229.9 L524.5,235.7 L521.8,237.6 L522.0,245.4 L518.8,251.3 L513.5,250.1 L509.7,255.3 L505.3,254.9 L505.2,256.5 L487.3,261.2 L486.5,262.0 L487.1,265.1 L485.3,262.3 L478.6,264.9 L477.5,259.6 L473.2,260.8 L472.5,263.7 L467.8,260.5 L466.2,260.5 L464.4,263.6 L466.3,271.7 L462.6,272.6 L456.5,270.4 L453.6,270.8 L450.8,273.1 L451.4,277.5 L441.4,281.8 L438.9,280.7 L439.1,278.2 L433.6,281.1 L434.1,274.6 L433.3,273.3 L425.8,273.3 L424.1,271.5 L414.7,272.5 L410.5,277.2 L411.0,270.5 L406.1,271.0 L401.9,264.5 L396.5,263.4 L397.4,257.9 L388.5,255.7 L389.4,250.2 L386.2,246.0 L384.3,246.7 L379.1,253.9 L375.2,254.5 L372.3,253.3 L370.7,248.6 L370.5,239.0 L371.2,235.6 L374.2,234.7 L372.1,234.6 Z" fill="#d9dee3" stroke="#7c8794" stroke-width="1.2" fill-rule="evenodd" stroke-linejoin="round"/>
  </g>
</svg>
